<?xml version="1.0" encoding="utf-8"?>
<!-- Generator: Adobe Illustrator 25.4.1, SVG Export Plug-In . SVG Version: 6.00 Build 0)  -->
<svg version="1.1" id="Layer_1" xmlns="http://www.w3.org/2000/svg" xmlns:xlink="http://www.w3.org/1999/xlink" x="0px" y="0px"
	 viewBox="0 0 600 454.4" style="enable-background:new 0 0 600 454.4;" xml:space="preserve">
<style type="text/css">
	.st0{clip-path:url(#SVGID_00000109002637916709230400000016293902268939008431_);}
	.st1{fill:#FFFFFF;}
	.st2{fill:#EDEEF2;}
	.st3{fill:#0D0D0D;}
	.st4{fill:#F6F7FB;}
	.st5{clip-path:url(#SVGID_00000178923625829613343000000011660931226135716768_);}
	.st6{fill:#D8DBE6;}
	.st7{fill:#737373;}
	.st8{fill:#FF0025;}
	.st9{fill-rule:evenodd;clip-rule:evenodd;fill:#A1A3AB;}
	.st10{fill:#A1A3AB;}
	.st11{clip-path:url(#SVGID_00000005232161304882028700000006165896491015700877_);}
	.st12{clip-path:url(#SVGID_00000015321085690168100670000012862038768585221551_);}
</style>
<g>
	<defs>
		<path id="SVGID_1_" d="M12.8,0h574.4c7.1,0,12.8,5.7,12.8,12.8v428.8c0,7.1-5.7,12.8-12.8,12.8H12.8c-7.1,0-12.8-5.7-12.8-12.8
			V12.8C0,5.7,5.7,0,12.8,0z"/>
	</defs>
	<clipPath id="SVGID_00000023246470757362037700000016392610327570345612_">
		<use xlink:href="#SVGID_1_"  style="overflow:visible;"/>
	</clipPath>
	<g style="clip-path:url(#SVGID_00000023246470757362037700000016392610327570345612_);">
		<path class="st1" d="M12.8,0h574.4c7.1,0,12.8,5.7,12.8,12.8v428.8c0,7.1-5.7,12.8-12.8,12.8H12.8c-7.1,0-12.8-5.7-12.8-12.8V12.8
			C0,5.7,5.7,0,12.8,0z"/>
		<rect class="st2" width="600" height="64"/>
		<path class="st1" d="M542.4,19.2H568c3.5,0,6.4,2.9,6.4,6.4v12.8c0,3.5-2.9,6.4-6.4,6.4h-25.6c-3.5,0-6.4-2.9-6.4-6.4V25.6
			C536,22.1,538.9,19.2,542.4,19.2z"/>
		<path class="st3" d="M550.6,27.4v-1.8h-7v2.1h4.4l-2.2,2.9l0.8,1.3h0.5c1.1,0,1.8,0.6,1.8,1.5c0,0.9-0.7,1.5-1.8,1.5
			c-0.9,0.1-1.7-0.4-2-1.3l-1.9,1.1c0.6,1.5,2.2,2.5,3.8,2.4c1,0,2-0.3,2.8-1c1.4-1.3,1.6-3.4,0.3-4.8c-0.5-0.5-1-0.9-1.7-1.1
			L550.6,27.4z"/>
		<path class="st3" d="M563.1,34.5l-3.1-3.1l-3.1,3.1l-0.9-0.9l4-4l4,4L563.1,34.5z"/>
		<path class="st3" d="M27.1,22.7v15.7h3.1v-5.2h2.8c1.4,0,2.8-0.5,3.8-1.5c2.1-2.1,2.1-5.4,0-7.5c-1-1-2.4-1.6-3.8-1.5L27.1,22.7z
			 M30.1,30.4v-4.7h2.8c1.3,0.1,2.3,1.2,2.3,2.5c0,1.2-1,2.2-2.3,2.3L30.1,30.4z M48.9,37c2.3-2.3,2.3-6.1-0.1-8.4
			c-2.3-2.3-6.1-2.3-8.4,0c-2.3,2.4-2.2,6.1,0.1,8.4C42.9,39.3,46.6,39.3,48.9,37z M42.5,35c-1.1-1.3-1.1-3.2,0-4.4
			c1.2-1.2,3.1-1.2,4.3,0c1.2,1.2,1.2,3.2,0,4.4C45.7,36.2,43.8,36.2,42.5,35z M58,38.7c2.1,0,4-1.1,5.1-2.9l-2.5-1.4
			c-0.5,1-1.5,1.5-2.6,1.5c-0.8,0-1.6-0.3-2.2-0.9c-0.6-0.6-0.9-1.4-0.9-2.2c-0.1-1.6,1.2-3,2.8-3.1c0.1,0,0.1,0,0.2,0
			c1.1,0,2.1,0.5,2.6,1.5l2.5-1.5c-1-1.8-2.9-2.9-5-2.9c-3.3,0-5.9,2.7-5.9,6c0,1.5,0.6,3,1.7,4.1C54.9,38.1,56.4,38.8,58,38.7z
			 M69.8,38.7c2.1,0,4-1.1,5.1-2.9l-2.5-1.4c-0.5,1-1.5,1.5-2.6,1.5c-0.8,0-1.6-0.3-2.2-0.9c-0.6-0.6-0.9-1.4-0.9-2.2
			c-0.1-1.6,1.2-3,2.8-3.1c0.1,0,0.1,0,0.2,0c1.1,0,2.1,0.5,2.6,1.5l2.5-1.5c-1-1.8-2.9-2.9-5-2.9c-3.3,0-5.9,2.7-5.9,6
			c0,1.5,0.6,3,1.7,4.1C66.7,38.1,68.2,38.8,69.8,38.7z M79.3,33.6v-6.4h-2.8v11.2h2.2l5.3-6.4v6.4h2.8V27.2h-2.2L79.3,33.6z
			 M93.1,27.2c-1.1,0-2.2,0.4-2.9,1.1C89.4,29.1,89,30,89,31.1c0,1.5,0.9,2.9,2.4,3.5l-2.8,3.8h3.3l2.6-3.5h1v3.5h2.8V27.2H93.1z
			 M95.5,29.8v2.7h-2.2c-0.7,0.1-1.4-0.5-1.5-1.2c0,0,0-0.1,0-0.1c0-0.7,0.6-1.4,1.3-1.4c0,0,0.1,0,0.1,0H95.5z M104,38.1
			c0.7-0.7,0.7-1.9,0-2.7s-1.9-0.7-2.7,0c-0.7,0.7-0.7,1.9,0,2.7C102,38.9,103.2,38.9,104,38.1L104,38.1z M112.7,22.7v15.7h3.1V25.7
			h5.5v12.7h3.1V22.7H112.7z M133.7,26.9c-1.4-0.1-2.8,0.5-3.6,1.6v-1.3h-2.9v15.7h2.9v-5.8c0.9,1.1,2.2,1.7,3.6,1.6
			c1.5,0,2.9-0.6,3.9-1.7c2.2-2.4,2.2-6,0-8.4C136.6,27.5,135.2,26.9,133.7,26.9z M130.9,35.1c-0.6-0.6-0.9-1.4-0.9-2.3
			c0-0.8,0.3-1.7,0.9-2.3c1.2-1.2,3.2-1.2,4.4,0c0.6,0.6,0.9,1.4,0.9,2.3c0,0.9-0.3,1.7-0.9,2.3C134.1,36.2,132.2,36.2,130.9,35.1z
			 M152.1,34c0.1-0.4,0.1-0.8,0.1-1.2c0-1.6-0.5-3.1-1.6-4.2c-1-1.1-2.5-1.8-4.1-1.7c-1.6-0.1-3.1,0.6-4.3,1.7
			c-2.2,2.4-2.2,6.1,0,8.4c1.2,1.1,2.8,1.8,4.5,1.7c1.9,0.1,3.8-0.8,4.9-2.4l-2.3-1.3c-0.6,0.8-1.5,1.2-2.5,1.1
			c-1.7,0-2.8-0.7-3.2-2.1H152.1z M143.6,31.7c0.3-1.4,1.5-2.4,2.9-2.3c1.4-0.1,2.6,0.9,2.8,2.3H143.6z M163,27.2l-3,4.7l-3-4.7
			h-2.8v11.2h2.8v-6.6l2.9,4.5h0.4l2.8-4.5v6.5h2.8V27.2H163z M171.4,30.8v-3.6h-2.9v11.2h5.1c2.5,0,4.2-1.5,4.2-3.8
			s-1.7-3.8-4.2-3.8L171.4,30.8z M171.4,35.8v-2.5h2.2c0.7-0.1,1.3,0.5,1.4,1.2c0,0,0,0.1,0,0.1c0,0.7-0.6,1.3-1.3,1.3
			c0,0-0.1,0-0.1,0L171.4,35.8z M190.4,34c0.1-0.4,0.1-0.8,0.1-1.2c0-1.6-0.5-3.1-1.6-4.2c-1-1.1-2.5-1.8-4.1-1.7
			c-1.6-0.1-3.1,0.6-4.3,1.7c-2.2,2.4-2.2,6.1,0,8.4c1.2,1.1,2.8,1.8,4.5,1.7c1.9,0.1,3.8-0.8,4.9-2.4l-2.3-1.3
			c-0.6,0.8-1.5,1.2-2.5,1.1c-1.7,0-2.8-0.7-3.2-2.1H190.4z M181.9,31.7c0.3-1.4,1.5-2.4,2.9-2.3c1.4-0.1,2.6,0.9,2.8,2.3H181.9z
			 M199,26.9c-1.4-0.1-2.8,0.5-3.6,1.6v-1.3h-2.9v15.7h2.9v-5.8c0.9,1.1,2.2,1.7,3.6,1.6c1.5,0,2.9-0.6,3.9-1.7c2.2-2.4,2.2-6,0-8.4
			C201.9,27.5,200.5,26.9,199,26.9z M196.3,35.1c-0.6-0.6-0.9-1.4-0.9-2.3c0-0.8,0.3-1.7,0.9-2.3c1.2-1.2,3.2-1.2,4.4,0
			c0.6,0.6,0.9,1.4,0.9,2.3c0,0.9-0.3,1.7-0.9,2.3C199.5,36.2,197.5,36.2,196.3,35.1L196.3,35.1z M215.1,33v-2.8h-8.4V33H215.1z
			 M217.7,27.2v6.4c0,1.7-0.6,2.4-1.8,2.1v2.7c3.2,0.3,4.7-1.2,4.7-4.7V30h3.1v8.4h2.9V27.2H217.7z M232,33.6v-6.4h-2.8v11.2h2.1
			l5.3-6.4v6.4h2.8V27.2h-2.1L232,33.6z M242.1,27.2v11.2h2.9V30h4.8v-2.8H242.1z M259.3,28.5c-0.9-1.1-2.2-1.7-3.7-1.6
			c-1.5,0-2.9,0.6-3.9,1.7c-2.1,2.4-2.1,6,0,8.4c1,1.1,2.4,1.7,3.9,1.7c1.4,0.1,2.8-0.5,3.7-1.6v1.3h2.9V27.2h-2.9V28.5z M254,35.1
			c-0.6-0.6-0.9-1.4-0.9-2.3c0-0.8,0.3-1.7,0.9-2.3c1.2-1.2,3.2-1.2,4.4,0c0.6,0.6,0.9,1.4,0.9,2.3c0,0.9-0.3,1.7-0.9,2.3
			C257.2,36.2,255.3,36.2,254,35.1L254,35.1z"/>
		<rect y="62.4" class="st1" width="600" height="1.6"/>
		<rect y="64" class="st4" width="600" height="128"/>
		<g>
			<defs>
				<rect id="SVGID_00000022521957740141113110000018334557047402819462_" x="268.8" y="76.8" width="331.2" height="102.4"/>
			</defs>
			<clipPath id="SVGID_00000026876896245729881210000012088628491919646907_">
				<use xlink:href="#SVGID_00000022521957740141113110000018334557047402819462_"  style="overflow:visible;"/>
			</clipPath>
			<g style="clip-path:url(#SVGID_00000026876896245729881210000012088628491919646907_);">
				<path class="st6" d="M281.6,76.8h76.8c7.1,0,12.8,5.7,12.8,12.8v76.8c0,7.1-5.7,12.8-12.8,12.8h-76.8c-7.1,0-12.8-5.7-12.8-12.8
					V89.6C268.8,82.5,274.5,76.8,281.6,76.8z"/>
				<path class="st3" d="M319.8,115.2h-1.6V105h-5.7v10.2h-1.6v-11.5h8.8V115.2z M329.4,114.1v1.1h-6.1v-1.1h2.5v-7.8
					c0-0.2,0-0.5,0-0.7l-2,1.8c-0.1,0.1-0.1,0.1-0.2,0.1c-0.1,0-0.1,0-0.2,0c-0.1,0-0.1,0-0.2-0.1c0,0-0.1-0.1-0.1-0.1l-0.4-0.6
					l3.4-3h1.2v10.4H329.4z"/>
				<path class="st6" d="M387.2,76.8H464c7.1,0,12.8,5.7,12.8,12.8v76.8c0,7.1-5.7,12.8-12.8,12.8h-76.8c-7.1,0-12.8-5.7-12.8-12.8
					V89.6C374.4,82.5,380.1,76.8,387.2,76.8z"/>
				<path class="st3" d="M430.6,115.2h-1.5c-0.1,0-0.2,0-0.3-0.1c-0.1-0.1-0.1-0.1-0.2-0.2l-3.1-4.8c0,0.1-0.1,0.2-0.1,0.3l-3,4.5
					c-0.1,0.1-0.1,0.1-0.2,0.2c-0.1,0.1-0.2,0.1-0.2,0.1h-1.4l3.9-5.9l-3.8-5.6h1.5c0.1,0,0.2,0,0.2,0.1c0.1,0,0.1,0.1,0.1,0.2
					l3,4.6c0-0.1,0.1-0.3,0.2-0.4l2.8-4.2c0-0.1,0.1-0.1,0.2-0.2c0.1,0,0.1-0.1,0.2-0.1h1.5l-3.8,5.5L430.6,115.2z"/>
				<path class="st6" d="M492.8,76.8h76.8c7.1,0,12.8,5.7,12.8,12.8v76.8c0,7.1-5.7,12.8-12.8,12.8h-76.8c-7.1,0-12.8-5.7-12.8-12.8
					V89.6C480,82.5,485.7,76.8,492.8,76.8z"/>
				<path class="st3" d="M531,115.2h-1.6V105h-5.7v10.2h-1.6v-11.5h8.8V115.2z M540.3,113.8c0.1,0,0.3,0,0.4,0.1
					c0.1,0.1,0.1,0.2,0.1,0.4v0.9h-7.6v-0.5c0-0.1,0-0.2,0.1-0.3c0-0.1,0.1-0.2,0.2-0.3l3.7-3.7c0.3-0.3,0.6-0.6,0.8-0.9
					c0.2-0.3,0.5-0.6,0.6-0.9c0.2-0.3,0.3-0.6,0.4-0.9c0.1-0.3,0.1-0.6,0.1-1c0-0.3,0-0.6-0.2-0.9c-0.1-0.2-0.2-0.5-0.4-0.6
					c-0.2-0.2-0.4-0.3-0.6-0.4c-0.3-0.1-0.5-0.1-0.8-0.1c-0.3,0-0.5,0-0.8,0.1c-0.2,0.1-0.5,0.2-0.7,0.4c-0.2,0.2-0.3,0.3-0.5,0.5
					c-0.1,0.2-0.2,0.4-0.3,0.7c0,0.2-0.1,0.3-0.3,0.4c-0.1,0.1-0.3,0.1-0.5,0l-0.7-0.1c0.1-0.5,0.2-1,0.4-1.4
					c0.4-0.8,1.1-1.4,1.9-1.6c0.9-0.3,1.8-0.3,2.7,0c0.4,0.1,0.8,0.3,1.1,0.6c0.3,0.3,0.6,0.6,0.7,1c0.2,0.4,0.3,0.9,0.3,1.3
					c0,0.4-0.1,0.8-0.2,1.2c-0.1,0.4-0.3,0.7-0.5,1c-0.2,0.3-0.5,0.7-0.8,1c-0.3,0.3-0.6,0.6-0.9,1l-3,3.1c0.2-0.1,0.4-0.1,0.6-0.1
					c0.2,0,0.4-0.1,0.6-0.1L540.3,113.8z"/>
				<path class="st6" d="M598.4,76.8H728c7.1,0,12.8,5.7,12.8,12.8v76.8c0,7.1-5.7,12.8-12.8,12.8H598.4c-7.1,0-12.8-5.7-12.8-12.8
					V89.6C585.6,82.5,591.3,76.8,598.4,76.8z"/>
			</g>
		</g>
		<path class="st7" d="M253.9,97.1c0,1.1-0.1,2.1-0.4,3.2c-0.2,0.8-0.6,1.5-1.1,2.2c-0.4,0.6-1,1-1.6,1.3c-1.3,0.6-2.7,0.6-4,0
			c-0.6-0.3-1.2-0.7-1.6-1.3c-0.5-0.7-0.9-1.4-1.1-2.2c-0.5-2.1-0.5-4.2,0-6.3c0.2-0.8,0.6-1.5,1.1-2.2c0.4-0.6,1-1,1.6-1.3
			c1.3-0.6,2.7-0.6,4,0c0.6,0.3,1.2,0.7,1.6,1.3c0.5,0.7,0.9,1.4,1.1,2.2C253.7,94.9,253.9,96,253.9,97.1z M251.4,97.1
			c0-0.8-0.1-1.7-0.2-2.5c-0.1-0.6-0.3-1.1-0.6-1.6c-0.2-0.3-0.5-0.6-0.8-0.8c-0.6-0.3-1.4-0.3-2,0c-0.3,0.2-0.6,0.5-0.8,0.8
			c-0.3,0.5-0.5,1-0.6,1.6c-0.3,1.7-0.3,3.3,0,5c0.1,0.6,0.3,1.1,0.6,1.6c0.2,0.3,0.5,0.6,0.8,0.8c0.6,0.3,1.4,0.3,2,0
			c0.4-0.2,0.6-0.5,0.8-0.8c0.3-0.5,0.5-1,0.6-1.6C251.3,98.7,251.4,97.9,251.4,97.1z"/>
		<path class="st7" d="M253.9,129.1c0,1.1-0.1,2.1-0.4,3.2c-0.2,0.8-0.6,1.5-1.1,2.2c-0.4,0.6-1,1-1.6,1.3c-1.3,0.6-2.7,0.6-4,0
			c-0.6-0.3-1.2-0.7-1.6-1.3c-0.5-0.7-0.9-1.4-1.1-2.2c-0.5-2.1-0.5-4.2,0-6.3c0.2-0.8,0.6-1.5,1.1-2.2c0.4-0.6,1-1,1.6-1.3
			c1.3-0.6,2.7-0.6,4,0c0.6,0.3,1.2,0.7,1.6,1.3c0.5,0.7,0.9,1.4,1.1,2.2C253.7,126.9,253.9,128,253.9,129.1z M251.4,129.1
			c0-0.8-0.1-1.7-0.2-2.5c-0.1-0.6-0.3-1.1-0.6-1.6c-0.2-0.3-0.5-0.6-0.8-0.8c-0.6-0.3-1.4-0.3-2,0c-0.3,0.2-0.6,0.5-0.8,0.8
			c-0.3,0.5-0.5,1-0.6,1.6c-0.3,1.7-0.3,3.3,0,5c0.1,0.6,0.3,1.1,0.6,1.6c0.2,0.3,0.5,0.6,0.8,0.8c0.6,0.3,1.4,0.3,2,0
			c0.4-0.2,0.6-0.5,0.8-0.8c0.3-0.5,0.5-1,0.6-1.6C251.3,130.7,251.4,129.9,251.4,129.1z"/>
		<path class="st3" d="M33.2,101.1c2.4,0,4.5-1.2,5.8-3.2l-2.3-1.3c-0.7,1.2-2.1,2-3.5,1.9c-1.2,0.1-2.3-0.4-3.2-1.2
			c-1.6-1.8-1.6-4.5,0-6.4c0.8-0.8,2-1.3,3.2-1.2c1.4-0.1,2.8,0.7,3.5,1.9l2.3-1.3c-2.1-3.2-6.5-4.1-9.7-2c-0.4,0.3-0.7,0.5-1.1,0.9
			c-2.7,2.7-2.8,7.1-0.1,9.9C29.5,100.3,31.3,101.1,33.2,101.1L33.2,101.1z M40.7,91.2v9.6h2.5v-7.3H47v7.3h2.5v-9.6H40.7z M59,92.3
			c-0.8-0.9-1.9-1.5-3.1-1.4c-1.3,0-2.5,0.5-3.3,1.5c-1.8,2.1-1.8,5.1,0,7.2c0.8,0.9,2,1.5,3.3,1.5c1.2,0.1,2.4-0.5,3.1-1.4v1.1h2.5
			v-9.6H59L59,92.3z M54.4,98c-0.5-0.5-0.8-1.2-0.7-2c0-0.7,0.2-1.4,0.7-1.9c1.1-1,2.7-1,3.8,0c0.5,0.5,0.8,1.2,0.8,1.9
			c0,0.7-0.3,1.4-0.8,2C57.2,99,55.5,99,54.4,98L54.4,98z M69.3,90.9c-1.2-0.1-2.4,0.5-3.1,1.4v-1.1h-2.5v13.4h2.5v-5
			c0.7,0.9,1.9,1.5,3.1,1.4c1.3,0,2.5-0.5,3.3-1.5c1.8-2,1.8-5.2,0-7.2C71.8,91.5,70.6,90.9,69.3,90.9L69.3,90.9z M67,98
			c-0.5-0.5-0.8-1.2-0.7-2c0-0.7,0.2-1.4,0.7-1.9c1.1-1,2.7-1,3.8,0c0.5,0.5,0.8,1.2,0.8,1.9c0,0.7-0.3,1.4-0.8,2
			C69.7,99,68,99,67,98L67,98z M74.4,91.2v2.4h3v7.2h2.5v-7.2h3v-2.4H74.4z M91.2,92.3c-0.8-0.9-1.9-1.5-3.1-1.4
			c-1.3,0-2.5,0.5-3.3,1.5c-1.8,2.1-1.8,5.1,0,7.2c0.8,0.9,2,1.5,3.3,1.5c1.2,0.1,2.4-0.5,3.1-1.4v1.1h2.5v-9.6h-2.5L91.2,92.3z
			 M86.6,98c-0.5-0.5-0.8-1.2-0.7-2c0-0.7,0.2-1.4,0.7-1.9c1.1-1,2.7-1,3.8,0c0.5,0.5,0.8,1.2,0.8,1.9c0,0.7-0.3,1.4-0.8,2
			C89.3,99,87.7,99,86.6,98L86.6,98z M100.8,95.9l3.9-4.7h-3l-3.3,4.2v-4.2h-2.5v9.6h2.5v-4.4l3.5,4.4h2.9L100.8,95.9z"/>
		<path class="st3" d="M31.6,125.8l-2.9-6.5H26l4.4,9.4c-0.4,1.1-1.6,1.8-2.8,1.6v2.5c2.5,0.1,4.2-1.1,5.3-3.7l4-9.7h-2.7
			L31.6,125.8z M43.4,133c1.3-0.1,2.5-0.7,3.5-1.7c1.7-1.9,1.7-4.7,0-6.6c-0.9-0.9-2.2-1.5-3.5-1.7v-3.7H41v3.7
			c-1.3,0.1-2.5,0.7-3.5,1.7c-1.7,1.9-1.7,4.7,0,6.6c0.9,0.9,2.2,1.5,3.5,1.7v3.7h2.4V133z M38.7,128c0-1.3,1-2.4,2.3-2.6v5.2
			C39.7,130.4,38.7,129.3,38.7,128z M43.4,125.4c1.4,0.2,2.4,1.5,2.3,2.9c-0.1,1.2-1.1,2.1-2.3,2.3V125.4z M57.2,124.3
			c-0.8-0.9-1.9-1.5-3.1-1.4c-1.3,0-2.5,0.5-3.3,1.5c-1.8,2.1-1.8,5.1,0,7.2c0.8,0.9,2,1.5,3.3,1.5c1.2,0.1,2.4-0.5,3.1-1.4v1.1h2.5
			v-9.6h-2.5V124.3z M52.6,130c-0.5-0.5-0.8-1.2-0.7-2c0-0.7,0.2-1.4,0.7-1.9c1.1-1,2.7-1,3.8,0c0.5,0.5,0.8,1.2,0.8,1.9
			c0,0.7-0.3,1.4-0.8,2C55.3,131,53.7,131,52.6,130L52.6,130z"/>
		<path class="st7" d="M59.5,166.5v1.5h-6.4v-1.5h2.3v-6.7c0-0.3,0-0.5,0-0.8l-1.7,1.4c-0.1,0.1-0.2,0.1-0.3,0.1c-0.1,0-0.2,0-0.3,0
			c-0.1,0-0.1,0-0.2-0.1c-0.1,0-0.1-0.1-0.1-0.1l-0.6-0.9l3.5-3h1.6v10.1H59.5z M61.4,162.3h4.1v1.6h-4.1V162.3z M74.8,159.8v8.2h-2
			v-4.8c0-0.1,0-0.3,0-0.4c0-0.1,0-0.3,0.1-0.4c-0.1,0.2-0.2,0.4-0.4,0.6c0,0-0.1,0.1-0.2,0.2c-0.1,0.1-0.2,0.3-0.4,0.5
			c-0.1,0.2-0.3,0.5-0.5,0.7c-0.2,0.3-0.4,0.5-0.6,0.8c-0.5,0.7-1,1.4-1.6,2.2c-0.1,0.1-0.2,0.2-0.3,0.3c-0.1,0.1-0.3,0.2-0.4,0.2
			h-1.2v-8.2h2v4.8c0,0.1,0,0.3,0,0.4c0,0.1,0,0.3,0,0.4c0.1-0.2,0.2-0.4,0.4-0.6c0,0,0.1-0.1,0.2-0.2c0.1-0.1,0.2-0.3,0.4-0.5
			c0.2-0.2,0.3-0.5,0.5-0.7c0.2-0.3,0.4-0.5,0.6-0.8c0.5-0.7,1-1.4,1.6-2.2c0.1-0.1,0.2-0.2,0.3-0.3c0.1-0.1,0.3-0.2,0.4-0.2H74.8z
			 M71.2,157.7c0.2,0,0.3,0,0.5-0.1c0.1,0,0.2-0.1,0.3-0.2c0.1-0.1,0.1-0.3,0.2-0.4c0-0.2,0.1-0.4,0-0.6h1.2c0.1,0,0.2,0.1,0.3,0.2
			c0.1,0.1,0.1,0.2,0.1,0.4c0,0.3-0.1,0.5-0.2,0.7c-0.1,0.2-0.3,0.4-0.5,0.6c-0.3,0.2-0.5,0.3-0.8,0.4c-0.7,0.2-1.4,0.2-2.1,0
			c-0.3-0.1-0.6-0.2-0.8-0.4c-0.2-0.1-0.4-0.3-0.5-0.6c-0.1-0.2-0.2-0.5-0.2-0.7c0-0.1,0-0.3,0.1-0.4c0.1-0.1,0.2-0.2,0.3-0.2h1.2
			c0,0.2,0,0.4,0,0.6c0,0.1,0.1,0.3,0.2,0.4c0.1,0.1,0.2,0.2,0.3,0.2C70.9,157.7,71.1,157.7,71.2,157.7z M87.7,161.3h-2.9v6.7h-2
			v-6.7h-2.9v-1.5h7.8V161.3z M93.1,164.5c-0.5,0-1,0.1-1.4,0.2c-0.3,0-0.6,0.1-0.9,0.3c-0.2,0.1-0.4,0.2-0.5,0.4
			c-0.1,0.1-0.2,0.3-0.2,0.5c0,0.3,0.1,0.6,0.3,0.7c0.2,0.2,0.5,0.2,0.8,0.2c0.4,0,0.7-0.1,1-0.2c0.3-0.2,0.6-0.4,0.9-0.7V164.5z
			 M88.6,160.9c0.9-0.9,2.1-1.3,3.4-1.3c0.4,0,0.9,0.1,1.3,0.2c0.4,0.1,0.7,0.4,1,0.7c0.3,0.3,0.5,0.6,0.6,1
			c0.1,0.4,0.2,0.8,0.2,1.3v5.2h-0.9c-0.1,0-0.3,0-0.4-0.1c-0.1-0.1-0.2-0.2-0.2-0.3l-0.2-0.6c-0.2,0.2-0.4,0.3-0.6,0.5
			c-0.2,0.1-0.4,0.3-0.6,0.4c-0.2,0.1-0.5,0.2-0.7,0.2c-0.3,0.1-0.5,0.1-0.8,0.1c-0.3,0-0.6,0-1-0.1c-0.3-0.1-0.5-0.2-0.8-0.4
			c-0.2-0.2-0.4-0.4-0.5-0.7c-0.1-0.3-0.2-0.6-0.2-1c0-0.2,0-0.4,0.1-0.6c0.1-0.2,0.2-0.4,0.3-0.6c0.2-0.2,0.4-0.4,0.6-0.5
			c0.3-0.2,0.6-0.3,0.9-0.4c0.4-0.1,0.8-0.2,1.3-0.3c0.6-0.1,1.1-0.1,1.7-0.1v-0.5c0-0.4-0.1-0.9-0.4-1.2c-0.3-0.3-0.6-0.4-1-0.4
			c-0.3,0-0.5,0-0.8,0.1c-0.2,0.1-0.4,0.2-0.6,0.3c-0.2,0.1-0.3,0.2-0.4,0.2c-0.1,0.1-0.3,0.1-0.4,0.1c-0.1,0-0.2,0-0.4-0.1
			c-0.1-0.1-0.2-0.2-0.2-0.3L88.6,160.9z M104.3,159.8v8.2h-2v-4.8c0-0.1,0-0.3,0-0.4c0-0.1,0-0.3,0.1-0.4c-0.1,0.2-0.2,0.4-0.4,0.6
			c0,0-0.1,0.1-0.2,0.2c-0.1,0.1-0.2,0.3-0.4,0.5c-0.1,0.2-0.3,0.5-0.5,0.7c-0.2,0.3-0.4,0.5-0.6,0.8c-0.5,0.7-1,1.4-1.6,2.2
			c-0.1,0.1-0.2,0.2-0.3,0.3c-0.1,0.1-0.3,0.2-0.4,0.2h-1.2v-8.2h2v4.8c0,0.1,0,0.3,0,0.4c0,0.1,0,0.3,0,0.4
			c0.1-0.2,0.2-0.4,0.4-0.6c0,0,0.1-0.1,0.2-0.2c0.1-0.1,0.2-0.3,0.4-0.5c0.2-0.2,0.3-0.5,0.5-0.7c0.2-0.3,0.4-0.5,0.6-0.8
			c0.5-0.7,1-1.4,1.6-2.2c0.1-0.1,0.2-0.2,0.3-0.3c0.1-0.1,0.3-0.2,0.4-0.2L104.3,159.8z M100.7,157.7c0.2,0,0.3,0,0.5-0.1
			c0.1,0,0.2-0.1,0.3-0.2c0.1-0.1,0.1-0.3,0.2-0.4c0-0.2,0.1-0.4,0-0.6h1.2c0.1,0,0.2,0.1,0.3,0.2c0.1,0.1,0.1,0.2,0.1,0.4
			c0,0.3-0.1,0.5-0.2,0.7c-0.1,0.2-0.3,0.4-0.5,0.6c-0.3,0.2-0.5,0.3-0.8,0.4c-0.7,0.2-1.4,0.2-2.1,0c-0.3-0.1-0.6-0.2-0.8-0.4
			c-0.2-0.1-0.4-0.3-0.5-0.6c-0.1-0.2-0.2-0.5-0.2-0.7c0-0.1,0-0.3,0.1-0.4c0.1-0.1,0.2-0.2,0.3-0.2h1.2c0,0.2,0,0.4,0,0.6
			c0,0.1,0.1,0.3,0.2,0.4c0.1,0.1,0.2,0.2,0.3,0.2C100.4,157.7,100.6,157.7,100.7,157.7L100.7,157.7z M115.8,159.8v8.2H114v-4.6
			c0-0.2,0-0.4,0-0.6c0-0.2,0.1-0.4,0.1-0.7l-2.4,4.4c-0.1,0.2-0.3,0.4-0.6,0.3h-0.2c-0.2,0-0.5-0.1-0.6-0.3l-2.4-4.5
			c0,0.2,0.1,0.4,0.1,0.7c0,0.2,0,0.4,0,0.6v4.6h-1.8v-8.2h1.6c0.1,0,0.3,0,0.4,0.1c0.2,0.1,0.3,0.2,0.3,0.4l1.9,3.5
			c0.1,0.2,0.2,0.3,0.2,0.5c0.1,0.2,0.1,0.4,0.2,0.5c0.1-0.2,0.1-0.4,0.2-0.5c0.1-0.2,0.2-0.3,0.2-0.5l1.9-3.5
			c0.1-0.2,0.2-0.3,0.3-0.4c0.1-0.1,0.3-0.1,0.4-0.1L115.8,159.8z M117.7,170c-0.1-0.1-0.1-0.2-0.1-0.3c0-0.1,0-0.1,0-0.1
			c0-0.1,0.1-0.1,0.1-0.1c0.1-0.1,0.1-0.1,0.2-0.2c0.1-0.1,0.2-0.2,0.3-0.3c0.1-0.1,0.2-0.3,0.2-0.4c0.1-0.1,0.1-0.3,0.2-0.4
			c-0.2,0-0.3,0-0.5-0.1c-0.1-0.1-0.3-0.1-0.4-0.3c-0.1-0.1-0.2-0.2-0.2-0.4c-0.1-0.2-0.1-0.3-0.1-0.5c0-0.1,0-0.3,0.1-0.4
			c0.1-0.1,0.1-0.2,0.2-0.3c0.1-0.1,0.2-0.2,0.4-0.2c0.2-0.1,0.3-0.1,0.5-0.1c0.2,0,0.4,0,0.5,0.1c0.1,0.1,0.3,0.2,0.4,0.3
			c0.1,0.1,0.2,0.3,0.2,0.4c0.1,0.2,0.1,0.3,0.1,0.5c0,0.3,0,0.5-0.1,0.8c-0.1,0.3-0.2,0.6-0.3,0.8c-0.2,0.3-0.3,0.6-0.6,0.8
			c-0.2,0.3-0.5,0.5-0.8,0.7L117.7,170z M132.2,166.2c0.2,0,0.4,0.1,0.5,0.2c0.1,0.1,0.2,0.3,0.2,0.5v1.2H125v-0.7
			c0-0.1,0-0.3,0.1-0.4c0.1-0.2,0.2-0.3,0.3-0.4l3.5-3.5c0.3-0.3,0.6-0.6,0.8-0.9c0.2-0.3,0.4-0.5,0.6-0.8c0.1-0.3,0.3-0.5,0.4-0.8
			c0.1-0.3,0.1-0.6,0.1-0.9c0-0.2,0-0.5-0.1-0.7c-0.1-0.2-0.2-0.4-0.3-0.5c-0.1-0.1-0.3-0.3-0.5-0.3c-0.2-0.1-0.5-0.1-0.7-0.1
			c-0.2,0-0.4,0-0.7,0.1c-0.2,0.1-0.4,0.2-0.5,0.3c-0.2,0.1-0.3,0.3-0.4,0.4c-0.1,0.2-0.2,0.3-0.2,0.5c-0.1,0.2-0.2,0.4-0.4,0.5
			c-0.2,0.1-0.4,0.1-0.6,0.1l-1-0.2c0.1-0.5,0.2-1,0.5-1.5c0.2-0.4,0.5-0.8,0.9-1c0.4-0.3,0.8-0.5,1.2-0.6c0.5-0.1,1-0.2,1.4-0.2
			c0.5,0,1,0.1,1.5,0.2c0.4,0.1,0.8,0.4,1.1,0.7c0.3,0.3,0.6,0.6,0.7,1c0.2,0.4,0.3,0.9,0.3,1.4c0,0.4-0.1,0.8-0.2,1.2
			c-0.1,0.4-0.3,0.7-0.5,1c-0.2,0.3-0.5,0.7-0.7,1c-0.3,0.3-0.6,0.6-0.9,0.9l-2.6,2.7c0.2-0.1,0.5-0.1,0.7-0.2
			c0.2,0,0.5-0.1,0.7-0.1H132.2z M134.5,159.7c0.1-0.5,0.2-1,0.5-1.5c0.2-0.4,0.5-0.8,0.9-1c0.4-0.3,0.8-0.5,1.2-0.6
			c0.5-0.1,1-0.2,1.4-0.2c0.5,0,1,0.1,1.4,0.2c0.4,0.1,0.8,0.3,1.1,0.6c0.3,0.3,0.5,0.6,0.7,0.9c0.2,0.4,0.3,0.8,0.2,1.2
			c0,0.3,0,0.7-0.1,1c-0.1,0.3-0.2,0.5-0.4,0.7c-0.2,0.2-0.4,0.4-0.6,0.5c-0.2,0.2-0.5,0.3-0.8,0.4c0.6,0.2,1.2,0.5,1.6,1
			c0.4,0.5,0.5,1.1,0.5,1.7c0,0.5-0.1,1-0.3,1.5c-0.2,0.4-0.5,0.8-0.9,1.1c-0.4,0.3-0.8,0.5-1.3,0.7c-0.5,0.2-1,0.2-1.5,0.2
			c-0.5,0-1-0.1-1.5-0.2c-0.4-0.1-0.8-0.3-1.1-0.6c-0.3-0.3-0.6-0.6-0.8-1c-0.2-0.4-0.4-0.9-0.6-1.3l0.9-0.4
			c0.2-0.1,0.4-0.1,0.6-0.1c0.2,0,0.4,0.2,0.4,0.3c0.1,0.2,0.2,0.4,0.3,0.6c0.1,0.2,0.3,0.3,0.4,0.5c0.2,0.1,0.4,0.3,0.6,0.3
			c0.2,0.1,0.5,0.1,0.8,0.1c0.3,0,0.6,0,0.9-0.2c0.2-0.1,0.4-0.2,0.6-0.4c0.2-0.2,0.3-0.4,0.4-0.6c0.1-0.2,0.1-0.4,0.1-0.7
			c0-0.3,0-0.5-0.1-0.8c-0.1-0.2-0.2-0.4-0.4-0.6c-0.2-0.2-0.5-0.3-0.8-0.4c-0.5-0.1-0.9-0.1-1.4-0.1v-1.4c0.4,0,0.8,0,1.2-0.1
			c0.3-0.1,0.5-0.2,0.8-0.4c0.2-0.1,0.3-0.3,0.4-0.6c0.1-0.2,0.1-0.5,0.1-0.7c0-0.5-0.1-0.9-0.5-1.2c-0.3-0.3-0.8-0.4-1.2-0.4
			c-0.2,0-0.4,0-0.6,0.1c-0.2,0.1-0.4,0.2-0.5,0.3c-0.2,0.1-0.3,0.3-0.4,0.4c-0.1,0.2-0.2,0.3-0.2,0.5c-0.1,0.2-0.2,0.4-0.4,0.5
			c-0.2,0.1-0.4,0.1-0.6,0.1L134.5,159.7z M157.3,159.8v8.2h-1.8v-4.6c0-0.2,0-0.4,0-0.6c0-0.2,0.1-0.4,0.1-0.7l-2.4,4.4
			c-0.1,0.2-0.3,0.4-0.6,0.3h-0.2c-0.2,0-0.5-0.1-0.6-0.3l-2.4-4.5c0,0.2,0.1,0.4,0.1,0.7c0,0.2,0,0.4,0,0.6v4.6h-1.8v-8.2h1.6
			c0.1,0,0.3,0,0.4,0.1c0.2,0.1,0.3,0.2,0.3,0.4l1.9,3.5c0.1,0.2,0.2,0.3,0.2,0.5c0.1,0.2,0.1,0.4,0.2,0.5c0.1-0.2,0.1-0.4,0.2-0.5
			c0.1-0.2,0.2-0.3,0.2-0.5l1.9-3.5c0.1-0.2,0.2-0.3,0.3-0.4c0.1-0.1,0.3-0.1,0.4-0.1L157.3,159.8z M166.7,159.8v8.2h-2v-4.8
			c0-0.1,0-0.3,0-0.4c0-0.1,0-0.3,0.1-0.4c-0.1,0.2-0.2,0.4-0.4,0.6c0,0-0.1,0.1-0.2,0.2c-0.1,0.1-0.2,0.3-0.4,0.5
			c-0.1,0.2-0.3,0.5-0.5,0.7c-0.2,0.3-0.4,0.5-0.6,0.8c-0.5,0.7-1,1.4-1.6,2.2c-0.1,0.1-0.2,0.2-0.3,0.3c-0.1,0.1-0.3,0.2-0.4,0.2
			h-1.2v-8.2h2v4.8c0,0.1,0,0.3,0,0.4c0,0.1,0,0.3,0,0.4c0.1-0.2,0.2-0.4,0.4-0.6c0,0,0.1-0.1,0.2-0.2s0.2-0.3,0.4-0.5
			c0.2-0.2,0.3-0.5,0.5-0.7c0.2-0.3,0.4-0.5,0.6-0.8c0.5-0.7,1-1.4,1.6-2.2c0.1-0.1,0.2-0.2,0.3-0.3c0.1-0.1,0.3-0.2,0.4-0.2
			L166.7,159.8z M175.8,159.8v8.2h-2v-3.6h-3.2v3.6h-2v-8.2h2v3.1h3.2v-3.1L175.8,159.8z"/>
		<circle class="st8" cx="32" cy="161.6" r="6.4"/>
		<path class="st9" d="M215.3,155.9c0.4,0.4,0.6,0.8,0.7,1.3c0.7,3.7,0.7,7.6,0,11.3c-0.3,1-1,1.8-2.1,2.1c-1.8,0.5-9.2,0.5-9.2,0.5
			s-7.3,0-9.2-0.5c-1-0.3-1.8-1.1-2.1-2c-0.7-3.7-0.7-7.6,0-11.3c0.3-1,1-1.8,2.1-2.1c1.8-0.5,9.2-0.5,9.2-0.5s7.3,0,9.2,0.4
			C214.5,155.3,214.9,155.5,215.3,155.9z M208.5,162.9l-6.1,3.5v-7L208.5,162.9z"/>
		<path class="st10" d="M242.4,159.5v-4.6h-11.3c-0.4,0-0.8,0.3-0.8,0.8v3.8h3.8c0.4,0,0.7,0.3,0.7,0.8v6c0,0.4-0.3,0.7-0.7,0.8
			h-3.8v3.8c0,0.4,0.3,0.7,0.8,0.7h11.3v-4.6c-2-0.4-3.3-2.4-2.9-4.4C239.8,161,241,159.8,242.4,159.5L242.4,159.5z M230.4,160.9
			v4.5h3v-4.5H230.4z M243.9,161.1v4.2c1.2-0.4,1.8-1.7,1.4-2.9C245.1,161.8,244.6,161.3,243.9,161.1z M240.9,163.2
			c0,1,0.6,1.8,1.5,2.1v-4.2C241.6,161.4,241,162.2,240.9,163.2L240.9,163.2z M252.2,159.4h3.8v-3.7c0-0.4-0.3-0.8-0.8-0.8h-11.3
			v4.6c2,0.4,3.3,2.4,2.9,4.4c-0.3,1.5-1.5,2.6-2.9,2.9v4.6h11.3c0.4,0,0.7-0.3,0.8-0.7V167h-3.8c-0.4,0-0.7-0.3-0.7-0.8v-6
			C251.5,159.8,251.8,159.5,252.2,159.4L252.2,159.4L252.2,159.4z M253,160.9v4.5h3v-4.5L253,160.9z"/>
		<rect y="195.2" class="st4" width="600" height="128"/>
		<g>
			<defs>
				<rect id="SVGID_00000147927579098455028990000000251805060378556583_" x="268.8" y="208" width="331.2" height="102.4"/>
			</defs>
			<clipPath id="SVGID_00000168079578099849940670000010497233178246052238_">
				<use xlink:href="#SVGID_00000147927579098455028990000000251805060378556583_"  style="overflow:visible;"/>
			</clipPath>
			<g style="clip-path:url(#SVGID_00000168079578099849940670000010497233178246052238_);">
				<path class="st6" d="M281.6,208h76.8c7.1,0,12.8,5.7,12.8,12.8v76.8c0,7.1-5.7,12.8-12.8,12.8h-76.8c-7.1,0-12.8-5.7-12.8-12.8
					v-76.8C268.8,213.7,274.5,208,281.6,208z"/>
				<path class="st3" d="M319.8,246.4h-1.6v-10.2h-5.7v10.2h-1.6v-11.5h8.8V246.4z M329.4,245.3v1.1h-6.1v-1.1h2.5v-7.8
					c0-0.2,0-0.5,0-0.7l-2,1.8c-0.1,0.1-0.1,0.1-0.2,0.1c-0.1,0-0.1,0-0.2,0c-0.1,0-0.1,0-0.2-0.1c0,0-0.1-0.1-0.1-0.1l-0.4-0.6
					l3.4-3h1.2v10.4H329.4z"/>
				<path class="st6" d="M387.2,208H464c7.1,0,12.8,5.7,12.8,12.8v76.8c0,7.1-5.7,12.8-12.8,12.8h-76.8c-7.1,0-12.8-5.7-12.8-12.8
					v-76.8C374.4,213.7,380.1,208,387.2,208z"/>
				<path class="st3" d="M430.6,246.4h-1.5c-0.1,0-0.2,0-0.3-0.1c-0.1-0.1-0.1-0.1-0.2-0.2l-3.1-4.8c0,0.1-0.1,0.2-0.1,0.3l-3,4.5
					c-0.1,0.1-0.1,0.1-0.2,0.2c-0.1,0.1-0.2,0.1-0.2,0.1h-1.4l3.9-5.9l-3.8-5.6h1.5c0.1,0,0.2,0,0.2,0.1c0.1,0,0.1,0.1,0.1,0.2
					l3,4.6c0-0.1,0.1-0.3,0.2-0.4l2.8-4.2c0-0.1,0.1-0.1,0.2-0.2c0.1,0,0.1-0.1,0.2-0.1h1.5l-3.8,5.5L430.6,246.4z"/>
				<path class="st6" d="M492.8,208h76.8c7.1,0,12.8,5.7,12.8,12.8v76.8c0,7.1-5.7,12.8-12.8,12.8h-76.8c-7.1,0-12.8-5.7-12.8-12.8
					v-76.8C480,213.7,485.7,208,492.8,208z"/>
				<path class="st3" d="M531,246.4h-1.6v-10.2h-5.7v10.2h-1.6v-11.5h8.8V246.4z M540.3,245c0.1,0,0.3,0,0.4,0.1
					c0.1,0.1,0.1,0.2,0.1,0.4v0.9h-7.6v-0.5c0-0.1,0-0.2,0.1-0.3c0-0.1,0.1-0.2,0.2-0.3l3.7-3.7c0.3-0.3,0.6-0.6,0.8-0.9
					c0.2-0.3,0.5-0.6,0.6-0.9c0.2-0.3,0.3-0.6,0.4-0.9c0.1-0.3,0.1-0.6,0.1-1c0-0.3,0-0.6-0.2-0.9c-0.1-0.2-0.2-0.5-0.4-0.6
					c-0.2-0.2-0.4-0.3-0.6-0.4c-0.3-0.1-0.5-0.1-0.8-0.1c-0.3,0-0.5,0-0.8,0.1c-0.2,0.1-0.5,0.2-0.7,0.4c-0.2,0.2-0.3,0.3-0.5,0.5
					c-0.1,0.2-0.2,0.4-0.3,0.7c0,0.2-0.1,0.3-0.3,0.4c-0.1,0.1-0.3,0.1-0.5,0l-0.7-0.1c0.1-0.5,0.2-1,0.4-1.4
					c0.4-0.8,1.1-1.4,1.9-1.6c0.9-0.3,1.8-0.3,2.7,0c0.4,0.1,0.8,0.3,1.1,0.6c0.3,0.3,0.6,0.6,0.7,1c0.2,0.4,0.3,0.9,0.3,1.3
					c0,0.4-0.1,0.8-0.2,1.2c-0.1,0.4-0.3,0.7-0.5,1c-0.2,0.3-0.5,0.7-0.8,1c-0.3,0.3-0.6,0.6-0.9,1l-3,3.1c0.2-0.1,0.4-0.1,0.6-0.1
					c0.2,0,0.4-0.1,0.6-0.1L540.3,245z"/>
				<path class="st6" d="M598.4,208H728c7.1,0,12.8,5.7,12.8,12.8v76.8c0,7.1-5.7,12.8-12.8,12.8H598.4c-7.1,0-12.8-5.7-12.8-12.8
					v-76.8C585.6,213.7,591.3,208,598.4,208z"/>
			</g>
		</g>
		<path class="st7" d="M253.1,233.4v1.8h-7.7v-1.8h2.8v-8.1c0-0.3,0-0.6,0-1l-2,1.7c-0.2,0.2-0.4,0.2-0.7,0.2c-0.1,0-0.2,0-0.3-0.1
			c-0.1,0-0.1-0.1-0.2-0.2l-0.7-1l4.2-3.6h1.9v12.1H253.1z"/>
		<path class="st7" d="M253.9,260.3c0,1.1-0.1,2.1-0.4,3.2c-0.2,0.8-0.6,1.5-1.1,2.2c-0.4,0.6-1,1-1.6,1.3c-1.3,0.6-2.7,0.6-4,0
			c-0.6-0.3-1.2-0.7-1.6-1.3c-0.5-0.7-0.9-1.4-1.1-2.2c-0.5-2.1-0.5-4.2,0-6.3c0.2-0.8,0.6-1.5,1.1-2.2c0.4-0.6,1-1,1.6-1.3
			c1.3-0.6,2.7-0.6,4,0c0.6,0.3,1.2,0.7,1.6,1.3c0.5,0.7,0.9,1.4,1.1,2.2C253.7,258.1,253.9,259.2,253.9,260.3z M251.4,260.3
			c0-0.8-0.1-1.7-0.2-2.5c-0.1-0.6-0.3-1.1-0.6-1.6c-0.2-0.3-0.5-0.6-0.8-0.8c-0.6-0.3-1.4-0.3-2,0c-0.3,0.2-0.6,0.5-0.8,0.8
			c-0.3,0.5-0.5,1-0.6,1.6c-0.3,1.7-0.3,3.3,0,5c0.1,0.6,0.3,1.1,0.6,1.6c0.2,0.3,0.5,0.6,0.8,0.8c0.6,0.3,1.4,0.3,2,0
			c0.4-0.2,0.6-0.5,0.8-0.8c0.3-0.5,0.5-1,0.6-1.6C251.3,261.9,251.4,261.1,251.4,260.3z"/>
		<path class="st3" d="M38.4,232l-4.7-13.4h-3.3L25.7,232h2.9l0.8-2.4h5.4l0.8,2.4H38.4z M32,221.6l1.8,5.5h-3.7L32,221.6z
			 M45.1,222.1c-1.2-0.1-2.4,0.5-3.1,1.4v-1.1h-2.5v13.4H42v-5c0.7,0.9,1.9,1.5,3.1,1.4c1.3,0,2.5-0.5,3.3-1.5c1.8-2,1.8-5.2,0-7.2
			C47.6,222.7,46.4,222.1,45.1,222.1z M42.8,229.2c-0.5-0.5-0.8-1.2-0.7-2c0-0.7,0.2-1.4,0.7-1.9c1.1-1,2.7-1,3.8,0
			c0.5,0.5,0.8,1.2,0.8,1.9c0,0.7-0.3,1.4-0.8,2C45.5,230.2,43.9,230.2,42.8,229.2z M56.1,232.3c1.8,0,3.5-0.9,4.3-2.5l-2.2-1.2
			c-0.4,0.8-1.3,1.3-2.2,1.3c-0.7,0-1.4-0.2-1.8-0.7c-0.5-0.5-0.7-1.2-0.7-1.9c-0.1-1.4,1-2.6,2.4-2.6c0.1,0,0.1,0,0.2,0
			c0.9,0,1.8,0.5,2.2,1.3l2.1-1.2c-0.9-1.6-2.5-2.5-4.3-2.5c-2.8,0-5.1,2.2-5.1,5c0,2.8,2.2,5.1,5,5.1
			C56.1,232.3,56.1,232.3,56.1,232.3L56.1,232.3z M71,228.2c0.1-0.3,0.1-0.7,0.1-1c0-1.3-0.5-2.6-1.4-3.6c-0.9-1-2.2-1.5-3.5-1.5
			c-1.4-0.1-2.7,0.5-3.6,1.5c-1.9,2-1.9,5.2,0,7.2c1,1,2.4,1.5,3.8,1.4c1.7,0.1,3.2-0.7,4.2-2.1l-2-1.2c-0.5,0.7-1.3,1-2.2,1
			c-1.2,0.2-2.4-0.6-2.7-1.8L71,228.2z M63.7,226.3c0.2-1.2,1.3-2,2.5-1.9c1.2,0,2.2,0.8,2.4,1.9H63.7z M79.1,226h-3.8v-3.6h-2.5
			v9.6h2.5v-3.6h3.8v3.6h2.5v-9.6h-2.5L79.1,226z M91.1,223.5c-0.8-0.9-1.9-1.5-3.1-1.4c-1.3,0-2.5,0.5-3.3,1.5
			c-1.8,2.1-1.8,5.1,0,7.2c0.8,0.9,2,1.5,3.3,1.5c1.2,0.1,2.4-0.5,3.1-1.4v1.1h2.5v-9.6h-2.5L91.1,223.5z M86.6,229.2
			c-0.5-0.5-0.8-1.2-0.7-2c0-0.7,0.2-1.4,0.7-1.9c1.1-1,2.7-1,3.8,0c0.5,0.5,0.8,1.2,0.8,1.9c0,0.7-0.3,1.4-0.8,2
			C89.3,230.2,87.6,230.2,86.6,229.2z M96.5,222.4v5.5c0,1.5-0.6,2.1-1.6,1.8v2.3c2.7,0.3,4.1-1,4.1-4v-3.2h2.7v7.2h2.5v-9.6H96.5z
			 M110.3,218.6v2.5h3.6V232h2.7v-10.9h3.6v-2.5H110.3z M124.1,228.9l-2.6-6.5h-2.6l3.9,9.5c-0.3,1.1-1.3,1.8-2.5,1.7v2.3
			c2.4,0.1,4.1-1.1,5.1-3.8l3.5-9.6h-2.7L124.1,228.9z M130.1,222.4v5.5c0,1.5-0.6,2.1-1.6,1.8v2.3c2.7,0.3,4.1-1,4.1-4v-3.2h2.6
			v7.2h2.5v-9.6H130.1z M147.2,223.5c-0.8-0.9-1.9-1.5-3.1-1.4c-1.3,0-2.5,0.5-3.3,1.5c-1.8,2.1-1.8,5.1,0,7.2
			c0.8,0.9,2,1.5,3.3,1.5c1.2,0.1,2.4-0.5,3.1-1.4v1.1h2.5v-9.6h-2.5V223.5z M142.7,229.2c-0.5-0.5-0.8-1.2-0.7-2
			c0-0.7,0.2-1.4,0.7-1.9c1.1-1,2.7-1,3.8,0c0.5,0.5,0.8,1.2,0.8,1.9c0,0.7-0.3,1.4-0.8,2C145.4,230.2,143.7,230.2,142.7,229.2z"/>
		<path class="st3" d="M34,257c0.9-0.6,1.5-1.7,1.4-2.8c0-1.1-0.4-2.1-1.3-2.8c-0.9-0.7-2.1-1.1-3.3-1.1c-2-0.1-3.9,1-4.7,2.9
			l2.2,1.3c0.3-1,1.3-1.7,2.4-1.7c1.2,0,1.9,0.6,1.9,1.6S32,256,30.7,256h-1.3v2.4h1.7c1.4,0,2.2,0.7,2.2,1.7s-0.8,1.7-2.2,1.7
			c-1.3,0.1-2.4-0.7-2.7-2l-2.3,1.3c0.8,2.1,2.8,3.4,5,3.2c1.3,0.1,2.5-0.3,3.5-1.1c0.9-0.7,1.4-1.8,1.4-2.9
			C36,258.9,35.2,257.6,34,257z M46.8,260.2c0.1-0.3,0.1-0.7,0.1-1c0-1.3-0.5-2.6-1.4-3.6c-0.9-1-2.2-1.5-3.5-1.5
			c-1.4-0.1-2.7,0.5-3.6,1.5c-1.9,2-1.9,5.2,0,7.2c1,1,2.4,1.5,3.8,1.4c1.7,0.1,3.2-0.7,4.2-2.1l-2-1.2c-0.5,0.7-1.3,1-2.2,1
			c-1.2,0.2-2.4-0.6-2.7-1.8L46.8,260.2z M39.5,258.3c0.2-1.2,1.3-2,2.5-1.9c1.2,0,2.2,0.8,2.4,1.9H39.5z M54.9,258h-3.8v-3.6h-2.5
			v9.6h2.5v-3.6h3.8v3.6h2.5v-9.6h-2.5L54.9,258z M62.1,259.9v-5.5h-2.4v9.6h1.8l4.5-5.5v5.5h2.4v-9.6h-1.8L62.1,259.9z M69.8,254.4
			v2.4h3v7.2h2.5v-7.2h3v-2.4H69.8z"/>
		<path class="st7" d="M61.8,299.2h-2.2v-9.9h-5v9.9h-2.2v-11.6h9.4V299.2z M69.1,294.2c0-0.2,0-0.5-0.1-0.7
			c-0.1-0.2-0.2-0.4-0.3-0.6c-0.1-0.2-0.3-0.3-0.6-0.4c-0.2-0.1-0.5-0.2-0.8-0.2c-0.5,0-1,0.1-1.4,0.5c-0.4,0.4-0.6,0.9-0.6,1.4
			H69.1z M65.4,295.3c0,0.4,0.1,0.7,0.2,1.1c0.1,0.3,0.3,0.5,0.5,0.8c0.2,0.2,0.4,0.3,0.7,0.4c0.3,0.1,0.6,0.1,0.9,0.1
			c0.3,0,0.6,0,0.8-0.1c0.2-0.1,0.4-0.1,0.6-0.2c0.2-0.1,0.3-0.2,0.5-0.2c0.1-0.1,0.2-0.1,0.4-0.1c0.1,0,0.3,0.1,0.4,0.2l0.6,0.7
			c-0.2,0.3-0.5,0.5-0.7,0.6c-0.3,0.2-0.6,0.3-0.9,0.4c-0.3,0.1-0.6,0.2-0.9,0.2c-0.3,0-0.6,0.1-0.9,0.1c-0.5,0-1.1-0.1-1.6-0.3
			c-0.5-0.2-0.9-0.5-1.3-0.8c-0.4-0.4-0.7-0.9-0.9-1.4c-0.2-0.6-0.3-1.3-0.3-1.9c0-0.5,0.1-1.1,0.3-1.6c0.2-0.5,0.4-0.9,0.8-1.3
			c0.3-0.4,0.8-0.7,1.2-0.9c0.5-0.2,1.1-0.3,1.7-0.3c0.5,0,1,0.1,1.4,0.2c0.4,0.2,0.8,0.4,1.1,0.7c0.3,0.3,0.6,0.7,0.7,1.2
			c0.2,0.5,0.3,1,0.3,1.6c0,0.2,0,0.4-0.1,0.6c-0.1,0.1-0.2,0.2-0.4,0.2L65.4,295.3z M74.4,297.1c0.2,0.2,0.4,0.4,0.7,0.6
			c0.3,0.1,0.6,0.2,0.9,0.2c0.3,0,0.6-0.1,0.8-0.2c0.2-0.1,0.5-0.3,0.6-0.5c0.2-0.3,0.3-0.6,0.4-0.9c0.1-0.4,0.1-0.8,0.1-1.2
			c0-0.4,0-0.8-0.1-1.2c-0.1-0.3-0.2-0.6-0.3-0.8c-0.1-0.2-0.3-0.4-0.5-0.5c-0.2-0.1-0.5-0.1-0.7-0.1c-0.4,0-0.7,0.1-1,0.3
			c-0.3,0.2-0.6,0.4-0.8,0.7L74.4,297.1z M74.3,292.1c0.3-0.4,0.7-0.7,1.1-0.9c0.5-0.2,1-0.4,1.5-0.4c0.4,0,0.8,0.1,1.2,0.3
			c0.4,0.2,0.7,0.5,1,0.8c0.3,0.4,0.5,0.8,0.6,1.3c0.2,0.6,0.2,1.2,0.2,1.8c0,0.6-0.1,1.2-0.2,1.7c-0.1,0.5-0.4,1-0.7,1.4
			c-0.6,0.8-1.6,1.2-2.6,1.2c-0.4,0-0.8-0.1-1.2-0.2c-0.3-0.1-0.6-0.3-0.9-0.6v3.4h-2V291h1.2c0.2,0,0.4,0.1,0.5,0.4L74.3,292.1z
			 M86.8,294.2c0-0.2,0-0.5-0.1-0.7c-0.1-0.2-0.2-0.4-0.3-0.6c-0.1-0.2-0.3-0.3-0.6-0.4c-0.2-0.1-0.5-0.2-0.8-0.2
			c-0.5,0-1,0.1-1.4,0.5c-0.4,0.4-0.6,0.9-0.6,1.4H86.8z M83,295.3c0,0.4,0.1,0.7,0.2,1.1c0.1,0.3,0.3,0.5,0.5,0.8
			c0.2,0.2,0.4,0.3,0.7,0.4c0.3,0.1,0.6,0.1,0.9,0.1c0.3,0,0.6,0,0.8-0.1c0.2-0.1,0.4-0.1,0.6-0.2c0.2-0.1,0.3-0.2,0.5-0.2
			c0.1-0.1,0.2-0.1,0.4-0.1c0.1,0,0.3,0.1,0.4,0.2l0.6,0.7c-0.2,0.3-0.5,0.5-0.7,0.6c-0.3,0.2-0.6,0.3-0.9,0.4
			c-0.3,0.1-0.6,0.2-0.9,0.2c-0.3,0-0.6,0.1-0.9,0.1c-0.5,0-1.1-0.1-1.6-0.3c-0.5-0.2-0.9-0.5-1.3-0.8c-0.4-0.4-0.7-0.9-0.9-1.4
			c-0.2-0.6-0.3-1.3-0.3-1.9c0-0.5,0.1-1.1,0.3-1.6c0.2-0.5,0.4-0.9,0.8-1.3c0.3-0.4,0.8-0.7,1.2-0.9c0.5-0.2,1.1-0.3,1.7-0.3
			c0.5,0,1,0.1,1.4,0.2c0.4,0.2,0.8,0.4,1.1,0.7c0.3,0.3,0.6,0.7,0.7,1.2c0.2,0.5,0.3,1,0.3,1.6c0,0.2,0,0.4-0.1,0.6
			c-0.1,0.1-0.2,0.2-0.4,0.2L83,295.3z M92,297.1c0.2,0.2,0.4,0.4,0.7,0.6c0.3,0.1,0.6,0.2,0.9,0.2c0.3,0,0.6-0.1,0.8-0.2
			c0.2-0.1,0.5-0.3,0.6-0.5c0.2-0.3,0.3-0.6,0.4-0.9c0.1-0.4,0.1-0.8,0.1-1.2c0-0.4,0-0.8-0.1-1.2c-0.1-0.3-0.2-0.6-0.3-0.8
			c-0.1-0.2-0.3-0.4-0.5-0.5c-0.2-0.1-0.5-0.1-0.7-0.1c-0.4,0-0.7,0.1-1,0.3c-0.3,0.2-0.6,0.4-0.8,0.7L92,297.1z M91.9,292.1
			c0.3-0.4,0.7-0.7,1.1-0.9c0.5-0.2,1-0.4,1.5-0.4c0.4,0,0.8,0.1,1.2,0.3c0.4,0.2,0.7,0.5,1,0.8c0.3,0.4,0.5,0.8,0.6,1.3
			c0.2,0.6,0.2,1.2,0.2,1.8c0,0.6-0.1,1.2-0.2,1.7c-0.2,0.5-0.4,1-0.7,1.4c-0.6,0.8-1.6,1.2-2.6,1.2c-0.4,0-0.8-0.1-1.2-0.2
			c-0.3-0.1-0.6-0.3-0.9-0.6v3.4h-2V291h1.2c0.2,0,0.4,0.1,0.5,0.4L91.9,292.1z M102.4,297.8c0.4,0,0.7-0.1,1-0.3
			c0.2-0.2,0.3-0.5,0.3-0.9c0-0.1,0-0.3-0.1-0.4c0-0.1-0.1-0.3-0.2-0.4c-0.1-0.1-0.3-0.2-0.4-0.2c-0.2-0.1-0.4-0.1-0.6-0.1H101v2.3
			L102.4,297.8z M102.4,294c0.5,0,1,0.1,1.4,0.2c0.4,0.1,0.7,0.3,1,0.6c0.2,0.2,0.4,0.5,0.5,0.8c0.1,0.3,0.2,0.6,0.2,1
			c0,0.4-0.1,0.7-0.2,1.1c-0.1,0.3-0.3,0.6-0.6,0.8c-0.3,0.2-0.6,0.4-1,0.5c-0.4,0.1-0.9,0.2-1.3,0.2h-3.4V291h1.9v3H102.4z
			 M109,291v8.2h-2V291L109,291z M114.3,297.8c0.4,0,0.7-0.1,1-0.3c0.2-0.2,0.4-0.5,0.4-0.8c0-0.1,0-0.3-0.1-0.4
			c0-0.1-0.1-0.3-0.2-0.3c-0.1-0.1-0.3-0.2-0.4-0.2c-0.2-0.1-0.4-0.1-0.7-0.1h-1.5v2.2L114.3,297.8z M112.8,292.3v2.2h1.3
			c0.2,0,0.4,0,0.5-0.1c0.2-0.1,0.3-0.1,0.4-0.2c0.2-0.2,0.4-0.5,0.4-0.8c0-0.1,0-0.2-0.1-0.4c0-0.1-0.1-0.2-0.2-0.3
			c-0.1-0.1-0.3-0.2-0.4-0.2c-0.2-0.1-0.4-0.1-0.6-0.1L112.8,292.3z M114.2,291c0.5,0,0.9,0,1.3,0.2c0.3,0.1,0.7,0.2,0.9,0.4
			c0.2,0.2,0.4,0.4,0.5,0.6c0.1,0.2,0.2,0.5,0.2,0.8c0,0.2,0,0.4-0.1,0.6c0,0.2-0.1,0.4-0.2,0.5c-0.1,0.2-0.3,0.4-0.5,0.5
			c-0.2,0.2-0.5,0.3-0.8,0.3c0.3,0.1,0.5,0.1,0.7,0.2c0.2,0.1,0.4,0.2,0.6,0.4c0.2,0.2,0.3,0.3,0.4,0.6c0.1,0.2,0.1,0.5,0.1,0.7
			c0,0.4-0.1,0.7-0.3,1.1c-0.2,0.3-0.4,0.6-0.7,0.8c-0.3,0.2-0.6,0.4-1,0.4c-0.4,0.1-0.8,0.1-1.2,0.1H111V291H114.2z"/>
		<rect x="27.2" y="286.4" class="st8" width="3.2" height="12.8"/>
		<rect x="33.6" y="286.4" class="st8" width="3.2" height="12.8"/>
		<path class="st9" d="M215.3,287.1c0.4,0.4,0.6,0.8,0.7,1.3c0.7,3.7,0.7,7.6,0,11.3c-0.3,1-1,1.8-2.1,2.1c-1.8,0.5-9.2,0.5-9.2,0.5
			s-7.3,0-9.2-0.5c-1-0.3-1.8-1.1-2.1-2c-0.7-3.7-0.7-7.6,0-11.3c0.3-1,1-1.8,2.1-2.1c1.8-0.5,9.2-0.5,9.2-0.5s7.3,0,9.2,0.4
			C214.5,286.5,214.9,286.7,215.3,287.1z M208.5,294.1l-6.1,3.5v-7L208.5,294.1z"/>
		<path class="st10" d="M242.4,290.7v-4.6h-11.3c-0.4,0-0.7,0.3-0.8,0.7v3.8h3.8c0.4,0,0.7,0.3,0.7,0.8v6c0,0.4-0.3,0.7-0.7,0.8
			h-3.8v3.8c0,0.4,0.3,0.7,0.8,0.7h11.3v-4.6c-2-0.4-3.3-2.4-2.9-4.4C239.8,292.2,241,291,242.4,290.7L242.4,290.7z M230.4,292.1
			v4.5h3v-4.5H230.4z M243.9,292.3v4.2c1.2-0.4,1.8-1.7,1.4-2.9C245.1,293,244.6,292.5,243.9,292.3z M240.9,294.4
			c0,1,0.6,1.8,1.5,2.1v-4.2C241.6,292.6,241,293.4,240.9,294.4L240.9,294.4z M252.2,290.6h3.8v-3.8c0-0.4-0.3-0.7-0.8-0.7h-11.3
			v4.6c2,0.4,3.3,2.4,2.9,4.4c-0.3,1.5-1.5,2.6-2.9,2.9v4.6h11.3c0.4,0,0.7-0.3,0.8-0.7v-3.8h-3.8c-0.4,0-0.7-0.3-0.7-0.8v-6
			C251.5,291,251.8,290.7,252.2,290.6L252.2,290.6z M253,292.1v4.5h3v-4.5H253z"/>
		<rect y="326.4" class="st4" width="600" height="128"/>
		<g>
			<defs>
				<rect id="SVGID_00000170971404654454184540000014403265235454388353_" x="268.8" y="339.2" width="331.2" height="102.4"/>
			</defs>
			<clipPath id="SVGID_00000107587376542860957560000001143736029630902936_">
				<use xlink:href="#SVGID_00000170971404654454184540000014403265235454388353_"  style="overflow:visible;"/>
			</clipPath>
			<g style="clip-path:url(#SVGID_00000107587376542860957560000001143736029630902936_);">
				<path class="st6" d="M281.6,339.2h76.8c7.1,0,12.8,5.7,12.8,12.8v76.8c0,7.1-5.7,12.8-12.8,12.8h-76.8
					c-7.1,0-12.8-5.7-12.8-12.8V352C268.8,344.9,274.5,339.2,281.6,339.2z"/>
				<path class="st3" d="M319.8,377.6h-1.6v-10.2h-5.7v10.2h-1.6v-11.5h8.8V377.6z M329.4,376.5v1.1h-6.1v-1.1h2.5v-7.8
					c0-0.2,0-0.5,0-0.7l-2,1.8c-0.1,0.1-0.1,0.1-0.2,0.1c-0.1,0-0.1,0-0.2,0c-0.1,0-0.1,0-0.2-0.1c0,0-0.1-0.1-0.1-0.1l-0.4-0.6
					l3.4-3h1.2v10.4H329.4z"/>
				<path class="st6" d="M387.2,339.2H464c7.1,0,12.8,5.7,12.8,12.8v76.8c0,7.1-5.7,12.8-12.8,12.8h-76.8c-7.1,0-12.8-5.7-12.8-12.8
					V352C374.4,344.9,380.1,339.2,387.2,339.2z"/>
				<path class="st3" d="M430.6,377.6h-1.5c-0.1,0-0.2,0-0.3-0.1c-0.1-0.1-0.1-0.1-0.2-0.2l-3.1-4.8c0,0.1-0.1,0.2-0.1,0.3l-3,4.5
					c-0.1,0.1-0.1,0.1-0.2,0.2c-0.1,0.1-0.2,0.1-0.2,0.1h-1.4l3.9-5.9l-3.8-5.6h1.5c0.1,0,0.2,0,0.2,0.1c0.1,0,0.1,0.1,0.1,0.2
					l3,4.6c0-0.1,0.1-0.3,0.2-0.4l2.8-4.2c0-0.1,0.1-0.1,0.2-0.2c0.1,0,0.1-0.1,0.2-0.1h1.5l-3.8,5.5L430.6,377.6z"/>
				<path class="st6" d="M492.8,339.2h76.8c7.1,0,12.8,5.7,12.8,12.8v76.8c0,7.1-5.7,12.8-12.8,12.8h-76.8
					c-7.1,0-12.8-5.7-12.8-12.8V352C480,344.9,485.7,339.2,492.8,339.2z"/>
				<path class="st3" d="M531,377.6h-1.6v-10.2h-5.7v10.2h-1.6v-11.5h8.8V377.6z M540.3,376.2c0.1,0,0.3,0,0.4,0.1
					c0.1,0.1,0.1,0.2,0.1,0.4v0.9h-7.6v-0.5c0-0.1,0-0.2,0.1-0.3c0-0.1,0.1-0.2,0.2-0.3l3.7-3.7c0.3-0.3,0.6-0.6,0.8-0.9
					c0.2-0.3,0.5-0.6,0.6-0.9c0.2-0.3,0.3-0.6,0.4-0.9c0.1-0.3,0.1-0.6,0.1-1c0-0.3,0-0.6-0.2-0.9c-0.1-0.2-0.2-0.5-0.4-0.6
					c-0.2-0.2-0.4-0.3-0.6-0.4c-0.3-0.1-0.5-0.1-0.8-0.1c-0.3,0-0.5,0-0.8,0.1c-0.2,0.1-0.5,0.2-0.7,0.4c-0.2,0.2-0.3,0.3-0.5,0.5
					c-0.1,0.2-0.2,0.4-0.3,0.7c0,0.2-0.1,0.3-0.3,0.4c-0.1,0.1-0.3,0.1-0.5,0l-0.7-0.1c0.1-0.5,0.2-1,0.4-1.4
					c0.4-0.8,1.1-1.4,1.9-1.6c0.9-0.3,1.8-0.3,2.7,0c0.4,0.1,0.8,0.3,1.1,0.6c0.3,0.3,0.6,0.6,0.7,1c0.2,0.4,0.3,0.9,0.3,1.3
					c0,0.4-0.1,0.8-0.2,1.2c-0.1,0.4-0.3,0.7-0.5,1c-0.2,0.3-0.5,0.7-0.8,1c-0.3,0.3-0.6,0.6-0.9,1l-3,3.1c0.2-0.1,0.4-0.1,0.6-0.1
					c0.2,0,0.4-0.1,0.6-0.1L540.3,376.2z"/>
				<path class="st6" d="M598.4,339.2H728c7.1,0,12.8,5.7,12.8,12.8v76.8c0,7.1-5.7,12.8-12.8,12.8H598.4c-7.1,0-12.8-5.7-12.8-12.8
					V352C585.6,344.9,591.3,339.2,598.4,339.2z"/>
			</g>
		</g>
		<path class="st7" d="M252.6,364.2c0.2,0,0.4,0.1,0.6,0.2c0.2,0.1,0.2,0.4,0.2,0.6v1.4h-9.5v-0.8c0-0.2,0-0.3,0.1-0.5
			c0.1-0.2,0.2-0.3,0.3-0.5l4.2-4.2c0.4-0.4,0.7-0.7,0.9-1c0.3-0.3,0.5-0.6,0.7-1c0.2-0.3,0.3-0.6,0.4-1c0.1-0.3,0.2-0.7,0.2-1
			c0-0.3,0-0.6-0.1-0.9c-0.1-0.2-0.2-0.5-0.4-0.6c-0.2-0.2-0.4-0.3-0.6-0.4c-0.3-0.1-0.5-0.1-0.8-0.1c-0.3,0-0.5,0-0.8,0.1
			c-0.2,0.1-0.4,0.2-0.6,0.3c-0.2,0.1-0.3,0.3-0.5,0.5c-0.1,0.2-0.2,0.4-0.3,0.6c-0.1,0.2-0.2,0.4-0.4,0.6c-0.2,0.1-0.5,0.1-0.7,0.1
			l-1.2-0.2c0.1-0.6,0.3-1.2,0.6-1.7c0.3-0.5,0.6-0.9,1-1.3c0.4-0.3,0.9-0.6,1.4-0.8c0.6-0.2,1.1-0.3,1.7-0.3c0.6,0,1.2,0.1,1.8,0.3
			c0.5,0.2,1,0.4,1.4,0.8c0.4,0.3,0.7,0.8,0.9,1.2c0.2,0.5,0.3,1.1,0.3,1.6c0,0.5-0.1,1-0.2,1.4c-0.1,0.4-0.4,0.9-0.6,1.2
			c-0.3,0.4-0.6,0.8-0.9,1.2c-0.3,0.4-0.7,0.7-1.1,1.1l-3.1,3.2c0.3-0.1,0.6-0.2,0.9-0.2c0.3,0,0.6-0.1,0.9-0.1L252.6,364.2z"/>
		<path class="st7" d="M252.6,396.2c0.2,0,0.4,0.1,0.6,0.2c0.2,0.1,0.2,0.4,0.2,0.6v1.4h-9.5v-0.8c0-0.2,0-0.3,0.1-0.5
			c0.1-0.2,0.2-0.3,0.3-0.5l4.2-4.2c0.4-0.4,0.7-0.7,0.9-1c0.3-0.3,0.5-0.6,0.7-1c0.2-0.3,0.3-0.6,0.4-1c0.1-0.3,0.2-0.7,0.2-1
			c0-0.3,0-0.6-0.1-0.9c-0.1-0.2-0.2-0.5-0.4-0.6c-0.2-0.2-0.4-0.3-0.6-0.4c-0.3-0.1-0.5-0.1-0.8-0.1c-0.3,0-0.5,0-0.8,0.1
			c-0.2,0.1-0.4,0.2-0.6,0.3c-0.2,0.1-0.3,0.3-0.5,0.5c-0.1,0.2-0.2,0.4-0.3,0.6c-0.1,0.2-0.2,0.4-0.4,0.6c-0.2,0.1-0.5,0.1-0.7,0.1
			l-1.2-0.2c0.1-0.6,0.3-1.2,0.6-1.7c0.3-0.5,0.6-0.9,1-1.3c0.4-0.3,0.9-0.6,1.4-0.8c0.6-0.2,1.1-0.3,1.7-0.3c0.6,0,1.2,0.1,1.8,0.3
			c0.5,0.2,1,0.4,1.4,0.8c0.4,0.3,0.7,0.8,0.9,1.2c0.2,0.5,0.3,1.1,0.3,1.6c0,0.5-0.1,1-0.2,1.4c-0.1,0.4-0.4,0.9-0.6,1.2
			c-0.3,0.4-0.6,0.8-0.9,1.2c-0.3,0.4-0.7,0.7-1.1,1.1l-3.1,3.2c0.3-0.1,0.6-0.2,0.9-0.2c0.3,0,0.6-0.1,0.9-0.1L252.6,396.2z"/>
		<path class="st3" d="M31.6,356.2l-2.9-6.5H26l4.4,9.4c-0.4,1.1-1.6,1.8-2.8,1.6v2.5c2.5,0.1,4.2-1.1,5.3-3.7l4-9.7h-2.7
			L31.6,356.2z M43.2,353.3c-1.2-0.1-2.4,0.5-3.1,1.4v-1.1h-2.5V367h2.5v-5c0.7,0.9,1.9,1.5,3.1,1.4c1.3,0,2.5-0.5,3.3-1.5
			c1.8-2,1.8-5.2,0-7.2C45.7,353.9,44.5,353.3,43.2,353.3L43.2,353.3z M40.9,360.4c-0.5-0.5-0.8-1.2-0.7-2c0-0.7,0.2-1.4,0.7-1.9
			c1.1-1,2.7-1,3.8,0c0.5,0.5,0.8,1.2,0.8,1.9c0,0.7-0.3,1.4-0.8,2C43.6,361.4,41.9,361.4,40.9,360.4z M57,354.7
			c-0.8-0.9-1.9-1.5-3.1-1.4c-1.3,0-2.5,0.5-3.3,1.5c-1.8,2.1-1.8,5.1,0,7.2c0.8,0.9,2,1.5,3.3,1.5c1.2,0.1,2.4-0.5,3.1-1.4v1.1h2.5
			v-9.6H57V354.7z M52.4,360.4c-0.5-0.5-0.8-1.2-0.7-2c0-0.7,0.2-1.4,0.7-1.9c1.1-1,2.7-1,3.8,0c0.5,0.5,0.8,1.2,0.8,1.9
			c0,0.7-0.3,1.4-0.8,2C55.1,361.4,53.5,361.4,52.4,360.4L52.4,360.4z M62.3,353.6v5.5c0,1.5-0.6,2.1-1.6,1.8v2.3
			c2.7,0.3,4.1-1,4.1-4V356h2.7v7.2h2.5v-9.6H62.3z"/>
		<path class="st3" d="M25.8,395.2c1.2,0.2,2.4-0.1,3.4-0.9c1-0.8,1.6-2.4,1.6-4.7v-5.3h3.9v10.9h2.6v-13.4h-9.1v7.9
			c0,2.5-0.8,3.3-2.4,3V395.2z M47.9,394c2-2,2-5.2,0-7.2c-2-2-5.2-2-7.2,0c-2,2-1.9,5.2,0.1,7.2C42.7,396,45.9,395.9,47.9,394z
			 M42.4,392.3c-1-1.1-1-2.7,0-3.8c1-1,2.7-1,3.7,0c1,1.1,1,2.7,0,3.8C45.1,393.3,43.5,393.3,42.4,392.3z M56,390.3l3.9-4.7h-3
			l-3.3,4.2v-4.2h-2.5v9.6h2.5v-4.4l3.5,4.4H60L56,390.3z M68.7,394c2-2,2-5.2,0-7.2c-2-2-5.2-2-7.2,0c-2,2-1.9,5.2,0.1,7.2
			C63.5,396,66.7,395.9,68.7,394z M63.2,392.3c-1-1.1-1-2.7,0-3.8c1-1,2.7-1,3.7,0c1,1.1,1,2.7,0,3.8
			C65.9,393.3,64.2,393.3,63.2,392.3z M79.4,385.6l-2.6,4l-2.6-4h-2.4v9.6h2.4v-5.6l2.5,3.9H77l2.4-3.8v5.6h2.4v-9.6H79.4z
			 M92.3,394c2-2,2-5.2,0-7.2c-2-2-5.2-2-7.2,0c-2,2-1.9,5.2,0.1,7.2C87.2,396,90.3,395.9,92.3,394z M86.9,392.3c-1-1.1-1-2.7,0-3.8
			c1-1,2.7-1,3.7,0c1,1.1,1,2.7,0,3.8C89.5,393.3,87.9,393.3,86.9,392.3z M94.2,385.6v2.4h3v7.2h2.5V388h3v-2.4H94.2z M106.5,391.1
			v-5.5h-2.4v9.6h1.8l4.5-5.5v5.5h2.4v-9.6H111L106.5,391.1z M122,390.3c0.6-0.5,1-1.2,0.9-2c0-1.6-1.2-2.7-3.2-2.7h-4.7v9.6h5.1
			c2.1,0,3.2-1.1,3.2-2.7C123.4,391.5,122.9,390.7,122,390.3z M119.5,387.6c0.7,0,1.1,0.3,1.1,0.9s-0.3,0.9-1.1,0.9h-2.1v-1.7
			L119.5,387.6z M117.4,393.1v-1.8h2.4c0.7,0,1.1,0.3,1.1,0.9c0,0.6-0.4,0.9-1.1,0.9H117.4z"/>
		<path class="st9" d="M215.3,418.3c0.4,0.4,0.6,0.8,0.7,1.3c0.7,3.7,0.7,7.6,0,11.3c-0.3,1-1,1.8-2.1,2.1c-1.8,0.5-9.2,0.5-9.2,0.5
			s-7.3,0-9.2-0.5c-1-0.3-1.8-1.1-2.1-2c-0.7-3.7-0.7-7.6,0-11.3c0.3-1,1-1.8,2.1-2.1c1.8-0.5,9.2-0.5,9.2-0.5s7.3,0,9.2,0.4
			C214.5,417.7,214.9,417.9,215.3,418.3z M208.5,425.3l-6.1,3.5v-7L208.5,425.3z"/>
		<path class="st10" d="M242.4,421.9v-4.6h-11.3c-0.4,0-0.7,0.3-0.8,0.7v3.8h3.8c0.4,0,0.7,0.3,0.7,0.8v6c0,0.4-0.3,0.7-0.7,0.8
			h-3.8v3.8c0,0.4,0.3,0.7,0.8,0.7h11.3v-4.6c-2-0.4-3.3-2.4-2.9-4.4C239.8,423.4,241,422.2,242.4,421.9L242.4,421.9z M230.4,423.4
			v4.5h3v-4.5H230.4z M243.9,423.5v4.2c1.2-0.4,1.8-1.7,1.4-2.9C245.1,424.2,244.6,423.7,243.9,423.5z M240.9,425.6
			c0,1,0.6,1.8,1.5,2.1v-4.2C241.6,423.8,241,424.6,240.9,425.6L240.9,425.6z M252.2,421.8h3.8v-3.8c0-0.4-0.3-0.7-0.8-0.7h-11.3
			v4.6c2,0.4,3.3,2.4,2.9,4.4c-0.3,1.5-1.5,2.6-2.9,2.9v4.6h11.3c0.4,0,0.7-0.3,0.8-0.7v-3.8h-3.8c-0.4,0-0.7-0.3-0.7-0.8v-6
			C251.5,422.2,251.8,421.9,252.2,421.8L252.2,421.8z M253,423.4v4.5h3v-4.5H253z"/>
		<path class="st7" d="M59,428.6c0.2,0,0.4,0.1,0.5,0.2c0.1,0.1,0.2,0.3,0.2,0.5v1.2h-7.9v-0.7c0-0.1,0-0.3,0.1-0.4
			c0.1-0.2,0.2-0.3,0.3-0.4l3.5-3.5c0.3-0.3,0.6-0.6,0.8-0.9c0.2-0.3,0.4-0.5,0.6-0.8c0.1-0.3,0.3-0.5,0.4-0.8
			c0.1-0.3,0.1-0.6,0.1-0.9c0-0.2,0-0.5-0.1-0.7c-0.1-0.2-0.2-0.4-0.3-0.5c-0.1-0.1-0.3-0.3-0.5-0.3c-0.2-0.1-0.5-0.1-0.7-0.1
			c-0.2,0-0.4,0-0.7,0.1c-0.2,0.1-0.4,0.2-0.5,0.3c-0.2,0.1-0.3,0.3-0.4,0.4c-0.1,0.2-0.2,0.3-0.2,0.5c-0.1,0.2-0.2,0.4-0.4,0.5
			c-0.2,0.1-0.4,0.1-0.6,0.1l-1-0.2c0.1-0.5,0.2-1,0.5-1.5c0.2-0.4,0.5-0.8,0.9-1c0.4-0.3,0.8-0.5,1.2-0.6c0.5-0.1,1-0.2,1.4-0.2
			c0.5,0,1,0.1,1.5,0.2c0.4,0.1,0.8,0.4,1.1,0.7c0.3,0.3,0.6,0.6,0.7,1c0.2,0.4,0.3,0.9,0.3,1.4c0,0.4-0.1,0.8-0.2,1.2
			c-0.1,0.4-0.3,0.7-0.5,1c-0.2,0.3-0.5,0.7-0.7,1c-0.3,0.3-0.6,0.6-0.9,0.9l-2.6,2.7c0.2-0.1,0.5-0.1,0.7-0.2
			c0.2,0,0.5-0.1,0.7-0.1H59z M61.4,424.7h4.1v1.6h-4.1V424.7z M74.8,422.2v8.2h-2v-4.8c0-0.1,0-0.3,0-0.4c0-0.1,0-0.3,0.1-0.4
			c-0.1,0.2-0.2,0.4-0.4,0.6c0,0-0.1,0.1-0.2,0.2c-0.1,0.1-0.2,0.3-0.4,0.5c-0.1,0.2-0.3,0.5-0.5,0.7c-0.2,0.3-0.4,0.5-0.6,0.8
			c-0.5,0.7-1,1.4-1.6,2.2c-0.1,0.1-0.2,0.2-0.3,0.3c-0.1,0.1-0.3,0.2-0.4,0.2h-1.2v-8.2h2v4.8c0,0.1,0,0.3,0,0.4c0,0.1,0,0.3,0,0.4
			c0.1-0.2,0.2-0.4,0.4-0.6c0,0,0.1-0.1,0.2-0.2c0.1-0.1,0.2-0.3,0.4-0.5c0.2-0.2,0.3-0.5,0.5-0.7c0.2-0.3,0.4-0.5,0.6-0.8
			c0.5-0.7,1-1.4,1.6-2.2c0.1-0.1,0.2-0.2,0.3-0.3c0.1-0.1,0.3-0.2,0.4-0.2H74.8z M71.2,420.1c0.2,0,0.3,0,0.5-0.1
			c0.1,0,0.2-0.1,0.3-0.2c0.1-0.1,0.1-0.3,0.2-0.4c0-0.2,0.1-0.4,0-0.6h1.2c0.1,0,0.2,0.1,0.3,0.2c0.1,0.1,0.1,0.2,0.1,0.4
			c0,0.3-0.1,0.5-0.2,0.7c-0.1,0.2-0.3,0.4-0.5,0.6c-0.3,0.2-0.5,0.3-0.8,0.4c-0.7,0.2-1.4,0.2-2.1,0c-0.3-0.1-0.6-0.2-0.8-0.4
			c-0.2-0.1-0.4-0.3-0.5-0.6c-0.1-0.2-0.2-0.5-0.2-0.7c0-0.1,0-0.3,0.1-0.4c0.1-0.1,0.2-0.2,0.3-0.2h1.2c0,0.2,0,0.4,0,0.6
			c0,0.1,0.1,0.3,0.2,0.4c0.1,0.1,0.2,0.2,0.3,0.2C70.9,420.1,71.1,420.1,71.2,420.1z M87.7,423.7h-2.9v6.7h-2v-6.7h-2.9v-1.5h7.8
			V423.7z M93.1,426.9c-0.5,0-1,0.1-1.4,0.2c-0.3,0-0.6,0.1-0.9,0.3c-0.2,0.1-0.4,0.2-0.5,0.4c-0.1,0.1-0.2,0.3-0.2,0.5
			c0,0.3,0.1,0.6,0.3,0.7c0.2,0.2,0.5,0.2,0.8,0.2c0.4,0,0.7-0.1,1-0.2c0.3-0.2,0.6-0.4,0.9-0.7V426.9z M88.6,423.3
			c0.9-0.9,2.1-1.3,3.4-1.3c0.4,0,0.9,0.1,1.3,0.2c0.4,0.1,0.7,0.4,1,0.7c0.3,0.3,0.5,0.6,0.6,1c0.1,0.4,0.2,0.8,0.2,1.3v5.2h-0.9
			c-0.1,0-0.3,0-0.4-0.1c-0.1-0.1-0.2-0.2-0.2-0.3l-0.2-0.6c-0.2,0.2-0.4,0.3-0.6,0.5c-0.2,0.1-0.4,0.3-0.6,0.4
			c-0.2,0.1-0.5,0.2-0.7,0.2c-0.3,0.1-0.5,0.1-0.8,0.1c-0.3,0-0.6,0-1-0.1c-0.3-0.1-0.5-0.2-0.8-0.4c-0.2-0.2-0.4-0.4-0.5-0.7
			c-0.1-0.3-0.2-0.6-0.2-1c0-0.2,0-0.4,0.1-0.6c0.1-0.2,0.2-0.4,0.3-0.6c0.2-0.2,0.4-0.4,0.6-0.5c0.3-0.2,0.6-0.3,0.9-0.4
			c0.4-0.1,0.8-0.2,1.3-0.3c0.6-0.1,1.1-0.1,1.7-0.1v-0.5c0-0.4-0.1-0.9-0.4-1.2c-0.3-0.3-0.6-0.4-1-0.4c-0.3,0-0.5,0-0.8,0.1
			c-0.2,0.1-0.4,0.2-0.6,0.3c-0.2,0.1-0.3,0.2-0.4,0.2c-0.1,0.1-0.3,0.1-0.4,0.1c-0.1,0-0.2,0-0.4-0.1c-0.1-0.1-0.2-0.2-0.2-0.3
			L88.6,423.3z M104.3,422.2v8.2h-2v-4.8c0-0.1,0-0.3,0-0.4c0-0.1,0-0.3,0.1-0.4c-0.1,0.2-0.2,0.4-0.4,0.6c0,0-0.1,0.1-0.2,0.2
			c-0.1,0.1-0.2,0.3-0.4,0.5c-0.1,0.2-0.3,0.5-0.5,0.7c-0.2,0.3-0.4,0.5-0.6,0.8c-0.5,0.7-1,1.4-1.6,2.2c-0.1,0.1-0.2,0.2-0.3,0.3
			c-0.1,0.1-0.3,0.2-0.4,0.2h-1.2v-8.2h2v4.8c0,0.1,0,0.3,0,0.4c0,0.1,0,0.3,0,0.4c0.1-0.2,0.2-0.4,0.4-0.6c0,0,0.1-0.1,0.2-0.2
			c0.1-0.1,0.2-0.3,0.4-0.5c0.2-0.2,0.3-0.5,0.5-0.7c0.2-0.3,0.4-0.5,0.6-0.8c0.5-0.7,1-1.4,1.6-2.2c0.1-0.1,0.2-0.2,0.3-0.3
			c0.1-0.1,0.3-0.2,0.4-0.2H104.3z M100.7,420.1c0.2,0,0.3,0,0.5-0.1c0.1,0,0.2-0.1,0.3-0.2c0.1-0.1,0.1-0.3,0.2-0.4
			c0-0.2,0.1-0.4,0-0.6h1.2c0.1,0,0.2,0.1,0.3,0.2c0.1,0.1,0.1,0.2,0.1,0.4c0,0.3-0.1,0.5-0.2,0.7c-0.1,0.2-0.3,0.4-0.5,0.6
			c-0.3,0.2-0.5,0.3-0.8,0.4c-0.7,0.2-1.4,0.2-2.1,0c-0.3-0.1-0.6-0.2-0.8-0.4c-0.2-0.1-0.4-0.3-0.5-0.6c-0.1-0.2-0.2-0.5-0.2-0.7
			c0-0.1,0-0.3,0.1-0.4c0.1-0.1,0.2-0.2,0.3-0.2h1.2c0,0.2,0,0.4,0,0.6c0,0.1,0.1,0.3,0.2,0.4c0.1,0.1,0.2,0.2,0.3,0.2
			C100.4,420.1,100.6,420.1,100.7,420.1L100.7,420.1z M115.8,422.2v8.2H114v-4.6c0-0.2,0-0.4,0-0.6c0-0.2,0.1-0.4,0.1-0.7l-2.4,4.4
			c-0.1,0.2-0.3,0.4-0.6,0.3h-0.2c-0.2,0-0.5-0.1-0.6-0.3l-2.4-4.5c0,0.2,0.1,0.4,0.1,0.7c0,0.2,0,0.4,0,0.6v4.6h-1.8v-8.2h1.6
			c0.1,0,0.3,0,0.4,0.1c0.2,0.1,0.3,0.2,0.3,0.4l1.9,3.5c0.1,0.2,0.2,0.3,0.2,0.5c0.1,0.2,0.1,0.4,0.2,0.5c0.1-0.2,0.1-0.4,0.2-0.5
			c0.1-0.2,0.2-0.3,0.2-0.5l1.9-3.5c0.1-0.2,0.2-0.3,0.3-0.4c0.1-0.1,0.3-0.1,0.4-0.1H115.8z M117.7,432.4c-0.1-0.1-0.1-0.2-0.1-0.3
			c0-0.1,0-0.1,0-0.1c0-0.1,0.1-0.1,0.1-0.1c0.1-0.1,0.1-0.1,0.2-0.2c0.1-0.1,0.2-0.2,0.3-0.3c0.1-0.1,0.2-0.3,0.2-0.4
			c0.1-0.1,0.1-0.3,0.2-0.4c-0.2,0-0.3,0-0.5-0.1c-0.1-0.1-0.3-0.1-0.4-0.3c-0.1-0.1-0.2-0.2-0.2-0.4c-0.1-0.2-0.1-0.3-0.1-0.5
			c0-0.1,0-0.3,0.1-0.4c0.1-0.1,0.1-0.2,0.2-0.3c0.1-0.1,0.2-0.2,0.4-0.2c0.2-0.1,0.3-0.1,0.5-0.1c0.2,0,0.4,0,0.5,0.1
			c0.1,0.1,0.3,0.2,0.4,0.3c0.1,0.1,0.2,0.3,0.2,0.4c0.1,0.2,0.1,0.3,0.1,0.5c0,0.3,0,0.5-0.1,0.8c-0.1,0.3-0.2,0.6-0.3,0.8
			c-0.2,0.3-0.3,0.6-0.6,0.8c-0.2,0.3-0.5,0.5-0.8,0.7L117.7,432.4z M133.1,418.8v0.9c0,0.2,0,0.4-0.1,0.6c0,0.1-0.1,0.3-0.2,0.4
			l-4.4,9c-0.1,0.2-0.2,0.4-0.4,0.5c-0.2,0.1-0.4,0.2-0.7,0.2H126l4.5-8.8c0.1-0.2,0.2-0.3,0.3-0.5c0.1-0.2,0.2-0.3,0.3-0.4h-5.5
			c-0.2,0-0.5-0.2-0.5-0.5v-1.3L133.1,418.8z M138.3,429c0.3,0,0.6,0,0.9-0.1c0.2-0.1,0.4-0.2,0.6-0.4c0.2-0.2,0.3-0.4,0.4-0.6
			c0.1-0.2,0.1-0.5,0.1-0.7c0-0.5-0.2-1.1-0.5-1.4c-0.9-0.7-2.1-0.7-2.9,0c-0.4,0.4-0.6,0.9-0.5,1.4c0,0.3,0,0.5,0.1,0.7
			c0.1,0.2,0.2,0.4,0.4,0.6c0.2,0.2,0.4,0.3,0.6,0.4C137.7,428.9,138,429,138.3,429L138.3,429z M138.3,420.2c-0.3,0-0.5,0-0.8,0.1
			c-0.2,0.1-0.4,0.2-0.5,0.4c-0.1,0.1-0.2,0.3-0.3,0.5c-0.1,0.2-0.1,0.4-0.1,0.6c0,0.2,0,0.5,0.1,0.7c0.1,0.2,0.2,0.4,0.3,0.6
			c0.1,0.2,0.3,0.3,0.5,0.4c0.5,0.2,1.1,0.2,1.6,0c0.2-0.1,0.4-0.2,0.5-0.4c0.1-0.2,0.2-0.4,0.3-0.6c0.1-0.2,0.1-0.4,0.1-0.7
			c0-0.2,0-0.4-0.1-0.6c-0.1-0.4-0.4-0.7-0.8-0.9C138.8,420.2,138.6,420.2,138.3,420.2z M140.3,424.4c0.6,0.2,1.2,0.5,1.6,1.1
			c0.3,0.5,0.5,1.1,0.5,1.7c0,0.5-0.1,1-0.3,1.4c-0.2,0.4-0.5,0.8-0.8,1.1c-0.4,0.3-0.8,0.5-1.3,0.7c-0.5,0.2-1.1,0.2-1.6,0.2
			c-0.6,0-1.1-0.1-1.6-0.2c-0.5-0.1-0.9-0.4-1.3-0.7c-0.3-0.3-0.6-0.7-0.8-1.1c-0.2-0.4-0.3-0.9-0.3-1.4c0-0.6,0.2-1.2,0.5-1.7
			c0.4-0.5,0.9-0.9,1.6-1.1c-0.5-0.2-1-0.5-1.3-1c-0.3-0.5-0.4-1-0.4-1.6c0-0.4,0.1-0.8,0.3-1.2c0.2-0.4,0.4-0.7,0.8-1
			c0.3-0.3,0.7-0.5,1.1-0.7c0.5-0.2,1-0.2,1.5-0.2c0.5,0,1,0.1,1.5,0.2c0.4,0.1,0.8,0.4,1.2,0.7c0.3,0.3,0.6,0.6,0.7,1
			c0.4,0.9,0.4,1.9-0.2,2.8C141.2,423.8,140.8,424.2,140.3,424.4L140.3,424.4z M157.3,422.2v8.2h-1.8v-4.6c0-0.2,0-0.4,0-0.6
			c0-0.2,0.1-0.4,0.1-0.7l-2.4,4.4c-0.1,0.2-0.3,0.4-0.6,0.3h-0.2c-0.2,0-0.5-0.1-0.6-0.3l-2.4-4.5c0,0.2,0.1,0.4,0.1,0.7
			c0,0.2,0,0.4,0,0.6v4.6h-1.8v-8.2h1.6c0.1,0,0.3,0,0.4,0.1c0.2,0.1,0.3,0.2,0.3,0.4l1.9,3.5c0.1,0.2,0.2,0.3,0.2,0.5
			c0.1,0.2,0.1,0.4,0.2,0.5c0.1-0.2,0.1-0.4,0.2-0.5c0.1-0.2,0.2-0.3,0.2-0.5l1.9-3.5c0.1-0.2,0.2-0.3,0.3-0.4
			c0.1-0.1,0.3-0.1,0.4-0.1H157.3z M166.7,422.2v8.2h-2v-4.8c0-0.1,0-0.3,0-0.4c0-0.1,0-0.3,0.1-0.4c-0.1,0.2-0.2,0.4-0.4,0.6
			c0,0-0.1,0.1-0.2,0.2c-0.1,0.1-0.2,0.3-0.4,0.5c-0.1,0.2-0.3,0.5-0.5,0.7c-0.2,0.3-0.4,0.5-0.6,0.8c-0.5,0.7-1,1.4-1.6,2.2
			c-0.1,0.1-0.2,0.2-0.3,0.3c-0.1,0.1-0.3,0.2-0.4,0.2h-1.2v-8.2h2v4.8c0,0.1,0,0.3,0,0.4c0,0.1,0,0.3,0,0.4
			c0.1-0.2,0.2-0.4,0.4-0.6c0,0,0.1-0.1,0.2-0.2s0.2-0.3,0.4-0.5c0.2-0.2,0.3-0.5,0.5-0.7c0.2-0.3,0.4-0.5,0.6-0.8
			c0.5-0.7,1-1.4,1.6-2.2c0.1-0.1,0.2-0.2,0.3-0.3c0.1-0.1,0.3-0.2,0.4-0.2H166.7z M175.8,422.2v8.2h-2v-3.6h-3.2v3.6h-2v-8.2h2v3.1
			h3.2v-3.1H175.8z"/>
		<circle class="st8" cx="32" cy="424" r="6.4"/>
	</g>
</g>
</svg>
