<svg xmlns="http://www.w3.org/2000/svg" viewBox="0 0 180.3945 21.3242"><defs><style>.a{fill:#fff;}</style></defs><path class="a" d="M15.5762,20.6162H13.0205V5.3877H4.6924V20.6162H2.124V3.3838H15.5762Z" transform="translate(-2.124 -3.3838)"/><path class="a" d="M18.708,10.1279a6.6919,6.6919,0,0,1,4.8359-1.9316,4.68,4.68,0,0,1,1.8487.3418,3.8,3.8,0,0,1,1.3554.9541,4.0464,4.0464,0,0,1,.834,1.4639,5.9566,5.9566,0,0,1,.2823,1.8837v7.7764H26.82a.9948.9948,0,0,1-.5283-.1142.7872.7872,0,0,1-.2881-.4258l-.2519-1.0684a10.008,10.008,0,0,1-.9239.7617,5.8746,5.8746,0,0,1-.9541.5645,4.8087,4.8087,0,0,1-1.0615.3535,6.0008,6.0008,0,0,1-1.248.12,4.486,4.486,0,0,1-1.3506-.1972,3.0336,3.0336,0,0,1-1.0977-.6065,2.88,2.88,0,0,1-.7383-1.02,3.5214,3.5214,0,0,1-.27-1.4287,2.71,2.71,0,0,1,.39-1.3858,3.5183,3.5183,0,0,1,1.2725-1.1943,8.173,8.173,0,0,1,2.3037-.8633,17.2022,17.2022,0,0,1,3.4981-.3848V12.84a3.1,3.1,0,0,0-.5879-2.0634,2.1546,2.1546,0,0,0-1.7285-.6846,3.7677,3.7677,0,0,0-1.29.1924,4.9549,4.9549,0,0,0-.8994.4258c-.2519.1562-.4726.2978-.66.4257a1.0224,1.0224,0,0,1-.582.1924.666.666,0,0,1-.414-.1318,1.1,1.1,0,0,1-.2823-.3125Zm6.8643,5.0762a18.0048,18.0048,0,0,0-2.4239.2217,6.7055,6.7055,0,0,0-1.62.4619,2.2034,2.2034,0,0,0-.9.6787,1.4718,1.4718,0,0,0-.2754.8691,1.89,1.89,0,0,0,.1495.7862,1.4619,1.4619,0,0,0,.4082.54,1.633,1.633,0,0,0,.6064.3067,2.8531,2.8531,0,0,0,.7559.0957,4.2415,4.2415,0,0,0,.99-.1084,3.9268,3.9268,0,0,0,.8457-.3057,4.2439,4.2439,0,0,0,.7559-.4863,6.6906,6.6906,0,0,0,.708-.66Z" transform="translate(-2.124 -3.3838)"/><path class="a" d="M33.2275,10.248a7.4616,7.4616,0,0,1,.8223-.8339,5.2287,5.2287,0,0,1,.9424-.6485,4.94,4.94,0,0,1,1.0742-.42,4.7833,4.7833,0,0,1,1.2178-.1494,4.2966,4.2966,0,0,1,1.89.4072,3.969,3.969,0,0,1,1.4463,1.2,5.8617,5.8617,0,0,1,.93,1.9561,9.8482,9.8482,0,0,1,.33,2.6757,8.3043,8.3043,0,0,1-.3662,2.5147,6.1931,6.1931,0,0,1-1.044,2.01,4.7821,4.7821,0,0,1-3.8574,1.8242,4.433,4.433,0,0,1-1.8721-.36,4.4982,4.4982,0,0,1-1.3925-1.0078v5.292h-2.34V8.4238h1.4043a.5718.5718,0,0,1,.6123.4678Zm.12,7.3682A3.3233,3.3233,0,0,0,34.59,18.6719a3.5979,3.5979,0,0,0,1.4942.3,2.9484,2.9484,0,0,0,2.49-1.1572,5.5089,5.5089,0,0,0,.8819-3.379,8.6036,8.6036,0,0,0-.1983-1.9853,3.78,3.78,0,0,0-.5762-1.3438,2.2824,2.2824,0,0,0-.93-.7685,3.0347,3.0347,0,0,0-1.2481-.2461,3.3414,3.3414,0,0,0-1.77.4561,5.0719,5.0719,0,0,0-1.3867,1.2959Z" transform="translate(-2.124 -3.3838)"/><path class="a" d="M55.08,8.4238V20.6162H52.7285V12.6484q0-.24.0235-.5341c.0166-.1963.04-.3946.0722-.5948q-.12.252-.2344.4746a2.9472,2.9472,0,0,1-.2334.39L46.752,20.0283a1.8263,1.8263,0,0,1-.3477.4072.7144.7144,0,0,1-.4922.1924h-1.416V8.4238h2.34v7.98q0,.24-.0234.5332c-.0166.1963-.04.3906-.0723.582a5.4214,5.4214,0,0,1,.4678-.8515l5.6045-7.6563a1.8975,1.8975,0,0,1,.3535-.3955.7447.7447,0,0,1,.4981-.1924Z" transform="translate(-2.124 -3.3838)"/><path class="a" d="M63.6475,9.6963A5.3747,5.3747,0,0,1,65.3281,8.64a6.2989,6.2989,0,0,1,2.3877-.4072,6.53,6.53,0,0,1,1.9678.27,4.5911,4.5911,0,0,1,1.4346.72,3.0664,3.0664,0,0,1,.8759,1.0263,2.6145,2.6145,0,0,1,.294,1.2,2.6662,2.6662,0,0,1-.1143.75,2.5626,2.5626,0,0,1-.3662.75,2.9267,2.9267,0,0,1-.666.6661,3.6555,3.6555,0,0,1-1.0254.51,3.7925,3.7925,0,0,1,1.7871,1.1035,2.7634,2.7634,0,0,1,.66,1.8848,3.0493,3.0493,0,0,1-.39,1.5361,3.6279,3.6279,0,0,1-1.05,1.1573,4.9712,4.9712,0,0,1-1.5244.7265,6.3954,6.3954,0,0,1-1.8.252,6.7046,6.7046,0,0,1-1.1816-.1084,6.3859,6.3859,0,0,1-1.1944-.336,5.4443,5.4443,0,0,1-1.1162-.5878,4.4906,4.4906,0,0,1-.9482-.876l.6718-.8643a.5181.5181,0,0,1,.4444-.2158.796.796,0,0,1,.4746.1865,7.0679,7.0679,0,0,0,.6.4014,4.9332,4.9332,0,0,0,.8516.4023,3.579,3.579,0,0,0,1.2422.1856,3.8073,3.8073,0,0,0,1.1337-.1553,2.5314,2.5314,0,0,0,.8409-.4326,1.8791,1.8791,0,0,0,.5214-.6475,1.8476,1.8476,0,0,0,.18-.8164,1.6213,1.6213,0,0,0-.708-1.38,3.7247,3.7247,0,0,0-2.1836-.5156h-1.38v-1.56h1.38a3.571,3.571,0,0,0,2.0157-.4864,1.4586,1.4586,0,0,0,.7207-1.2539,1.4018,1.4018,0,0,0-.1563-.6416,1.56,1.56,0,0,0-.4736-.54,2.4271,2.4271,0,0,0-.792-.3662,4.12,4.12,0,0,0-1.0986-.1319,4.3206,4.3206,0,0,0-1.1758.1377,4.8691,4.8691,0,0,0-.8164.3067c-.2237.1113-.41.2138-.5576.3056a.7608.7608,0,0,1-.378.1377.5556.5556,0,0,1-.2822-.0654.8188.8188,0,0,1-.2461-.27Z" transform="translate(-2.124 -3.3838)"/><path class="a" d="M74.88,10.1279a6.6919,6.6919,0,0,1,4.8359-1.9316,4.6784,4.6784,0,0,1,1.8477.3418,3.795,3.795,0,0,1,1.3564.9541,4.0757,4.0757,0,0,1,.834,1.4639,5.9856,5.9856,0,0,1,.2813,1.8837v7.7764h-1.044a.9933.9933,0,0,1-.5273-.1142.7867.7867,0,0,1-.2881-.4258l-.252-1.0684A10.1282,10.1282,0,0,1,81,19.77a5.9218,5.9218,0,0,1-.9541.5645,4.8171,4.8171,0,0,1-1.0625.3535,6.0008,6.0008,0,0,1-1.248.12,4.4852,4.4852,0,0,1-1.35-.1972,3.0339,3.0339,0,0,1-1.0976-.6065,2.8562,2.8562,0,0,1-.7383-1.02,3.5045,3.5045,0,0,1-.27-1.4287A2.701,2.701,0,0,1,74.67,16.17a3.5146,3.5146,0,0,1,1.2715-1.1943,8.1806,8.1806,0,0,1,2.3047-.8633,17.1831,17.1831,0,0,1,3.4971-.3848V12.84a3.095,3.095,0,0,0-.5879-2.0634,2.1525,2.1525,0,0,0-1.7276-.6846,3.7635,3.7635,0,0,0-1.29.1924,4.9631,4.9631,0,0,0-.9.4258q-.3779.2343-.66.4257a1.02,1.02,0,0,1-.581.1924.6642.6642,0,0,1-.4141-.1318,1.1012,1.1012,0,0,1-.2822-.3125Zm6.8633,5.0762a18.0048,18.0048,0,0,0-2.4239.2217,6.7055,6.7055,0,0,0-1.62.4619,2.1927,2.1927,0,0,0-.8994.6787,1.4658,1.4658,0,0,0-.2764.8691,1.8756,1.8756,0,0,0,.15.7862,1.4429,1.4429,0,0,0,.4082.54,1.63,1.63,0,0,0,.6055.3067,2.8639,2.8639,0,0,0,.7559.0957,4.2294,4.2294,0,0,0,.99-.1084,3.91,3.91,0,0,0,.8457-.3057,4.1769,4.1769,0,0,0,.7559-.4863,6.5948,6.5948,0,0,0,.708-.66Z" transform="translate(-2.124 -3.3838)"/><path class="a" d="M94.5479,9.06a1.4509,1.4509,0,0,1,.4794-.4561,1.2254,1.2254,0,0,1,.6358-.18H97.499l-3.084,4.6084a3.6814,3.6814,0,0,1-.6.7442,2.1331,2.1331,0,0,1-.7675.4433,2.6653,2.6653,0,0,1,.9716.4981,3.27,3.27,0,0,1,.708.8584l3.1075,5.04H96.2158a1.8843,1.8843,0,0,1-.9785-.21,1.7728,1.7728,0,0,1-.582-.6064l-2.2315-3.6836a1.861,1.861,0,0,0-.69-.6846,1.9534,1.9534,0,0,0-.9541-.2275H89.52v5.4238H87.18V8.4238h2.34v5.208H90.623a1.6862,1.6862,0,0,0,.8584-.2041,1.7728,1.7728,0,0,0,.6055-.6Z" transform="translate(-2.124 -3.3838)"/><path class="a" d="M110.5918,20.6162H108.251V10.26h-3.6358a37.5293,37.5293,0,0,1-.4326,3.9785,18.07,18.07,0,0,1-.6953,2.8437,8.07,8.07,0,0,1-.9062,1.8955,4.5224,4.5224,0,0,1-1.0557,1.1289,3.2242,3.2242,0,0,1-1.1465.5391,5.0869,5.0869,0,0,1-1.1758.1387q-1.0928,0-1.0918-.36V18.9482h.6475a2.5706,2.5706,0,0,0,.8223-.1386,2.1239,2.1239,0,0,0,.8164-.54,4.3164,4.3164,0,0,0,.7617-1.1211,9.71,9.71,0,0,0,.66-1.8906,24.0908,24.0908,0,0,0,.5157-2.85q.2168-1.68.3359-3.9844h7.9209Z" transform="translate(-2.124 -3.3838)"/><path class="a" d="M119.0391,13.5957a7.3681,7.3681,0,0,1,.5527-2.2314,5.2688,5.2688,0,0,1,1.14-1.6924,4.8447,4.8447,0,0,1,1.668-1.0684,6.4253,6.4253,0,0,1,4.4824.0664,4.8819,4.8819,0,0,1,1.77,1.26,5.7157,5.7157,0,0,1,1.1279,1.98,8.001,8.001,0,0,1,.3965,2.5976,7.8529,7.8529,0,0,1-.4082,2.6045,5.75,5.75,0,0,1-1.1465,1.9795,4.9708,4.9708,0,0,1-1.7754,1.2539,5.8564,5.8564,0,0,1-2.2988.4385,6.0161,6.0161,0,0,1-2.1953-.378,4.7078,4.7078,0,0,1-1.6739-1.0917,5.343,5.343,0,0,1-1.122-1.7286,7.3982,7.3982,0,0,1-.5166-2.2861H116.22v5.3164h-2.3408V8.4238H116.22v5.1719Zm5.5078,5.3643a2.7166,2.7166,0,0,0,2.4189-1.1641,5.82,5.82,0,0,0,.7852-3.2764,5.8479,5.8479,0,0,0-.7852-3.2812,3.0716,3.0716,0,0,0-4.8242,0,5.84,5.84,0,0,0-.7861,3.2812,5.8119,5.8119,0,0,0,.7861,3.2764A2.7015,2.7015,0,0,0,124.5469,18.96Z" transform="translate(-2.124 -3.3838)"/><path class="a" d="M141.9229,8.4238V20.6162h-2.34V15.54a15.9371,15.9371,0,0,1-2.94.4981,6.3845,6.3845,0,0,1-2.3877-.24,3.0762,3.0762,0,0,1-1.6026-1.14,3.7094,3.7094,0,0,1-.582-2.2021V8.4238h2.3526v3.6719a2.4234,2.4234,0,0,0,.3242,1.3379,1.7036,1.7036,0,0,0,.9717.6963,4.3918,4.3918,0,0,0,1.6142.12,16.4847,16.4847,0,0,0,2.25-.3662v-5.46Z" transform="translate(-2.124 -3.3838)"/><path class="a" d="M155.2188,18.876a4.6187,4.6187,0,0,1-.9961.87,5.7457,5.7457,0,0,1-1.2.5937,7.2676,7.2676,0,0,1-1.3145.336,8.469,8.469,0,0,1-1.3379.1084,6.29,6.29,0,0,1-2.334-.4258,5.1869,5.1869,0,0,1-1.8593-1.248,5.69,5.69,0,0,1-1.2247-2.04,8.2655,8.2655,0,0,1-.4375-2.8027,6.9364,6.9364,0,0,1,.3956-2.3692,5.7212,5.7212,0,0,1,1.1337-1.914A5.2282,5.2282,0,0,1,147.8506,8.7a5.9094,5.9094,0,0,1,2.3994-.4678,5.6544,5.6544,0,0,1,2.0586.3653,4.5759,4.5759,0,0,1,1.626,1.0625,4.9265,4.9265,0,0,1,1.0742,1.7158,6.4892,6.4892,0,0,1,.39,2.3281,1.48,1.48,0,0,1-.12.7256.4882.4882,0,0,1-.4443.1865h-7.9912a6.5784,6.5784,0,0,0,.3115,1.9014,3.8522,3.8522,0,0,0,.7617,1.3506,3.0329,3.0329,0,0,0,1.1582.8037,4.078,4.078,0,0,0,1.5.2636,4.5073,4.5073,0,0,0,1.3506-.18,6.5705,6.5705,0,0,0,.9834-.39c.2764-.14.5078-.27.6963-.3906a.9642.9642,0,0,1,.498-.18.5181.5181,0,0,1,.4444.2158Zm-1.9327-5.7119a4.0111,4.0111,0,0,0-.1972-1.2842,2.9314,2.9314,0,0,0-.5821-1.0195,2.6563,2.6563,0,0,0-.9365-.6729,3.1784,3.1784,0,0,0-1.2715-.2393,3.1264,3.1264,0,0,0-2.3222.8516,4.1235,4.1235,0,0,0-1.0743,2.3643Z" transform="translate(-2.124 -3.3838)"/><path class="a" d="M168.19,8.4238V20.6162h-2.3515V15h-5.58v5.6162H157.918V8.4238h2.3408v4.8h5.58v-4.8Z" transform="translate(-2.124 -3.3838)"/><path class="a" d="M176.6621,8.2324a6.44,6.44,0,0,1,2.43.4375A5.063,5.063,0,0,1,180.94,9.93a5.6312,5.6312,0,0,1,1.17,1.98,7.7931,7.7931,0,0,1,.4082,2.5976,7.8555,7.8555,0,0,1-.4082,2.6045,5.558,5.558,0,0,1-1.17,1.9795,5.0985,5.0985,0,0,1-1.8486,1.2539,6.9831,6.9831,0,0,1-4.8711,0,5.1549,5.1549,0,0,1-1.8545-1.2539,5.5661,5.5661,0,0,1-1.1816-1.9795,7.7265,7.7265,0,0,1-.4141-2.6045,7.6653,7.6653,0,0,1,.4141-2.5976,5.64,5.64,0,0,1,1.1816-1.98,5.1185,5.1185,0,0,1,1.8545-1.26A6.473,6.473,0,0,1,176.6621,8.2324Zm0,10.7276a2.9874,2.9874,0,0,0,2.58-1.1641,5.4637,5.4637,0,0,0,.8525-3.2764,5.49,5.49,0,0,0-.8525-3.2812,2.9814,2.9814,0,0,0-2.58-1.17,3.0215,3.0215,0,0,0-2.6094,1.17,5.4617,5.4617,0,0,0-.8584,3.2812,5.4357,5.4357,0,0,0,.8584,3.2764A3.0276,3.0276,0,0,0,176.6621,18.96Z" transform="translate(-2.124 -3.3838)"/></svg>