<svg xmlns="http://www.w3.org/2000/svg" xmlns:xlink="http://www.w3.org/1999/xlink" viewBox="0 0 375 326"><defs><style>.a{fill:none;}.b{clip-path:url(#a);}.c{fill:#f6f7fb;}.d{fill:#0d0d0d;}.e{fill:#737373;}.f{fill:#d8dbe6;}</style><clipPath id="a"><rect class="a" width="375" height="326" rx="16"/></clipPath></defs><g class="b"><rect class="c" width="375" height="80"/><path class="d" d="M20,23.7a2.2013,2.2013,0,0,0,.8-.1,1.3315,1.3315,0,0,0,.5-.3c.1-.1.2-.3.3-.4a.901.901,0,0,0,.1-.5.7494.7494,0,0,0-.1-.5c0-.2-.1-.3-.3-.4a2.1843,2.1843,0,0,0-.5-.3,1.9493,1.9493,0,0,0-.8-.1H18.6v2.6Zm0-3.8a5.9035,5.9035,0,0,1,1.4.2,3.1277,3.1277,0,0,1,1,.5,5.5466,5.5466,0,0,1,.6.8,2.92,2.92,0,0,1,.2.9,3.5957,3.5957,0,0,1-.2,1.1,2.3618,2.3618,0,0,1-.6.9,3.1277,3.1277,0,0,1-1,.5A7.8453,7.8453,0,0,1,20,25H17V16.3h5.9v1.2H18.6v2.3H20Zm7.5,2.5c-.4,0-.7.1-1.1.1a1.8523,1.8523,0,0,0-.7.2c-.1.1-.3.2-.4.3s-.1.2-.1.4a1.4214,1.4214,0,0,0,.2.6,1.4214,1.4214,0,0,0,.6.2,1.2025,1.2025,0,0,0,.8-.2,3.0367,3.0367,0,0,0,.7-.5Zm-3.4-2.7a3.9986,3.9986,0,0,1,2.6-1,3.5523,3.5523,0,0,1,1,.2,1.7934,1.7934,0,0,1,.7.5,1.2345,1.2345,0,0,1,.4.8,2.96,2.96,0,0,1,.2,1V25h-.7a.3673.3673,0,0,1-.3-.1c-.1-.1-.2-.2-.2-.3l-.1-.4a2.1822,2.1822,0,0,1-.5.4,2.1843,2.1843,0,0,1-.5.3c-.2.1-.3.1-.5.2-.2,0-.4.1-.6.1a1.7021,1.7021,0,0,1-.7-.1l-.6-.3a.9981.9981,0,0,1-.4-.5,1.7021,1.7021,0,0,1-.1-.7.901.901,0,0,1,.1-.5c.1-.2.1-.3.3-.4a.9981.9981,0,0,1,.5-.4,4.878,4.878,0,0,1,.7-.3,2.96,2.96,0,0,1,1-.2,4.8643,4.8643,0,0,1,1.2-.1v-.4a1.3962,1.3962,0,0,0-.3-.9,1.1354,1.1354,0,0,0-.8-.3,1.2688,1.2688,0,0,0-.6.1c-.1.1-.3.1-.4.2s-.2.1-.3.2a.5.5,0,0,1-.6,0l-.2-.2Zm7.7,3.7a.9981.9981,0,0,0,.5.4,1.85,1.85,0,0,0,1.2,0,1.7531,1.7531,0,0,0,.5-.4l.3-.6a2.7682,2.7682,0,0,0,.1-.9,2.7682,2.7682,0,0,0-.1-.9,1.4214,1.4214,0,0,0-.2-.6c-.1-.1-.2-.3-.4-.3a.901.901,0,0,0-.5-.1,2.3546,2.3546,0,0,0-.8.2,2.649,2.649,0,0,0-.6.5Zm0-3.7a2.1784,2.1784,0,0,1,.9-.7,2.016,2.016,0,0,1,1.1-.3,2.92,2.92,0,0,1,.9.2c.3.1.5.4.7.6a3.1277,3.1277,0,0,1,.5,1,6.6016,6.6016,0,0,1,.1,1.4,5.8517,5.8517,0,0,1-.2,1.3,3.1277,3.1277,0,0,1-.5,1,2.4628,2.4628,0,0,1-1.9.9,1.4863,1.4863,0,0,1-.9-.2c-.2-.1-.5-.3-.7-.4V27H30.3V18.8h.9c.2,0,.3.1.4.3Zm9.8.4-.1.1c-.1,0-.1.1-.2,0-.1,0-.2,0-.2-.1-.1,0-.2-.1-.3-.2s-.2-.1-.4-.2a1.6724,1.6724,0,0,0-1.2.1.9981.9981,0,0,0-.5.4l-.3.6a4.8446,4.8446,0,0,0,0,1.7,3.3294,3.3294,0,0,0,.3.6.9981.9981,0,0,0,.5.4,1.85,1.85,0,0,0,1.2,0c.1-.1.3-.1.4-.2s.2-.1.3-.2a.5.5,0,0,1,.6,0l.4.5-.5.5a3.0811,3.0811,0,0,1-1.2.5h-.6a4.2534,4.2534,0,0,1-1.1-.2,4.6982,4.6982,0,0,1-.9-.6,2.075,2.075,0,0,1-.6-1,3.8681,3.8681,0,0,1,0-2.6,2.075,2.075,0,0,1,.6-1,5.4936,5.4936,0,0,1,.9-.7,2.7451,2.7451,0,0,1,1.3-.2,5.02,5.02,0,0,1,1.2.2,2.0332,2.0332,0,0,1,.9.6Zm5.2,1.1a.7494.7494,0,0,0-.1-.5c0-.2-.1-.3-.2-.5-.1-.1-.3-.2-.4-.3a1.2686,1.2686,0,0,0-.6-.1,1.2836,1.2836,0,0,0-1,.4,2.3559,2.3559,0,0,0-.5,1Zm-2.8.9a1.8845,1.8845,0,0,0,.2.8l.3.6a.85.85,0,0,0,.5.3,1.4828,1.4828,0,0,0,.7.1,1.2686,1.2686,0,0,0,.6-.1c.2,0,.3-.1.5-.2.1-.1.2-.1.3-.2a.5.5,0,0,1,.6,0l.4.5c-.2.2-.3.4-.6.5l-.6.3a.7446.7446,0,0,1-.7.3h-.7a5.02,5.02,0,0,1-1.2-.2,3.3287,3.3287,0,0,1-1-.6,2.075,2.075,0,0,1-.6-1,3.4026,3.4026,0,0,1-.2-1.4,5.02,5.02,0,0,1,.2-1.2,2.075,2.075,0,0,1,.6-1,5.4936,5.4936,0,0,1,.9-.7,2.5364,2.5364,0,0,1,1.2-.2,4.2534,4.2534,0,0,1,1.1.2,2.1776,2.1776,0,0,1,.8.5,3.488,3.488,0,0,1,.6.9,5.02,5.02,0,0,1,.2,1.2.901.901,0,0,1-.1.5.3673.3673,0,0,1-.3.1ZM55,25H53.5V20H52a13.5538,13.5538,0,0,1-.2,2,7.3717,7.3717,0,0,1-.4,1.4,4.0539,4.0539,0,0,1-.5.9,1.205,1.205,0,0,1-.5.5,1.4214,1.4214,0,0,1-.6.2c-.2,0-.4.1-.6.1a.901.901,0,0,1-.5-.1c-.1,0-.1-.1-.2-.2V24h.4a.6012.6012,0,0,0,.4-.1.7578.7578,0,0,0,.4-.2c.1-.2.3-.3.4-.5l.3-.9c.1-.5.2-.9.3-1.4s.1-1.2.2-2H55Zm4.2-6.3a5.02,5.02,0,0,1,1.2.2,3.3287,3.3287,0,0,1,1,.6,2.075,2.075,0,0,1,.6,1,3.8656,3.8656,0,0,1,0,2.6,2.4039,2.4039,0,0,1-1.6,1.6,2.5364,2.5364,0,0,1-1.2.2,5.8517,5.8517,0,0,1-1.3-.2,3.3287,3.3287,0,0,1-1-.6,2.075,2.075,0,0,1-.6-1,3.8656,3.8656,0,0,1,0-2.6,2.4039,2.4039,0,0,1,1.6-1.6A5.0652,5.0652,0,0,1,59.2,18.7Zm0,5.3a1.4325,1.4325,0,0,0,1.1-.5,2.8226,2.8226,0,0,0,.4-1.5,2.6042,2.6042,0,0,0-.4-1.5,1.069,1.069,0,0,0-1.1-.5,1.6558,1.6558,0,0,0-1.2.5,2.8226,2.8226,0,0,0-.4,1.5,2.6042,2.6042,0,0,0,.4,1.5A1.6558,1.6558,0,0,0,59.2,24Zm9.5-5.2V25H67.2V22.3H64.8V25H63.3V18.8h1.5v2.3h2.4V18.8Zm4.7,3.6c-.4,0-.7.1-1.1.1a1.8523,1.8523,0,0,0-.7.2c-.1.1-.3.2-.4.3s-.1.2-.1.4a1.4214,1.4214,0,0,0,.2.6,1.4214,1.4214,0,0,0,.6.2,1.2025,1.2025,0,0,0,.8-.2,3.0367,3.0367,0,0,0,.7-.5ZM70,19.7a3.9986,3.9986,0,0,1,2.6-1,3.5523,3.5523,0,0,1,1,.2,1.7934,1.7934,0,0,1,.7.5,1.235,1.235,0,0,1,.4.8,2.96,2.96,0,0,1,.2,1V25h-.7a.3673.3673,0,0,1-.3-.1c-.1-.1-.2-.2-.2-.3l-.1-.4a4.5564,4.5564,0,0,1-1,.7c-.2.1-.3.1-.5.2-.2,0-.4.1-.6.1a1.7021,1.7021,0,0,1-.7-.1l-.6-.3a.9981.9981,0,0,1-.4-.5,1.7021,1.7021,0,0,1-.1-.7.901.901,0,0,1,.1-.5c.1-.2.1-.3.3-.4a.9981.9981,0,0,1,.5-.4,4.878,4.878,0,0,1,.7-.3,2.96,2.96,0,0,1,1-.2,4.8692,4.8692,0,0,1,1.2-.1v-.4a1.3962,1.3962,0,0,0-.3-.9,1.1355,1.1355,0,0,0-.8-.3,1.2686,1.2686,0,0,0-.6.1c-.1.1-.3.1-.4.2s-.2.1-.3.2a.5.5,0,0,1-.6,0l-.2-.2Z"/><path class="d" d="M19.8,40.7a1.6831,1.6831,0,0,0,1.3-.4.85.85,0,0,0,.3-.5,1.4828,1.4828,0,0,0,.1-.7,1.2686,1.2686,0,0,0-.1-.6c-.1-.2-.2-.3-.3-.5-.2-.1-.3-.2-.5-.3a2.2013,2.2013,0,0,0-.8-.1H18.6v3.1Zm0-4.4a7.7236,7.7236,0,0,1,1.5.2,2.075,2.075,0,0,1,1,.6,1.4561,1.4561,0,0,1,.6.9,4.2534,4.2534,0,0,1,.2,1.1,5.02,5.02,0,0,1-.2,1.2,2.8355,2.8355,0,0,1-.6.9,2.3836,2.3836,0,0,1-1.1.6,7.7236,7.7236,0,0,1-1.5.2H18.5v3H17V36.3Zm8,4.9a.7494.7494,0,0,0-.1-.5c0-.2-.1-.3-.2-.5-.1-.1-.3-.2-.4-.3a1.2688,1.2688,0,0,0-.6-.1,1.2836,1.2836,0,0,0-1,.4,2.3559,2.3559,0,0,0-.5,1Zm-2.8.9a1.8845,1.8845,0,0,0,.2.8l.3.6a.85.85,0,0,0,.5.3,1.4828,1.4828,0,0,0,.7.1,1.2686,1.2686,0,0,0,.6-.1c.2,0,.3-.1.5-.2.1-.1.2-.1.3-.2a.5.5,0,0,1,.6,0l.4.5c-.2.2-.3.4-.6.5l-.6.3c-.2.3-.4.3-.7.3h-.7a5.02,5.02,0,0,1-1.2-.2,3.3287,3.3287,0,0,1-1-.6,2.075,2.075,0,0,1-.6-1,3.4026,3.4026,0,0,1-.2-1.4,5.02,5.02,0,0,1,.2-1.2,2.075,2.075,0,0,1,.6-1,5.4936,5.4936,0,0,1,.9-.7,2.5364,2.5364,0,0,1,1.2-.2,4.2534,4.2534,0,0,1,1.1.2,2.1776,2.1776,0,0,1,.8.5,3.488,3.488,0,0,1,.6.9,5.02,5.02,0,0,1,.2,1.2.901.901,0,0,1-.1.5.3673.3673,0,0,1-.3.1Zm8.5.3c-.4,0-.7.1-1.1.1a1.8523,1.8523,0,0,0-.7.2c-.1.1-.3.2-.4.3s-.1.2-.1.4a1.4214,1.4214,0,0,0,.2.6,1.4214,1.4214,0,0,0,.6.2,1.2025,1.2025,0,0,0,.8-.2,3.0367,3.0367,0,0,0,.7-.5Zm-3.4-2.7a3.9986,3.9986,0,0,1,2.6-1,3.5523,3.5523,0,0,1,1,.2,1.7934,1.7934,0,0,1,.7.5,1.2345,1.2345,0,0,1,.4.8,2.96,2.96,0,0,1,.2,1V45h-.7a.3673.3673,0,0,1-.3-.1c-.1-.1-.2-.2-.2-.3l-.1-.4a4.5564,4.5564,0,0,1-1,.7c-.2.1-.3.1-.5.2-.2,0-.4.1-.6.1a1.7021,1.7021,0,0,1-.7-.1l-.6-.3a.9981.9981,0,0,1-.4-.5,1.7021,1.7021,0,0,1-.1-.7.901.901,0,0,1,.1-.5c.1-.2.1-.3.3-.4a.9981.9981,0,0,1,.5-.4,4.878,4.878,0,0,1,.7-.3,2.96,2.96,0,0,1,1-.2,4.8643,4.8643,0,0,1,1.2-.1v-.4a1.3962,1.3962,0,0,0-.3-.9,1.1349,1.1349,0,0,0-.8-.3,1.2688,1.2688,0,0,0-.6.1c-.1.1-.3.1-.4.2s-.2.1-.3.2a.5.5,0,0,1-.6,0l-.2-.2Zm12,5.3H40.6V40H39.1a13.5538,13.5538,0,0,1-.2,2,7.3717,7.3717,0,0,1-.4,1.4,4.0539,4.0539,0,0,1-.5.9,1.205,1.205,0,0,1-.5.5l-.6.3c-.2,0-.4.1-.6.1a.901.901,0,0,1-.5-.1.2151.2151,0,0,1-.2-.2V44H36a.6012.6012,0,0,0,.4-.1.7578.7578,0,0,0,.4-.2c.1-.2.3-.3.4-.5l.3-.9c.1-.5.2-.9.3-1.4s.1-1.2.2-2h4.2Zm14-8.7V45H54.7V38.7l-2.6,4.9a.6752.6752,0,0,1-.6.4h-.2a.6218.6218,0,0,1-.6-.4L48,38.7V45H46.6V36.3h1.5a.0979.0979,0,0,1,.1.0958h0V36.4l.1.1,2.6,4.8c.1.1.1.3.2.4s.1.3.2.4c.1-.1.1-.3.2-.4s.1-.3.2-.4l2.6-4.8a.0979.0979,0,0,1,.0958-.1H54.4l.1-.1Zm4.8,6.1c-.4,0-.7.1-1.1.1a1.8523,1.8523,0,0,0-.7.2c-.1.1-.3.2-.4.3s-.1.2-.1.4a1.4214,1.4214,0,0,0,.2.6,1.4214,1.4214,0,0,0,.6.2,1.2025,1.2025,0,0,0,.8-.2,3.0367,3.0367,0,0,0,.7-.5Zm-3.4-2.7a3.9986,3.9986,0,0,1,2.6-1,3.5523,3.5523,0,0,1,1,.2,1.7934,1.7934,0,0,1,.7.5,1.235,1.235,0,0,1,.4.8,2.96,2.96,0,0,1,.2,1V45h-.7a.3673.3673,0,0,1-.3-.1c-.1-.1-.2-.2-.2-.3l-.1-.4a4.5564,4.5564,0,0,1-1,.7,4.34,4.34,0,0,1-.5.1c-.2,0-.4.1-.6.1a1.7021,1.7021,0,0,1-.7-.1l-.6-.3a.9981.9981,0,0,1-.4-.5,1.7021,1.7021,0,0,1-.1-.7.901.901,0,0,1,.1-.5c.1-.2.1-.3.3-.4a.9981.9981,0,0,1,.5-.4,4.878,4.878,0,0,1,.7-.3,2.96,2.96,0,0,1,1-.2,4.8643,4.8643,0,0,1,1.2-.1v-.4a1.3962,1.3962,0,0,0-.3-.9,1.1349,1.1349,0,0,0-.8-.3,1.2688,1.2688,0,0,0-.6.1c-.1.1-.3.1-.4.2s-.2.1-.3.2a.5.5,0,0,1-.6,0l-.2-.2Zm10.4,4.2v-4H66.4a5.9035,5.9035,0,0,1-.2,1.4c-.1.4-.1.8-.2,1.1a6.8727,6.8727,0,0,1-.3.8l-.3.6Zm2.5,0v2.7a.3536.3536,0,0,1-.4.4h-.9V45H64.5v1.6a.3536.3536,0,0,1-.4.4h-.9V43.9h.2a.6012.6012,0,0,0,.4-.1.7578.7578,0,0,0,.4-.2c.1-.2.3-.3.3-.5l.3-.9a6.7529,6.7529,0,0,0,.2-1.4c.1-.6.1-1.2.2-2h4.2v5.1Zm2.4-.5a.9981.9981,0,0,0,.5.4,1.85,1.85,0,0,0,1.2,0,1.7531,1.7531,0,0,0,.5-.4l.3-.6a4.101,4.101,0,0,0,0-1.8,1.4214,1.4214,0,0,0-.2-.6c-.1-.1-.2-.3-.4-.3a.901.901,0,0,0-.5-.1,2.3546,2.3546,0,0,0-.8.2,2.649,2.649,0,0,0-.6.5Zm0-3.7a2.1784,2.1784,0,0,1,.9-.7,2.016,2.016,0,0,1,1.1-.3,2.92,2.92,0,0,1,.9.2c.3.1.5.4.7.6a3.1277,3.1277,0,0,1,.5,1,6.6016,6.6016,0,0,1,.1,1.4,5.8517,5.8517,0,0,1-.2,1.3,3.1277,3.1277,0,0,1-.5,1,2.4628,2.4628,0,0,1-1.9.9,1.4863,1.4863,0,0,1-.9-.2c-.2-.1-.5-.3-.7-.4V47H71.3V38.8h.9c.2,0,.3.1.4.3Zm10.9-.9V45H82.2V40.8c-.1.2-.2.3-.3.5a.31.31,0,0,1-.1.2,1.3807,1.3807,0,0,0-.3.4,1.7565,1.7565,0,0,1-.4.5c-.1.2-.3.4-.4.6-.3.5-.7,1-1.2,1.7-.1.1-.1.2-.2.2,0,.1-.1.1-.2.1h-.9V38.8h1.5V43c.1-.2.2-.3.3-.5a.31.31,0,0,1,.1-.2,1.3807,1.3807,0,0,0,.3-.4,1.7531,1.7531,0,0,1,.4-.5c.1-.2.3-.4.4-.6.3-.5.7-1,1.2-1.7.1-.1.1-.2.2-.2a.3673.3673,0,0,1,.3-.1Zm5.6,5.1v-4H87.8a5.9035,5.9035,0,0,1-.2,1.4c-.1.4-.1.8-.2,1.1a6.8727,6.8727,0,0,1-.3.8l-.3.6h2.5Zm2.5,0v2.7a.3536.3536,0,0,1-.4.4h-.9V45H85.9v1.6a.3536.3536,0,0,1-.4.4h-.9V43.9h.2a.6013.6013,0,0,0,.4-.1.7578.7578,0,0,0,.4-.2c.1-.2.3-.3.3-.5l.3-.9a6.7529,6.7529,0,0,0,.2-1.4c.1-.6.1-1.2.2-2h4.2v5.1Z"/><path class="e" d="M22.9,57.8V65H21.5V61.8H18.1V65H16.7V57.8h1.4v3.1h3.4V57.8Zm4,5a2.7682,2.7682,0,0,0-.9.1,1.4214,1.4214,0,0,0-.6.2c-.1.1-.2.1-.3.2a.3673.3673,0,0,0-.1.3.7645.7645,0,0,0,.2.5.7494.7494,0,0,0,.5.1,1.9526,1.9526,0,0,0,.7-.1.9981.9981,0,0,0,.5-.4Zm-2.8-2.2a3.2278,3.2278,0,0,1,2.1-.8,1.2025,1.2025,0,0,1,.8.2,1.8389,1.8389,0,0,1,1,1,2.2011,2.2011,0,0,1,.1.8V65h-.6a.3673.3673,0,0,1-.3-.1c-.1-.1-.1-.1-.1-.2l-.1-.3a1.3807,1.3807,0,0,1-.4.3.52.52,0,0,1-.4.2c-.1.1-.2.1-.4.1s-.3.1-.5.1a1.2688,1.2688,0,0,1-.6-.1,1.3328,1.3328,0,0,1-.5-.3c-.1-.1-.2-.3-.3-.4a1.2688,1.2688,0,0,1-.1-.6.6012.6012,0,0,1,.1-.4.7578.7578,0,0,1,.2-.4,1.3807,1.3807,0,0,1,.4-.3l.6-.3c.3-.1.5-.1.8-.2a3.3991,3.3991,0,0,1,1-.1v-.3a2.3546,2.3546,0,0,0-.2-.8c-.2-.2-.4-.3-.6-.2a.901.901,0,0,0-.5.1c-.1,0-.2.1-.3.2s-.2.1-.3.2c-.1,0-.2.1-.3.1s-.2,0-.2-.1c-.1,0-.1-.1-.1-.2Zm9.2-.7V65H32.1V63a5.02,5.02,0,0,1-1.2.2,3.3991,3.3991,0,0,1-1-.1,1.0242,1.0242,0,0,1-.6-.5,1.4863,1.4863,0,0,1-.2-.9V60h1.2v1.5a.7494.7494,0,0,0,.1.5l.3.3a1.2686,1.2686,0,0,0,.6.1c.3,0,.6-.1.8-.1V60Zm3.9,2.9a2.7682,2.7682,0,0,0-.9.1,1.4214,1.4214,0,0,0-.6.2c-.1.1-.2.1-.3.2a.3673.3673,0,0,0-.1.3.7645.7645,0,0,0,.2.5.7494.7494,0,0,0,.5.1,1.9526,1.9526,0,0,0,.7-.1.9981.9981,0,0,0,.5-.4Zm-2.8-2.2a3.2278,3.2278,0,0,1,2.1-.8,1.2025,1.2025,0,0,1,.8.2,1.8389,1.8389,0,0,1,1,1,2.2011,2.2011,0,0,1,.1.8V65h-.6a.3673.3673,0,0,1-.3-.1l-.2-.2-.1-.4a1.3807,1.3807,0,0,1-.4.3.52.52,0,0,1-.4.2c.1.2-.1.2-.2.2-.2,0-.3.1-.5.1a1.2686,1.2686,0,0,1-.6-.1,1.3328,1.3328,0,0,1-.5-.3c-.1-.1-.2-.3-.3-.4a1.2688,1.2688,0,0,1-.1-.6.6012.6012,0,0,1,.1-.4.7578.7578,0,0,1,.2-.4,1.3807,1.3807,0,0,1,.4-.3l.6-.3c.3-.1.5-.1.8-.2a3.3991,3.3991,0,0,1,1-.1v-.3a2.3546,2.3546,0,0,0-.2-.8c-.2-.2-.4-.3-.6-.2a.901.901,0,0,0-.5.1c-.1,0-.2.1-.3.2s-.2.1-.3.2c-.1,0-.2.1-.3.1s-.2,0-.2-.1c-.1,0-.1-.1-.1-.2Zm10,4.4H43.2V60.8H41.9a8.7484,8.7484,0,0,1-.2,1.6l-.3,1.2a2.9938,2.9938,0,0,1-.4.8.9981.9981,0,0,1-.5.4.7645.7645,0,0,1-.5.2c-.2,0-.3.1-.5.1a.6012.6012,0,0,1-.4-.1.0979.0979,0,0,1-.1-.0958h0V64.1h.3a.3673.3673,0,0,0,.3-.1c.1,0,.2-.1.3-.2s.2-.3.3-.4a6.9091,6.9091,0,0,0,.3-.8,5.02,5.02,0,0,0,.2-1.2,8.0785,8.0785,0,0,0,.1-1.6h3.5V65Zm3.5-5.2a2.96,2.96,0,0,1,1,.2,2.0978,2.0978,0,0,1,1.3,1.3,4.1083,4.1083,0,0,1,0,2.2,2.0978,2.0978,0,0,1-1.3,1.3,3.5523,3.5523,0,0,1-1,.2,2.96,2.96,0,0,1-1-.2,2.0978,2.0978,0,0,1-1.3-1.3,4.1083,4.1083,0,0,1,0-2.2A2.0982,2.0982,0,0,1,46.9,60,1.6447,1.6447,0,0,1,47.9,59.8Zm0,4.3a.9747.9747,0,0,0,.9-.4,2.7679,2.7679,0,0,0,.3-1.3,3.0792,3.0792,0,0,0-.3-1.3.87.87,0,0,0-.9-.4,1.2838,1.2838,0,0,0-1,.4,2.7542,2.7542,0,0,0,0,2.5A.8765.8765,0,0,0,47.9,64.1ZM57.4,61l-.1.1h-.2c-.1,0-.1,0-.2-.1-.1,0-.1-.1-.2-.1a.3673.3673,0,0,0-.3-.1,1.1832,1.1832,0,0,0-1,.1,1.3807,1.3807,0,0,0-.4.3c-.1.2-.2.3-.2.5a3.2945,3.2945,0,0,0,0,1.4c.1.2.1.4.3.5.1.1.2.3.4.3a1.3,1.3,0,0,0,1,0c.1,0,.2-.1.3-.2s.2-.1.2-.2c.1,0,.1-.1.2-.1s.2,0,.2.1l.4.4c-.1.2-.3.3-.4.4-.2.1-.3.2-.5.3-.2.4-.4.4-.6.4h-.5a2.92,2.92,0,0,1-.9-.2,1.7934,1.7934,0,0,1-.7-.5,2.1776,2.1776,0,0,1-.5-.8,4.1083,4.1083,0,0,1,0-2.2,2.1776,2.1776,0,0,1,.5-.8,5.5466,5.5466,0,0,1,.8-.6,3.5957,3.5957,0,0,1,1.1-.2,3.5523,3.5523,0,0,1,1,.2,2.1776,2.1776,0,0,1,.8.5Zm3.4-1.2a2.96,2.96,0,0,1,1,.2,2.0978,2.0978,0,0,1,1.3,1.3,4.1083,4.1083,0,0,1,0,2.2,2.0978,2.0978,0,0,1-1.3,1.3,3.5523,3.5523,0,0,1-1,.2,2.96,2.96,0,0,1-1-.2,2.0982,2.0982,0,0,1-1.3-1.3,4.1083,4.1083,0,0,1,0-2.2A2.0982,2.0982,0,0,1,59.8,60,1.6447,1.6447,0,0,1,60.8,59.8Zm0,4.3a.9747.9747,0,0,0,.9-.4,2.7679,2.7679,0,0,0,.3-1.3,3.0792,3.0792,0,0,0-.3-1.3.87.87,0,0,0-.9-.4,1.2838,1.2838,0,0,0-1,.4,2.7542,2.7542,0,0,0,0,2.5A.8765.8765,0,0,0,60.8,64.1Zm5.9.1a1.2836,1.2836,0,0,0,1-.4,2.55,2.55,0,0,0,0-2.4,1.0857,1.0857,0,0,0-.9-.4,1.2836,1.2836,0,0,0-1,.4,1.5583,1.5583,0,0,0-.3,1.2,2.3758,2.3758,0,0,0,.3,1.2A1.0984,1.0984,0,0,0,66.7,64.2Zm.3-5.3a1.8845,1.8845,0,0,0-.8.2,2.0913,2.0913,0,0,0-.6.4c-.1.2-.3.4-.3.6a2.2011,2.2011,0,0,0-.1.8c.1-.1.2-.3.3-.4s.3-.2.4-.3c.2-.1.3-.1.5-.2.2,0,.4-.1.6-.1a2.92,2.92,0,0,1,.9.2,1.7934,1.7934,0,0,1,.7.5,2.01,2.01,0,0,1,.4.8,3.5523,3.5523,0,0,1,.2,1,2.9575,2.9575,0,0,1-.2,1,2.0978,2.0978,0,0,1-1.3,1.3,2.6,2.6,0,0,1-2,0,1.5551,1.5551,0,0,1-.8-.6,4.6706,4.6706,0,0,1-.5-1,8.7484,8.7484,0,0,1-.2-1.6,7.5728,7.5728,0,0,1,.1-1.5,3.0811,3.0811,0,0,1,.5-1.2,2.3608,2.3608,0,0,1,.9-.8,6.4734,6.4734,0,0,1,1.3-.4l1.8-.1.1.6a.3673.3673,0,0,1-.1.3c-.1.1-.2.2-.3.2Zm5.2,5.2a1.0717,1.0717,0,0,0,.6-.2.7645.7645,0,0,0,.2-.5.3673.3673,0,0,0-.1-.3.3489.3489,0,0,0-.1-.2c-.1-.1-.2-.1-.3-.2-.1,0-.3-.1-.4-.1h-.9v1.5Zm0-2.3a2.7682,2.7682,0,0,1,.9.1l.6.3a.85.85,0,0,1,.3.5,1.2686,1.2686,0,0,1,.1.6,1.7,1.7,0,0,1-.1.7.9981.9981,0,0,1-.4.5.8641.8641,0,0,1-.6.3.9519.9519,0,0,1-.7.2H70.2V59.9h1.2v1.9Zm4.1-1.9V65H75.1V59.9Zm5.7.9H80.2V65H79V60.8H77.2v-.9H82Zm5.3-.9V65H86.1V61.5c-.1.1-.1.3-.2.4a.0979.0979,0,0,1-.0958.1H85.8c-.1.1-.1.2-.2.3a2.1843,2.1843,0,0,0-.3.5,1.7531,1.7531,0,0,1-.4.5c-.3.4-.6.9-1,1.4l-.2.2a.3673.3673,0,0,1-.3.1h-.8V59.9h1.2v3.6c.1-.1.1-.3.2-.4a.0979.0979,0,0,1,.0957-.1H84.1c.1-.1.1-.2.2-.3a2.1843,2.1843,0,0,0,.3-.5,1.7531,1.7531,0,0,1,.4-.5c.3-.4.6-.9,1-1.4l.2-.2a.3673.3673,0,0,1,.3-.1Zm3.9,2.3V60.7h-.7a.6019.6019,0,0,0-.4.1c-.1,0-.2.1-.3.2a.31.31,0,0,0-.1.2v.3a.7071.7071,0,0,0,.8.8Zm1.2-2.3V65H91.2V62.9h-.4c-.1,0-.1,0-.2.1l-.1.1a.3489.3489,0,0,0-.1.2l-.8,1.3c0,.1-.1.1-.1.2s-.1.1-.2.1-.1.1-.2.1H87.9l1.3-1.8c.1-.1.1-.2.2-.3s.2-.1.3-.2a1.4214,1.4214,0,0,1-.6-.2,1.3807,1.3807,0,0,1-.4-.3.7578.7578,0,0,1-.2-.4c0-.1-.1-.3-.1-.4a1.2686,1.2686,0,0,1,.1-.6.9981.9981,0,0,1,.4-.5.8643.8643,0,0,1,.6-.3,2.7682,2.7682,0,0,1,.9-.1Z"/><rect class="a" x="168" y="8" width="207" height="64"/><path class="f" d="M176,8h48a8.0235,8.0235,0,0,1,8,8V64a8.0235,8.0235,0,0,1-8,8H176a8.0235,8.0235,0,0,1-8-8V16A8.0235,8.0235,0,0,1,176,8Z"/><path class="d" d="M193,51.4c.2,0,.3,0,.4.2a.7578.7578,0,0,1,.2.4v1h-6.9v-.6a.7554.7554,0,0,1,.1-.4c.1-.1.1-.3.2-.3l3.1-3.1.7-.7a3.0367,3.0367,0,0,0,.5-.7c.1-.2.2-.5.3-.7a1.9493,1.9493,0,0,0,.1-.8,1.2688,1.2688,0,0,0-.1-.6c-.1-.2-.2-.3-.3-.5a2.1843,2.1843,0,0,0-.5-.3,1.85,1.85,0,0,0-1.2,0c-.2.1-.3.1-.5.2a1.3807,1.3807,0,0,0-.3.4.7645.7645,0,0,0-.2.5c0,.2-.2.3-.3.4a.4464.4464,0,0,1-.5,0l-.9-.2a6.4734,6.4734,0,0,1,.4-1.3,2.1784,2.1784,0,0,1,.7-.9c.3-.2.7-.4,1-.6a5.0652,5.0652,0,0,1,1.3-.2,5.8517,5.8517,0,0,1,1.3.2,2.075,2.075,0,0,1,1,.6,2.36,2.36,0,0,1,.6.9,2.5364,2.5364,0,0,1,.2,1.2,2.9551,2.9551,0,0,1-.2,1c-.1.3-.3.6-.4.9a5.5411,5.5411,0,0,1-.6.8,6.0352,6.0352,0,0,1-.8.8l-2.3,2.3a1.4828,1.4828,0,0,1,.7-.1c.2,0,.4-.1.6-.1H193Zm1.9.6a.6012.6012,0,0,1,.1-.4c.1-.1.1-.2.2-.3s.2-.2.3-.2a.85.85,0,0,1,.8,0c.1.1.2.1.3.2s.2.2.2.3a.85.85,0,0,1,0,.8c-.1.1-.1.2-.2.3s-.2.2-.3.2a.85.85,0,0,1-.8,0c-.1,0-.2-.1-.3-.2s-.2-.2-.2-.3C194.9,52.3,194.9,52.2,194.9,52Zm10.3-9.1v.7a.7494.7494,0,0,1-.1.5c0,.1-.1.2-.1.3l-3.8,7.9a1.3793,1.3793,0,0,1-.3.4,1.4219,1.4219,0,0,1-.6.2H199l3.9-7.7a1.3807,1.3807,0,0,1,.3-.4c.1-.1.2-.3.3-.4h-4.8a.43.43,0,0,1-.4-.4V42.8h6.9Zm7.8,8.8V53h-5.6V51.7h2.1V45.1L208,46.3a.44.44,0,0,1-.5.1c-.1,0-.1,0-.2-.1l-.1-.1-.5-.7,3.1-2.6h1.4v8.8Z"/><path class="d" d="M199.9,32h-1V25.6h-3.6V32h-1V24.8h5.5Zm6-.7V32H202v-.7h1.5V26l-1.3,1.1-.1.1h-.2a.0979.0979,0,0,1-.1-.0957V27.1l-.3-.4,2.1-1.8h.7v6.5Z"/><path class="f" d="M242,8h48a8.0235,8.0235,0,0,1,8,8V64a8.0235,8.0235,0,0,1-8,8H242a8.0235,8.0235,0,0,1-8-8V16A8.0235,8.0235,0,0,1,242,8Z"/><path class="d" d="M252.9,45.7a6.4669,6.4669,0,0,1,.4-1.3,2.1776,2.1776,0,0,1,.7-.9c.3-.2.7-.4,1-.6a5.0652,5.0652,0,0,1,1.3-.2,5.8535,5.8535,0,0,1,1.3.2,2.0755,2.0755,0,0,1,1,.6,1.5551,1.5551,0,0,1,.6.8,3.5558,3.5558,0,0,1,.2,1,2.7682,2.7682,0,0,1-.1.9l-.3.6c-.1.2-.3.3-.5.5a4.878,4.878,0,0,1-.7.3,2.4307,2.4307,0,0,1,1.4.9,1.9133,1.9133,0,0,1,.4,1.5,2.7679,2.7679,0,0,1-.3,1.3,2.54,2.54,0,0,1-.8,1,2.3836,2.3836,0,0,1-1.1.6,4.3245,4.3245,0,0,1-2.6,0,3.1277,3.1277,0,0,1-1-.5,2.696,2.696,0,0,1-.7-.8,5.3634,5.3634,0,0,1-.5-1.1l.8-.3a1.2686,1.2686,0,0,1,.6-.1c.2,0,.3.1.4.3s.2.3.3.5a.7808.7808,0,0,0,.4.4,1.5939,1.5939,0,0,0,1.2.4,2.2016,2.2016,0,0,0,.8-.1.9985.9985,0,0,0,.5-.4.85.85,0,0,0,.3-.5,1.2686,1.2686,0,0,0,.1-.6,1.9548,1.9548,0,0,0-.1-.7,2.1843,2.1843,0,0,0-.3-.5.9079.9079,0,0,0-.7-.3,4.8744,4.8744,0,0,0-1.2-.1V47.3a4.1014,4.1014,0,0,0,1.1-.1c.2-.1.5-.2.7-.3a.9986.9986,0,0,0,.4-.5,1.2686,1.2686,0,0,0,.1-.6,1.3839,1.3839,0,0,0-1.5-1.5,1.2686,1.2686,0,0,0-.6.1c-.2.1-.3.1-.5.2a1.3758,1.3758,0,0,0-.3.4.7632.7632,0,0,0-.2.5c0,.2-.2.3-.3.4a.4464.4464,0,0,1-.5,0Zm8,6.3a.6012.6012,0,0,1,.1-.4c.1-.1.1-.2.2-.3s.2-.2.3-.2a.85.85,0,0,1,.8,0c.1.1.2.1.3.2s.2.2.2.3a.85.85,0,0,1,0,.8c-.1.1-.1.2-.2.3s-.2.2-.3.2a.85.85,0,0,1-.8,0c-.1,0-.2-.1-.3-.2s-.2-.2-.2-.3C260.9,52.3,260.9,52.2,260.9,52Zm10.3-9.1v.7a.75.75,0,0,1-.1.5c0,.1-.1.2-.1.3l-3.8,7.9a1.3807,1.3807,0,0,1-.3.4,1.4214,1.4214,0,0,1-.6.2H265l3.9-7.7a1.3807,1.3807,0,0,1,.3-.4c.1-.1.2-.3.3-.4h-4.8a.43.43,0,0,1-.4-.4V42.8h6.9Zm4.6,8.9a1.4828,1.4828,0,0,0,.7-.1,2.1843,2.1843,0,0,0,.5-.3.85.85,0,0,0,.3-.5,1.4827,1.4827,0,0,0,.1-.7,1.656,1.656,0,0,0-.5-1.3,1.96,1.96,0,0,0-2.5,0,1.9012,1.9012,0,0,0-.5,1.3,1.95,1.95,0,0,0,.1.7,2.1843,2.1843,0,0,0,.3.5c.2.1.3.3.5.3C275.3,51.7,275.5,51.8,275.8,51.8Zm0-7.7a1.7019,1.7019,0,0,0-.7.1c-.2.1-.3.2-.5.3a2.1843,2.1843,0,0,0-.3.5,1.087,1.087,0,0,0-.1.5,1.2662,1.2662,0,0,0,.1.6,1.2021,1.2021,0,0,0,.8.8,1.7044,1.7044,0,0,0,1.4,0c.2-.1.3-.2.5-.3a.7645.7645,0,0,0,.2-.5,1.2686,1.2686,0,0,0,.1-.6.75.75,0,0,0-.1-.5,1.388,1.388,0,0,0-.7-.8,1.9507,1.9507,0,0,0-.7-.1Zm1.7,3.6a4.1952,4.1952,0,0,1,1.4.9,2.0261,2.0261,0,0,1,.4,1.5,2.6626,2.6626,0,0,1-.3,1.2,2.1784,2.1784,0,0,1-.7.9,2.3836,2.3836,0,0,1-1.1.6,6.7529,6.7529,0,0,1-1.4.2,5.9035,5.9035,0,0,1-1.4-.2,2.3836,2.3836,0,0,1-1.1-.6,2.7541,2.7541,0,0,1-.7-.9,2.6626,2.6626,0,0,1-.3-1.2,2.6034,2.6034,0,0,1,.4-1.5,2.302,2.302,0,0,1,1.4-.9,3.1263,3.1263,0,0,1-1.1-.9,2.2958,2.2958,0,0,1-.4-1.4,4.2534,4.2534,0,0,1,.2-1.1,5.4936,5.4936,0,0,1,.7-.9,3.3275,3.3275,0,0,1,1-.6,5.0652,5.0652,0,0,1,1.3-.2,5.8535,5.8535,0,0,1,1.3.2,2.0755,2.0755,0,0,1,1,.6,2.1784,2.1784,0,0,1,.7.9,2.5435,2.5435,0,0,1-.1,2.4A2.6661,2.6661,0,0,1,277.5,47.7Z"/><path class="d" d="M269.1,32h-1c-.1,0-.1,0-.2-.1l-.1-.1-1.9-3c0,.1-.1.1-.1.2l-1.9,2.8-.1.1a.3489.3489,0,0,1-.2.1h-.9l2.5-3.7-2.4-3.5H264l.1.1,1.9,2.9a.35.35,0,0,1,.1-.2l1.8-2.6.1-.1h1l-2.4,3.4Z"/><path class="f" d="M308,8h48a8.0235,8.0235,0,0,1,8,8V64a8.0235,8.0235,0,0,1-8,8H308a8.0235,8.0235,0,0,1-8-8V16A8.0235,8.0235,0,0,1,308,8Z"/><path class="d" d="M325,51.4c.2,0,.3,0,.4.2a.7578.7578,0,0,1,.2.4v1h-6.9v-.6a.7563.7563,0,0,1,.1-.4c.1-.1.1-.3.2-.3l3.1-3.1.7-.7a3.0307,3.0307,0,0,0,.5-.7c.1-.2.2-.5.3-.7a1.946,1.946,0,0,0,.1-.8,1.2664,1.2664,0,0,0-.1-.6c-.1-.2-.2-.3-.3-.5a2.18,2.18,0,0,0-.5-.3,1.85,1.85,0,0,0-1.2,0c-.2.1-.3.1-.5.2a1.3825,1.3825,0,0,0-.3.4.765.765,0,0,0-.2.5c0,.2-.2.3-.3.4a.4464.4464,0,0,1-.5,0l-.9-.2a6.4731,6.4731,0,0,1,.4-1.3,2.1778,2.1778,0,0,1,.7-.9c.3-.2.7-.4,1-.6a5.0651,5.0651,0,0,1,1.3-.2,5.8517,5.8517,0,0,1,1.3.2,2.0745,2.0745,0,0,1,1,.6,2.36,2.36,0,0,1,.6.9,2.5351,2.5351,0,0,1,.2,1.2,2.9576,2.9576,0,0,1-.2,1c-.1.3-.3.6-.4.9a5.521,5.521,0,0,1-.6.8,6.0345,6.0345,0,0,1-.8.8l-2.3,2.3a1.4827,1.4827,0,0,1,.7-.1c.2,0,.4-.1.6-.1H325Zm1.9.6a.6012.6012,0,0,1,.1-.4c.1-.1.1-.2.2-.3s.2-.2.3-.2a.85.85,0,0,1,.8,0c.1.1.2.1.3.2s.2.2.2.3a.85.85,0,0,1,0,.8c-.1.1-.1.2-.2.3s-.2.2-.3.2a.85.85,0,0,1-.8,0c-.1,0-.2-.1-.3-.2s-.2-.2-.2-.3C326.9,52.3,326.9,52.2,326.9,52Zm5.5-5.4c.2,0,.4-.1.6-.1h.6a5.9035,5.9035,0,0,1,1.4.2,2.2858,2.2858,0,0,1,1,.7,2.075,2.075,0,0,1,.6,1,5.0149,5.0149,0,0,1,.2,1.2,4.012,4.012,0,0,1-.3,1.5,2.8345,2.8345,0,0,1-.8,1.1,2.9221,2.9221,0,0,1-1.2.7,4.012,4.012,0,0,1-1.5.3,2.7685,2.7685,0,0,1-.9-.1,2.6138,2.6138,0,0,1-.8-.3,2.51,2.51,0,0,1-.7-.4,2.6512,2.6512,0,0,1-.6-.5l.5-.7a.3993.3993,0,0,1,.4-.2.6012.6012,0,0,1,.4.1.7578.7578,0,0,0,.4.2,1.4214,1.4214,0,0,0,.6.2,1.9493,1.9493,0,0,0,.8.1,1.0778,1.0778,0,0,0,.8-.2,2.0947,2.0947,0,0,0,.6-.4,1.6122,1.6122,0,0,0,.4-.7,2.4848,2.4848,0,0,0,.1-.8,1.656,1.656,0,0,0-.5-1.3,2.3894,2.3894,0,0,0-1.4-.5,4.012,4.012,0,0,0-1.5.3l-1.1-.3.8-4.9h5v.7a1.4228,1.4228,0,0,1-.2.6.7778.7778,0,0,1-.8.2h-2.8Zm12.2,4.8c.2,0,.3,0,.4.2a.7578.7578,0,0,1,.2.4v1h-6.9v-.6a.7572.7572,0,0,1,.1-.4c.1-.1.1-.3.2-.3l3.1-3.1.7-.7a3.05,3.05,0,0,0,.5-.7c.1-.2.2-.5.3-.7a1.946,1.946,0,0,0,.1-.8,1.2662,1.2662,0,0,0-.1-.6c-.1-.2-.2-.3-.3-.5a2.1922,2.1922,0,0,0-.5-.3,1.8507,1.8507,0,0,0-1.2,0c-.2.1-.3.1-.5.2-.1.1-.3.2-.3.4a.7641.7641,0,0,0-.2.5c0,.2-.2.3-.3.4a.4464.4464,0,0,1-.5,0l-.9-.2a6.4541,6.4541,0,0,1,.4-1.3,2.1761,2.1761,0,0,1,.7-.9c.3-.2.7-.4,1-.6a5.0652,5.0652,0,0,1,1.3-.2,5.8517,5.8517,0,0,1,1.3.2,2.0745,2.0745,0,0,1,1,.6,2.36,2.36,0,0,1,.6.9,2.5351,2.5351,0,0,1,.2,1.2,2.9528,2.9528,0,0,1-.2,1c-.1.3-.3.6-.4.9a5.5546,5.5546,0,0,1-.6.8,6.0345,6.0345,0,0,1-.8.8l-2.3,2.3a1.4827,1.4827,0,0,1,.7-.1c.2,0,.4-.1.6-.1h2.6Z"/><path class="d" d="M331.9,32h-1V25.6h-3.6V32h-1V24.8h5.5V32Zm5.8-.8c.1,0,.2,0,.2.1.1.1.1.1.1.2V32h-4.8v-.5c0-.1.1-.1.1-.2l2.3-2.3a2.649,2.649,0,0,0,.5-.6c.1-.2.3-.3.4-.5a2.1843,2.1843,0,0,1,.3-.5,1.2688,1.2688,0,0,0,.1-.6.75.75,0,0,0-.1-.5,1.3807,1.3807,0,0,0-.3-.4.7578.7578,0,0,0-.4-.2,1.3,1.3,0,0,0-1,0c-.1.1-.3.1-.4.2l-.3.3c-.1.1-.1.3-.2.4a.2151.2151,0,0,1-.2.2c-.1,0-.2.1-.3,0l-.5-.1a1.6123,1.6123,0,0,1,.3-.9,1.9459,1.9459,0,0,1,1.2-1,2.4787,2.4787,0,0,1,1.7,0,1.6111,1.6111,0,0,1,.7.4,2.649,2.649,0,0,1,.5.6,3.0891,3.0891,0,0,1,.2.8,1.4828,1.4828,0,0,1-.1.7l-.3.6a2.6542,2.6542,0,0,1-.5.6l-.6.6L334.4,31c.1,0,.3-.1.4-.1h.4Z"/><rect class="c" y="82" width="375" height="80"/><path class="d" d="M22.9,105c.1,0,.2,0,.2.1l.6.7a3.25,3.25,0,0,1-1.3,1,3.8051,3.8051,0,0,1-1.8.3,4.6718,4.6718,0,0,1-1.7-.3,3.8052,3.8052,0,0,1-1.3-.9,2.8515,2.8515,0,0,1-.8-1.4,5.55,5.55,0,0,1,0-3.6,4.1952,4.1952,0,0,1,.9-1.4,3.39,3.39,0,0,1,1.4-.9,4.9667,4.9667,0,0,1,3.4,0,5.67,5.67,0,0,1,1.3.8l-.5.8-.1.1c-.1,0-.1.1-.2.1h-.2c-.1,0-.1-.1-.2-.1-.1-.1-.2-.1-.3-.2s-.2-.1-.3-.2a.7494.7494,0,0,0-.5-.1c-.2,0-.4-.1-.6-.1a4.2534,4.2534,0,0,0-1.1.2,1.5551,1.5551,0,0,0-.8.6,3.1277,3.1277,0,0,0-.5,1,4.3245,4.3245,0,0,0,0,2.6,2.075,2.075,0,0,0,.6,1,1.5551,1.5551,0,0,0,.8.6,3.5523,3.5523,0,0,0,1,.2h.6c.2,0,.3-.1.5-.1.1-.1.3-.1.4-.2s.3-.2.4-.3l.1-.1C22.8,105,22.9,105,22.9,105Zm7.1,2H28.5v-5.1H26.1V107H24.6v-6.2H30Zm4.7-2.6c-.4,0-.7.1-1.1.1a1.8523,1.8523,0,0,0-.7.2c-.1.1-.3.2-.4.3s-.1.2-.1.4a1.4214,1.4214,0,0,0,.2.6,1.4214,1.4214,0,0,0,.6.2,1.2025,1.2025,0,0,0,.8-.2,3.0367,3.0367,0,0,0,.7-.5Zm-3.4-2.7a3.9986,3.9986,0,0,1,2.6-1,3.5523,3.5523,0,0,1,1,.2,1.7934,1.7934,0,0,1,.7.5,1.2345,1.2345,0,0,1,.4.8,2.9575,2.9575,0,0,1,.2,1v3.9h-.7a.3673.3673,0,0,1-.3-.1c-.1-.1-.2-.2-.2-.3l-.1-.4a4.5564,4.5564,0,0,1-1,.7c-.2.1-.3.1-.5.2-.2,0-.4.1-.6.1a1.7021,1.7021,0,0,1-.7-.1l-.6-.3a.9981.9981,0,0,1-.4-.5,1.7021,1.7021,0,0,1-.1-.7.9027.9027,0,0,1,.1-.5c.1-.2.1-.3.3-.4a.9981.9981,0,0,1,.5-.4,4.878,4.878,0,0,1,.7-.3,2.9575,2.9575,0,0,1,1-.2,4.8643,4.8643,0,0,1,1.2-.1v-.4a1.3962,1.3962,0,0,0-.3-.9,1.1349,1.1349,0,0,0-.8-.3,1.2688,1.2688,0,0,0-.6.1c-.1.1-.3.1-.4.2s-.2.1-.3.2a.5.5,0,0,1-.6,0l-.2-.2Zm7.8,3.7a.9981.9981,0,0,0,.5.4,1.85,1.85,0,0,0,1.2,0,1.7531,1.7531,0,0,0,.5-.4l.3-.6a4.101,4.101,0,0,0,0-1.8,1.4214,1.4214,0,0,0-.2-.6c-.1-.1-.2-.3-.4-.3a.901.901,0,0,0-.5-.1,2.3546,2.3546,0,0,0-.8.2,2.649,2.649,0,0,0-.6.5Zm-.1-3.7a2.1784,2.1784,0,0,1,.9-.7,2.016,2.016,0,0,1,1.1-.3,2.92,2.92,0,0,1,.9.2c.3.1.5.4.7.6a3.1257,3.1257,0,0,1,.5,1,4.3245,4.3245,0,0,1,0,2.6,3.1257,3.1257,0,0,1-.5,1,2.4628,2.4628,0,0,1-1.9.9,1.4863,1.4863,0,0,1-.9-.2c-.2-.1-.5-.3-.7-.4v2.5H37.6v-8.2h.9c.2,0,.3.1.4.3Zm10.5.2H47.3V107H45.8v-5.1H43.6v-1.1h5.9Zm4.1,2.5c-.4,0-.7.1-1.1.1a1.8523,1.8523,0,0,0-.7.2c-.1.1-.3.2-.4.3s-.1.2-.1.4a.7071.7071,0,0,0,.8.8,1.2025,1.2025,0,0,0,.8-.2,3.0367,3.0367,0,0,0,.7-.5Zm-3.4-2.7a3.9986,3.9986,0,0,1,2.6-1,3.5523,3.5523,0,0,1,1,.2,1.7934,1.7934,0,0,1,.7.5,1.2345,1.2345,0,0,1,.4.8,2.96,2.96,0,0,1,.2,1v3.9h-.7a.3673.3673,0,0,1-.3-.1c-.1-.1-.2-.2-.2-.3l-.1-.4a4.5564,4.5564,0,0,1-1,.7c-.2.1-.3.1-.5.2-.2,0-.4.1-.6.1a1.7021,1.7021,0,0,1-.7-.1l-.6-.3a.9981.9981,0,0,1-.4-.5,1.7021,1.7021,0,0,1-.1-.7.9019.9019,0,0,1,.1-.5c.1-.2.1-.3.3-.4a.9981.9981,0,0,1,.5-.4,4.878,4.878,0,0,1,.7-.3,2.9575,2.9575,0,0,1,1-.2,4.8643,4.8643,0,0,1,1.2-.1v-.4a1.3962,1.3962,0,0,0-.3-.9,1.1349,1.1349,0,0,0-.8-.3,1.2688,1.2688,0,0,0-.6.1c-.1.1-.3.1-.4.2s-.2.1-.3.2a.5.5,0,0,1-.6,0l-.2-.2Zm9.9-.5.3-.3a.6012.6012,0,0,1,.4-.1H62l-1.4,2.3c-.1.1-.2.3-.3.4a.52.52,0,0,1-.4.2c.2.1.4.1.5.3.1.1.3.3.3.4l1.4,2.5h-1a1.2686,1.2686,0,0,1-.6-.1.78.78,0,0,1-.4-.4l-.9-1.7c-.1-.1-.2-.3-.3-.3a.6019.6019,0,0,0-.4-.1H58V107H56.5v-6.2H58v2.5h.5a.7548.7548,0,0,0,.7-.4Z"/><path class="d" d="M23.8,118.3l-3.5,7.5a2.09,2.09,0,0,1-.4.6.9981.9981,0,0,1-.5.4c-.2.1-.3.2-.5.2s-.4.1-.6.1a1.2686,1.2686,0,0,1-.6-.1c-.1-.1-.2-.1-.2-.2v-1h.8a.3673.3673,0,0,0,.3-.1c.1-.1.2-.1.3-.2s.2-.2.2-.3l.3-.7-3.5-6.1h1.5a.3673.3673,0,0,1,.3.1c.1.1.2.2.2.3l1.7,3.2c.1.2.2.3.2.5.1.2.1.3.2.5a4.8782,4.8782,0,0,1,.4-1.1l1.5-3.2a.2151.2151,0,0,1,.2-.2.3673.3673,0,0,1,.3-.1Zm3.8,7.7a1.9744,1.9744,0,0,0,1.4-.6,2.2639,2.2639,0,0,0,0-2.9,1.9744,1.9744,0,0,0-1.4-.6Zm-1.3-4.1a2.3546,2.3546,0,0,0-.8.2,1.8389,1.8389,0,0,0-1,1,2.2011,2.2011,0,0,0-.1.8,1.9493,1.9493,0,0,0,.1.8,1.8389,1.8389,0,0,0,1,1,2.3546,2.3546,0,0,0,.8.2Zm1.4-1.1a2.7679,2.7679,0,0,1,1.3.3,3.3287,3.3287,0,0,1,1,.6,3.5932,3.5932,0,0,1,.7,1,2.7451,2.7451,0,0,1,.2,1.3,5.8517,5.8517,0,0,1-.2,1.3,3.5917,3.5917,0,0,1-.7,1,2.6636,2.6636,0,0,1-1,.6,3.08,3.08,0,0,1-1.3.3v2H26.3v-2a3.5294,3.5294,0,0,1-1.4-.3,3.3287,3.3287,0,0,1-1-.6,3.5917,3.5917,0,0,1-.7-1A2.7451,2.7451,0,0,1,23,124a5.8517,5.8517,0,0,1,.2-1.3,3.5932,3.5932,0,0,1,.7-1,2.6636,2.6636,0,0,1,1-.6,3.1939,3.1939,0,0,1,1.4-.3v-2.4h1.4Zm7.6,3.6c-.4,0-.7.1-1.1.1a1.8523,1.8523,0,0,0-.7.2c-.1.1-.3.2-.4.3s-.1.2-.1.4a1.4214,1.4214,0,0,0,.2.6,1.4214,1.4214,0,0,0,.6.2,1.2025,1.2025,0,0,0,.8-.2,3.0367,3.0367,0,0,0,.7-.5Zm-3.4-2.7a3.9986,3.9986,0,0,1,2.6-1,3.5523,3.5523,0,0,1,1,.2,1.7934,1.7934,0,0,1,.7.5,1.2345,1.2345,0,0,1,.4.8,2.96,2.96,0,0,1,.2,1v3.9h-.7a.3673.3673,0,0,1-.3-.1c-.1-.1-.2-.2-.2-.3l-.1-.4a4.5564,4.5564,0,0,1-1,.7c-.2.1-.3.1-.5.2-.2,0-.4.1-.6.1a1.7021,1.7021,0,0,1-.7-.1l-.6-.3a.9981.9981,0,0,1-.4-.5,1.7021,1.7021,0,0,1-.1-.7.9027.9027,0,0,1,.1-.5c.1-.2.1-.3.3-.4a.9981.9981,0,0,1,.5-.4,4.878,4.878,0,0,1,.7-.3,2.9575,2.9575,0,0,1,1-.2,4.8643,4.8643,0,0,1,1.2-.1v-.4a1.3962,1.3962,0,0,0-.3-.9,1.1349,1.1349,0,0,0-.8-.3,1.2688,1.2688,0,0,0-.6.1c-.1.1-.3.1-.4.2s-.2.1-.3.2a.5.5,0,0,1-.6,0l-.2-.2Z"/><path class="e" d="M20.9,145.9a.3536.3536,0,0,1,.4.4v.7h-5v-.7a.2151.2151,0,0,1,.2-.2l2.2-2.2c.2-.2.3-.4.5-.5.1-.2.3-.3.4-.5s.2-.3.2-.5a1.087,1.087,0,0,0,.1-.5.901.901,0,0,0-.1-.5c0-.1-.1-.2-.2-.3s-.2-.2-.3-.2-.3-.1-.4-.1a.6012.6012,0,0,0-.4.1c-.1,0-.2.1-.3.2s-.2.2-.2.3a.3673.3673,0,0,0-.1.3c0,.1-.1.2-.2.3a.3042.3042,0,0,1-.4,0l-.6-.1a1.6123,1.6123,0,0,1,.3-.9,1.7934,1.7934,0,0,1,.5-.7,2.5071,2.5071,0,0,1,.7-.4,2.7682,2.7682,0,0,1,.9-.1,2.7682,2.7682,0,0,1,.9.1,1.6116,1.6116,0,0,1,.7.4,2.649,2.649,0,0,1,.5.6,3.0891,3.0891,0,0,1,.2.8,1.4827,1.4827,0,0,1-.1.7l-.3.6a2.649,2.649,0,0,1-.5.6l-.6.6-1.6,1.7c.2,0,.3-.1.5-.1h.4Zm2.9-3.5c.2,0,.3-.1.5-.1h.4a3.5523,3.5523,0,0,1,1,.2,1.7934,1.7934,0,0,1,.7.5,1.6116,1.6116,0,0,1,.4.7,1.4121,1.4121,0,0,1,.1.9,4.2542,4.2542,0,0,1-.2,1.1,1.5559,1.5559,0,0,1-.6.8,1.9341,1.9341,0,0,1-.9.5,3.5962,3.5962,0,0,1-1.1.2,1.2686,1.2686,0,0,1-.6-.1,1.4214,1.4214,0,0,1-.6-.2c-.2-.1-.3-.2-.5-.3-.1-.1-.3-.2-.4-.3l.4-.5c.1-.1.2-.2.3-.2a.3669.3669,0,0,1,.3.1c.1.1.2.1.3.2s.3.1.4.2a1.087,1.087,0,0,0,.5.1,1.2688,1.2688,0,0,0,.6-.1,1.3825,1.3825,0,0,0,.4-.3,2.1864,2.1864,0,0,0,.3-.5,1.269,1.269,0,0,0,.1-.6,1.396,1.396,0,0,0-.3-.9,1.2082,1.2082,0,0,0-1-.3,4.245,4.245,0,0,0-1.1.2l-.8-.2L23,140h3.6v.5a.52.52,0,0,1-.2.4,1.4214,1.4214,0,0,1-.6.2h-2Zm4.3,3.9a.3673.3673,0,0,1,.1-.3.2151.2151,0,0,1,.2-.2.7632.7632,0,0,1,.5-.2.3673.3673,0,0,1,.3.1.2151.2151,0,0,1,.2.2l.2.2c0,.1.1.2.1.3a.3673.3673,0,0,1-.1.3.2151.2151,0,0,1-.2.2c-.1.1-.2.1-.2.2-.1,0-.2.1-.3.1a.3673.3673,0,0,1-.3-.1.2151.2151,0,0,1-.2-.2l-.2-.2a.7554.7554,0,0,1-.1-.4Zm0-3.5a.3673.3673,0,0,1,.1-.3.2151.2151,0,0,1,.2-.2.7632.7632,0,0,1,.5-.2.3673.3673,0,0,1,.3.1.2151.2151,0,0,1,.2.2l.2.2c0,.1.1.2.1.3a.3673.3673,0,0,1-.1.3.2151.2151,0,0,1-.2.2c-.1.1-.2.1-.2.2-.1,0-.2.1-.3.1a.3673.3673,0,0,1-.3-.1.2151.2151,0,0,1-.2-.2l-.2-.2a.7554.7554,0,0,1-.1-.4Zm5.6,1.5v-3.1l-2.2,3.1Zm2,0v.7c0,.1,0,.1-.1.2a.35.35,0,0,1-.2.1h-.7v1.8H33.6v-1.8H30.5a.2652.2652,0,0,1-.3-.2251h0a.2685.2685,0,0,1,0-.0749l-.1-.6,3.4-4.6h1.2v4.5Zm3.2,1.8a.75.75,0,0,0,.5-.1c.1-.1.3-.1.4-.2a.52.52,0,0,0,.2-.4.7494.7494,0,0,0,.1-.5,1.3962,1.3962,0,0,0-.3-.9,1.5,1.5,0,0,0-1.8,0,1.0083,1.0083,0,0,0-.3.9.901.901,0,0,0,.1.5c.1.1.1.3.2.4a.52.52,0,0,0,.4.2A.75.75,0,0,0,38.9,146.1Zm0-5.5a.901.901,0,0,0-.5.1c-.1.1-.2.1-.3.2s-.2.2-.2.3-.1.3-.1.4v.4a.7578.7578,0,0,0,.2.4c.1.1.2.2.3.2a1.7042,1.7042,0,0,0,1,0c.1-.1.2-.1.3-.2s.1-.2.2-.4c0-.1.1-.3.1-.4a.6012.6012,0,0,0-.1-.4,1.0242,1.0242,0,0,0-.5-.6Zm1.2,2.6a1.6908,1.6908,0,0,1,1,.7,2.0158,2.0158,0,0,1,.3,1.1,2.92,2.92,0,0,1-.2.9,1.7934,1.7934,0,0,1-.5.7,2.0115,2.0115,0,0,1-.8.4,1.7292,1.7292,0,0,1-1,.1,3.4062,3.4062,0,0,1-1-.1,2.0115,2.0115,0,0,1-.8-.4,1.7934,1.7934,0,0,1-.5-.7,2.92,2.92,0,0,1-.2-.9,2.0158,2.0158,0,0,1,.3-1.1,1.8337,1.8337,0,0,1,1-.7,1.5551,1.5551,0,0,1-.8-.6,1.6892,1.6892,0,0,1-.3-1,2.3546,2.3546,0,0,1,.2-.8,2.649,2.649,0,0,1,.5-.6,2.5071,2.5071,0,0,1,.7-.4,1.4115,1.4115,0,0,1,.9-.1,2.7682,2.7682,0,0,1,.9.1,1.6116,1.6116,0,0,1,.7.4,2.649,2.649,0,0,1,.5.6,1.71,1.71,0,0,1-.1,1.7,1.3377,1.3377,0,0,1-.8.7Z"/><rect class="a" x="168" y="90" width="207" height="64"/><path class="f" d="M176,90h48a8.0235,8.0235,0,0,1,8,8v48a8.0235,8.0235,0,0,1-8,8H176a8.0235,8.0235,0,0,1-8-8V98A8.0235,8.0235,0,0,1,176,90Z"/><path class="d" d="M193.4,133.7V135h-5.6v-1.3h2.1v-6.6l-1.5,1.2a.3673.3673,0,0,1-.3.1h-.2c-.1,0-.1,0-.2-.1l-.1-.1-.5-.7,3.1-2.6h1.4v8.8Zm1.5.3a.6013.6013,0,0,1,.1-.4c.1-.1.1-.2.2-.3s.2-.2.3-.2a.85.85,0,0,1,.8,0c.1.1.2.1.3.2s.2.2.2.3a.85.85,0,0,1,0,.8c-.1.1-.1.2-.2.3s-.2.2-.3.2a.85.85,0,0,1-.8,0c-.1,0-.2-.1-.3-.2s-.2-.2-.2-.3c-.1-.1-.1-.2-.1-.4Zm6.4-5.4-.4.4a1.4214,1.4214,0,0,1,.6-.2,1.7021,1.7021,0,0,1,.7-.1,3.5962,3.5962,0,0,1,1.1.2,2.075,2.075,0,0,1,1,.6,5.4936,5.4936,0,0,1,.7.9,3.0792,3.0792,0,0,1,.3,1.3,2.7679,2.7679,0,0,1-.3,1.3,4.13,4.13,0,0,1-.7,1.1,2.5875,2.5875,0,0,1-1.1.7,3.6542,3.6542,0,0,1-2.9,0,3.1873,3.1873,0,0,1-1.8-1.8,3.8877,3.8877,0,0,1-.2-1.5,4.012,4.012,0,0,1,.3-1.5,5.0737,5.0737,0,0,1,.9-1.6l2.4-3.2a1.3793,1.3793,0,0,1,.4-.3,1.2686,1.2686,0,0,1,.6-.1h1.5Zm.3,5.1a2.2013,2.2013,0,0,0,.8-.1,1.8389,1.8389,0,0,0,1-1,1.7019,1.7019,0,0,0,.1-.7,2.2013,2.2013,0,0,0-.1-.8,1.7181,1.7181,0,0,0-1.8-1.1,1.4827,1.4827,0,0,0-.7.1,1.8389,1.8389,0,0,0-1,1,1.7021,1.7021,0,0,0-.1.7,2.2011,2.2011,0,0,0,.1.8l.3.6a2.0913,2.0913,0,0,0,.6.4,2.4848,2.4848,0,0,0,.8.1Zm11.4,0V135h-5.6v-1.3h2.1v-6.6l-1.5,1.2a.3673.3673,0,0,1-.3.1h-.2c-.1,0-.1,0-.2-.1l-.1-.1-.5-.7,3.1-2.6h1.4v8.8Z"/><path class="d" d="M199.9,114h-1v-6.4h-3.6V114h-1v-7.2h5.5Zm6-.7v.7H202v-.7h1.5V108l-1.3,1.1-.1.1h-.2a.0979.0979,0,0,1-.1-.0958h0V109.1l-.3-.4,2.1-1.8h.7v6.5Z"/><path class="f" d="M242,90h48a8.0235,8.0235,0,0,1,8,8v48a8.0235,8.0235,0,0,1-8,8H242a8.0235,8.0235,0,0,1-8-8V98A8.0235,8.0235,0,0,1,242,90Z"/><path class="d" d="M257.1,131.2v-3.3a3.3988,3.3988,0,0,1,.1-1l-3.1,4.3Zm2.8,0v1c0,.1,0,.2-.1.2a.3673.3673,0,0,1-.3.1h-.9V135h-1.5v-2.5h-4.3a.3673.3673,0,0,1-.3-.1c-.1-.1-.1-.2-.2-.3l-.2-.9,4.8-6.4h1.6v6.3Zm1,2.8a.6013.6013,0,0,1,.1-.4c.1-.1.1-.2.2-.3s.2-.2.3-.2a.85.85,0,0,1,.8,0c.1.1.2.1.3.2s.2.2.2.3a.85.85,0,0,1,0,.8c-.1.1-.1.2-.2.3s-.2.2-.3.2a.85.85,0,0,1-.8,0c-.1,0-.2-.1-.3-.2s-.2-.2-.2-.3c-.1-.1-.1-.2-.1-.4Zm5.5-5.4c.2,0,.4-.1.6-.1h.6a5.9035,5.9035,0,0,1,1.4.2,2.2858,2.2858,0,0,1,1,.7,2.075,2.075,0,0,1,.6,1,5.0149,5.0149,0,0,1,.2,1.2,4.012,4.012,0,0,1-.3,1.5,2.8362,2.8362,0,0,1-.8,1.1,2.9221,2.9221,0,0,1-1.2.7,4.012,4.012,0,0,1-1.5.3,2.7685,2.7685,0,0,1-.9-.1,2.6189,2.6189,0,0,1-.8-.3,2.5124,2.5124,0,0,1-.7-.4,2.6512,2.6512,0,0,1-.6-.5l.5-.7a.3993.3993,0,0,1,.4-.2.6012.6012,0,0,1,.4.1.7578.7578,0,0,0,.4.2,1.4214,1.4214,0,0,0,.6.2,1.9493,1.9493,0,0,0,.8.1,1.0773,1.0773,0,0,0,.8-.2,2.0926,2.0926,0,0,0,.6-.4,1.6116,1.6116,0,0,0,.4-.7,2.4844,2.4844,0,0,0,.1-.8,1.6564,1.6564,0,0,0-.5-1.3,2.3894,2.3894,0,0,0-1.4-.5,4.012,4.012,0,0,0-1.5.3l-1.1-.3.8-4.9h5v.7a1.4228,1.4228,0,0,1-.2.6.7778.7778,0,0,1-.8.2h-2.8Zm8.2,0c.2,0,.4-.1.6-.1h.6a5.9035,5.9035,0,0,1,1.4.2,2.2858,2.2858,0,0,1,1,.7,2.075,2.075,0,0,1,.6,1,5.0149,5.0149,0,0,1,.2,1.2,4.0081,4.0081,0,0,1-.3,1.5,2.837,2.837,0,0,1-.8,1.1,2.9253,2.9253,0,0,1-1.2.7,4.0116,4.0116,0,0,1-1.5.3,2.7685,2.7685,0,0,1-.9-.1,2.6113,2.6113,0,0,1-.8-.3,2.5091,2.5091,0,0,1-.7-.4,2.6586,2.6586,0,0,1-.6-.5l.5-.7a.3993.3993,0,0,1,.4-.2.601.601,0,0,1,.4.1.7578.7578,0,0,0,.4.2,1.4219,1.4219,0,0,0,.6.2,1.9493,1.9493,0,0,0,.8.1,1.0773,1.0773,0,0,0,.8-.2,2.09,2.09,0,0,0,.6-.4,1.6116,1.6116,0,0,0,.4-.7,2.4844,2.4844,0,0,0,.1-.8,1.6561,1.6561,0,0,0-.5-1.3,2.3894,2.3894,0,0,0-1.4-.5,4.0124,4.0124,0,0,0-1.5.3l-1.1-.3.8-4.9h5v.7a1.4214,1.4214,0,0,1-.2.6.7778.7778,0,0,1-.8.2h-2.8Z"/><path class="d" d="M269.1,114h-1c-.1,0-.1,0-.2-.1l-.1-.1-1.9-3c0,.1-.1.1-.1.2l-1.9,2.8-.1.1a.3489.3489,0,0,1-.2.1h-.9l2.5-3.7-2.4-3.5H264l.1.1,1.9,2.9a.35.35,0,0,1,.1-.2l1.8-2.6.1-.1h1l-2.4,3.4Z"/><path class="f" d="M308,90h48a8.0235,8.0235,0,0,1,8,8v48a8.0235,8.0235,0,0,1-8,8H308a8.0235,8.0235,0,0,1-8-8V98A8.0235,8.0235,0,0,1,308,90Z"/><path class="d" d="M321.8,128.6l-.4.4a1.4214,1.4214,0,0,1,.6-.2,1.7021,1.7021,0,0,1,.7-.1,3.5957,3.5957,0,0,1,1.1.2,2.0745,2.0745,0,0,1,1,.6,5.4882,5.4882,0,0,1,.7.9,3.08,3.08,0,0,1,.3,1.3,2.7679,2.7679,0,0,1-.3,1.3,4.13,4.13,0,0,1-.7,1.1,2.5875,2.5875,0,0,1-1.1.7,3.6542,3.6542,0,0,1-2.9,0A3.1873,3.1873,0,0,1,319,133a3.8858,3.8858,0,0,1-.2-1.5,4.012,4.012,0,0,1,.3-1.5,5.0677,5.0677,0,0,1,.9-1.6l2.4-3.2a1.3793,1.3793,0,0,1,.4-.3,1.2686,1.2686,0,0,1,.6-.1h1.5Zm.4,5.1a2.2016,2.2016,0,0,0,.8-.1,1.8389,1.8389,0,0,0,1-1,1.7038,1.7038,0,0,0,.1-.7,2.2059,2.2059,0,0,0-.1-.8,1.7181,1.7181,0,0,0-1.8-1.1,1.4827,1.4827,0,0,0-.7.1,1.8383,1.8383,0,0,0-1,1,1.6986,1.6986,0,0,0-.1.7,2.2011,2.2011,0,0,0,.1.8l.3.6a2.09,2.09,0,0,0,.6.4,2.2011,2.2011,0,0,0,.8.1Zm4.7.3a.6013.6013,0,0,1,.1-.4c.1-.1.1-.2.2-.3s.2-.2.3-.2a.85.85,0,0,1,.8,0c.1.1.2.1.3.2s.2.2.2.3a.85.85,0,0,1,0,.8c-.1.1-.1.2-.2.3s-.2.2-.3.2a.85.85,0,0,1-.8,0c-.1,0-.2-.1-.3-.2s-.2-.2-.2-.3c-.1-.1-.1-.2-.1-.4Zm5.5-5.4c.2,0,.4-.1.6-.1h.6a5.9035,5.9035,0,0,1,1.4.2,2.2866,2.2866,0,0,1,1,.7,2.075,2.075,0,0,1,.6,1,5.0149,5.0149,0,0,1,.2,1.2,4.012,4.012,0,0,1-.3,1.5,2.8337,2.8337,0,0,1-.8,1.1,2.9221,2.9221,0,0,1-1.2.7,4.012,4.012,0,0,1-1.5.3,2.7685,2.7685,0,0,1-.9-.1,2.6138,2.6138,0,0,1-.8-.3,2.51,2.51,0,0,1-.7-.4,2.6512,2.6512,0,0,1-.6-.5l.5-.7a.3994.3994,0,0,1,.4-.2.6017.6017,0,0,1,.4.1.7578.7578,0,0,0,.4.2,1.42,1.42,0,0,0,.6.2,1.9493,1.9493,0,0,0,.8.1,1.0773,1.0773,0,0,0,.8-.2,2.0926,2.0926,0,0,0,.6-.4,1.61,1.61,0,0,0,.4-.7,2.4844,2.4844,0,0,0,.1-.8,1.6564,1.6564,0,0,0-.5-1.3,2.3894,2.3894,0,0,0-1.4-.5,4.016,4.016,0,0,0-1.5.3l-1.1-.3.8-4.9h5v.7a1.4228,1.4228,0,0,1-.2.6.7776.7776,0,0,1-.8.2h-2.8Zm9,0-.4.4a1.4214,1.4214,0,0,1,.6-.2,1.7041,1.7041,0,0,1,.7-.1,3.5957,3.5957,0,0,1,1.1.2,2.0745,2.0745,0,0,1,1,.6,5.4979,5.4979,0,0,1,.7.9,3.08,3.08,0,0,1,.3,1.3,2.7679,2.7679,0,0,1-.3,1.3,4.122,4.122,0,0,1-.7,1.1,2.5875,2.5875,0,0,1-1.1.7,3.6542,3.6542,0,0,1-2.9,0,3.1873,3.1873,0,0,1-1.8-1.8,3.89,3.89,0,0,1-.2-1.5,4.0164,4.0164,0,0,1,.3-1.5,5.0737,5.0737,0,0,1,.9-1.6l2.4-3.2a1.3807,1.3807,0,0,1,.4-.3,1.2688,1.2688,0,0,1,.6-.1h1.5Zm.4,5.1a2.2016,2.2016,0,0,0,.8-.1,1.8389,1.8389,0,0,0,1-1,1.7036,1.7036,0,0,0,.1-.7,2.2016,2.2016,0,0,0-.1-.8,1.7181,1.7181,0,0,0-1.8-1.1,1.4827,1.4827,0,0,0-.7.1,1.8386,1.8386,0,0,0-1,1,1.7007,1.7007,0,0,0-.1.7,2.2011,2.2011,0,0,0,.1.8l.3.6a2.0878,2.0878,0,0,0,.6.4,1.9472,1.9472,0,0,0,.8.1Z"/><path class="d" d="M331.9,114h-1v-6.4h-3.6V114h-1v-7.2h5.5V114Zm5.8-.8c.1,0,.2,0,.2.1.1.1.1.1.1.2v.5h-4.8v-.5c0-.1.1-.1.1-.2l2.3-2.3a2.649,2.649,0,0,0,.5-.6c.1-.2.3-.3.4-.5a2.1843,2.1843,0,0,1,.3-.5,1.85,1.85,0,0,0,0-1.2,1.3793,1.3793,0,0,0-.3-.4.7578.7578,0,0,0-.4-.2,1.3,1.3,0,0,0-1,0c-.1.1-.3.1-.4.2l-.3.3c-.1.1-.1.3-.2.4a.2151.2151,0,0,1-.2.2c-.1,0-.2.1-.3,0l-.5-.1a1.6123,1.6123,0,0,1,.3-.9,1.9459,1.9459,0,0,1,1.2-1,2.4787,2.4787,0,0,1,1.7,0,1.6111,1.6111,0,0,1,.7.4,2.649,2.649,0,0,1,.5.6,3.0891,3.0891,0,0,1,.2.8,1.4828,1.4828,0,0,1-.1.7,4.8615,4.8615,0,0,0-.3.7,2.6564,2.6564,0,0,1-.5.6l-.6.6-1.9,1.9c.1,0,.3-.1.4-.1h2.9Z"/><rect class="c" y="246" width="375" height="80"/><path class="d" d="M23.8,262.3l-3.5,7.5a2.0947,2.0947,0,0,1-.4.6.9981.9981,0,0,1-.5.4c-.2.1-.3.2-.5.2s-.4.1-.6.1a1.2686,1.2686,0,0,1-.6-.1c-.1-.1-.2-.1-.2-.2v-1h.8a.3673.3673,0,0,0,.3-.1c.1-.1.2-.1.3-.2s.2-.2.2-.3l.3-.7-3.5-6.1h1.5a.3673.3673,0,0,1,.3.1c.1.1.2.2.2.3l1.7,3.2a1.6884,1.6884,0,0,1,.2.5c.1.2.1.3.2.5a2.9936,2.9936,0,0,1,.4-1l1.5-3.2a.2153.2153,0,0,1,.2-.2.3679.3679,0,0,1,.3-.1Zm1.3,7.1a.9981.9981,0,0,0,.5.4,1.85,1.85,0,0,0,1.2,0,1.7579,1.7579,0,0,0,.5-.4l.3-.6a4.101,4.101,0,0,0,0-1.8,1.4214,1.4214,0,0,0-.2-.6c-.1-.1-.2-.3-.4-.3a.9027.9027,0,0,0-.5-.1,2.3546,2.3546,0,0,0-.8.2,2.6516,2.6516,0,0,0-.6.5Zm-.1-3.7a2.1761,2.1761,0,0,1,.9-.7,2.0149,2.0149,0,0,1,1.1-.3,2.92,2.92,0,0,1,.9.2c.3.1.5.4.7.6a3.1277,3.1277,0,0,1,.5,1,4.3245,4.3245,0,0,1,0,2.6,3.1277,3.1277,0,0,1-.5,1,2.4628,2.4628,0,0,1-1.9.9,1.4863,1.4863,0,0,1-.9-.2c-.2-.1-.5-.3-.7-.4v2.5H23.6v-8.2h.9c.2,0,.3.1.4.3Zm8.7,2.7c-.4,0-.7.1-1.1.1a1.8523,1.8523,0,0,0-.7.2c-.1.1-.3.2-.4.3s-.1.2-.1.4a1.4214,1.4214,0,0,0,.2.6,1.42,1.42,0,0,0,.6.2,1.2025,1.2025,0,0,0,.8-.2,3.0367,3.0367,0,0,0,.7-.5Zm-3.4-2.7a3.9974,3.9974,0,0,1,2.6-1,3.5523,3.5523,0,0,1,1,.2,1.7934,1.7934,0,0,1,.7.5,1.2345,1.2345,0,0,1,.4.8,2.96,2.96,0,0,1,.2,1v3.9h-.7a.3676.3676,0,0,1-.3-.1c-.1-.1-.2-.2-.2-.3l-.1-.4a4.5564,4.5564,0,0,1-1,.7c-.2.1-.3.1-.5.2-.2,0-.4.1-.6.1a1.7,1.7,0,0,1-.7-.1l-.6-.3a.9981.9981,0,0,1-.4-.5,1.7019,1.7019,0,0,1-.1-.7.901.901,0,0,1,.1-.5c.1-.2.1-.3.3-.4a.9986.9986,0,0,1,.5-.4,4.8893,4.8893,0,0,1,.7-.3,2.96,2.96,0,0,1,1-.2,4.874,4.874,0,0,1,1.2-.1v-.4a1.3962,1.3962,0,0,0-.3-.9,1.1361,1.1361,0,0,0-.8-.3,1.27,1.27,0,0,0-.6.1c-.1.1-.3.1-.4.2s-.2.1-.3.2a.5.5,0,0,1-.6,0l-.2-.2ZM42.2,271H40.7v-5H39.2a13.5538,13.5538,0,0,1-.2,2,7.3717,7.3717,0,0,1-.4,1.4,4.0539,4.0539,0,0,1-.5.9,1.205,1.205,0,0,1-.5.5l-.6.3c-.2,0-.4.1-.6.1a.9027.9027,0,0,1-.5-.1.2151.2151,0,0,1-.2-.2V270h.4a.6012.6012,0,0,0,.4-.1.7578.7578,0,0,0,.4-.2c.1-.2.3-.3.4-.5l.3-.9c.1-.5.2-.9.3-1.4s.1-1.2.2-2h4.2Z"/><path class="d" d="M24,291H22.4v-7.4H20c-.1,1.1-.1,2-.2,2.8a11.7947,11.7947,0,0,1-.4,2,7.849,7.849,0,0,1-.5,1.4,1.5559,1.5559,0,0,1-.6.8,1.6132,1.6132,0,0,1-.7.4,2.2059,2.2059,0,0,1-.8.1,1.2686,1.2686,0,0,1-.6-.1c-.1-.1-.2-.1-.2-.2v-1h.8c.1,0,.2-.1.3-.1l.3-.3.3-.6.3-.9a5.8535,5.8535,0,0,0,.2-1.3c.1-.5.1-1.1.2-1.8a16.2127,16.2127,0,0,0,.1-2.3H24Zm4.2-6.3a5.02,5.02,0,0,1,1.2.2,3.3287,3.3287,0,0,1,1,.6,2.0755,2.0755,0,0,1,.6,1,3.8656,3.8656,0,0,1,0,2.6,2.4039,2.4039,0,0,1-1.6,1.6,2.5351,2.5351,0,0,1-1.2.2,5.8586,5.8586,0,0,1-1.3-.2,3.3234,3.3234,0,0,1-1-.6,2.0745,2.0745,0,0,1-.6-1,3.8656,3.8656,0,0,1,0-2.6,2.4045,2.4045,0,0,1,1.6-1.6A5.8517,5.8517,0,0,1,28.2,284.7Zm0,5.2a1.4325,1.4325,0,0,0,1.1-.5,2.8226,2.8226,0,0,0,.4-1.5,2.6042,2.6042,0,0,0-.4-1.5,1.069,1.069,0,0,0-1.1-.5,1.6566,1.6566,0,0,0-1.2.5,3.1875,3.1875,0,0,0,0,3,1.2172,1.2172,0,0,0,1.2.5Zm7.8-4.7.3-.3a.6019.6019,0,0,1,.4-.1h1.2l-1.4,2.3c-.1.1-.2.3-.3.4a.52.52,0,0,1-.4.2c.2.1.4.1.5.3.1.1.3.3.3.4l1.4,2.5H37a1.2686,1.2686,0,0,1-.6-.1.7815.7815,0,0,1-.4-.4l-.9-1.7c-.1-.1-.2-.3-.3-.3a.6012.6012,0,0,0-.4-.1h-.6V291H32.3v-6.2h1.5v2.5h.5a.7549.7549,0,0,0,.7-.4Zm5.4-.5a5.02,5.02,0,0,1,1.2.2,3.3287,3.3287,0,0,1,1,.6,2.0755,2.0755,0,0,1,.6,1,3.8656,3.8656,0,0,1,0,2.6,2.4039,2.4039,0,0,1-1.6,1.6,2.5351,2.5351,0,0,1-1.2.2,5.8586,5.8586,0,0,1-1.3-.2,3.3234,3.3234,0,0,1-1-.6,2.0745,2.0745,0,0,1-.6-1,3.8656,3.8656,0,0,1,0-2.6,2.4045,2.4045,0,0,1,1.6-1.6A5.8517,5.8517,0,0,1,41.4,284.7Zm0,5.2a1.4325,1.4325,0,0,0,1.1-.5,2.8226,2.8226,0,0,0,.4-1.5,2.6042,2.6042,0,0,0-.4-1.5,1.069,1.069,0,0,0-1.1-.5,1.6566,1.6566,0,0,0-1.2.5,3.1875,3.1875,0,0,0,0,3,1.1471,1.1471,0,0,0,1.2.5Zm11.3-5.1V291H51.4v-3.9a.901.901,0,0,1,.1-.5l-1.8,3.3c-.1.2-.2.3-.4.3H49c-.2,0-.3-.1-.4-.3l-1.8-3.3a.901.901,0,0,0,.1.5V291H45.6v-6.2h1.2a.3673.3673,0,0,1,.3.1c.1.1.2.1.3.3l1.5,2.6c.1.1.1.2.2.4.1.1.1.3.2.4a.7578.7578,0,0,1,.2-.4c.1-.1.1-.3.2-.4l1.4-2.6c.1-.1.1-.2.3-.3.1,0,.2-.1.3-.1Zm4.2-.1a5.02,5.02,0,0,1,1.2.2,3.3287,3.3287,0,0,1,1,.6,2.0755,2.0755,0,0,1,.6,1,3.8656,3.8656,0,0,1,0,2.6,2.4039,2.4039,0,0,1-1.6,1.6,2.5351,2.5351,0,0,1-1.2.2,5.8586,5.8586,0,0,1-1.3-.2,3.3234,3.3234,0,0,1-1-.6,2.0745,2.0745,0,0,1-.6-1,3.8656,3.8656,0,0,1,0-2.6,2.4045,2.4045,0,0,1,1.6-1.6A5.0739,5.0739,0,0,1,56.9,284.7Zm0,5.2a1.4325,1.4325,0,0,0,1.1-.5,2.8226,2.8226,0,0,0,.4-1.5,2.6042,2.6042,0,0,0-.4-1.5,1.069,1.069,0,0,0-1.1-.5,1.6566,1.6566,0,0,0-1.2.5,3.1875,3.1875,0,0,0,0,3,1.1471,1.1471,0,0,0,1.2.5Zm9.2-4H63.9V291H62.4v-5.1H60.2v-1.1h5.9Zm6.4-1.1V291H71v-4.2c-.1.2-.2.3-.3.5a.31.31,0,0,1-.1.2,1.3807,1.3807,0,0,0-.3.4,1.7579,1.7579,0,0,1-.4.5c-.1.2-.3.4-.4.6-.3.5-.7,1-1.2,1.7-.1.1-.1.2-.2.2a.3673.3673,0,0,1-.3.1H67v-6.2h1.5V289c.1-.2.2-.3.3-.5a.31.31,0,0,1,.1-.2,1.3807,1.3807,0,0,0,.3-.4,1.7531,1.7531,0,0,1,.4-.5c.1-.2.3-.4.4-.6.3-.5.7-1,1.2-1.7.1-.1.1-.2.2-.2a.3666.3666,0,0,1,.3-.1Zm4,5.2a1.4435,1.4435,0,0,0,.7-.2.8639.8639,0,0,0,.3-.6v-.3c0-.1-.1-.2-.2-.3s-.2-.1-.3-.2c-.2,0-.3-.1-.5-.1H75.4v1.6h1.1Zm-1.1-4.2v1.6h1a.6006.6006,0,0,0,.4-.1c.1,0,.2-.1.3-.2a.8643.8643,0,0,0,.3-.6v-.3a.2151.2151,0,0,0-.2-.2c-.1-.1-.2-.1-.3-.2-.2,0-.3-.1-.5-.1Zm1-1a3.4062,3.4062,0,0,1,1,.1,4.878,4.878,0,0,1,.7.3.9985.9985,0,0,1,.4.5,1.2688,1.2688,0,0,1,.1.6.6012.6012,0,0,1-.1.4.7578.7578,0,0,1-.2.4c-.1.1-.2.3-.3.4l-.6.3a1.42,1.42,0,0,1,.6.2,1.3807,1.3807,0,0,1,.4.3c.1.1.2.3.3.4a.9008.9008,0,0,1,.1.5,1.8853,1.8853,0,0,1-.2.8,2.649,2.649,0,0,1-.5.6,1.1349,1.1349,0,0,1-.8.3,2.7682,2.7682,0,0,1-.9.1H74v-6.2Z"/><path class="e" d="M19.6,308.3v-3.1l-2.2,3.1Zm1.9,0v.7c0,.1,0,.1-.1.2a.3489.3489,0,0,1-.2.1h-.7v1.8H19.4v-1.8h-3a.2652.2652,0,0,1-.3-.2251h0a.2685.2685,0,0,1,0-.0749l-.1-.6,3.4-4.6h1.2v4.5Zm2.3-1.9c.2,0,.3-.1.5-.1h.4a3.5523,3.5523,0,0,1,1,.2,1.7934,1.7934,0,0,1,.7.5,1.6122,1.6122,0,0,1,.4.7,1.4121,1.4121,0,0,1,.1.9,2.96,2.96,0,0,1-.2,1,1.5559,1.5559,0,0,1-.6.8,1.9341,1.9341,0,0,1-.9.5,3.5957,3.5957,0,0,1-1.1.2,1.2686,1.2686,0,0,1-.6-.1,1.4214,1.4214,0,0,1-.6-.2c-.2-.1-.3-.2-.5-.3-.1-.1-.3-.2-.4-.3l.4-.5c.1-.1.2-.2.3-.2a.3673.3673,0,0,1,.3.1c.1.1.2.1.3.2s.3.1.4.2a1.087,1.087,0,0,0,.5.1,1.2664,1.2664,0,0,0,.6-.1,1.3807,1.3807,0,0,0,.4-.3,2.1822,2.1822,0,0,0,.3-.5,1.2686,1.2686,0,0,0,.1-.6,1.3962,1.3962,0,0,0-.3-.9,1.2078,1.2078,0,0,0-1-.3,4.245,4.245,0,0,0-1.1.2l-.8-.2.6-3.5h3.6v.5a.5192.5192,0,0,1-.2.4,1.42,1.42,0,0,1-.6.2h-2Zm4.3,3.9a.3673.3673,0,0,1,.1-.3.2151.2151,0,0,1,.2-.2.7632.7632,0,0,1,.5-.2.3673.3673,0,0,1,.3.1.2151.2151,0,0,1,.2.2l.2.2c0,.1.1.2.1.3a.3674.3674,0,0,1-.1.3.2151.2151,0,0,1-.2.2c-.1.1-.2.1-.2.2-.1,0-.2.1-.3.1a.3673.3673,0,0,1-.3-.1.2151.2151,0,0,1-.2-.2l-.2-.2A.7554.7554,0,0,1,28.1,310.3Zm0-3.5a.3673.3673,0,0,1,.1-.3.2151.2151,0,0,1,.2-.2.7632.7632,0,0,1,.5-.2.3673.3673,0,0,1,.3.1.2151.2151,0,0,1,.2.2l.2.2c0,.1.1.2.1.3a.3674.3674,0,0,1-.1.3.2151.2151,0,0,1-.2.2c-.1.1-.2.1-.2.2-.1,0-.2.1-.3.1a.3673.3673,0,0,1-.3-.1.2151.2151,0,0,1-.2-.2l-.2-.2A.7554.7554,0,0,1,28.1,306.8Zm7.6.6a7.7691,7.7691,0,0,1-.2,1.6,2.3836,2.3836,0,0,1-.6,1.1,2.696,2.696,0,0,1-.8.7,2.5625,2.5625,0,0,1-2.1,0,2.696,2.696,0,0,1-.8-.7,3.8786,3.8786,0,0,1-.6-1.1,6.1625,6.1625,0,0,1,0-3.3,2.3836,2.3836,0,0,1,.6-1.1,2.696,2.696,0,0,1,.8-.7,2.5625,2.5625,0,0,1,2.1,0,2.696,2.696,0,0,1,.8.7,3.8814,3.8814,0,0,1,.6,1.1,4.9535,4.9535,0,0,1,.2,1.7Zm-1.2,0a5.703,5.703,0,0,0-.1-1.3,6.9091,6.9091,0,0,0-.3-.8c-.1-.2-.3-.3-.4-.4a.9083.9083,0,0,0-1,0,.7815.7815,0,0,0-.4.4c-.1.3-.2.5-.3.8a11.3042,11.3042,0,0,0,0,2.6,6.8909,6.8909,0,0,0,.3.8c.1.2.3.3.4.4a.9083.9083,0,0,0,1,0,.7815.7815,0,0,0,.4-.4c.1-.3.3-.5.3-.8,0-.4.1-.9.1-1.3Zm7,0a7.7691,7.7691,0,0,1-.2,1.6,2.3836,2.3836,0,0,1-.6,1.1,2.696,2.696,0,0,1-.8.7,2.5625,2.5625,0,0,1-2.1,0,2.696,2.696,0,0,1-.8-.7,3.8786,3.8786,0,0,1-.6-1.1,6.1625,6.1625,0,0,1,0-3.3,2.3836,2.3836,0,0,1,.6-1.1,2.696,2.696,0,0,1,.8-.7,2.5625,2.5625,0,0,1,2.1,0,2.696,2.696,0,0,1,.8.7,3.8814,3.8814,0,0,1,.6,1.1,4.9535,4.9535,0,0,1,.2,1.7Zm-1.2,0a5.703,5.703,0,0,0-.1-1.3,6.9091,6.9091,0,0,0-.3-.8c-.1-.2-.3-.3-.4-.4a.9083.9083,0,0,0-1,0,.7815.7815,0,0,0-.4.4c-.1.3-.2.5-.3.8a11.3042,11.3042,0,0,0,0,2.6,6.8909,6.8909,0,0,0,.3.8c.1.2.3.3.4.4a.9083.9083,0,0,0,1,0,.7815.7815,0,0,0,.4-.4c.1-.3.3-.5.3-.8,0-.4.1-.9.1-1.3Z"/><rect class="a" x="168" y="254" width="207" height="64"/><path class="f" d="M176,254h48a8.0235,8.0235,0,0,1,8,8v48a8.0235,8.0235,0,0,1-8,8H176a8.0235,8.0235,0,0,1-8-8V262A8.0235,8.0235,0,0,1,176,254Z"/><path class="d" d="M189,292.6c.2,0,.4-.1.6-.1h.6a5.9035,5.9035,0,0,1,1.4.2,2.2866,2.2866,0,0,1,1,.7,2.0755,2.0755,0,0,1,.6,1,5.02,5.02,0,0,1,.2,1.2,4.0116,4.0116,0,0,1-.3,1.5,2.8347,2.8347,0,0,1-.8,1.1,2.9269,2.9269,0,0,1-1.2.7,4.0119,4.0119,0,0,1-1.5.3,2.7658,2.7658,0,0,1-.9-.1,2.61,2.61,0,0,1-.8-.3,2.5044,2.5044,0,0,1-.7-.4,2.6586,2.6586,0,0,1-.6-.5l.5-.7a.4.4,0,0,1,.4-.2.6024.6024,0,0,1,.4.1.7578.7578,0,0,0,.4.2,1.42,1.42,0,0,0,.6.2,1.9527,1.9527,0,0,0,.8.1,1.0782,1.0782,0,0,0,.8-.2,2.0967,2.0967,0,0,0,.6-.4,1.612,1.612,0,0,0,.4-.7,2.4814,2.4814,0,0,0,.1-.8,1.6555,1.6555,0,0,0-.5-1.3,2.3881,2.3881,0,0,0-1.4-.5,4.0081,4.0081,0,0,0-1.5.3l-1.1-.3.8-4.9h5v.7a1.42,1.42,0,0,1-.2.6.7778.7778,0,0,1-.8.2h-2.8Zm5.9,5.4a.6012.6012,0,0,1,.1-.4c.1-.1.1-.2.2-.3s.2-.2.3-.2a.85.85,0,0,1,.8,0c.1.1.2.1.3.2s.2.2.2.3a.85.85,0,0,1,0,.8c-.1.1-.1.2-.2.3s-.2.2-.3.2a.85.85,0,0,1-.8,0c-.1,0-.2-.1-.3-.2s-.2-.2-.2-.3C194.9,298.3,194.9,298.2,194.9,298Zm9.9-.3V299h-5.6v-1.3h2.1v-6.6l-1.5,1.2a.3673.3673,0,0,1-.3.1h-.2c-.1,0-.1,0-.2-.1l-.1-.1-.5-.7,3.1-2.6H203v8.8Zm7.8-.3c.2,0,.3,0,.4.2a.7592.7592,0,0,1,.2.4v1h-6.9v-.6a.7554.7554,0,0,1,.1-.4c.1-.1.1-.3.2-.4l3.1-3.1.7-.7a3.0367,3.0367,0,0,0,.5-.7c.1-.2.2-.5.3-.7a1.9493,1.9493,0,0,0,.1-.8,1.2688,1.2688,0,0,0-.1-.6c-.1-.2-.2-.3-.3-.5a2.1843,2.1843,0,0,0-.5-.3,2.4375,2.4375,0,0,0-1.2,0c-.2.1-.3.1-.5.2-.1.1-.3.2-.3.4a.7645.7645,0,0,0-.2.5c0,.2-.2.3-.3.4a.4464.4464,0,0,1-.5,0l-.9-.2a6.4669,6.4669,0,0,1,.4-1.3,2.179,2.179,0,0,1,.7-.9c.3-.2.7-.4,1-.6a5.0652,5.0652,0,0,1,1.3-.2,5.8517,5.8517,0,0,1,1.3.2,2.075,2.075,0,0,1,1,.6,2.3625,2.3625,0,0,1,.6.9,2.5364,2.5364,0,0,1,.2,1.2,2.9575,2.9575,0,0,1-.2,1c-.1.3-.3.6-.4.9a5.5411,5.5411,0,0,1-.6.8,6.0352,6.0352,0,0,1-.8.8l-2.3,2.3a1.48,1.48,0,0,1,.7-.1c.2,0,.4-.1.6-.1Z"/><path class="d" d="M199.9,278h-1v-6.4h-3.6V278h-1v-7.2h5.5Zm6-.7v.7H202v-.7h1.5V272l-1.3,1.1-.1.1h-.2a.0979.0979,0,0,1-.1-.0957V273.1l-.3-.4,2.1-1.8h.7v6.5Z"/><path class="f" d="M242,254h48a8.0235,8.0235,0,0,1,8,8v48a8.0235,8.0235,0,0,1-8,8H242a8.0235,8.0235,0,0,1-8-8V262A8.0235,8.0235,0,0,1,242,254Z"/><path class="d" d="M252.9,291.7a6.4669,6.4669,0,0,1,.4-1.3,2.1776,2.1776,0,0,1,.7-.9c.3-.2.7-.4,1-.6a5.0739,5.0739,0,0,1,1.3-.2,5.8535,5.8535,0,0,1,1.3.2,2.0762,2.0762,0,0,1,1,.6,1.5564,1.5564,0,0,1,.6.8,3.5558,3.5558,0,0,1,.2,1,2.7682,2.7682,0,0,1-.1.9l-.3.6c-.1.2-.3.3-.5.5a4.878,4.878,0,0,1-.7.3,2.4307,2.4307,0,0,1,1.4.9,1.9133,1.9133,0,0,1,.4,1.5,2.7679,2.7679,0,0,1-.3,1.3,2.54,2.54,0,0,1-.8,1,2.3836,2.3836,0,0,1-1.1.6,4.3245,4.3245,0,0,1-2.6,0,3.1277,3.1277,0,0,1-1-.5,2.696,2.696,0,0,1-.7-.8,5.361,5.361,0,0,1-.5-1.1l.8-.3a1.2686,1.2686,0,0,1,.6-.1c.2,0,.3.1.4.3s.2.3.3.5a.7815.7815,0,0,0,.4.4,1.5939,1.5939,0,0,0,1.2.4,2.2016,2.2016,0,0,0,.8-.1.9994.9994,0,0,0,.5-.4.85.85,0,0,0,.3-.5,1.27,1.27,0,0,0,.1-.6,1.9548,1.9548,0,0,0-.1-.7,2.1822,2.1822,0,0,0-.3-.5.9076.9076,0,0,0-.7-.3,4.8647,4.8647,0,0,0-1.2-.1v-1.2a4.11,4.11,0,0,0,1.1-.1c.2-.1.5-.2.7-.3a1,1,0,0,0,.4-.5,1.27,1.27,0,0,0,.1-.6,1.3839,1.3839,0,0,0-1.2571-1.5,1.3685,1.3685,0,0,0-.2429,0,1.2662,1.2662,0,0,0-.6.1c-.2.1-.3.1-.5.2a1.3758,1.3758,0,0,0-.3.4.762.762,0,0,0-.2.5c0,.2-.2.3-.3.4a.4467.4467,0,0,1-.5,0Zm8,6.3a.6012.6012,0,0,1,.1-.4c.1-.1.1-.2.2-.3s.2-.2.3-.2a.85.85,0,0,1,.8,0c.1.1.2.1.3.2s.2.2.2.3a.85.85,0,0,1,0,.8c-.1.1-.1.2-.2.3s-.2.2-.3.2a.85.85,0,0,1-.8,0c-.1,0-.2-.1-.3-.2s-.2-.2-.2-.3C260.9,298.3,260.9,298.2,260.9,298Zm6.8-.2a1.4828,1.4828,0,0,0,.7-.1,2.1843,2.1843,0,0,0,.5-.3.85.85,0,0,0,.3-.5,1.4828,1.4828,0,0,0,.1-.7,1.6555,1.6555,0,0,0-.5-1.3,1.96,1.96,0,0,0-2.5,0,1.9012,1.9012,0,0,0-.5,1.3,1.95,1.95,0,0,0,.1.7,2.1843,2.1843,0,0,0,.3.5c.2.1.3.3.5.3.5,0,.7.1,1,.1Zm0-7.7a1.7,1.7,0,0,0-.7.1c-.2.1-.3.2-.5.3a2.1822,2.1822,0,0,0-.3.5,1.0852,1.0852,0,0,0-.1.5,1.2666,1.2666,0,0,0,.1.6.55.55,0,0,0,.3.5.9986.9986,0,0,0,.5.4,1.7044,1.7044,0,0,0,1.4,0,1.7593,1.7593,0,0,0,.5-.4.7645.7645,0,0,0,.2-.5,1.269,1.269,0,0,0,.1-.6.75.75,0,0,0-.1-.5,1.3871,1.3871,0,0,0-.7-.8,1.9507,1.9507,0,0,0-.7-.1Zm1.7,3.6a4.1937,4.1937,0,0,1,1.4.9,2.026,2.026,0,0,1,.4,1.5,2.6626,2.6626,0,0,1-.3,1.2,2.179,2.179,0,0,1-.7.9,2.3836,2.3836,0,0,1-1.1.6,6.7529,6.7529,0,0,1-1.4.2,5.9035,5.9035,0,0,1-1.4-.2,2.3836,2.3836,0,0,1-1.1-.6,2.7554,2.7554,0,0,1-.7-.9,2.6626,2.6626,0,0,1-.3-1.2,2.6025,2.6025,0,0,1,.4-1.5,2.3006,2.3006,0,0,1,1.4-.9,3.1263,3.1263,0,0,1-1.1-.9,2.2958,2.2958,0,0,1-.4-1.4,4.2442,4.2442,0,0,1,.2-1.1,5.4936,5.4936,0,0,1,.7-.9,2.0745,2.0745,0,0,1,1-.6,5.0652,5.0652,0,0,1,1.3-.2,5.8535,5.8535,0,0,1,1.3.2,2.0755,2.0755,0,0,1,1,.6,2.1778,2.1778,0,0,1,.7.9,2.5435,2.5435,0,0,1-.1,2.4,2.6677,2.6677,0,0,1-1.2,1Zm6.4,4.1a1.4828,1.4828,0,0,0,.7-.1,2.1843,2.1843,0,0,0,.5-.3.85.85,0,0,0,.3-.5,1.4828,1.4828,0,0,0,.1-.7,1.6555,1.6555,0,0,0-.5-1.3,1.96,1.96,0,0,0-2.5,0,1.9012,1.9012,0,0,0-.5,1.3,1.95,1.95,0,0,0,.1.7,2.1843,2.1843,0,0,0,.3.5c.2.1.3.3.5.3C275.3,297.7,275.5,297.8,275.8,297.8Zm0-7.7a1.7,1.7,0,0,0-.7.1c-.2.1-.3.2-.5.3a2.1822,2.1822,0,0,0-.3.5,1.0852,1.0852,0,0,0-.1.5,1.2666,1.2666,0,0,0,.1.6.55.55,0,0,0,.3.5.9986.9986,0,0,0,.5.4,1.7044,1.7044,0,0,0,1.4,0,1.7593,1.7593,0,0,0,.5-.4.7645.7645,0,0,0,.2-.5,1.269,1.269,0,0,0,.1-.6.75.75,0,0,0-.1-.5,1.3871,1.3871,0,0,0-.7-.8,1.9507,1.9507,0,0,0-.7-.1Zm1.7,3.6a4.1937,4.1937,0,0,1,1.4.9,2.026,2.026,0,0,1,.4,1.5,2.6626,2.6626,0,0,1-.3,1.2,2.179,2.179,0,0,1-.7.9,2.3836,2.3836,0,0,1-1.1.6,6.7529,6.7529,0,0,1-1.4.2,5.9035,5.9035,0,0,1-1.4-.2,2.3836,2.3836,0,0,1-1.1-.6,2.7554,2.7554,0,0,1-.7-.9,2.6626,2.6626,0,0,1-.3-1.2,2.6025,2.6025,0,0,1,.4-1.5,2.3008,2.3008,0,0,1,1.4-.9,3.1263,3.1263,0,0,1-1.1-.9,2.2958,2.2958,0,0,1-.4-1.4,4.2527,4.2527,0,0,1,.2-1.1,5.4936,5.4936,0,0,1,.7-.9,2.0745,2.0745,0,0,1,1-.6,5.0652,5.0652,0,0,1,1.3-.2,5.8535,5.8535,0,0,1,1.3.2,2.0755,2.0755,0,0,1,1,.6,2.1778,2.1778,0,0,1,.7.9,2.5435,2.5435,0,0,1-.1,2.4,2.6672,2.6672,0,0,1-1.2,1Z"/><path class="d" d="M269.1,278h-1c-.1,0-.1,0-.2-.1l-.1-.1-1.9-3c0,.1-.1.1-.1.2l-1.9,2.8-.1.1a.35.35,0,0,1-.2.1h-.9l2.5-3.7-2.4-3.5H264l.1.1,1.9,2.9a.35.35,0,0,1,.1-.2l1.8-2.6.1-.1h1l-2.4,3.4Z"/><path class="f" d="M308,254h48a8.0235,8.0235,0,0,1,8,8v48a8.0235,8.0235,0,0,1-8,8H308a8.0235,8.0235,0,0,1-8-8V262A8.0235,8.0235,0,0,1,308,254Z"/><path class="d" d="M325.4,297.7V299h-5.6v-1.3h2.1v-6.6l-1.5,1.2a.3673.3673,0,0,1-.3.1h-.2c-.1,0-.1,0-.2-.1l-.1-.1-.5-.7,3.1-2.6h1.4v8.8Zm1.5.3a.6012.6012,0,0,1,.1-.4c.1-.1.1-.2.2-.3s.2-.2.3-.2a.85.85,0,0,1,.8,0c.1.1.2.1.3.2s.2.2.2.3a.85.85,0,0,1,0,.8c-.1.1-.1.2-.2.3s-.2.2-.3.2a.85.85,0,0,1-.8,0c-.1,0-.2-.1-.3-.2s-.2-.2-.2-.3C326.9,298.3,326.9,298.2,326.9,298Zm10.3-9.1v.7a.75.75,0,0,1-.1.5c0,.1-.1.2-.1.3l-3.8,7.9a1.3807,1.3807,0,0,1-.3.4,1.4214,1.4214,0,0,1-.6.2H331l3.9-7.7a1.3776,1.3776,0,0,1,.3-.4c.1-.1.2-.3.3-.4h-4.8a.43.43,0,0,1-.4-.4v-1.2h6.9Zm5.5,6.3v-3.3a3.3988,3.3988,0,0,1,.1-1l-3.1,4.3Zm2.8,0v1c0,.1,0,.2-.1.2a.3674.3674,0,0,1-.3.1h-.9V299h-1.5v-2.5h-4.3a.6642.6642,0,0,1-.5-.4l-.2-.9,4.8-6.4h1.6v6.3Z"/><path class="d" d="M331.9,278h-1v-6.4h-3.6V278h-1v-7.2h5.5V278Zm5.8-.8c.1,0,.2,0,.2.1.1.1.1.1.1.2v.5h-4.8v-.5c0-.1.1-.1.1-.2l2.3-2.3a2.649,2.649,0,0,0,.5-.6c.1-.2.3-.3.4-.5a2.1864,2.1864,0,0,1,.3-.5,1.2686,1.2686,0,0,0,.1-.6.75.75,0,0,0-.1-.5,1.3807,1.3807,0,0,0-.3-.4.7578.7578,0,0,0-.4-.2,1.3,1.3,0,0,0-1,0c-.1.1-.3.1-.4.2l-.3.3c-.1.1-.1.3-.2.4a.2151.2151,0,0,1-.2.2c-.1,0-.2.1-.3,0l-.5-.1a1.6123,1.6123,0,0,1,.3-.9,1.9459,1.9459,0,0,1,1.2-1,2.48,2.48,0,0,1,1.7,0,1.6126,1.6126,0,0,1,.7.4,2.649,2.649,0,0,1,.5.6,3.0891,3.0891,0,0,1,.2.8,1.4814,1.4814,0,0,1-.1.7l-.3.6a2.6542,2.6542,0,0,1-.5.6l-.6.6-1.9,1.9c.1,0,.3-.1.4-.1h2.9Z"/><rect class="c" y="164" width="375" height="80"/><path class="d" d="M21.5,185.7l-1.1-2.9c-.1-.1-.1-.3-.2-.5s-.1-.4-.2-.6c-.1.2-.1.4-.2.6s-.1.3-.2.5l-1,2.9Zm2.9,3.3H23.2a.3673.3673,0,0,1-.3-.1c-.1-.1-.2-.2-.2-.3l-.6-1.8H18.5l-.6,1.8c0,.1-.1.2-.2.3a.3673.3673,0,0,1-.3.1H16.1l3.4-8.7H21Zm2.1-1.6a.9981.9981,0,0,0,.5.4,1.85,1.85,0,0,0,1.2,0,1.7531,1.7531,0,0,0,.5-.4l.3-.6a4.101,4.101,0,0,0,0-1.8,1.4214,1.4214,0,0,0-.2-.6c-.1-.1-.2-.3-.4-.3a.901.901,0,0,0-.5-.1,2.35,2.35,0,0,0-.8.2,2.649,2.649,0,0,0-.6.5Zm-.1-3.7a2.1784,2.1784,0,0,1,.9-.7,2.016,2.016,0,0,1,1.1-.3,2.92,2.92,0,0,1,.9.2c.3.1.5.4.7.6a3.1277,3.1277,0,0,1,.5,1,4.3245,4.3245,0,0,1,0,2.6,3.1277,3.1277,0,0,1-.5,1,2.4628,2.4628,0,0,1-1.9.9,1.4863,1.4863,0,0,1-.9-.2c-.2-.1-.5-.3-.7-.4v2.5H25v-8.2h.9c.2,0,.3.1.4.3Zm9.8.4-.1.1c-.1,0-.1.1-.2,0-.1,0-.2,0-.2-.1-.1,0-.2-.1-.3-.2s-.2-.1-.4-.2a1.6724,1.6724,0,0,0-1.2.1.9981.9981,0,0,0-.5.4l-.3.6a4.8446,4.8446,0,0,0,0,1.7,3.3294,3.3294,0,0,0,.3.6.9981.9981,0,0,0,.5.4,1.85,1.85,0,0,0,1.2,0c.1-.1.3-.1.4-.2s.2-.1.3-.2a.5.5,0,0,1,.6,0l.4.5-.5.5a3.08,3.08,0,0,1-1.2.5h-.6a4.2534,4.2534,0,0,1-1.1-.2,4.6982,4.6982,0,0,1-.9-.6,2.075,2.075,0,0,1-.6-1,3.8681,3.8681,0,0,1,0-2.6,2.075,2.075,0,0,1,.6-1,5.4936,5.4936,0,0,1,.9-.7,2.7451,2.7451,0,0,1,1.3-.2,5.02,5.02,0,0,1,1.2.2,2.0332,2.0332,0,0,1,.9.6Zm5.3,1.1a.7494.7494,0,0,0-.1-.5.52.52,0,0,0-.2-.4c-.1-.1-.3-.2-.4-.3a1.2686,1.2686,0,0,0-.6-.1,1.2838,1.2838,0,0,0-1,.4,2.3559,2.3559,0,0,0-.5,1h2.8Zm-2.9.9a1.8845,1.8845,0,0,0,.2.8l.3.6a.85.85,0,0,0,.5.3,1.4828,1.4828,0,0,0,.7.1,1.2688,1.2688,0,0,0,.6-.1c.2,0,.3-.1.5-.2.1-.1.2-.1.3-.2a.5.5,0,0,1,.6,0l.4.5c-.2.2-.3.4-.6.5l-.6.3a6.341,6.341,0,0,1-.7.2h-.7a5.02,5.02,0,0,1-1.2-.2,3.3287,3.3287,0,0,1-1-.6,2.075,2.075,0,0,1-.6-1,3.4026,3.4026,0,0,1-.2-1.4,5.02,5.02,0,0,1,.2-1.2,2.075,2.075,0,0,1,.6-1,5.4936,5.4936,0,0,1,.9-.7,2.5377,2.5377,0,0,1,1.2-.2,4.2534,4.2534,0,0,1,1.1.2,2.1776,2.1776,0,0,1,.8.5,3.49,3.49,0,0,1,.6.9,5.02,5.02,0,0,1,.2,1.2.901.901,0,0,1-.1.5.3673.3673,0,0,1-.3.1Zm10.7-3.3V189H47.8v-2.7H45.4V189H43.9v-6.2h1.5v2.3h2.4v-2.3Zm4.7,3.6c-.4,0-.7.1-1.1.1a1.8523,1.8523,0,0,0-.7.2c-.1.1-.3.2-.4.3s-.1.2-.1.4a.7071.7071,0,0,0,.8.8,1.2025,1.2025,0,0,0,.8-.2,3.0367,3.0367,0,0,0,.7-.5Zm-3.4-2.7a3.9986,3.9986,0,0,1,2.6-1,3.5523,3.5523,0,0,1,1,.2,1.7934,1.7934,0,0,1,.7.5,1.2345,1.2345,0,0,1,.4.8,2.96,2.96,0,0,1,.2,1v3.9h-.7a.3673.3673,0,0,1-.3-.1c-.1-.1-.2-.2-.2-.3l-.1-.4a4.5621,4.5621,0,0,1-1,.7c-.2.1-.3.1-.5.2-.2,0-.4.1-.6.1a1.7021,1.7021,0,0,1-.7-.1l-.6-.3a.9989.9989,0,0,1-.4-.5,1.7024,1.7024,0,0,1-.1-.7.9008.9008,0,0,1,.1-.5c.1-.2.1-.3.3-.4a.9981.9981,0,0,1,.5-.4,4.878,4.878,0,0,1,.7-.3,2.9551,2.9551,0,0,1,1-.2,4.8643,4.8643,0,0,1,1.2-.1v-.4a1.3962,1.3962,0,0,0-.3-.9,1.1354,1.1354,0,0,0-.8-.3,1.2688,1.2688,0,0,0-.6.1c-.1.1-.3.1-.4.2s-.2.1-.3.2a.5.5,0,0,1-.6,0l-.2-.2Zm12,5.3H61.1v-5H59.6a13.5538,13.5538,0,0,1-.2,2,7.3717,7.3717,0,0,1-.4,1.4,4.0539,4.0539,0,0,1-.5.9,1.205,1.205,0,0,1-.5.5l-.6.3c-.2,0-.4.1-.6.1a.901.901,0,0,1-.5-.1c-.1,0-.1-.1-.2-.2V188h.4a.6012.6012,0,0,0,.4-.1.7578.7578,0,0,0,.4-.2c.1-.2.3-.3.4-.5l.3-.9c.1-.5.2-.9.3-1.4s.1-1.2.2-2h4.2Zm10.6-7.4H70.6V189H69v-7.4H66.4v-1.3h6.8Zm5.5,1.2-3.4,7.8a.2151.2151,0,0,1-.2.2.3673.3673,0,0,1-.3.1H73.7l1.2-2.5-2.5-5.7h1.3a.3673.3673,0,0,1,.3.1l.2.2,1.3,3.2c0,.1.1.2.1.3s.1.2.1.3c0-.1.1-.2.1-.3s.1-.2.1-.3l1.2-3.2c0-.1.1-.1.2-.2a.3673.3673,0,0,1,.3-.1h1.1Zm5.9,6.2H83.1v-5H81.6a13.5538,13.5538,0,0,1-.2,2,7.3717,7.3717,0,0,1-.4,1.4,4.0539,4.0539,0,0,1-.5.9,1.205,1.205,0,0,1-.5.5l-.6.3c-.2,0-.4.1-.6.1a.901.901,0,0,1-.5-.1.2151.2151,0,0,1-.2-.2V188h.4a.6012.6012,0,0,0,.4-.1.7578.7578,0,0,0,.4-.2c.1-.2.3-.3.4-.5l.3-.9c.1-.5.2-.9.3-1.4s.1-1.2.2-2h4.2Zm4.7-2.6c-.4,0-.7.1-1.1.1a1.8523,1.8523,0,0,0-.7.2c-.1.1-.3.2-.4.3s-.1.2-.1.4a.7071.7071,0,0,0,.8.8,1.2025,1.2025,0,0,0,.8-.2,3.0367,3.0367,0,0,0,.7-.5Zm-3.4-2.7a3.9986,3.9986,0,0,1,2.6-1,3.5523,3.5523,0,0,1,1,.2,1.7934,1.7934,0,0,1,.7.5,1.235,1.235,0,0,1,.4.8,2.96,2.96,0,0,1,.2,1v3.9H90a.3673.3673,0,0,1-.3-.1c-.1-.1-.2-.2-.2-.3l-.1-.4a4.5621,4.5621,0,0,1-1,.7c-.2.1-.3.1-.5.2-.2,0-.4.1-.6.1a1.7021,1.7021,0,0,1-.7-.1l-.6-.3a.9989.9989,0,0,1-.4-.5,1.7041,1.7041,0,0,1-.1-.7.9008.9008,0,0,1,.1-.5c.1-.2.1-.3.3-.4a.9981.9981,0,0,1,.5-.4,4.878,4.878,0,0,1,.7-.3,2.958,2.958,0,0,1,1-.2,4.8643,4.8643,0,0,1,1.2-.1v-.4a1.3962,1.3962,0,0,0-.3-.9,1.1354,1.1354,0,0,0-.8-.3,1.2688,1.2688,0,0,0-.6.1c-.1.1-.3.1-.4.2s-.2.1-.3.2a.5.5,0,0,1-.6,0l-.2-.2Z"/><path class="d" d="M16.5,201.1a7.4585,7.4585,0,0,1,1.2-.7,3.8877,3.8877,0,0,1,1.5-.2,5.8517,5.8517,0,0,1,1.3.2,4.6683,4.6683,0,0,1,1,.5,1.3438,1.3438,0,0,1,.6.7,2.92,2.92,0,0,1,.2.9,2.0158,2.0158,0,0,1-.3,1.1,3.0435,3.0435,0,0,1-.8.8,2.1843,2.1843,0,0,1,.5.3c.2.1.3.3.4.4.1.2.2.3.3.5a1.2688,1.2688,0,0,1,.1.6,3.5957,3.5957,0,0,1-.2,1.1,4.6982,4.6982,0,0,1-.6.9,2.075,2.075,0,0,1-1,.6,3.1765,3.1765,0,0,1-1.4.2,2.7682,2.7682,0,0,1-.9-.1c-.3-.1-.6-.1-.8-.2a1.6122,1.6122,0,0,1-.7-.4,2.649,2.649,0,0,1-.6-.5l.5-.8c0-.1.1-.1.2-.1s.1-.1.2-.1.2.1.3.1a2.1843,2.1843,0,0,0,.5.3l.6.3a2.7682,2.7682,0,0,0,.9.1,3.0792,3.0792,0,0,0,1.3-.3,1.19,1.19,0,0,0,.4-1.1.7494.7494,0,0,0-.1-.5,1.3807,1.3807,0,0,0-.3-.4c-.2-.1-.3-.2-.5-.2a1.7038,1.7038,0,0,0-.7-.1H18v-1.3h1.1a2.6626,2.6626,0,0,0,1.2-.3.9747.9747,0,0,0,.4-.9.91.91,0,0,0-.4-.8,2.1336,2.1336,0,0,0-1.2-.3,2.2013,2.2013,0,0,0-.8.1c-.2.1-.4.1-.5.2-.2.1-.3.1-.4.2a.3673.3673,0,0,1-.3.1c-.1,0-.1,0-.2-.1-.1,0-.1-.1-.2-.2Zm11.1,4.1a.7494.7494,0,0,0-.1-.5.52.52,0,0,0-.2-.4c-.1-.1-.3-.2-.4-.3a1.2688,1.2688,0,0,0-.6-.1,1.2845,1.2845,0,0,0-1,.4,2.3559,2.3559,0,0,0-.5,1h2.8Zm-2.8.9a1.8845,1.8845,0,0,0,.2.8l.3.6a.85.85,0,0,0,.5.3,1.4828,1.4828,0,0,0,.7.1,1.2686,1.2686,0,0,0,.6-.1c.2,0,.3-.1.5-.2.1-.1.2-.1.3-.2a.5.5,0,0,1,.6,0l.4.5c-.2.2-.3.4-.6.5l-.6.3a6.341,6.341,0,0,1-.7.2h-.7a5.0149,5.0149,0,0,1-1.2-.2,3.3287,3.3287,0,0,1-1-.6,2.0745,2.0745,0,0,1-.6-1,3.4024,3.4024,0,0,1-.2-1.4,5.02,5.02,0,0,1,.2-1.2,2.075,2.075,0,0,1,.6-1,5.4936,5.4936,0,0,1,.9-.7,2.5389,2.5389,0,0,1,1.2-.2,4.2619,4.2619,0,0,1,1.1.2,2.1776,2.1776,0,0,1,.8.5,3.49,3.49,0,0,1,.6.9,5.02,5.02,0,0,1,.2,1.2.9008.9008,0,0,1-.1.5.3669.3669,0,0,1-.3.1Zm10.6-3.3V209H33.9v-2.7H31.5V209H30v-6.2h1.5v2.3h2.4v-2.3Zm7,0V209H40.9v-4.2c-.1.2-.2.3-.3.5a.31.31,0,0,1-.1.2,1.3807,1.3807,0,0,0-.3.4,1.7531,1.7531,0,0,1-.4.5c-.1.2-.3.4-.4.6-.3.5-.7,1-1.2,1.7-.1.1-.1.2-.2.2a.3673.3673,0,0,1-.3.1h-.9v-6.2h1.5V207c.1-.2.2-.3.3-.5a.31.31,0,0,1,.1-.2,1.3793,1.3793,0,0,0,.3-.4,1.7531,1.7531,0,0,1,.4-.5c.1-.2.3-.4.4-.6.3-.5.7-1,1.2-1.7.1-.1.1-.2.2-.2a.3673.3673,0,0,1,.3-.1Zm6.7,1.1H46.9V209H45.4v-5.1H43.2v-1.1h5.9Z"/><path class="e" d="M19.6,226.3v-3.1l-2.2,3.1Zm1.9,0v.7c0,.1,0,.1-.1.2a.3489.3489,0,0,1-.2.1h-.7v1.8H19.4v-1.8h-3a.2652.2652,0,0,1-.3-.2251h0a.2685.2685,0,0,1,0-.0749l-.1-.6,3.4-4.6h1.2v4.5Zm2.3-1.9c.2,0,.3-.1.5-.1h.4a3.5523,3.5523,0,0,1,1,.2,1.7934,1.7934,0,0,1,.7.5,1.6122,1.6122,0,0,1,.4.7,1.4121,1.4121,0,0,1,.1.9,4.2534,4.2534,0,0,1-.2,1.1,1.5551,1.5551,0,0,1-.6.8,1.9341,1.9341,0,0,1-.9.5,3.5962,3.5962,0,0,1-1.1.2,1.2686,1.2686,0,0,1-.6-.1,1.4214,1.4214,0,0,1-.6-.2c-.2-.1-.3-.2-.5-.3-.1-.1-.3-.2-.4-.3l.4-.5c.1-.1.2-.2.3-.2a.3673.3673,0,0,1,.3.1c.1.1.2.1.3.2s.3.1.4.2a1.087,1.087,0,0,0,.5.1,1.2688,1.2688,0,0,0,.6-.1,1.3807,1.3807,0,0,0,.4-.3,2.1843,2.1843,0,0,0,.3-.5,1.2688,1.2688,0,0,0,.1-.6,1.3962,1.3962,0,0,0-.3-.9,1.2089,1.2089,0,0,0-1-.3,4.2534,4.2534,0,0,0-1.1.2l-.8-.2L23,222h3.6v.5a.52.52,0,0,1-.2.4,1.4214,1.4214,0,0,1-.6.2h-2Zm4.3,3.9a.3673.3673,0,0,1,.1-.3.2151.2151,0,0,1,.2-.2.7645.7645,0,0,1,.5-.2.3673.3673,0,0,1,.3.1.2151.2151,0,0,1,.2.2l.2.2c0,.1.1.2.1.3a.3673.3673,0,0,1-.1.3.2151.2151,0,0,1-.2.2c-.1.1-.2.1-.2.2-.1,0-.2.1-.3.1a.3673.3673,0,0,1-.3-.1.2151.2151,0,0,1-.2-.2l-.2-.2a.7554.7554,0,0,1-.1-.4Zm0-3.5a.3673.3673,0,0,1,.1-.3.2151.2151,0,0,1,.2-.2.7645.7645,0,0,1,.5-.2.3673.3673,0,0,1,.3.1.2151.2151,0,0,1,.2.2l.2.2c0,.1.1.2.1.3a.3673.3673,0,0,1-.1.3.2151.2151,0,0,1-.2.2c-.1.1-.2.1-.2.2-.1,0-.2.1-.3.1a.3673.3673,0,0,1-.3-.1.2151.2151,0,0,1-.2-.2l-.2-.2a.7554.7554,0,0,1-.1-.4Zm7.6.6a7.7683,7.7683,0,0,1-.2,1.6,2.3836,2.3836,0,0,1-.6,1.1,2.696,2.696,0,0,1-.8.7,2.5625,2.5625,0,0,1-2.1,0,2.696,2.696,0,0,1-.8-.7,3.8786,3.8786,0,0,1-.6-1.1,6.1625,6.1625,0,0,1,0-3.3,2.3836,2.3836,0,0,1,.6-1.1,2.696,2.696,0,0,1,.8-.7,2.5625,2.5625,0,0,1,2.1,0,2.696,2.696,0,0,1,.8.7,3.88,3.88,0,0,1,.6,1.1,4.9535,4.9535,0,0,1,.2,1.7Zm-1.2,0a5.703,5.703,0,0,0-.1-1.3,6.9091,6.9091,0,0,0-.3-.8c-.1-.2-.3-.3-.4-.4a.9083.9083,0,0,0-1,0,.7815.7815,0,0,0-.4.4c-.1.3-.2.5-.3.8a11.3042,11.3042,0,0,0,0,2.6,6.8909,6.8909,0,0,0,.3.8c.1.2.3.3.4.4a.9083.9083,0,0,0,1,0,.7815.7815,0,0,0,.4-.4c.1-.3.3-.5.3-.8C34.4,226.3,34.5,225.8,34.5,225.4Zm7,0a7.7683,7.7683,0,0,1-.2,1.6,2.3836,2.3836,0,0,1-.6,1.1,2.696,2.696,0,0,1-.8.7,2.5625,2.5625,0,0,1-2.1,0,2.696,2.696,0,0,1-.8-.7,3.8786,3.8786,0,0,1-.6-1.1,6.1625,6.1625,0,0,1,0-3.3,2.3836,2.3836,0,0,1,.6-1.1,2.696,2.696,0,0,1,.8-.7,2.5625,2.5625,0,0,1,2.1,0,2.696,2.696,0,0,1,.8.7,3.88,3.88,0,0,1,.6,1.1A4.9535,4.9535,0,0,1,41.5,225.4Zm-1.2,0a5.703,5.703,0,0,0-.1-1.3,6.9091,6.9091,0,0,0-.3-.8c-.1-.2-.3-.3-.4-.4a.9083.9083,0,0,0-1,0,.7815.7815,0,0,0-.4.4c-.1.3-.2.5-.3.8a11.3042,11.3042,0,0,0,0,2.6,6.8909,6.8909,0,0,0,.3.8c.1.2.3.3.4.4a.9083.9083,0,0,0,1,0,.7815.7815,0,0,0,.4-.4c.1-.3.3-.5.3-.8C40.2,226.3,40.3,225.8,40.3,225.4Z"/><rect class="a" x="168" y="172" width="207" height="64"/><path class="f" d="M176,172h48a8.0235,8.0235,0,0,1,8,8v48a8.0235,8.0235,0,0,1-8,8H176a8.0235,8.0235,0,0,1-8-8V180A8.0235,8.0235,0,0,1,176,172Z"/><path class="d" d="M189,210.6c.2,0,.4-.1.6-.1h.6a5.9035,5.9035,0,0,1,1.4.2,2.2858,2.2858,0,0,1,1,.7,2.075,2.075,0,0,1,.6,1,5.02,5.02,0,0,1,.2,1.2,4.012,4.012,0,0,1-.3,1.5,2.8372,2.8372,0,0,1-.8,1.1,2.9256,2.9256,0,0,1-1.2.7,4.012,4.012,0,0,1-1.5.3,2.7685,2.7685,0,0,1-.9-.1,2.6154,2.6154,0,0,1-.8-.3,2.5071,2.5071,0,0,1-.7-.4,2.649,2.649,0,0,1-.6-.5l.5-.7a.3992.3992,0,0,1,.4-.2.6019.6019,0,0,1,.4.1.7578.7578,0,0,0,.4.2,1.4214,1.4214,0,0,0,.6.2,1.9493,1.9493,0,0,0,.8.1,1.0773,1.0773,0,0,0,.8-.2,2.0913,2.0913,0,0,0,.6-.4,1.6116,1.6116,0,0,0,.4-.7,2.4817,2.4817,0,0,0,.1-.8,1.6558,1.6558,0,0,0-.5-1.3,2.3894,2.3894,0,0,0-1.4-.5,4.012,4.012,0,0,0-1.5.3l-1.1-.3.8-4.9h5v.7a1.42,1.42,0,0,1-.2.6.7775.7775,0,0,1-.8.2h-2.8Zm5.9,5.4a.6013.6013,0,0,1,.1-.4c.1-.1.1-.2.2-.3s.2-.2.3-.2a.85.85,0,0,1,.8,0c.1.1.2.1.3.2s.2.2.2.3a.85.85,0,0,1,0,.8c-.1.1-.1.2-.2.3s-.2.2-.3.2a.85.85,0,0,1-.8,0c-.1,0-.2-.1-.3-.2s-.2-.2-.2-.3c-.1-.1-.1-.2-.1-.4Zm6.8-.2a1.4828,1.4828,0,0,0,.7-.1,2.1843,2.1843,0,0,0,.5-.3.85.85,0,0,0,.3-.5,1.4828,1.4828,0,0,0,.1-.7,1.6555,1.6555,0,0,0-.5-1.3,1.96,1.96,0,0,0-2.5,0,1.9012,1.9012,0,0,0-.5,1.3,1.9548,1.9548,0,0,0,.1.7,2.1843,2.1843,0,0,0,.3.5c.2.1.3.3.5.3.5,0,.7.1,1,.1Zm0-7.7a1.7021,1.7021,0,0,0-.7.1c-.2.1-.3.2-.5.3a2.1843,2.1843,0,0,0-.3.5,1.087,1.087,0,0,0-.1.5,1.2686,1.2686,0,0,0,.1.6.55.55,0,0,0,.3.5.9975.9975,0,0,0,.5.4,1.7037,1.7037,0,0,0,1.4,0,1.7531,1.7531,0,0,0,.5-.4.7645.7645,0,0,0,.2-.5,1.2686,1.2686,0,0,0,.1-.6.7494.7494,0,0,0-.1-.5,1.3877,1.3877,0,0,0-.7-.8A1.9548,1.9548,0,0,0,201.7,208.1Zm1.7,3.6a4.1952,4.1952,0,0,1,1.4.9,2.0261,2.0261,0,0,1,.4,1.5,2.6626,2.6626,0,0,1-.3,1.2,2.1784,2.1784,0,0,1-.7.9,2.3836,2.3836,0,0,1-1.1.6,6.7529,6.7529,0,0,1-1.4.2,5.9035,5.9035,0,0,1-1.4-.2,2.3836,2.3836,0,0,1-1.1-.6,2.7568,2.7568,0,0,1-.7-.9,2.6626,2.6626,0,0,1-.3-1.2,2.6034,2.6034,0,0,1,.4-1.5,2.3017,2.3017,0,0,1,1.4-.9,3.1234,3.1234,0,0,1-1.1-.9,2.2958,2.2958,0,0,1-.4-1.4,4.25,4.25,0,0,1,.2-1.1,5.5021,5.5021,0,0,1,.7-.9,3.3275,3.3275,0,0,1,1-.6,5.0739,5.0739,0,0,1,1.3-.2,5.8535,5.8535,0,0,1,1.3.2,2.075,2.075,0,0,1,1,.6,2.179,2.179,0,0,1,.7.9,2.5441,2.5441,0,0,1-.1,2.4,2.666,2.666,0,0,1-1.2,1Zm9.2,3.7c.2,0,.3,0,.4.2a.7592.7592,0,0,1,.2.4v1h-6.9v-.6a.7554.7554,0,0,1,.1-.4c.1-.1.1-.3.2-.4l3.1-3.1.7-.7a3.0367,3.0367,0,0,0,.5-.7c.1-.2.2-.5.3-.7a1.9493,1.9493,0,0,0,.1-.8,1.2688,1.2688,0,0,0-.1-.6c-.1-.2-.2-.3-.3-.5a2.1843,2.1843,0,0,0-.5-.3,2.4375,2.4375,0,0,0-1.2,0c-.2.1-.3.1-.5.2-.1.1-.3.2-.3.4a.7632.7632,0,0,0-.2.5c0,.2-.2.3-.3.4a.4464.4464,0,0,1-.5,0l-.9-.2a6.4669,6.4669,0,0,1,.4-1.3,2.1778,2.1778,0,0,1,.7-.9c.3-.2.7-.4,1-.6a5.0652,5.0652,0,0,1,1.3-.2,5.8517,5.8517,0,0,1,1.3.2,2.075,2.075,0,0,1,1,.6,2.3618,2.3618,0,0,1,.6.9,2.5362,2.5362,0,0,1,.2,1.2,2.958,2.958,0,0,1-.2,1c-.1.3-.3.6-.4.9a5.5466,5.5466,0,0,1-.6.8,6.0352,6.0352,0,0,1-.8.8l-2.3,2.3a1.4827,1.4827,0,0,1,.7-.1c.2,0,.4-.1.6-.1h2.6Z"/><path class="d" d="M199.9,196h-1v-6.4h-3.6V196h-1v-7.2h5.5Zm6-.7v.7H202v-.7h1.5V190l-1.3,1.1-.1.1h-.2a.0979.0979,0,0,1-.1-.0957V191.1l-.3-.4,2.1-1.8h.7v6.5Z"/><path class="f" d="M242,172h48a8.0235,8.0235,0,0,1,8,8v48a8.0235,8.0235,0,0,1-8,8H242a8.0235,8.0235,0,0,1-8-8V180A8.0235,8.0235,0,0,1,242,172Z"/><path class="d" d="M252.9,209.7a6.4669,6.4669,0,0,1,.4-1.3,2.1776,2.1776,0,0,1,.7-.9c.3-.2.7-.4,1-.6a5.0652,5.0652,0,0,1,1.3-.2,5.8535,5.8535,0,0,1,1.3.2,2.0755,2.0755,0,0,1,1,.6,1.5551,1.5551,0,0,1,.6.8,3.5558,3.5558,0,0,1,.2,1,2.7682,2.7682,0,0,1-.1.9l-.3.6c-.1.2-.3.3-.5.5a4.878,4.878,0,0,1-.7.3,2.4307,2.4307,0,0,1,1.4.9,1.9133,1.9133,0,0,1,.4,1.5,2.7679,2.7679,0,0,1-.3,1.3,2.54,2.54,0,0,1-.8,1,2.3836,2.3836,0,0,1-1.1.6,4.3245,4.3245,0,0,1-2.6,0,3.1257,3.1257,0,0,1-1-.5,2.696,2.696,0,0,1-.7-.8,5.361,5.361,0,0,1-.5-1.1l.8-.3a1.2686,1.2686,0,0,1,.6-.1c.2,0,.3.1.4.3s.2.3.3.5a.7815.7815,0,0,0,.4.4,1.5939,1.5939,0,0,0,1.2.4,2.2016,2.2016,0,0,0,.8-.1.999.999,0,0,0,.5-.4.85.85,0,0,0,.3-.5,1.27,1.27,0,0,0,.1-.6,1.9548,1.9548,0,0,0-.1-.7,2.1843,2.1843,0,0,0-.3-.5.9076.9076,0,0,0-.7-.3,4.8647,4.8647,0,0,0-1.2-.1v-1.2a4.11,4.11,0,0,0,1.1-.1c.2-.1.5-.2.7-.3a1,1,0,0,0,.4-.5,1.27,1.27,0,0,0,.1-.6,1.3839,1.3839,0,0,0-1.2571-1.5,1.3685,1.3685,0,0,0-.2429,0,1.2662,1.2662,0,0,0-.6.1c-.2.1-.3.1-.5.2a1.3745,1.3745,0,0,0-.3.4.762.762,0,0,0-.2.5c0,.2-.2.3-.3.4a.4457.4457,0,0,1-.5,0Zm8,6.3a.6013.6013,0,0,1,.1-.4c.1-.1.1-.2.2-.3s.2-.2.3-.2a.85.85,0,0,1,.8,0c.1.1.2.1.3.2s.2.2.2.3a.85.85,0,0,1,0,.8c-.1.1-.1.2-.2.3s-.2.2-.3.2a.85.85,0,0,1-.8,0c-.1,0-.2-.1-.3-.2s-.2-.2-.2-.3C260.9,216.3,260.9,216.2,260.9,216Zm6.8-.2a1.4828,1.4828,0,0,0,.7-.1,2.1843,2.1843,0,0,0,.5-.3.85.85,0,0,0,.3-.5,1.4828,1.4828,0,0,0,.1-.7,1.656,1.656,0,0,0-.5-1.3,1.96,1.96,0,0,0-2.5,0,1.9012,1.9012,0,0,0-.5,1.3,1.95,1.95,0,0,0,.1.7,2.1843,2.1843,0,0,0,.3.5c.2.1.3.3.5.3C267.2,215.7,267.4,215.8,267.7,215.8Zm0-7.7a1.7019,1.7019,0,0,0-.7.1c-.2.1-.3.2-.5.3a2.1843,2.1843,0,0,0-.3.5,1.087,1.087,0,0,0-.1.5,1.2662,1.2662,0,0,0,.1.6.55.55,0,0,0,.3.5.9975.9975,0,0,0,.5.4,1.7037,1.7037,0,0,0,1.4,0,1.7545,1.7545,0,0,0,.5-.4.7645.7645,0,0,0,.2-.5,1.2686,1.2686,0,0,0,.1-.6.75.75,0,0,0-.1-.5,1.388,1.388,0,0,0-.7-.8,1.9551,1.9551,0,0,0-.7-.1Zm1.7,3.6a4.1952,4.1952,0,0,1,1.4.9,2.0261,2.0261,0,0,1,.4,1.5,2.6626,2.6626,0,0,1-.3,1.2,2.1784,2.1784,0,0,1-.7.9,2.3836,2.3836,0,0,1-1.1.6,6.7529,6.7529,0,0,1-1.4.2,5.9035,5.9035,0,0,1-1.4-.2,2.3836,2.3836,0,0,1-1.1-.6,2.7541,2.7541,0,0,1-.7-.9,2.6626,2.6626,0,0,1-.3-1.2,2.6034,2.6034,0,0,1,.4-1.5,2.3017,2.3017,0,0,1,1.4-.9,3.1243,3.1243,0,0,1-1.1-.9,2.2958,2.2958,0,0,1-.4-1.4,4.25,4.25,0,0,1,.2-1.1,5.5021,5.5021,0,0,1,.7-.9,3.3275,3.3275,0,0,1,1-.6,5.0739,5.0739,0,0,1,1.3-.2,5.8535,5.8535,0,0,1,1.3.2,2.0755,2.0755,0,0,1,1,.6,2.179,2.179,0,0,1,.7.9,2.5435,2.5435,0,0,1-.1,2.4,2.666,2.666,0,0,1-1.2,1Zm4.6-1.8a2.01,2.01,0,0,0,.4,1.3,1.3739,1.3739,0,0,0,1.2.4,1.4827,1.4827,0,0,0,.7-.1,2.09,2.09,0,0,0,.6-.4c.2-.2.3-.3.3-.5a2.5006,2.5006,0,0,0,0-1.4,2.0913,2.0913,0,0,0-.4-.6.7125.7125,0,0,0-.6-.3,2.5006,2.5006,0,0,0-1.4,0,1.9627,1.9627,0,0,0-.9.9c.2.2.1.5.1.7Zm2.3,3.2c.1-.1.2-.2.2-.3s.1-.2.2-.3a1.1354,1.1354,0,0,1-.8.3,2.7682,2.7682,0,0,1-.9.1,2.958,2.958,0,0,1-1-.2,4.0521,4.0521,0,0,1-.9-.5,2.3618,2.3618,0,0,1-.6-.9,2.7449,2.7449,0,0,1-.2-1.3,3.08,3.08,0,0,1,.3-1.3,3.5953,3.5953,0,0,1,.7-1,4.13,4.13,0,0,1,1.1-.7,3.1956,3.1956,0,0,1,1.4-.3,6.7529,6.7529,0,0,1,1.4.2,3.0054,3.0054,0,0,1,1.8,1.8,3.1779,3.1779,0,0,1,.2,1.4,2.7682,2.7682,0,0,1-.1.9c-.1.3-.1.5-.2.8a2.9938,2.9938,0,0,1-.4.8,1.7927,1.7927,0,0,1-.5.7l-2.3,3.3a1.3793,1.3793,0,0,1-.4.3,1.0867,1.0867,0,0,1-.5.1h-1.6Z"/><path class="d" d="M269.1,196h-1c-.1,0-.1,0-.2-.1l-.1-.1-1.9-3c0,.1-.1.1-.1.2l-1.9,2.8-.1.1a.3489.3489,0,0,1-.2.1h-.9l2.5-3.7-2.4-3.5H264l.1.1,1.9,2.9a.35.35,0,0,1,.1-.2l1.8-2.6.1-.1h1l-2.4,3.4Z"/><path class="f" d="M308,172h48a8.0235,8.0235,0,0,1,8,8v48a8.0235,8.0235,0,0,1-8,8H308a8.0235,8.0235,0,0,1-8-8V180A8.0235,8.0235,0,0,1,308,172Z"/><path class="d" d="M325.4,215.7V217h-5.6v-1.3h2.1v-6.6l-1.5,1.2a.3676.3676,0,0,1-.3.1h-.2c-.1,0-.1,0-.2-.1l-.1-.1-.5-.7,3.1-2.6h1.4v8.8Zm1.5.3a.6013.6013,0,0,1,.1-.4c.1-.1.1-.2.2-.3s.2-.2.3-.2a.85.85,0,0,1,.8,0c.1.1.2.1.3.2s.2.2.2.3a.85.85,0,0,1,0,.8c-.1.1-.1.2-.2.3s-.2.2-.3.2a.85.85,0,0,1-.8,0c-.1,0-.2-.1-.3-.2s-.2-.2-.2-.3C326.9,216.3,326.9,216.2,326.9,216Zm10.3-9.1v.7a.75.75,0,0,1-.1.5c0,.1-.1.2-.1.3l-3.8,7.9a1.3807,1.3807,0,0,1-.3.4,1.4214,1.4214,0,0,1-.6.2H331l3.9-7.7a1.3776,1.3776,0,0,1,.3-.4c.1-.1.2-.3.3-.4h-4.8a.43.43,0,0,1-.4-.4v-1.2Zm1.3,2.8a6.4605,6.4605,0,0,1,.4-1.3,2.1761,2.1761,0,0,1,.7-.9c.3-.2.7-.4,1-.6a5.0652,5.0652,0,0,1,1.3-.2,5.8535,5.8535,0,0,1,1.3.2,2.0755,2.0755,0,0,1,1,.6,1.5551,1.5551,0,0,1,.6.8,3.5593,3.5593,0,0,1,.2,1,2.7682,2.7682,0,0,1-.1.9l-.3.6c-.1.2-.3.3-.5.5a4.878,4.878,0,0,1-.7.3,2.431,2.431,0,0,1,1.4.9,1.9133,1.9133,0,0,1,.4,1.5,2.77,2.77,0,0,1-.3,1.3,2.54,2.54,0,0,1-.8,1,2.3836,2.3836,0,0,1-1.1.6,4.3245,4.3245,0,0,1-2.6,0,3.1247,3.1247,0,0,1-1-.5,2.6919,2.6919,0,0,1-.7-.8,5.3479,5.3479,0,0,1-.5-1.1l.8-.3a1.269,1.269,0,0,1,.6-.1c.2,0,.3.1.4.3s.2.3.3.5a.7815.7815,0,0,0,.4.4,1.5941,1.5941,0,0,0,1.2.4,2.2011,2.2011,0,0,0,.8-.1.9981.9981,0,0,0,.5-.4.85.85,0,0,0,.3-.5,1.2664,1.2664,0,0,0,.1-.6,1.95,1.95,0,0,0-.1-.7,2.1843,2.1843,0,0,0-.3-.5.9073.9073,0,0,0-.7-.3,4.8643,4.8643,0,0,0-1.2-.1v-1.2a4.11,4.11,0,0,0,1.1-.1c.2-.1.5-.2.7-.3a.9994.9994,0,0,0,.4-.5,1.2666,1.2666,0,0,0,.1-.6,1.3838,1.3838,0,0,0-1.2569-1.5h0a1.3685,1.3685,0,0,0-.2429,0,1.2662,1.2662,0,0,0-.6.1c-.2.1-.3.1-.5.2-.1.1-.3.2-.3.4a.7641.7641,0,0,0-.2.5c0,.2-.2.3-.3.4a.4457.4457,0,0,1-.5,0Z"/><path class="d" d="M331.9,196h-1v-6.4h-3.6V196h-1v-7.2h5.5V196Zm5.8-.8c.1,0,.2,0,.2.1.1.1.1.1.1.2v.5h-4.8v-.5c0-.1.1-.1.1-.2l2.3-2.3a2.649,2.649,0,0,0,.5-.6c.1-.2.3-.3.4-.5a2.1843,2.1843,0,0,1,.3-.5,1.85,1.85,0,0,0,0-1.2,1.3807,1.3807,0,0,0-.3-.4.7578.7578,0,0,0-.4-.2,1.3,1.3,0,0,0-1,0c-.1.1-.3.1-.4.2l-.3.3c-.1.1-.1.3-.2.4a.2151.2151,0,0,1-.2.2c-.1,0-.2.1-.3,0l-.5-.1a1.6123,1.6123,0,0,1,.3-.9,1.9459,1.9459,0,0,1,1.2-1,2.4787,2.4787,0,0,1,1.7,0,1.6111,1.6111,0,0,1,.7.4,2.649,2.649,0,0,1,.5.6,3.0891,3.0891,0,0,1,.2.8,1.4828,1.4828,0,0,1-.1.7l-.3.6a2.6542,2.6542,0,0,1-.5.6l-.6.6-1.9,1.9c.1,0,.3-.1.4-.1h.4Z"/><path class="f" d="M374,72h1V8h-1a8.0235,8.0235,0,0,0-8,8V64A8.0235,8.0235,0,0,0,374,72Z"/><path class="f" d="M374,154h1V90h-1a8.0235,8.0235,0,0,0-8,8v48A8.0235,8.0235,0,0,0,374,154Z"/><path class="f" d="M374,236h1V172h-1a8.0235,8.0235,0,0,0-8,8v48A8.0235,8.0235,0,0,0,374,236Z"/><path class="f" d="M375,254h-1a8.0235,8.0235,0,0,0-8,8v48a8.0235,8.0235,0,0,0,8,8h1Z"/></g></svg>