<?xml version="1.0" encoding="utf-8"?>
<!-- Generator: Adobe Illustrator 25.4.1, SVG Export Plug-In . SVG Version: 6.00 Build 0)  -->
<svg version="1.1" id="Layer_1" xmlns="http://www.w3.org/2000/svg" xmlns:xlink="http://www.w3.org/1999/xlink" x="0px" y="0px"
	 viewBox="0 0 375 326" style="enable-background:new 0 0 375 326;" xml:space="preserve">
<style type="text/css">
	.st0{fill:#FFFFFF;}
	.st1{clip-path:url(#SVGID_00000069387024144228539610000016501512585418615455_);}
	.st2{fill:#F6F7FB;}
	.st3{fill:#0D0D0D;}
	.st4{fill:#737373;}
	.st5{clip-path:url(#SVGID_00000000922377701062107880000009522604720895652484_);}
	.st6{fill:#D8DBE6;}
	.st7{clip-path:url(#SVGID_00000091695967175034844530000004660331614002971792_);}
	.st8{clip-path:url(#SVGID_00000157283677556278473450000013461967923859210120_);}
	.st9{clip-path:url(#SVGID_00000161629892407354852770000013948778858438850967_);}
</style>
<path class="st0" d="M16,0h343c8.8,0,16,7.2,16,16v294c0,8.8-7.2,16-16,16H16c-8.8,0-16-7.2-16-16V16C0,7.2,7.2,0,16,0z"/>
<g>
	<defs>
		<path id="SVGID_1_" d="M16,0h343c8.8,0,16,7.2,16,16v294c0,8.8-7.2,16-16,16H16c-8.8,0-16-7.2-16-16V16C0,7.2,7.2,0,16,0z"/>
	</defs>
	<clipPath id="SVGID_00000125579504898266299070000002562072089725183873_">
		<use xlink:href="#SVGID_1_"  style="overflow:visible;"/>
	</clipPath>
	<g style="clip-path:url(#SVGID_00000125579504898266299070000002562072089725183873_);">
		<rect class="st2" width="375" height="80"/>
		<path class="st3" d="M20,23.7c0.3,0,0.5,0,0.8-0.1c0.2-0.1,0.3-0.1,0.5-0.3c0.1-0.1,0.2-0.3,0.3-0.4c0.1-0.2,0.1-0.3,0.1-0.5
			c0-0.2,0-0.4-0.1-0.5c0-0.2-0.1-0.3-0.3-0.4c-0.1-0.1-0.3-0.2-0.5-0.3c-0.2-0.1-0.5-0.1-0.8-0.1h-1.4v2.6H20z M20,19.9
			c0.5,0,1,0.1,1.4,0.2c0.4,0.1,0.7,0.3,1,0.5c0.2,0.2,0.4,0.5,0.6,0.8c0.1,0.3,0.2,0.6,0.2,0.9c0,0.4-0.1,0.8-0.2,1.1
			c-0.1,0.3-0.3,0.6-0.6,0.9c-0.3,0.2-0.6,0.4-1,0.5C20.9,24.9,20.4,25,20,25h-3v-8.7h5.9v1.2h-4.3v2.3H20z M27.5,22.4
			c-0.4,0-0.7,0.1-1.1,0.1c-0.2,0-0.5,0.1-0.7,0.2c-0.1,0.1-0.3,0.2-0.4,0.3c-0.1,0.1-0.1,0.2-0.1,0.4c0,0.2,0.1,0.4,0.2,0.6
			c0.2,0.1,0.4,0.2,0.6,0.2c0.3,0,0.5,0,0.8-0.2c0.2-0.1,0.5-0.3,0.7-0.5V22.4z M24.1,19.7c0.7-0.6,1.6-1,2.6-1c0.3,0,0.7,0.1,1,0.2
			c0.3,0.1,0.5,0.3,0.7,0.5c0.2,0.2,0.4,0.5,0.4,0.8c0.1,0.3,0.2,0.6,0.2,1V25h-0.7c-0.1,0-0.2,0-0.3-0.1c-0.1-0.1-0.2-0.2-0.2-0.3
			l-0.1-0.4c-0.1,0.1-0.3,0.3-0.5,0.4c-0.1,0.1-0.3,0.2-0.5,0.3c-0.2,0.1-0.3,0.1-0.5,0.2c-0.2,0-0.4,0.1-0.6,0.1
			c-0.2,0-0.5,0-0.7-0.1c-0.2-0.1-0.4-0.2-0.6-0.3c-0.2-0.1-0.3-0.3-0.4-0.5c-0.1-0.2-0.1-0.5-0.1-0.7c0-0.2,0-0.3,0.1-0.5
			c0.1-0.2,0.1-0.3,0.3-0.4c0.1-0.2,0.3-0.3,0.5-0.4c0.2-0.1,0.4-0.2,0.7-0.3c0.3-0.1,0.6-0.2,1-0.2c0.4-0.1,0.8-0.1,1.2-0.1v-0.4
			c0-0.3-0.1-0.7-0.3-0.9c-0.2-0.2-0.5-0.3-0.8-0.3c-0.2,0-0.4,0-0.6,0.1c-0.1,0.1-0.3,0.1-0.4,0.2c-0.1,0.1-0.2,0.1-0.3,0.2
			c-0.1,0.1-0.2,0.1-0.3,0.1c-0.1,0-0.2,0-0.3-0.1c-0.1-0.1-0.1-0.1-0.2-0.2L24.1,19.7z M31.8,23.4c0.1,0.2,0.3,0.3,0.5,0.4
			c0.2,0.1,0.4,0.1,0.6,0.1c0.2,0,0.4,0,0.6-0.1c0.2-0.1,0.3-0.2,0.5-0.4c0.1-0.2,0.2-0.4,0.3-0.6c0.1-0.3,0.1-0.6,0.1-0.9
			c0-0.3,0-0.6-0.1-0.9c0-0.2-0.1-0.4-0.2-0.6c-0.1-0.1-0.2-0.3-0.4-0.3c-0.2-0.1-0.3-0.1-0.5-0.1c-0.3,0-0.5,0.1-0.8,0.2
			c-0.2,0.1-0.4,0.3-0.6,0.5L31.8,23.4z M31.8,19.7c0.2-0.3,0.5-0.5,0.9-0.7c0.3-0.2,0.7-0.3,1.1-0.3c0.3,0,0.6,0.1,0.9,0.2
			c0.3,0.1,0.5,0.4,0.7,0.6c0.2,0.3,0.4,0.6,0.5,1C36,21,36,21.4,36,21.9c0,0.4-0.1,0.9-0.2,1.3c-0.1,0.4-0.3,0.7-0.5,1
			c-0.5,0.6-1.2,0.9-1.9,0.9c-0.3,0-0.6,0-0.9-0.2c-0.2-0.1-0.5-0.3-0.7-0.4V27h-1.5v-8.2h0.9c0.2,0,0.3,0.1,0.4,0.3L31.8,19.7z
			 M41.6,20.1c0,0-0.1,0.1-0.1,0.1c-0.1,0-0.1,0.1-0.2,0c-0.1,0-0.2,0-0.2-0.1c-0.1,0-0.2-0.1-0.3-0.2c-0.1-0.1-0.2-0.1-0.4-0.2
			c-0.4-0.1-0.8-0.1-1.2,0.1c-0.2,0.1-0.4,0.2-0.5,0.4c-0.1,0.2-0.2,0.4-0.3,0.6c-0.1,0.6-0.1,1.2,0,1.7c0.1,0.2,0.2,0.5,0.3,0.6
			c0.1,0.2,0.3,0.3,0.5,0.4c0.2,0.1,0.4,0.1,0.6,0.1c0.2,0,0.4,0,0.6-0.1c0.1-0.1,0.3-0.1,0.4-0.2c0.1-0.1,0.2-0.1,0.3-0.2
			c0.1-0.1,0.2-0.1,0.3-0.1c0.1,0,0.2,0,0.3,0.1l0.4,0.5c-0.2,0.2-0.3,0.3-0.5,0.5c-0.4,0.3-0.8,0.4-1.2,0.5c-0.2,0-0.4,0-0.6,0
			c-0.4,0-0.7-0.1-1.1-0.2c-0.3-0.1-0.6-0.4-0.9-0.6c-0.3-0.3-0.5-0.6-0.6-1c-0.3-0.8-0.3-1.8,0-2.6c0.1-0.4,0.3-0.7,0.6-1
			c0.3-0.3,0.6-0.5,0.9-0.7c0.4-0.2,0.8-0.2,1.3-0.2c0.4,0,0.8,0.1,1.2,0.2c0.4,0.1,0.7,0.4,0.9,0.6L41.6,20.1z M46.8,21.2
			c0-0.2,0-0.4-0.1-0.5c0-0.2-0.1-0.3-0.2-0.5c-0.1-0.1-0.3-0.2-0.4-0.3c-0.2-0.1-0.4-0.1-0.6-0.1c-0.4,0-0.7,0.1-1,0.4
			c-0.3,0.3-0.4,0.7-0.5,1L46.8,21.2z M44,22.1c0,0.3,0.1,0.6,0.2,0.8c0.1,0.2,0.2,0.4,0.3,0.6c0.1,0.1,0.3,0.3,0.5,0.3
			c0.2,0.1,0.4,0.1,0.7,0.1c0.2,0,0.4,0,0.6-0.1c0.2,0,0.3-0.1,0.5-0.2c0.1-0.1,0.2-0.1,0.3-0.2c0.1-0.1,0.2-0.1,0.3-0.1
			c0.1,0,0.2,0,0.3,0.1l0.4,0.5c-0.2,0.2-0.3,0.4-0.6,0.5c-0.2,0.1-0.4,0.2-0.6,0.3C46.7,25,46.4,25,46.2,25c-0.2,0-0.4,0-0.7,0
			c-0.4,0-0.8-0.1-1.2-0.2c-0.4-0.1-0.7-0.4-1-0.6c-0.3-0.3-0.5-0.6-0.6-1c-0.2-0.5-0.2-0.9-0.2-1.4c0-0.4,0.1-0.8,0.2-1.2
			c0.1-0.4,0.3-0.7,0.6-1c0.3-0.3,0.6-0.5,0.9-0.7c0.4-0.2,0.8-0.2,1.2-0.2c0.4,0,0.7,0.1,1.1,0.2c0.3,0.1,0.6,0.3,0.8,0.5
			c0.2,0.2,0.4,0.5,0.6,0.9c0.1,0.4,0.2,0.8,0.2,1.2c0,0.2,0,0.3-0.1,0.5c-0.1,0.1-0.2,0.1-0.3,0.1L44,22.1z M55,25h-1.5v-5H52
			c0,0.7-0.1,1.3-0.2,2c-0.1,0.5-0.2,0.9-0.4,1.4c-0.1,0.3-0.3,0.6-0.5,0.9c-0.1,0.2-0.3,0.4-0.5,0.5C50.2,24.9,50,25,49.8,25
			c-0.2,0-0.4,0.1-0.6,0.1c-0.2,0-0.3,0-0.5-0.1c-0.1,0-0.1-0.1-0.2-0.2V24h0.4c0.1,0,0.3,0,0.4-0.1c0.1,0,0.3-0.1,0.4-0.2
			c0.1-0.2,0.3-0.3,0.4-0.5c0.1-0.3,0.2-0.6,0.3-0.9c0.1-0.5,0.2-0.9,0.3-1.4c0.1-0.5,0.1-1.2,0.2-2H55L55,25z M59.2,18.7
			c0.4,0,0.8,0.1,1.2,0.2c0.4,0.1,0.7,0.4,1,0.6c0.3,0.3,0.5,0.6,0.6,1c0.3,0.9,0.3,1.8,0,2.6c-0.1,0.4-0.3,0.7-0.6,1
			c-0.3,0.3-0.6,0.5-1,0.6c-0.4,0.2-0.8,0.2-1.2,0.2c-0.4,0-0.9-0.1-1.3-0.2c-0.4-0.1-0.7-0.4-1-0.6c-0.3-0.3-0.5-0.6-0.6-1
			c-0.3-0.9-0.3-1.8,0-2.6c0.1-0.4,0.3-0.7,0.6-1c0.3-0.3,0.6-0.5,1-0.6C58.3,18.8,58.7,18.7,59.2,18.7z M59.2,24
			c0.4,0,0.9-0.2,1.1-0.5c0.3-0.5,0.4-1,0.4-1.5c0-0.5-0.1-1.1-0.4-1.5c-0.3-0.4-0.7-0.6-1.1-0.5c-0.5,0-0.9,0.2-1.2,0.5
			c-0.3,0.5-0.4,1-0.4,1.5c0,0.5,0.1,1.1,0.4,1.5C58.3,23.8,58.7,24,59.2,24z M68.7,18.8V25h-1.5v-2.7h-2.4V25h-1.5v-6.2h1.5v2.3
			h2.4v-2.3H68.7z M73.4,22.4c-0.4,0-0.7,0.1-1.1,0.1c-0.2,0-0.5,0.1-0.7,0.2c-0.1,0.1-0.3,0.2-0.4,0.3c-0.1,0.1-0.1,0.2-0.1,0.4
			c0,0.2,0.1,0.4,0.2,0.6c0.2,0.1,0.4,0.2,0.6,0.2c0.3,0,0.5,0,0.8-0.2c0.2-0.1,0.5-0.3,0.7-0.5V22.4z M70,19.7c0.7-0.6,1.6-1,2.6-1
			c0.3,0,0.7,0.1,1,0.2c0.3,0.1,0.5,0.3,0.7,0.5c0.2,0.2,0.4,0.5,0.4,0.8c0.1,0.3,0.2,0.6,0.2,1V25h-0.7c-0.1,0-0.2,0-0.3-0.1
			c-0.1-0.1-0.2-0.2-0.2-0.3l-0.1-0.4c-0.1,0.1-0.3,0.3-0.5,0.4c-0.1,0.1-0.3,0.2-0.5,0.3c-0.2,0.1-0.3,0.1-0.5,0.2
			c-0.2,0-0.4,0.1-0.6,0.1c-0.2,0-0.5,0-0.7-0.1c-0.2-0.1-0.4-0.2-0.6-0.3c-0.2-0.1-0.3-0.3-0.4-0.5c-0.1-0.2-0.1-0.5-0.1-0.7
			c0-0.2,0-0.3,0.1-0.5c0.1-0.2,0.1-0.3,0.3-0.4c0.1-0.2,0.3-0.3,0.5-0.4c0.2-0.1,0.4-0.2,0.7-0.3c0.3-0.1,0.6-0.2,1-0.2
			c0.4-0.1,0.8-0.1,1.2-0.1v-0.4c0-0.3-0.1-0.7-0.3-0.9c-0.2-0.2-0.5-0.3-0.8-0.3c-0.2,0-0.4,0-0.6,0.1c-0.1,0.1-0.3,0.1-0.4,0.2
			c-0.1,0.1-0.2,0.1-0.3,0.2c-0.1,0.1-0.2,0.1-0.3,0.1c-0.1,0-0.2,0-0.3-0.1c-0.1-0.1-0.1-0.1-0.2-0.2L70,19.7z"/>
		<path class="st3" d="M19.8,40.7c0.3,0,0.5,0,0.8-0.1c0.2-0.1,0.4-0.2,0.5-0.3c0.1-0.1,0.3-0.3,0.3-0.5c0.1-0.2,0.1-0.4,0.1-0.7
			c0-0.2,0-0.4-0.1-0.6c-0.1-0.2-0.2-0.3-0.3-0.5c-0.2-0.1-0.3-0.2-0.5-0.3c-0.3-0.1-0.5-0.1-0.8-0.1h-1.2v3.1L19.8,40.7z
			 M19.8,36.3c0.5,0,1,0.1,1.5,0.2c0.4,0.1,0.7,0.3,1,0.6c0.3,0.2,0.5,0.5,0.6,0.9c0.1,0.4,0.2,0.7,0.2,1.1c0,0.4-0.1,0.8-0.2,1.2
			c-0.1,0.3-0.4,0.7-0.6,0.9c-0.3,0.3-0.7,0.5-1.1,0.6c-0.5,0.1-1,0.2-1.5,0.2h-1.2V45H17v-8.7H19.8z M27.8,41.2
			c0-0.2,0-0.4-0.1-0.5c0-0.2-0.1-0.3-0.2-0.5c-0.1-0.1-0.3-0.2-0.4-0.3c-0.2-0.1-0.4-0.1-0.6-0.1c-0.4,0-0.7,0.1-1,0.4
			c-0.3,0.3-0.4,0.7-0.5,1H27.8z M25,42.1c0,0.3,0.1,0.6,0.2,0.8c0.1,0.2,0.2,0.4,0.3,0.6c0.1,0.1,0.3,0.3,0.5,0.3
			c0.2,0.1,0.4,0.1,0.7,0.1c0.2,0,0.4,0,0.6-0.1c0.2,0,0.3-0.1,0.5-0.2c0.1-0.1,0.2-0.1,0.3-0.2c0.1-0.1,0.2-0.1,0.3-0.1
			c0.1,0,0.2,0,0.3,0.1l0.4,0.5c-0.2,0.2-0.3,0.4-0.6,0.5c-0.2,0.1-0.4,0.2-0.6,0.3C27.7,45,27.5,45,27.2,45c-0.2,0-0.4,0-0.7,0
			c-0.4,0-0.8-0.1-1.2-0.2c-0.4-0.1-0.7-0.4-1-0.6c-0.3-0.3-0.5-0.6-0.6-1c-0.2-0.5-0.2-0.9-0.2-1.4c0-0.4,0.1-0.8,0.2-1.2
			c0.1-0.4,0.3-0.7,0.6-1c0.3-0.3,0.6-0.5,0.9-0.7c0.4-0.2,0.8-0.2,1.2-0.2c0.4,0,0.7,0.1,1.1,0.2c0.3,0.1,0.6,0.3,0.8,0.5
			c0.2,0.2,0.4,0.5,0.6,0.9c0.1,0.4,0.2,0.8,0.2,1.2c0,0.2,0,0.3-0.1,0.5c-0.1,0.1-0.2,0.1-0.3,0.1L25,42.1z M33.5,42.4
			c-0.4,0-0.7,0.1-1.1,0.1c-0.2,0-0.5,0.1-0.7,0.2c-0.1,0.1-0.3,0.2-0.4,0.3c-0.1,0.1-0.1,0.2-0.1,0.4c0,0.2,0.1,0.4,0.2,0.6
			c0.2,0.1,0.4,0.2,0.6,0.2c0.3,0,0.5,0,0.8-0.2c0.2-0.1,0.5-0.3,0.7-0.5L33.5,42.4z M30.1,39.7c0.7-0.6,1.6-1,2.6-1
			c0.3,0,0.7,0.1,1,0.2c0.3,0.1,0.5,0.3,0.7,0.5c0.2,0.2,0.4,0.5,0.4,0.8c0.1,0.3,0.2,0.6,0.2,1V45h-0.7c-0.1,0-0.2,0-0.3-0.1
			c-0.1-0.1-0.2-0.2-0.2-0.3l-0.1-0.4c-0.1,0.1-0.3,0.3-0.5,0.4c-0.1,0.1-0.3,0.2-0.5,0.3c-0.2,0.1-0.3,0.1-0.5,0.2
			c-0.2,0-0.4,0.1-0.6,0.1c-0.2,0-0.5,0-0.7-0.1c-0.2-0.1-0.4-0.2-0.6-0.3c-0.2-0.1-0.3-0.3-0.4-0.5c-0.1-0.2-0.1-0.5-0.1-0.7
			c0-0.2,0-0.3,0.1-0.5c0.1-0.2,0.1-0.3,0.3-0.4c0.1-0.2,0.3-0.3,0.5-0.4c0.2-0.1,0.4-0.2,0.7-0.3c0.3-0.1,0.6-0.2,1-0.2
			c0.4-0.1,0.8-0.1,1.2-0.1v-0.4c0-0.3-0.1-0.7-0.3-0.9c-0.2-0.2-0.5-0.3-0.8-0.3c-0.2,0-0.4,0-0.6,0.1c-0.1,0.1-0.3,0.1-0.4,0.2
			c-0.1,0.1-0.2,0.1-0.3,0.2c-0.1,0.1-0.2,0.1-0.3,0.1c-0.1,0-0.2,0-0.3-0.1c-0.1-0.1-0.1-0.1-0.2-0.2L30.1,39.7z M42.1,45h-1.5v-5
			h-1.5c0,0.7-0.1,1.3-0.2,2c-0.1,0.5-0.2,0.9-0.4,1.4c-0.1,0.3-0.3,0.6-0.5,0.9c-0.1,0.2-0.3,0.4-0.5,0.5c-0.2,0.1-0.4,0.2-0.6,0.3
			c-0.2,0-0.4,0.1-0.6,0.1c-0.2,0-0.3,0-0.5-0.1c-0.1,0-0.2-0.1-0.2-0.2V44H36c0.1,0,0.3,0,0.4-0.1c0.1,0,0.3-0.1,0.4-0.2
			c0.1-0.2,0.3-0.3,0.4-0.5c0.1-0.3,0.2-0.6,0.3-0.9c0.1-0.5,0.2-0.9,0.3-1.4c0.1-0.5,0.1-1.2,0.2-2h4.2L42.1,45z M56.1,36.3V45
			h-1.4v-5.6c0-0.2,0-0.5,0-0.7l-2.6,4.9c-0.1,0.2-0.3,0.4-0.6,0.4h-0.2c-0.2,0-0.5-0.1-0.6-0.4l-2.7-4.9c0,0.1,0,0.3,0,0.4
			c0,0.1,0,0.2,0,0.4V45h-1.4v-8.7h1.2c0.1,0,0.1,0,0.2,0c0,0,0.1,0,0.1,0c0,0,0.1,0,0.1,0.1c0,0,0.1,0.1,0.1,0.1l2.6,4.8
			c0.1,0.1,0.1,0.3,0.2,0.4c0.1,0.1,0.1,0.3,0.2,0.4c0.1-0.1,0.1-0.3,0.2-0.4c0.1-0.1,0.1-0.3,0.2-0.4l2.6-4.8
			c0-0.1,0.1-0.1,0.1-0.1c0,0,0.1-0.1,0.1-0.1c0,0,0.1,0,0.1,0c0.1,0,0.1,0,0.2,0H56.1z M60.9,42.4c-0.4,0-0.7,0.1-1.1,0.1
			c-0.2,0-0.5,0.1-0.7,0.2c-0.1,0.1-0.3,0.2-0.4,0.3c-0.1,0.1-0.1,0.2-0.1,0.4c0,0.2,0.1,0.4,0.2,0.6c0.2,0.1,0.4,0.2,0.6,0.2
			c0.3,0,0.5,0,0.8-0.2c0.2-0.1,0.5-0.3,0.7-0.5V42.4z M57.5,39.7c0.7-0.6,1.6-1,2.6-1c0.3,0,0.7,0.1,1,0.2c0.3,0.1,0.5,0.3,0.7,0.5
			c0.2,0.2,0.4,0.5,0.4,0.8c0.1,0.3,0.2,0.6,0.2,1V45h-0.7c-0.1,0-0.2,0-0.3-0.1c-0.1-0.1-0.2-0.2-0.2-0.3l-0.1-0.4
			c-0.1,0.1-0.3,0.3-0.5,0.4c-0.1,0.1-0.3,0.2-0.5,0.3C60,44.9,59.8,45,59.6,45c-0.2,0-0.4,0.1-0.6,0.1c-0.2,0-0.5,0-0.7-0.1
			c-0.2-0.1-0.4-0.2-0.6-0.3c-0.2-0.1-0.3-0.3-0.4-0.5c-0.1-0.2-0.1-0.5-0.1-0.7c0-0.2,0-0.3,0.1-0.5c0.1-0.2,0.1-0.3,0.3-0.4
			c0.1-0.2,0.3-0.3,0.5-0.4c0.2-0.1,0.4-0.2,0.7-0.3c0.3-0.1,0.6-0.2,1-0.2c0.4-0.1,0.8-0.1,1.2-0.1v-0.4c0-0.3-0.1-0.7-0.3-0.9
			c-0.2-0.2-0.5-0.3-0.8-0.3c-0.2,0-0.4,0-0.6,0.1c-0.1,0.1-0.3,0.1-0.4,0.2c-0.1,0.1-0.2,0.1-0.3,0.2c-0.1,0.1-0.2,0.1-0.3,0.1
			c-0.1,0-0.2,0-0.3-0.1c-0.1-0.1-0.1-0.1-0.2-0.2L57.5,39.7z M67.9,43.9v-4h-1.5c0,0.5-0.1,1-0.2,1.4c-0.1,0.4-0.1,0.8-0.2,1.1
			c-0.1,0.3-0.2,0.6-0.3,0.8c-0.1,0.2-0.2,0.4-0.3,0.6L67.9,43.9z M70.4,43.9v2.7c0,0.1,0,0.2-0.1,0.3c-0.1,0.1-0.2,0.1-0.3,0.1
			h-0.9V45h-4.6v1.6c0,0.1,0,0.2-0.1,0.3c-0.1,0.1-0.2,0.1-0.3,0.1h-0.9v-3.1h0.2c0.1,0,0.3,0,0.4-0.1c0.1,0,0.3-0.1,0.4-0.2
			c0.1-0.2,0.3-0.3,0.3-0.5c0.1-0.3,0.2-0.6,0.3-0.9c0.1-0.5,0.2-0.9,0.2-1.4c0.1-0.6,0.1-1.2,0.2-2h4.2v5.1L70.4,43.9z M72.8,43.4
			c0.1,0.2,0.3,0.3,0.5,0.4c0.2,0.1,0.4,0.1,0.6,0.1c0.2,0,0.4,0,0.6-0.1c0.2-0.1,0.3-0.2,0.5-0.4c0.1-0.2,0.2-0.4,0.3-0.6
			c0.1-0.3,0.1-0.6,0.1-0.9c0-0.3,0-0.6-0.1-0.9c0-0.2-0.1-0.4-0.2-0.6c-0.1-0.1-0.2-0.3-0.4-0.3c-0.2-0.1-0.3-0.1-0.5-0.1
			c-0.3,0-0.5,0.1-0.8,0.2c-0.2,0.1-0.4,0.3-0.6,0.5L72.8,43.4z M72.8,39.7c0.2-0.3,0.5-0.5,0.9-0.7c0.3-0.2,0.7-0.3,1.1-0.3
			c0.3,0,0.6,0.1,0.9,0.2c0.3,0.1,0.5,0.4,0.7,0.6c0.2,0.3,0.4,0.6,0.5,1C77,41,77,41.4,77,41.9c0,0.4-0.1,0.9-0.2,1.3
			c-0.1,0.4-0.3,0.7-0.5,1c-0.5,0.6-1.2,0.9-1.9,0.9c-0.3,0-0.6,0-0.9-0.2c-0.2-0.1-0.5-0.3-0.7-0.4V47h-1.5v-8.2h0.9
			c0.2,0,0.3,0.1,0.4,0.3L72.8,39.7z M83.7,38.8V45h-1.5v-3.6c0-0.1,0-0.2,0-0.3c0-0.1,0-0.2,0-0.3c-0.1,0.2-0.2,0.3-0.3,0.5
			c0,0,0,0.1-0.1,0.2c-0.1,0.1-0.2,0.2-0.3,0.4c-0.1,0.2-0.2,0.3-0.4,0.5c-0.1,0.2-0.3,0.4-0.4,0.6c-0.3,0.5-0.7,1-1.2,1.7
			c-0.1,0.1-0.1,0.2-0.2,0.2C79.3,45,79.2,45,79.1,45h-0.9v-6.2h1.5v3.6c0,0.1,0,0.2,0,0.3c0,0.1,0,0.2,0,0.3
			c0.1-0.2,0.2-0.3,0.3-0.5c0,0,0-0.1,0.1-0.2c0.1-0.1,0.2-0.2,0.3-0.4c0.1-0.2,0.2-0.3,0.4-0.5c0.1-0.2,0.3-0.4,0.4-0.6
			c0.3-0.5,0.7-1,1.2-1.7c0.1-0.1,0.1-0.2,0.2-0.2c0.1-0.1,0.2-0.1,0.3-0.1L83.7,38.8z M89.3,43.9v-4h-1.5c0,0.5-0.1,1-0.2,1.4
			c-0.1,0.4-0.1,0.8-0.2,1.1c-0.1,0.3-0.2,0.6-0.3,0.8c-0.1,0.2-0.2,0.4-0.3,0.6H89.3z M91.8,43.9v2.7c0,0.1,0,0.2-0.1,0.3
			c-0.1,0.1-0.2,0.1-0.3,0.1h-0.9V45h-4.6v1.6c0,0.1,0,0.2-0.1,0.3c-0.1,0.1-0.2,0.1-0.3,0.1h-0.9v-3.1h0.2c0.1,0,0.3,0,0.4-0.1
			c0.1,0,0.3-0.1,0.4-0.2c0.1-0.2,0.3-0.3,0.3-0.5c0.1-0.3,0.2-0.6,0.3-0.9c0.1-0.5,0.2-0.9,0.2-1.4c0.1-0.6,0.1-1.2,0.2-2h4.2v5.1
			H91.8z"/>
		<path class="st4" d="M22.9,57.8V65h-1.4v-3.2h-3.4V65h-1.4v-7.2h1.4v3.1h3.4v-3.1H22.9z M26.9,62.8c-0.3,0-0.6,0-0.9,0.1
			c-0.2,0-0.4,0.1-0.6,0.2c-0.1,0.1-0.2,0.1-0.3,0.2C25,63.4,25,63.5,25,63.6c0,0.2,0.1,0.4,0.2,0.5c0.1,0.1,0.3,0.1,0.5,0.1
			c0.2,0,0.4,0,0.7-0.1c0.2-0.1,0.4-0.2,0.5-0.4L26.9,62.8z M24.1,60.6c0.6-0.5,1.3-0.8,2.1-0.8c0.3,0,0.5,0,0.8,0.2
			c0.2,0.1,0.4,0.2,0.6,0.4c0.2,0.2,0.3,0.4,0.4,0.6c0.1,0.3,0.1,0.5,0.1,0.8V65h-0.6c-0.1,0-0.2,0-0.3-0.1
			c-0.1-0.1-0.1-0.1-0.1-0.2L27,64.4c-0.1,0.1-0.2,0.2-0.4,0.3c-0.1,0.1-0.2,0.2-0.4,0.2C26.1,65,26,65,25.8,65
			c-0.2,0-0.3,0.1-0.5,0.1c-0.2,0-0.4,0-0.6-0.1c-0.2-0.1-0.3-0.1-0.5-0.3c-0.1-0.1-0.2-0.3-0.3-0.4c-0.1-0.2-0.1-0.4-0.1-0.6
			c0-0.1,0-0.3,0.1-0.4c0-0.1,0.1-0.3,0.2-0.4c0.1-0.1,0.2-0.2,0.4-0.3c0.2-0.1,0.4-0.2,0.6-0.3c0.3-0.1,0.5-0.1,0.8-0.2
			c0.3-0.1,0.7-0.1,1-0.1v-0.3c0-0.3-0.1-0.5-0.2-0.8c-0.2-0.2-0.4-0.3-0.6-0.2c-0.2,0-0.3,0-0.5,0.1c-0.1,0-0.2,0.1-0.3,0.2
			c-0.1,0.1-0.2,0.1-0.3,0.2c-0.1,0-0.2,0.1-0.3,0.1c-0.1,0-0.2,0-0.2-0.1c-0.1,0-0.1-0.1-0.1-0.2L24.1,60.6z M33.3,59.9V65h-1.2v-2
			c-0.4,0.1-0.8,0.2-1.2,0.2c-0.3,0-0.7,0-1-0.1c-0.3-0.1-0.5-0.3-0.6-0.5c-0.2-0.3-0.2-0.6-0.2-0.9v-1.7h1.2v1.5
			c0,0.2,0,0.4,0.1,0.5c0.1,0.1,0.2,0.2,0.3,0.3c0.2,0.1,0.4,0.1,0.6,0.1c0.3,0,0.6-0.1,0.8-0.1v-2.3L33.3,59.9z M37.2,62.8
			c-0.3,0-0.6,0-0.9,0.1c-0.2,0-0.4,0.1-0.6,0.2c-0.1,0.1-0.2,0.1-0.3,0.2c-0.1,0.1-0.1,0.2-0.1,0.3c0,0.2,0.1,0.4,0.2,0.5
			c0.1,0.1,0.3,0.1,0.5,0.1c0.2,0,0.4,0,0.7-0.1c0.2-0.1,0.4-0.2,0.5-0.4L37.2,62.8z M34.4,60.6c0.6-0.5,1.3-0.8,2.1-0.8
			c0.3,0,0.5,0,0.8,0.2c0.2,0.1,0.4,0.2,0.6,0.4c0.2,0.2,0.3,0.4,0.4,0.6c0.1,0.3,0.1,0.5,0.1,0.8V65h-0.6c-0.1,0-0.2,0-0.3-0.1
			c-0.1-0.1-0.1-0.1-0.2-0.2l-0.1-0.4c-0.1,0.1-0.2,0.2-0.4,0.3c-0.1,0.1-0.2,0.2-0.4,0.2C36.5,65,36.3,65,36.2,65
			c-0.2,0-0.3,0.1-0.5,0.1c-0.2,0-0.4,0-0.6-0.1c-0.2-0.1-0.3-0.1-0.5-0.3c-0.1-0.1-0.2-0.3-0.3-0.4c-0.1-0.2-0.1-0.4-0.1-0.6
			c0-0.1,0-0.3,0.1-0.4c0-0.1,0.1-0.3,0.2-0.4c0.1-0.1,0.2-0.2,0.4-0.3c0.2-0.1,0.4-0.2,0.6-0.3c0.3-0.1,0.5-0.1,0.8-0.2
			c0.3-0.1,0.7-0.1,1-0.1v-0.3c0-0.3-0.1-0.5-0.2-0.8c-0.2-0.2-0.4-0.3-0.6-0.2c-0.2,0-0.3,0-0.5,0.1c-0.1,0-0.2,0.1-0.3,0.2
			c-0.1,0.1-0.2,0.1-0.3,0.2c-0.1,0-0.2,0.1-0.3,0.1c-0.1,0-0.2,0-0.2-0.1c-0.1,0-0.1-0.1-0.1-0.2L34.4,60.6z M44.4,65h-1.2v-4.2
			h-1.3c0,0.5-0.1,1.1-0.2,1.6c-0.1,0.4-0.2,0.8-0.3,1.2c-0.1,0.3-0.2,0.5-0.4,0.8c-0.1,0.2-0.3,0.3-0.5,0.4
			c-0.1,0.1-0.3,0.2-0.5,0.2c-0.2,0-0.3,0.1-0.5,0.1c-0.1,0-0.3,0-0.4-0.1C39.1,65,39,65,39,64.9v-0.8h0.3c0.1,0,0.2,0,0.3-0.1
			c0.1,0,0.2-0.1,0.3-0.2c0.1-0.1,0.2-0.3,0.3-0.4c0.1-0.2,0.2-0.5,0.3-0.8c0.1-0.4,0.2-0.8,0.2-1.2c0.1-0.5,0.1-1,0.1-1.6h3.5V65z
			 M47.9,59.8c0.4,0,0.7,0.1,1,0.2c0.3,0.1,0.6,0.3,0.8,0.5c0.2,0.2,0.4,0.5,0.5,0.8c0.2,0.7,0.2,1.5,0,2.2
			c-0.1,0.3-0.3,0.6-0.5,0.8c-0.2,0.2-0.5,0.4-0.8,0.5c-0.3,0.1-0.7,0.2-1,0.2c-0.4,0-0.7-0.1-1-0.2c-0.3-0.1-0.6-0.3-0.8-0.5
			c-0.2-0.2-0.4-0.5-0.5-0.8c-0.2-0.7-0.2-1.5,0-2.2c0.1-0.3,0.3-0.6,0.5-0.8c0.2-0.2,0.5-0.4,0.8-0.5
			C47.2,59.8,47.5,59.8,47.9,59.8z M47.9,64.1c0.4,0,0.7-0.1,0.9-0.4c0.2-0.4,0.3-0.8,0.3-1.3c0-0.4-0.1-0.9-0.3-1.3
			c-0.2-0.3-0.6-0.5-0.9-0.4c-0.4,0-0.7,0.1-1,0.4c-0.4,0.8-0.4,1.7,0,2.5C47.1,64,47.5,64.2,47.9,64.1z M57.4,61
			c0,0-0.1,0.1-0.1,0.1c0,0-0.1,0-0.2,0c-0.1,0-0.1,0-0.2-0.1c-0.1,0-0.1-0.1-0.2-0.1c-0.1-0.1-0.2-0.1-0.3-0.1
			c-0.3-0.1-0.7-0.1-1,0.1c-0.2,0.1-0.3,0.2-0.4,0.3c-0.1,0.2-0.2,0.3-0.2,0.5c-0.1,0.5-0.1,1,0,1.4c0.1,0.2,0.1,0.4,0.3,0.5
			c0.1,0.1,0.2,0.3,0.4,0.3c0.2,0.1,0.3,0.1,0.5,0.1c0.2,0,0.3,0,0.5-0.1c0.1,0,0.2-0.1,0.3-0.2c0.1-0.1,0.2-0.1,0.2-0.2
			c0.1,0,0.1-0.1,0.2-0.1c0.1,0,0.2,0,0.2,0.1l0.4,0.4c-0.1,0.2-0.3,0.3-0.4,0.4c-0.2,0.1-0.3,0.2-0.5,0.3C56.7,65,56.5,65,56.3,65
			c-0.2,0-0.4,0-0.5,0c-0.3,0-0.6-0.1-0.9-0.2c-0.3-0.1-0.5-0.3-0.7-0.5c-0.2-0.2-0.4-0.5-0.5-0.8c-0.2-0.7-0.2-1.5,0-2.2
			c0.1-0.3,0.3-0.6,0.5-0.8c0.2-0.2,0.5-0.4,0.8-0.6c0.3-0.1,0.7-0.2,1.1-0.2c0.3,0,0.7,0.1,1,0.2c0.3,0.1,0.6,0.3,0.8,0.5L57.4,61z
			 M60.8,59.8c0.4,0,0.7,0.1,1,0.2c0.3,0.1,0.6,0.3,0.8,0.5c0.2,0.2,0.4,0.5,0.5,0.8c0.2,0.7,0.2,1.5,0,2.2
			c-0.1,0.3-0.3,0.6-0.5,0.8c-0.2,0.2-0.5,0.4-0.8,0.5c-0.3,0.1-0.7,0.2-1,0.2c-0.4,0-0.7-0.1-1-0.2c-0.3-0.1-0.6-0.3-0.8-0.5
			c-0.2-0.2-0.4-0.5-0.5-0.8c-0.2-0.7-0.2-1.5,0-2.2c0.1-0.3,0.3-0.6,0.5-0.8c0.2-0.2,0.5-0.4,0.8-0.5
			C60.1,59.8,60.4,59.8,60.8,59.8z M60.8,64.1c0.4,0,0.7-0.1,0.9-0.4c0.2-0.4,0.3-0.8,0.3-1.3c0-0.4-0.1-0.9-0.3-1.3
			c-0.2-0.3-0.6-0.5-0.9-0.4c-0.4,0-0.7,0.1-1,0.4c-0.4,0.8-0.4,1.7,0,2.5C60,64,60.4,64.2,60.8,64.1z M66.7,64.2
			c0.4,0,0.7-0.1,1-0.4c0.4-0.7,0.4-1.7,0-2.4c-0.2-0.3-0.6-0.4-0.9-0.4c-0.4,0-0.7,0.1-1,0.4c-0.2,0.3-0.4,0.7-0.3,1.2
			c0,0.4,0.1,0.9,0.3,1.2C65.9,64,66.3,64.2,66.7,64.2z M67,58.9c-0.3,0-0.6,0.1-0.8,0.2c-0.2,0.1-0.4,0.2-0.6,0.4
			c-0.1,0.2-0.3,0.4-0.3,0.6c-0.1,0.3-0.1,0.5-0.1,0.8c0.1-0.1,0.2-0.3,0.3-0.4c0.1-0.1,0.3-0.2,0.4-0.3c0.2-0.1,0.3-0.1,0.5-0.2
			c0.2,0,0.4-0.1,0.6-0.1c0.3,0,0.6,0.1,0.9,0.2c0.3,0.1,0.5,0.3,0.7,0.5c0.2,0.2,0.3,0.5,0.4,0.8c0.1,0.3,0.2,0.7,0.2,1
			c0,0.4-0.1,0.7-0.2,1c-0.2,0.6-0.7,1.1-1.3,1.3c-0.3,0.1-0.7,0.2-1,0.2c-0.3,0-0.7-0.1-1-0.2c-0.3-0.1-0.6-0.3-0.8-0.6
			c-0.2-0.3-0.4-0.7-0.5-1c-0.1-0.5-0.2-1.1-0.2-1.6c0-0.5,0-1,0.1-1.5c0.1-0.4,0.2-0.8,0.5-1.2c0.2-0.3,0.5-0.6,0.9-0.8
			c0.4-0.2,0.9-0.3,1.3-0.4l1.8-0.1l0.1,0.6c0,0.1,0,0.2-0.1,0.3c-0.1,0.1-0.2,0.2-0.3,0.2L67,58.9z M72.2,64.1
			c0.2,0,0.5-0.1,0.6-0.2c0.1-0.1,0.2-0.3,0.2-0.5c0-0.1,0-0.2-0.1-0.3c0-0.1-0.1-0.2-0.1-0.2c-0.1-0.1-0.2-0.1-0.3-0.2
			c-0.1,0-0.3-0.1-0.4-0.1h-0.9v1.5H72.2z M72.2,61.8c0.3,0,0.6,0,0.9,0.1c0.2,0.1,0.4,0.2,0.6,0.3c0.1,0.1,0.3,0.3,0.3,0.5
			c0.1,0.2,0.1,0.4,0.1,0.6c0,0.2,0,0.5-0.1,0.7c-0.1,0.2-0.2,0.4-0.4,0.5c-0.2,0.2-0.4,0.3-0.6,0.3C72.8,65,72.5,65,72.3,65h-2.1
			v-5.1h1.2v1.9L72.2,61.8z M76.3,59.9V65h-1.2v-5.1L76.3,59.9z M82,60.8h-1.8V65h-1.2v-4.2h-1.8v-0.9H82L82,60.8z M87.3,59.9V65
			h-1.2v-3c0-0.1,0-0.2,0-0.2c0-0.1,0-0.2,0-0.3c-0.1,0.1-0.1,0.3-0.2,0.4c0,0,0,0.1-0.1,0.1c-0.1,0.1-0.1,0.2-0.2,0.3
			c-0.1,0.1-0.2,0.3-0.3,0.5c-0.1,0.2-0.2,0.3-0.4,0.5c-0.3,0.4-0.6,0.9-1,1.4c-0.1,0.1-0.1,0.1-0.2,0.2C83.6,65,83.5,65,83.4,65
			h-0.8v-5.1h1.2v3c0,0.1,0,0.2,0,0.3c0,0.1,0,0.2,0,0.3c0.1-0.1,0.1-0.3,0.2-0.4c0,0,0-0.1,0.1-0.1c0.1-0.1,0.1-0.2,0.2-0.3
			c0.1-0.1,0.2-0.3,0.3-0.5c0.1-0.2,0.2-0.3,0.4-0.5c0.3-0.4,0.6-0.9,1-1.4c0.1-0.1,0.1-0.1,0.2-0.2c0.1-0.1,0.2-0.1,0.3-0.1
			L87.3,59.9z M91.2,62.2v-1.5h-0.7c-0.1,0-0.3,0-0.4,0.1c-0.1,0-0.2,0.1-0.3,0.2c-0.1,0.1-0.1,0.2-0.1,0.2c0,0.1,0,0.2,0,0.3
			c0,0.2,0.1,0.4,0.2,0.6c0.2,0.1,0.4,0.2,0.6,0.2L91.2,62.2z M92.4,59.9V65h-1.2v-2.1H91c-0.1,0-0.2,0-0.2,0c-0.1,0-0.1,0-0.2,0.1
			c0,0-0.1,0.1-0.1,0.1c0,0-0.1,0.1-0.1,0.2l-0.8,1.3c0,0.1-0.1,0.1-0.1,0.2c0,0.1-0.1,0.1-0.2,0.1c-0.1,0-0.1,0.1-0.2,0.1
			c-0.1,0-0.2,0-0.3,0h-0.9l1.3-1.8c0.1-0.1,0.1-0.2,0.2-0.3c0.1-0.1,0.2-0.1,0.3-0.2c-0.2,0-0.4-0.1-0.6-0.2
			c-0.2-0.1-0.3-0.2-0.4-0.3c-0.1-0.1-0.2-0.3-0.2-0.4c0-0.1-0.1-0.3-0.1-0.4c0-0.2,0-0.4,0.1-0.6c0.1-0.2,0.2-0.4,0.4-0.5
			c0.2-0.2,0.4-0.3,0.6-0.3c0.3-0.1,0.6-0.1,0.9-0.1H92.4z"/>
		<g>
			<defs>
				<rect id="SVGID_00000125576025760232481290000014535896859018263447_" x="168" y="8" width="207" height="64"/>
			</defs>
			<clipPath id="SVGID_00000087404158611782388630000001333888635648527551_">
				<use xlink:href="#SVGID_00000125576025760232481290000014535896859018263447_"  style="overflow:visible;"/>
			</clipPath>
			<g style="clip-path:url(#SVGID_00000087404158611782388630000001333888635648527551_);">
				<path class="st6" d="M176,8h48c4.4,0,8,3.6,8,8v48c0,4.4-3.6,8-8,8h-48c-4.4,0-8-3.6-8-8V16C168,11.6,171.6,8,176,8z"/>
				<path class="st3" d="M193,51.4c0.2,0,0.3,0,0.4,0.2c0.1,0.1,0.2,0.3,0.2,0.4v1h-6.9v-0.6c0-0.1,0-0.2,0.1-0.4
					c0.1-0.1,0.1-0.3,0.2-0.3l3.1-3.1c0.3-0.3,0.5-0.5,0.7-0.7c0.2-0.2,0.4-0.5,0.5-0.7c0.1-0.2,0.2-0.5,0.3-0.7
					c0.1-0.2,0.1-0.5,0.1-0.8c0-0.2,0-0.4-0.1-0.6c-0.1-0.2-0.2-0.3-0.3-0.5c-0.1-0.1-0.3-0.2-0.5-0.3c-0.2-0.1-0.4-0.1-0.6-0.1
					c-0.2,0-0.4,0-0.6,0.1c-0.2,0.1-0.3,0.1-0.5,0.2c-0.1,0.1-0.2,0.2-0.3,0.4c-0.1,0.1-0.2,0.3-0.2,0.5c0,0.2-0.2,0.3-0.3,0.4
					c-0.2,0.1-0.4,0.1-0.5,0l-0.9-0.2c0.1-0.4,0.2-0.9,0.4-1.3c0.2-0.4,0.4-0.7,0.7-0.9c0.3-0.2,0.7-0.4,1-0.6
					c0.4-0.1,0.8-0.2,1.3-0.2c0.4,0,0.9,0.1,1.3,0.2c0.4,0.1,0.7,0.3,1,0.6c0.3,0.3,0.5,0.6,0.6,0.9c0.2,0.4,0.2,0.8,0.2,1.2
					c0,0.4-0.1,0.7-0.2,1c-0.1,0.3-0.3,0.6-0.4,0.9c-0.2,0.3-0.4,0.6-0.6,0.8c-0.2,0.3-0.5,0.5-0.8,0.8l-2.3,2.3
					c0.2-0.1,0.4-0.1,0.7-0.1c0.2,0,0.4-0.1,0.6-0.1H193z M194.9,52c0-0.1,0-0.3,0.1-0.4c0.1-0.1,0.1-0.2,0.2-0.3
					c0.1-0.1,0.2-0.2,0.3-0.2c0.1-0.1,0.3-0.1,0.4-0.1c0.1,0,0.3,0,0.4,0.1c0.1,0.1,0.2,0.1,0.3,0.2c0.1,0.1,0.2,0.2,0.2,0.3
					c0.1,0.1,0.1,0.3,0.1,0.4c0,0.1,0,0.3-0.1,0.4c-0.1,0.1-0.1,0.2-0.2,0.3c-0.1,0.1-0.2,0.2-0.3,0.2c-0.1,0.1-0.3,0.1-0.4,0.1
					c-0.1,0-0.3,0-0.4-0.1c-0.1,0-0.2-0.1-0.3-0.2c-0.1-0.1-0.2-0.2-0.2-0.3C194.9,52.3,194.9,52.2,194.9,52z M205.2,42.9v0.7
					c0,0.2,0,0.4-0.1,0.5c0,0.1-0.1,0.2-0.1,0.3l-3.8,7.9c-0.1,0.2-0.2,0.3-0.3,0.4c-0.2,0.1-0.4,0.2-0.6,0.2H199l3.9-7.7
					c0.1-0.2,0.2-0.3,0.3-0.4c0.1-0.1,0.2-0.3,0.3-0.4h-4.8c-0.2,0-0.4-0.2-0.4-0.4v-1.2H205.2z M213,51.7V53h-5.6v-1.3h2.1v-5.9
					c0-0.2,0-0.5,0-0.7l-1.5,1.2c-0.1,0.1-0.3,0.2-0.5,0.1c-0.1,0-0.1,0-0.2-0.1c0,0-0.1-0.1-0.1-0.1l-0.5-0.7l3.1-2.6h1.4v8.8H213z
					"/>
				<path class="st3" d="M199.9,32h-1v-6.4h-3.6V32h-1v-7.2h5.5L199.9,32z M205.9,31.3V32H202v-0.7h1.5v-4.9c0-0.1,0-0.3,0-0.4
					l-1.3,1.1c0,0-0.1,0.1-0.1,0.1c0,0-0.1,0-0.1,0c0,0-0.1,0-0.1,0c0,0-0.1,0-0.1-0.1l-0.3-0.4l2.1-1.8h0.7v6.5L205.9,31.3z"/>
				<path class="st6" d="M242,8h48c4.4,0,8,3.6,8,8v48c0,4.4-3.6,8-8,8h-48c-4.4,0-8-3.6-8-8V16C234,11.6,237.6,8,242,8z"/>
				<path class="st3" d="M252.9,45.7c0.1-0.4,0.2-0.9,0.4-1.3c0.2-0.4,0.4-0.7,0.7-0.9c0.3-0.2,0.7-0.4,1-0.6
					c0.4-0.1,0.8-0.2,1.3-0.2c0.4,0,0.9,0.1,1.3,0.2c0.4,0.1,0.7,0.3,1,0.6c0.3,0.2,0.5,0.5,0.6,0.8c0.1,0.3,0.2,0.7,0.2,1
					c0,0.3,0,0.6-0.1,0.9c-0.1,0.2-0.2,0.4-0.3,0.6c-0.1,0.2-0.3,0.3-0.5,0.5c-0.2,0.1-0.4,0.2-0.7,0.3c0.5,0.1,1,0.4,1.4,0.9
					c0.3,0.4,0.5,0.9,0.4,1.5c0,0.5-0.1,0.9-0.3,1.3c-0.2,0.4-0.4,0.7-0.8,1c-0.3,0.3-0.7,0.5-1.1,0.6c-0.4,0.1-0.9,0.2-1.3,0.2
					c-0.4,0-0.9-0.1-1.3-0.2c-0.4-0.1-0.7-0.3-1-0.5c-0.3-0.2-0.5-0.5-0.7-0.8c-0.2-0.4-0.4-0.7-0.5-1.1l0.8-0.3
					c0.2-0.1,0.4-0.1,0.6-0.1c0.2,0,0.3,0.1,0.4,0.3c0.1,0.2,0.2,0.3,0.3,0.5c0.1,0.2,0.2,0.3,0.4,0.4c0.3,0.3,0.7,0.4,1.2,0.4
					c0.3,0,0.5,0,0.8-0.1c0.2-0.1,0.4-0.2,0.5-0.4c0.1-0.1,0.3-0.3,0.3-0.5c0.1-0.2,0.1-0.4,0.1-0.6c0-0.2,0-0.4-0.1-0.7
					c-0.1-0.2-0.2-0.4-0.3-0.5c-0.2-0.2-0.4-0.3-0.7-0.3c-0.4-0.1-0.8-0.1-1.2-0.1v-1.2c0.4,0,0.7,0,1.1-0.1
					c0.2-0.1,0.5-0.2,0.7-0.3c0.2-0.1,0.3-0.3,0.4-0.5c0.1-0.2,0.1-0.4,0.1-0.6c0-0.4-0.1-0.8-0.4-1.1c-0.3-0.3-0.7-0.4-1.1-0.4
					c-0.2,0-0.4,0-0.6,0.1c-0.2,0.1-0.3,0.1-0.5,0.2c-0.1,0.1-0.2,0.2-0.3,0.4c-0.1,0.1-0.2,0.3-0.2,0.5c0,0.2-0.2,0.3-0.3,0.4
					c-0.2,0.1-0.4,0.1-0.5,0L252.9,45.7z M260.9,52c0-0.1,0-0.3,0.1-0.4c0.1-0.1,0.1-0.2,0.2-0.3c0.1-0.1,0.2-0.2,0.3-0.2
					c0.1-0.1,0.3-0.1,0.4-0.1c0.1,0,0.3,0,0.4,0.1c0.1,0.1,0.2,0.1,0.3,0.2c0.1,0.1,0.2,0.2,0.2,0.3c0.1,0.1,0.1,0.3,0.1,0.4
					c0,0.1,0,0.3-0.1,0.4c-0.1,0.1-0.1,0.2-0.2,0.3c-0.1,0.1-0.2,0.2-0.3,0.2c-0.1,0.1-0.3,0.1-0.4,0.1c-0.1,0-0.3,0-0.4-0.1
					c-0.1,0-0.2-0.1-0.3-0.2c-0.1-0.1-0.2-0.2-0.2-0.3C260.9,52.3,260.9,52.2,260.9,52z M271.2,42.9v0.7c0,0.2,0,0.4-0.1,0.5
					c0,0.1-0.1,0.2-0.1,0.3l-3.8,7.9c-0.1,0.2-0.2,0.3-0.3,0.4c-0.2,0.1-0.4,0.2-0.6,0.2H265l3.9-7.7c0.1-0.2,0.2-0.3,0.3-0.4
					c0.1-0.1,0.2-0.3,0.3-0.4h-4.8c-0.2,0-0.4-0.2-0.4-0.4v-1.2H271.2z M275.8,51.8c0.3,0,0.5,0,0.7-0.1c0.2-0.1,0.4-0.2,0.5-0.3
					c0.1-0.1,0.3-0.3,0.3-0.5c0.1-0.2,0.1-0.4,0.1-0.7c0-0.5-0.1-0.9-0.5-1.3c-0.8-0.6-1.8-0.6-2.5,0c-0.3,0.3-0.5,0.8-0.5,1.3
					c0,0.2,0,0.4,0.1,0.7c0.1,0.2,0.2,0.4,0.3,0.5c0.2,0.1,0.3,0.3,0.5,0.3C275.3,51.7,275.5,51.8,275.8,51.8L275.8,51.8z
					 M275.8,44.1c-0.2,0-0.5,0-0.7,0.1c-0.2,0.1-0.3,0.2-0.5,0.3c-0.1,0.1-0.2,0.3-0.3,0.5c-0.1,0.2-0.1,0.4-0.1,0.5
					c0,0.2,0,0.4,0.1,0.6c0,0.2,0.1,0.4,0.3,0.5c0.1,0.2,0.3,0.3,0.5,0.3c0.5,0.2,1,0.2,1.4,0c0.2-0.1,0.3-0.2,0.5-0.3
					c0.1-0.1,0.2-0.3,0.2-0.5c0.1-0.2,0.1-0.4,0.1-0.6c0-0.2,0-0.4-0.1-0.5c-0.1-0.4-0.4-0.6-0.7-0.8
					C276.2,44.1,276,44.1,275.8,44.1L275.8,44.1z M277.5,47.7c0.5,0.2,1,0.5,1.4,0.9c0.3,0.4,0.5,1,0.4,1.5c0,0.4-0.1,0.8-0.3,1.2
					c-0.2,0.4-0.4,0.7-0.7,0.9c-0.3,0.3-0.7,0.5-1.1,0.6c-0.5,0.1-0.9,0.2-1.4,0.2c-0.5,0-1-0.1-1.4-0.2c-0.4-0.1-0.8-0.3-1.1-0.6
					c-0.3-0.3-0.6-0.6-0.7-0.9c-0.2-0.4-0.3-0.8-0.3-1.2c0-0.5,0.1-1.1,0.4-1.5c0.3-0.4,0.8-0.8,1.4-0.9c-0.4-0.2-0.8-0.5-1.1-0.9
					c-0.3-0.4-0.4-0.9-0.4-1.4c0-0.4,0.1-0.7,0.2-1.1c0.2-0.3,0.4-0.6,0.7-0.9c0.3-0.3,0.6-0.4,1-0.6c0.4-0.1,0.8-0.2,1.3-0.2
					c0.4,0,0.9,0.1,1.3,0.2c0.4,0.1,0.7,0.3,1,0.6c0.3,0.2,0.5,0.5,0.7,0.9c0.4,0.8,0.3,1.7-0.1,2.4
					C278.3,47.2,277.9,47.6,277.5,47.7z"/>
				<path class="st3" d="M269.1,32h-1c-0.1,0-0.1,0-0.2-0.1c0,0-0.1-0.1-0.1-0.1l-1.9-3c0,0.1-0.1,0.1-0.1,0.2l-1.9,2.8
					c0,0-0.1,0.1-0.1,0.1c0,0-0.1,0.1-0.2,0.1h-0.9l2.5-3.7l-2.4-3.5h1c0.1,0,0.1,0,0.2,0c0,0,0.1,0.1,0.1,0.1l1.9,2.9
					c0-0.1,0.1-0.2,0.1-0.2l1.8-2.6c0,0,0.1-0.1,0.1-0.1c0,0,0.1,0,0.1,0h0.9l-2.4,3.4L269.1,32z"/>
				<path class="st6" d="M308,8h48c4.4,0,8,3.6,8,8v48c0,4.4-3.6,8-8,8h-48c-4.4,0-8-3.6-8-8V16C300,11.6,303.6,8,308,8z"/>
				<path class="st3" d="M325,51.4c0.2,0,0.3,0,0.4,0.2c0.1,0.1,0.2,0.3,0.2,0.4v1h-6.9v-0.6c0-0.1,0-0.2,0.1-0.4
					c0.1-0.1,0.1-0.3,0.2-0.3l3.1-3.1c0.3-0.3,0.5-0.5,0.7-0.7c0.2-0.2,0.4-0.5,0.5-0.7c0.1-0.2,0.2-0.5,0.3-0.7
					c0.1-0.2,0.1-0.5,0.1-0.8c0-0.2,0-0.4-0.1-0.6c-0.1-0.2-0.2-0.3-0.3-0.5c-0.1-0.1-0.3-0.2-0.5-0.3c-0.2-0.1-0.4-0.1-0.6-0.1
					c-0.2,0-0.4,0-0.6,0.1c-0.2,0.1-0.3,0.1-0.5,0.2c-0.1,0.1-0.2,0.2-0.3,0.4c-0.1,0.1-0.2,0.3-0.2,0.5c0,0.2-0.2,0.3-0.3,0.4
					c-0.2,0.1-0.4,0.1-0.5,0l-0.9-0.2c0.1-0.4,0.2-0.9,0.4-1.3c0.2-0.4,0.4-0.7,0.7-0.9c0.3-0.2,0.7-0.4,1-0.6
					c0.4-0.1,0.8-0.2,1.3-0.2c0.4,0,0.9,0.1,1.3,0.2c0.4,0.1,0.7,0.3,1,0.6c0.3,0.3,0.5,0.6,0.6,0.9c0.2,0.4,0.2,0.8,0.2,1.2
					c0,0.4-0.1,0.7-0.2,1c-0.1,0.3-0.3,0.6-0.4,0.9c-0.2,0.3-0.4,0.6-0.6,0.8c-0.2,0.3-0.5,0.5-0.8,0.8l-2.3,2.3
					c0.2-0.1,0.4-0.1,0.7-0.1c0.2,0,0.4-0.1,0.6-0.1H325z M326.9,52c0-0.1,0-0.3,0.1-0.4c0.1-0.1,0.1-0.2,0.2-0.3
					c0.1-0.1,0.2-0.2,0.3-0.2c0.1-0.1,0.3-0.1,0.4-0.1c0.1,0,0.3,0,0.4,0.1c0.1,0.1,0.2,0.1,0.3,0.2c0.1,0.1,0.2,0.2,0.2,0.3
					c0.1,0.1,0.1,0.3,0.1,0.4c0,0.1,0,0.3-0.1,0.4c-0.1,0.1-0.1,0.2-0.2,0.3c-0.1,0.1-0.2,0.2-0.3,0.2c-0.1,0.1-0.3,0.1-0.4,0.1
					c-0.1,0-0.3,0-0.4-0.1c-0.1,0-0.2-0.1-0.3-0.2c-0.1-0.1-0.2-0.2-0.2-0.3C326.9,52.3,326.9,52.2,326.9,52L326.9,52z M332.4,46.6
					c0.2,0,0.4-0.1,0.6-0.1c0.2,0,0.4,0,0.6,0c0.5,0,1,0.1,1.4,0.2c0.4,0.1,0.7,0.4,1,0.7c0.3,0.3,0.5,0.6,0.6,1
					c0.1,0.4,0.2,0.8,0.2,1.2c0,0.5-0.1,1-0.3,1.5c-0.2,0.4-0.4,0.8-0.8,1.1c-0.3,0.3-0.8,0.6-1.2,0.7c-0.5,0.2-1,0.3-1.5,0.3
					c-0.3,0-0.6,0-0.9-0.1c-0.3-0.1-0.5-0.1-0.8-0.3c-0.2-0.1-0.5-0.2-0.7-0.4c-0.2-0.1-0.4-0.3-0.6-0.5l0.5-0.7
					c0.1-0.2,0.3-0.2,0.4-0.2c0.1,0,0.3,0,0.4,0.1c0.1,0.1,0.3,0.2,0.4,0.2c0.2,0.1,0.4,0.2,0.6,0.2c0.2,0.1,0.5,0.1,0.8,0.1
					c0.3,0,0.6,0,0.8-0.2c0.2-0.1,0.4-0.2,0.6-0.4c0.2-0.2,0.3-0.4,0.4-0.7c0.1-0.3,0.1-0.6,0.1-0.8c0-0.5-0.1-0.9-0.5-1.3
					c-0.4-0.3-0.9-0.5-1.4-0.5c-0.5,0-1,0.1-1.5,0.3l-1.1-0.3l0.8-4.9h5v0.7c0,0.2-0.1,0.4-0.2,0.6c-0.2,0.2-0.5,0.3-0.8,0.2h-2.8
					L332.4,46.6z M344.6,51.4c0.2,0,0.3,0,0.4,0.2c0.1,0.1,0.2,0.3,0.2,0.4v1h-6.9v-0.6c0-0.1,0-0.2,0.1-0.4
					c0.1-0.1,0.1-0.3,0.2-0.3l3.1-3.1c0.3-0.3,0.5-0.5,0.7-0.7c0.2-0.2,0.4-0.5,0.5-0.7c0.1-0.2,0.2-0.5,0.3-0.7
					c0.1-0.2,0.1-0.5,0.1-0.8c0-0.2,0-0.4-0.1-0.6c-0.1-0.2-0.2-0.3-0.3-0.5c-0.1-0.1-0.3-0.2-0.5-0.3c-0.2-0.1-0.4-0.1-0.6-0.1
					c-0.2,0-0.4,0-0.6,0.1c-0.2,0.1-0.3,0.1-0.5,0.2c-0.1,0.1-0.3,0.2-0.3,0.4c-0.1,0.1-0.2,0.3-0.2,0.5c0,0.2-0.2,0.3-0.3,0.4
					c-0.2,0.1-0.4,0.1-0.5,0l-0.9-0.2c0.1-0.4,0.2-0.9,0.4-1.3c0.2-0.4,0.4-0.7,0.7-0.9c0.3-0.2,0.7-0.4,1-0.6
					c0.4-0.1,0.8-0.2,1.3-0.2c0.4,0,0.9,0.1,1.3,0.2c0.4,0.1,0.7,0.3,1,0.6c0.3,0.3,0.5,0.6,0.6,0.9c0.2,0.4,0.2,0.8,0.2,1.2
					c0,0.4-0.1,0.7-0.2,1c-0.1,0.3-0.3,0.6-0.4,0.9c-0.2,0.3-0.4,0.6-0.6,0.8c-0.2,0.3-0.5,0.5-0.8,0.8l-2.3,2.3
					c0.2-0.1,0.4-0.1,0.7-0.1c0.2,0,0.4-0.1,0.6-0.1H344.6z"/>
				<path class="st3" d="M331.9,32h-1v-6.4h-3.6V32h-1v-7.2h5.5V32z M337.7,31.2c0.1,0,0.2,0,0.2,0.1c0.1,0.1,0.1,0.1,0.1,0.2V32
					h-4.8v-0.3c0-0.1,0-0.1,0-0.2c0-0.1,0.1-0.1,0.1-0.2l2.3-2.3c0.2-0.2,0.4-0.4,0.5-0.6c0.1-0.2,0.3-0.3,0.4-0.5
					c0.1-0.2,0.2-0.4,0.3-0.5c0.1-0.2,0.1-0.4,0.1-0.6c0-0.2,0-0.4-0.1-0.5c-0.1-0.2-0.2-0.3-0.3-0.4c-0.1-0.1-0.3-0.2-0.4-0.2
					c-0.2-0.1-0.3-0.1-0.5-0.1c-0.2,0-0.3,0-0.5,0.1c-0.1,0.1-0.3,0.1-0.4,0.2c-0.1,0.1-0.2,0.2-0.3,0.3c-0.1,0.1-0.1,0.3-0.2,0.4
					c0,0.1-0.1,0.2-0.2,0.2c-0.1,0-0.2,0.1-0.3,0l-0.5-0.1c0-0.3,0.1-0.6,0.3-0.9c0.3-0.5,0.7-0.9,1.2-1c0.6-0.2,1.2-0.2,1.7,0
					c0.3,0.1,0.5,0.2,0.7,0.4c0.2,0.2,0.4,0.4,0.5,0.6c0.1,0.3,0.2,0.6,0.2,0.8c0,0.3,0,0.5-0.1,0.7c-0.1,0.2-0.2,0.4-0.3,0.6
					c-0.1,0.2-0.3,0.4-0.5,0.6c-0.2,0.2-0.4,0.4-0.6,0.6l-1.9,1.9c0.1,0,0.3-0.1,0.4-0.1c0.1,0,0.3,0,0.4,0L337.7,31.2z"/>
				<path class="st6" d="M374,8h81c4.4,0,8,3.6,8,8v48c0,4.4-3.6,8-8,8h-81c-4.4,0-8-3.6-8-8V16C366,11.6,369.6,8,374,8z"/>
			</g>
		</g>
		<rect y="82" class="st2" width="375" height="80"/>
		<path class="st3" d="M22.9,105c0.1,0,0.2,0,0.2,0.1l0.6,0.7c-0.3,0.4-0.8,0.8-1.3,1c-0.6,0.2-1.2,0.4-1.8,0.3
			c-0.6,0-1.2-0.1-1.7-0.3c-0.5-0.2-0.9-0.5-1.3-0.9c-0.4-0.4-0.7-0.9-0.8-1.4c-0.2-0.6-0.3-1.2-0.3-1.8c0-0.6,0.1-1.2,0.3-1.8
			c0.2-0.5,0.5-1,0.9-1.4c0.4-0.4,0.8-0.7,1.4-0.9c0.6-0.2,1.1-0.3,1.7-0.3c0.6,0,1.1,0.1,1.7,0.3c0.5,0.2,0.9,0.5,1.3,0.8l-0.5,0.8
			c0,0-0.1,0.1-0.1,0.1c-0.1,0-0.1,0.1-0.2,0.1c-0.1,0-0.1,0-0.2,0c-0.1,0-0.1-0.1-0.2-0.1c-0.1-0.1-0.2-0.1-0.3-0.2
			c-0.1-0.1-0.2-0.1-0.3-0.2c-0.1-0.1-0.3-0.1-0.5-0.1c-0.2,0-0.4-0.1-0.6-0.1c-0.4,0-0.7,0.1-1.1,0.2c-0.3,0.1-0.6,0.3-0.8,0.6
			c-0.2,0.3-0.4,0.6-0.5,1c-0.1,0.4-0.2,0.9-0.2,1.3c0,0.4,0.1,0.9,0.2,1.3c0.1,0.4,0.3,0.7,0.6,1c0.2,0.3,0.5,0.5,0.8,0.6
			c0.3,0.1,0.7,0.2,1,0.2c0.2,0,0.4,0,0.6,0c0.2,0,0.3-0.1,0.5-0.1c0.1-0.1,0.3-0.1,0.4-0.2c0.1-0.1,0.3-0.2,0.4-0.3
			c0,0,0.1-0.1,0.1-0.1C22.8,105,22.9,105,22.9,105z M30,107h-1.5v-5.1h-2.4v5.1h-1.5v-6.2H30V107z M34.7,104.4
			c-0.4,0-0.7,0.1-1.1,0.1c-0.2,0-0.5,0.1-0.7,0.2c-0.1,0.1-0.3,0.2-0.4,0.3c-0.1,0.1-0.1,0.2-0.1,0.4c0,0.2,0.1,0.4,0.2,0.6
			c0.2,0.1,0.4,0.2,0.6,0.2c0.3,0,0.5,0,0.8-0.2c0.2-0.1,0.5-0.3,0.7-0.5V104.4z M31.3,101.7c0.7-0.6,1.6-1,2.6-1
			c0.3,0,0.7,0.1,1,0.2c0.3,0.1,0.5,0.3,0.7,0.5c0.2,0.2,0.4,0.5,0.4,0.8c0.1,0.3,0.2,0.6,0.2,1v3.9h-0.7c-0.1,0-0.2,0-0.3-0.1
			c-0.1-0.1-0.2-0.2-0.2-0.3l-0.1-0.4c-0.1,0.1-0.3,0.3-0.5,0.4c-0.1,0.1-0.3,0.2-0.5,0.3c-0.2,0.1-0.3,0.1-0.5,0.2
			c-0.2,0-0.4,0.1-0.6,0.1c-0.2,0-0.5,0-0.7-0.1c-0.2-0.1-0.4-0.2-0.6-0.3c-0.2-0.1-0.3-0.3-0.4-0.5c-0.1-0.2-0.1-0.5-0.1-0.7
			c0-0.2,0-0.3,0.1-0.5c0.1-0.2,0.1-0.3,0.3-0.4c0.1-0.2,0.3-0.3,0.5-0.4c0.2-0.1,0.4-0.2,0.7-0.3c0.3-0.1,0.6-0.2,1-0.2
			c0.4-0.1,0.8-0.1,1.2-0.1v-0.4c0-0.3-0.1-0.7-0.3-0.9c-0.2-0.2-0.5-0.3-0.8-0.3c-0.2,0-0.4,0-0.6,0.1c-0.1,0.1-0.3,0.1-0.4,0.2
			c-0.1,0.1-0.2,0.1-0.3,0.2c-0.1,0.1-0.2,0.1-0.3,0.1c-0.1,0-0.2,0-0.3-0.1c-0.1-0.1-0.1-0.1-0.2-0.2L31.3,101.7z M39.1,105.4
			c0.1,0.2,0.3,0.3,0.5,0.4c0.2,0.1,0.4,0.1,0.6,0.1c0.2,0,0.4,0,0.6-0.1c0.2-0.1,0.3-0.2,0.5-0.4c0.1-0.2,0.2-0.4,0.3-0.6
			c0.1-0.3,0.1-0.6,0.1-0.9c0-0.3,0-0.6-0.1-0.9c0-0.2-0.1-0.4-0.2-0.6c-0.1-0.1-0.2-0.3-0.4-0.3c-0.2-0.1-0.3-0.1-0.5-0.1
			c-0.3,0-0.5,0.1-0.8,0.2c-0.2,0.1-0.4,0.3-0.6,0.5L39.1,105.4z M39,101.7c0.2-0.3,0.5-0.5,0.9-0.7c0.3-0.2,0.7-0.3,1.1-0.3
			c0.3,0,0.6,0.1,0.9,0.2c0.3,0.1,0.5,0.4,0.7,0.6c0.2,0.3,0.4,0.6,0.5,1c0.1,0.4,0.2,0.9,0.2,1.3c0,0.4-0.1,0.9-0.2,1.3
			c-0.1,0.4-0.3,0.7-0.5,1c-0.5,0.6-1.2,0.9-1.9,0.9c-0.3,0-0.6,0-0.9-0.2c-0.2-0.1-0.5-0.3-0.7-0.4v2.5h-1.5v-8.2h0.9
			c0.2,0,0.3,0.1,0.4,0.3L39,101.7z M49.5,101.9h-2.2v5.1h-1.5v-5.1h-2.2v-1.1h5.9L49.5,101.9z M53.6,104.4c-0.4,0-0.7,0.1-1.1,0.1
			c-0.2,0-0.5,0.1-0.7,0.2c-0.1,0.1-0.3,0.2-0.4,0.3c-0.1,0.1-0.1,0.2-0.1,0.4c0,0.2,0.1,0.4,0.2,0.6c0.2,0.1,0.4,0.2,0.6,0.2
			c0.3,0,0.5,0,0.8-0.2c0.2-0.1,0.5-0.3,0.7-0.5V104.4z M50.2,101.7c0.7-0.6,1.6-1,2.6-1c0.3,0,0.7,0.1,1,0.2
			c0.3,0.1,0.5,0.3,0.7,0.5c0.2,0.2,0.4,0.5,0.4,0.8c0.1,0.3,0.2,0.6,0.2,1v3.9h-0.7c-0.1,0-0.2,0-0.3-0.1c-0.1-0.1-0.2-0.2-0.2-0.3
			l-0.1-0.4c-0.1,0.1-0.3,0.3-0.5,0.4c-0.1,0.1-0.3,0.2-0.5,0.3c-0.2,0.1-0.3,0.1-0.5,0.2c-0.2,0-0.4,0.1-0.6,0.1
			c-0.2,0-0.5,0-0.7-0.1c-0.2-0.1-0.4-0.2-0.6-0.3c-0.2-0.1-0.3-0.3-0.4-0.5c-0.1-0.2-0.1-0.5-0.1-0.7c0-0.2,0-0.3,0.1-0.5
			c0.1-0.2,0.1-0.3,0.3-0.4c0.1-0.2,0.3-0.3,0.5-0.4c0.2-0.1,0.4-0.2,0.7-0.3c0.3-0.1,0.6-0.2,1-0.2c0.4-0.1,0.8-0.1,1.2-0.1v-0.4
			c0-0.3-0.1-0.7-0.3-0.9c-0.2-0.2-0.5-0.3-0.8-0.3c-0.2,0-0.4,0-0.6,0.1c-0.1,0.1-0.3,0.1-0.4,0.2c-0.1,0.1-0.2,0.1-0.3,0.2
			c-0.1,0.1-0.2,0.1-0.3,0.1c-0.1,0-0.2,0-0.3-0.1c-0.1-0.1-0.1-0.1-0.2-0.2L50.2,101.7z M60.1,101.2c0.1-0.1,0.2-0.2,0.3-0.3
			c0.1-0.1,0.3-0.1,0.4-0.1H62l-1.4,2.3c-0.1,0.1-0.2,0.3-0.3,0.4c-0.1,0.1-0.2,0.2-0.4,0.2c0.2,0.1,0.4,0.1,0.5,0.3
			c0.1,0.1,0.3,0.3,0.3,0.4l1.4,2.5h-1c-0.2,0-0.4,0-0.6-0.1c-0.2-0.1-0.3-0.2-0.4-0.4l-0.9-1.7c-0.1-0.1-0.2-0.3-0.3-0.3
			c-0.1-0.1-0.3-0.1-0.4-0.1H58v2.7h-1.5v-6.2H58v2.5h0.5c0.3,0,0.5-0.1,0.7-0.4L60.1,101.2z"/>
		<path class="st3" d="M23.8,118.3l-3.5,7.5c-0.1,0.2-0.2,0.4-0.4,0.6c-0.1,0.2-0.3,0.3-0.5,0.4c-0.2,0.1-0.3,0.2-0.5,0.2
			c-0.2,0-0.4,0.1-0.6,0.1c-0.2,0-0.4,0-0.6-0.1c-0.1-0.1-0.2-0.1-0.2-0.2v-1H18c0.1,0,0.2,0,0.3,0c0.1,0,0.2,0,0.3-0.1
			c0.1-0.1,0.2-0.1,0.3-0.2c0.1-0.1,0.2-0.2,0.2-0.3l0.3-0.7l-3.5-6.1h1.5c0.1,0,0.2,0,0.3,0.1c0.1,0.1,0.2,0.2,0.2,0.3l1.7,3.2
			c0.1,0.2,0.2,0.3,0.2,0.5c0.1,0.2,0.1,0.3,0.2,0.5c0.1-0.4,0.2-0.7,0.4-1.1l1.5-3.2c0-0.1,0.1-0.2,0.2-0.2
			c0.1-0.1,0.2-0.1,0.3-0.1L23.8,118.3z M27.6,126c0.5,0,1-0.2,1.4-0.6c0.7-0.9,0.7-2.1,0-2.9c-0.4-0.4-0.9-0.6-1.4-0.6V126z
			 M26.3,121.9c-0.3,0-0.5,0.1-0.8,0.2c-0.2,0.1-0.4,0.2-0.6,0.4c-0.2,0.2-0.3,0.4-0.4,0.6c-0.1,0.3-0.1,0.5-0.1,0.8
			c0,0.3,0,0.6,0.1,0.8c0.1,0.2,0.2,0.4,0.4,0.6c0.2,0.2,0.4,0.3,0.6,0.4c0.3,0.1,0.5,0.2,0.8,0.2V121.9z M27.7,120.8
			c0.5,0,0.9,0.1,1.3,0.3c0.4,0.1,0.7,0.4,1,0.6c0.3,0.3,0.5,0.6,0.7,1c0.2,0.4,0.2,0.8,0.2,1.3c0,0.4-0.1,0.9-0.2,1.3
			c-0.2,0.4-0.4,0.7-0.7,1c-0.3,0.3-0.7,0.5-1,0.6c-0.4,0.2-0.9,0.3-1.3,0.3v2h-1.4v-2c-0.5,0-0.9-0.1-1.4-0.3
			c-0.4-0.1-0.7-0.4-1-0.6c-0.3-0.3-0.5-0.6-0.7-1c-0.2-0.4-0.2-0.8-0.2-1.3c0-0.4,0.1-0.9,0.2-1.3c0.2-0.4,0.4-0.7,0.7-1
			c0.3-0.3,0.7-0.5,1-0.6c0.4-0.2,0.9-0.3,1.4-0.3v-2.4h1.4V120.8z M35.3,124.4c-0.4,0-0.7,0.1-1.1,0.1c-0.2,0-0.5,0.1-0.7,0.2
			c-0.1,0.1-0.3,0.2-0.4,0.3c-0.1,0.1-0.1,0.2-0.1,0.4c0,0.2,0.1,0.4,0.2,0.6c0.2,0.1,0.4,0.2,0.6,0.2c0.3,0,0.5,0,0.8-0.2
			c0.2-0.1,0.5-0.3,0.7-0.5V124.4z M31.9,121.7c0.7-0.6,1.6-1,2.6-1c0.3,0,0.7,0.1,1,0.2c0.3,0.1,0.5,0.3,0.7,0.5
			c0.2,0.2,0.4,0.5,0.4,0.8c0.1,0.3,0.2,0.6,0.2,1v3.9h-0.7c-0.1,0-0.2,0-0.3-0.1c-0.1-0.1-0.2-0.2-0.2-0.3l-0.1-0.4
			c-0.1,0.1-0.3,0.3-0.5,0.4c-0.1,0.1-0.3,0.2-0.5,0.3c-0.2,0.1-0.3,0.1-0.5,0.2c-0.2,0-0.4,0.1-0.6,0.1c-0.2,0-0.5,0-0.7-0.1
			c-0.2-0.1-0.4-0.2-0.6-0.3c-0.2-0.1-0.3-0.3-0.4-0.5c-0.1-0.2-0.1-0.5-0.1-0.7c0-0.2,0-0.3,0.1-0.5c0.1-0.2,0.1-0.3,0.3-0.4
			c0.1-0.2,0.3-0.3,0.5-0.4c0.2-0.1,0.4-0.2,0.7-0.3c0.3-0.1,0.6-0.2,1-0.2c0.4-0.1,0.8-0.1,1.2-0.1v-0.4c0-0.3-0.1-0.7-0.3-0.9
			c-0.2-0.2-0.5-0.3-0.8-0.3c-0.2,0-0.4,0-0.6,0.1c-0.1,0.1-0.3,0.1-0.4,0.2c-0.1,0.1-0.2,0.1-0.3,0.2c-0.1,0.1-0.2,0.1-0.3,0.1
			c-0.1,0-0.2,0-0.3-0.1c-0.1-0.1-0.1-0.1-0.2-0.2L31.9,121.7z"/>
		<path class="st4" d="M20.9,145.9c0.1,0,0.2,0,0.3,0.1c0.1,0.1,0.1,0.2,0.1,0.3v0.7h-5v-0.4c0-0.1,0-0.2,0-0.3
			c0-0.1,0.1-0.2,0.2-0.2l2.2-2.2c0.2-0.2,0.3-0.4,0.5-0.5c0.1-0.2,0.3-0.3,0.4-0.5c0.1-0.2,0.2-0.3,0.2-0.5
			c0.1-0.2,0.1-0.4,0.1-0.5c0-0.2,0-0.3-0.1-0.5c0-0.1-0.1-0.2-0.2-0.3c-0.1-0.1-0.2-0.2-0.3-0.2c-0.1,0-0.3-0.1-0.4-0.1
			c-0.1,0-0.3,0-0.4,0.1c-0.1,0-0.2,0.1-0.3,0.2c-0.1,0.1-0.2,0.2-0.2,0.3c-0.1,0.1-0.1,0.2-0.1,0.3c0,0.1-0.1,0.2-0.2,0.3
			c-0.1,0.1-0.3,0.1-0.4,0l-0.6-0.1c0-0.3,0.1-0.6,0.3-0.9c0.1-0.3,0.3-0.5,0.5-0.7c0.2-0.2,0.5-0.3,0.7-0.4
			c0.3-0.1,0.6-0.1,0.9-0.1c0.3,0,0.6,0,0.9,0.1c0.3,0.1,0.5,0.2,0.7,0.4c0.2,0.2,0.4,0.4,0.5,0.6c0.1,0.3,0.2,0.6,0.2,0.8
			c0,0.3,0,0.5-0.1,0.7c-0.1,0.2-0.2,0.4-0.3,0.6c-0.1,0.2-0.3,0.4-0.5,0.6c-0.2,0.2-0.4,0.4-0.6,0.6l-1.6,1.7
			c0.2,0,0.3-0.1,0.5-0.1c0.1,0,0.3,0,0.4,0L20.9,145.9z M23.8,142.4c0.2,0,0.3-0.1,0.5-0.1c0.1,0,0.3,0,0.4,0c0.3,0,0.7,0.1,1,0.2
			c0.3,0.1,0.5,0.3,0.7,0.5c0.2,0.2,0.3,0.4,0.4,0.7c0.1,0.3,0.2,0.6,0.1,0.9c0,0.4-0.1,0.7-0.2,1.1c-0.1,0.3-0.3,0.6-0.6,0.8
			c-0.2,0.2-0.5,0.4-0.9,0.5c-0.3,0.1-0.7,0.2-1.1,0.2c-0.2,0-0.4,0-0.6-0.1c-0.2,0-0.4-0.1-0.6-0.2c-0.2-0.1-0.3-0.2-0.5-0.3
			c-0.1-0.1-0.3-0.2-0.4-0.3l0.4-0.5c0.1-0.1,0.2-0.2,0.3-0.2c0.1,0,0.2,0,0.3,0.1c0.1,0.1,0.2,0.1,0.3,0.2c0.1,0.1,0.3,0.1,0.4,0.2
			c0.2,0.1,0.4,0.1,0.5,0.1c0.2,0,0.4,0,0.6-0.1c0.2-0.1,0.3-0.2,0.4-0.3c0.1-0.1,0.2-0.3,0.3-0.5c0.1-0.2,0.1-0.4,0.1-0.6
			c0-0.3-0.1-0.7-0.3-0.9c-0.3-0.2-0.6-0.4-1-0.3c-0.4,0-0.7,0.1-1.1,0.2l-0.8-0.2l0.6-3.5h3.6v0.5c0,0.2-0.1,0.3-0.2,0.4
			c-0.2,0.1-0.4,0.2-0.6,0.2h-2L23.8,142.4z M28.1,146.3c0-0.1,0-0.2,0.1-0.3c0-0.1,0.1-0.2,0.2-0.2c0.1-0.1,0.3-0.2,0.5-0.2
			c0.1,0,0.2,0,0.3,0.1c0.1,0,0.2,0.1,0.2,0.2c0.1,0.1,0.1,0.1,0.2,0.2c0,0.1,0.1,0.2,0.1,0.3c0,0.1,0,0.2-0.1,0.3
			c0,0.1-0.1,0.2-0.2,0.2c-0.1,0.1-0.2,0.1-0.2,0.2c-0.1,0-0.2,0.1-0.3,0.1c-0.1,0-0.2,0-0.3-0.1c-0.1,0-0.2-0.1-0.2-0.2
			c-0.1-0.1-0.1-0.1-0.2-0.2C28.1,146.5,28.1,146.4,28.1,146.3z M28.1,142.8c0-0.1,0-0.2,0.1-0.3c0-0.1,0.1-0.2,0.2-0.2
			c0.1-0.1,0.3-0.2,0.5-0.2c0.1,0,0.2,0,0.3,0.1c0.1,0,0.2,0.1,0.2,0.2c0.1,0.1,0.1,0.1,0.2,0.2c0,0.1,0.1,0.2,0.1,0.3
			c0,0.1,0,0.2-0.1,0.3c0,0.1-0.1,0.2-0.2,0.2c-0.1,0.1-0.2,0.1-0.2,0.2c-0.1,0-0.2,0.1-0.3,0.1c-0.1,0-0.2,0-0.3-0.1
			c-0.1,0-0.2-0.1-0.2-0.2c-0.1-0.1-0.1-0.1-0.2-0.2C28.1,143,28.1,142.9,28.1,142.8z M33.7,144.3v-2.4c0-0.2,0-0.5,0-0.7l-2.2,3.1
			L33.7,144.3z M35.7,144.3v0.7c0,0.1,0,0.1-0.1,0.2c0,0-0.1,0.1-0.2,0.1h-0.7v1.8h-1.1v-1.8h-3.1c-0.2,0-0.3-0.1-0.3-0.3l-0.1-0.6
			l3.4-4.6h1.2v4.5L35.7,144.3z M38.9,146.1c0.2,0,0.4,0,0.5-0.1c0.1-0.1,0.3-0.1,0.4-0.2c0.1-0.1,0.2-0.2,0.2-0.4
			c0.1-0.1,0.1-0.3,0.1-0.5c0-0.3-0.1-0.7-0.3-0.9c-0.5-0.4-1.3-0.4-1.8,0c-0.2,0.2-0.4,0.6-0.3,0.9c0,0.2,0,0.3,0.1,0.5
			c0.1,0.1,0.1,0.3,0.2,0.4c0.1,0.1,0.2,0.2,0.4,0.2C38.5,146.1,38.7,146.1,38.9,146.1z M38.9,140.6c-0.2,0-0.3,0-0.5,0.1
			c-0.1,0.1-0.2,0.1-0.3,0.2c-0.1,0.1-0.2,0.2-0.2,0.3c0,0.1-0.1,0.3-0.1,0.4c0,0.1,0,0.3,0,0.4c0,0.1,0.1,0.3,0.2,0.4
			c0.1,0.1,0.2,0.2,0.3,0.2c0.3,0.1,0.7,0.1,1,0c0.1-0.1,0.2-0.1,0.3-0.2c0.1-0.1,0.1-0.2,0.2-0.4c0-0.1,0.1-0.3,0.1-0.4
			c0-0.1,0-0.3-0.1-0.4c-0.1-0.3-0.3-0.5-0.5-0.6C39.2,140.6,39,140.6,38.9,140.6L38.9,140.6z M40.1,143.2c0.4,0.1,0.7,0.3,1,0.7
			c0.2,0.3,0.3,0.7,0.3,1.1c0,0.3-0.1,0.6-0.2,0.9c-0.1,0.3-0.3,0.5-0.5,0.7c-0.2,0.2-0.5,0.3-0.8,0.4c-0.3,0.1-0.7,0.2-1,0.1
			c-0.3,0-0.7,0-1-0.1c-0.3-0.1-0.6-0.2-0.8-0.4c-0.2-0.2-0.4-0.4-0.5-0.7c-0.1-0.3-0.2-0.6-0.2-0.9c0-0.4,0.1-0.8,0.3-1.1
			c0.2-0.3,0.6-0.6,1-0.7c-0.3-0.1-0.6-0.3-0.8-0.6c-0.2-0.3-0.3-0.6-0.3-1c0-0.3,0.1-0.5,0.2-0.8c0.1-0.2,0.3-0.4,0.5-0.6
			c0.2-0.2,0.5-0.3,0.7-0.4c0.3-0.1,0.6-0.2,0.9-0.1c0.3,0,0.6,0,0.9,0.1c0.3,0.1,0.5,0.2,0.7,0.4c0.2,0.2,0.4,0.4,0.5,0.6
			c0.3,0.6,0.2,1.2-0.1,1.7C40.7,142.9,40.4,143.1,40.1,143.2L40.1,143.2z"/>
		<g>
			<defs>
				<rect id="SVGID_00000183248271970490129220000007769789404122083477_" x="168" y="90" width="207" height="64"/>
			</defs>
			<clipPath id="SVGID_00000021837823616990076940000016336578055341880466_">
				<use xlink:href="#SVGID_00000183248271970490129220000007769789404122083477_"  style="overflow:visible;"/>
			</clipPath>
			<g style="clip-path:url(#SVGID_00000021837823616990076940000016336578055341880466_);">
				<path class="st6" d="M176,90h48c4.4,0,8,3.6,8,8v48c0,4.4-3.6,8-8,8h-48c-4.4,0-8-3.6-8-8V98C168,93.6,171.6,90,176,90z"/>
				<path class="st3" d="M193.4,133.7v1.3h-5.6v-1.3h2.1v-5.9c0-0.2,0-0.5,0-0.7l-1.5,1.2c-0.1,0.1-0.2,0.1-0.3,0.1
					c-0.1,0-0.2,0-0.2,0c-0.1,0-0.1,0-0.2-0.1c0,0-0.1-0.1-0.1-0.1l-0.5-0.7l3.1-2.6h1.4v8.8L193.4,133.7z M194.9,134
					c0-0.1,0-0.3,0.1-0.4c0.1-0.1,0.1-0.2,0.2-0.3c0.1-0.1,0.2-0.2,0.3-0.2c0.1-0.1,0.3-0.1,0.4-0.1c0.1,0,0.3,0,0.4,0.1
					c0.1,0.1,0.2,0.1,0.3,0.2c0.1,0.1,0.2,0.2,0.2,0.3c0.1,0.1,0.1,0.3,0.1,0.4c0,0.1,0,0.3-0.1,0.4c-0.1,0.1-0.1,0.2-0.2,0.3
					c-0.1,0.1-0.2,0.2-0.3,0.2c-0.1,0.1-0.3,0.1-0.4,0.1c-0.1,0-0.3,0-0.4-0.1c-0.1,0-0.2-0.1-0.3-0.2c-0.1-0.1-0.2-0.2-0.2-0.3
					C194.9,134.3,194.9,134.2,194.9,134L194.9,134z M201.3,128.6l-0.4,0.4c0.2-0.1,0.4-0.2,0.6-0.2c0.2-0.1,0.5-0.1,0.7-0.1
					c0.4,0,0.8,0.1,1.1,0.2c0.4,0.1,0.7,0.3,1,0.6c0.3,0.3,0.5,0.6,0.7,0.9c0.2,0.4,0.3,0.9,0.3,1.3c0,0.5-0.1,0.9-0.3,1.3
					c-0.2,0.4-0.4,0.8-0.7,1.1c-0.3,0.3-0.7,0.6-1.1,0.7c-0.9,0.4-2,0.4-2.9,0c-0.8-0.3-1.5-1-1.8-1.8c-0.2-0.5-0.2-1-0.2-1.5
					c0-0.5,0.1-1,0.3-1.5c0.2-0.6,0.5-1.1,0.9-1.6l2.4-3.2c0.1-0.1,0.2-0.2,0.4-0.3c0.2-0.1,0.4-0.1,0.6-0.1h1.5L201.3,128.6z
					 M201.6,133.7c0.3,0,0.5,0,0.8-0.1c0.2-0.1,0.4-0.2,0.6-0.4c0.2-0.2,0.3-0.4,0.4-0.6c0.1-0.2,0.1-0.5,0.1-0.7
					c0-0.3,0-0.5-0.1-0.8c-0.2-0.4-0.5-0.8-1-1c-0.2-0.1-0.5-0.1-0.8-0.1c-0.3,0-0.5,0-0.7,0.1c-0.2,0.1-0.4,0.2-0.6,0.4
					c-0.2,0.2-0.3,0.4-0.4,0.6c-0.1,0.2-0.1,0.5-0.1,0.7c0,0.3,0,0.5,0.1,0.8c0.1,0.2,0.2,0.4,0.3,0.6c0.2,0.2,0.4,0.3,0.6,0.4
					C201.1,133.7,201.4,133.7,201.6,133.7L201.6,133.7z M213,133.7v1.3h-5.6v-1.3h2.1v-5.9c0-0.2,0-0.5,0-0.7l-1.5,1.2
					c-0.1,0.1-0.2,0.1-0.3,0.1c-0.1,0-0.2,0-0.2,0c-0.1,0-0.1,0-0.2-0.1c0,0-0.1-0.1-0.1-0.1l-0.5-0.7l3.1-2.6h1.4v8.8L213,133.7z"
					/>
				<path class="st3" d="M199.9,114h-1v-6.4h-3.6v6.4h-1v-7.2h5.5L199.9,114z M205.9,113.3v0.7H202v-0.7h1.5v-4.9c0-0.1,0-0.3,0-0.4
					l-1.3,1.1c0,0-0.1,0.1-0.1,0.1c0,0-0.1,0-0.1,0c0,0-0.1,0-0.1,0c0,0-0.1,0-0.1-0.1l-0.3-0.4l2.1-1.8h0.7v6.5L205.9,113.3z"/>
				<path class="st6" d="M242,90h48c4.4,0,8,3.6,8,8v48c0,4.4-3.6,8-8,8h-48c-4.4,0-8-3.6-8-8V98C234,93.6,237.6,90,242,90z"/>
				<path class="st3" d="M257.1,131.2v-3.3c0-0.3,0-0.7,0.1-1l-3.1,4.3H257.1z M259.9,131.2v1c0,0.1,0,0.2-0.1,0.2
					c-0.1,0.1-0.2,0.1-0.3,0.1h-0.9v2.5h-1.5v-2.5h-4.3c-0.1,0-0.2,0-0.3-0.1c-0.1-0.1-0.1-0.2-0.2-0.3l-0.2-0.9l4.8-6.4h1.6v6.3
					L259.9,131.2z M260.9,134c0-0.1,0-0.3,0.1-0.4c0.1-0.1,0.1-0.2,0.2-0.3c0.1-0.1,0.2-0.2,0.3-0.2c0.1-0.1,0.3-0.1,0.4-0.1
					c0.1,0,0.3,0,0.4,0.1c0.1,0.1,0.2,0.1,0.3,0.2c0.1,0.1,0.2,0.2,0.2,0.3c0.1,0.1,0.1,0.3,0.1,0.4c0,0.1,0,0.3-0.1,0.4
					c-0.1,0.1-0.1,0.2-0.2,0.3c-0.1,0.1-0.2,0.2-0.3,0.2c-0.1,0.1-0.3,0.1-0.4,0.1c-0.1,0-0.3,0-0.4-0.1c-0.1,0-0.2-0.1-0.3-0.2
					c-0.1-0.1-0.2-0.2-0.2-0.3C260.9,134.3,260.9,134.2,260.9,134L260.9,134z M266.4,128.6c0.2,0,0.4-0.1,0.6-0.1c0.2,0,0.4,0,0.6,0
					c0.5,0,1,0.1,1.4,0.2c0.4,0.1,0.7,0.4,1,0.7c0.3,0.3,0.5,0.6,0.6,1c0.1,0.4,0.2,0.8,0.2,1.2c0,0.5-0.1,1-0.3,1.5
					c-0.2,0.4-0.4,0.8-0.8,1.1c-0.3,0.3-0.8,0.6-1.2,0.7c-0.5,0.2-1,0.3-1.5,0.3c-0.3,0-0.6,0-0.9-0.1c-0.3-0.1-0.5-0.1-0.8-0.3
					c-0.2-0.1-0.5-0.2-0.7-0.4c-0.2-0.1-0.4-0.3-0.6-0.5l0.5-0.7c0.1-0.2,0.3-0.2,0.4-0.2c0.1,0,0.3,0,0.4,0.1
					c0.1,0.1,0.3,0.2,0.4,0.2c0.2,0.1,0.4,0.2,0.6,0.2c0.2,0.1,0.5,0.1,0.8,0.1c0.3,0,0.6,0,0.8-0.2c0.2-0.1,0.4-0.2,0.6-0.4
					c0.2-0.2,0.3-0.4,0.4-0.7c0.1-0.3,0.1-0.6,0.1-0.8c0-0.5-0.1-0.9-0.5-1.3c-0.4-0.3-0.9-0.5-1.4-0.5c-0.5,0-1,0.1-1.5,0.3
					l-1.1-0.3l0.8-4.9h5v0.7c0,0.2-0.1,0.4-0.2,0.6c-0.2,0.2-0.5,0.3-0.8,0.2h-2.8L266.4,128.6z M274.6,128.6c0.2,0,0.4-0.1,0.6-0.1
					c0.2,0,0.4,0,0.6,0c0.5,0,1,0.1,1.4,0.2c0.4,0.1,0.7,0.4,1,0.7c0.3,0.3,0.5,0.6,0.6,1c0.1,0.4,0.2,0.8,0.2,1.2
					c0,0.5-0.1,1-0.3,1.5c-0.2,0.4-0.4,0.8-0.8,1.1c-0.3,0.3-0.8,0.6-1.2,0.7c-0.5,0.2-1,0.3-1.5,0.3c-0.3,0-0.6,0-0.9-0.1
					c-0.3-0.1-0.5-0.1-0.8-0.3c-0.2-0.1-0.5-0.2-0.7-0.4c-0.2-0.1-0.4-0.3-0.6-0.5l0.5-0.7c0.1-0.2,0.3-0.2,0.4-0.2
					c0.1,0,0.3,0,0.4,0.1c0.1,0.1,0.3,0.2,0.4,0.2c0.2,0.1,0.4,0.2,0.6,0.2c0.2,0.1,0.5,0.1,0.8,0.1c0.3,0,0.6,0,0.8-0.2
					c0.2-0.1,0.4-0.2,0.6-0.4c0.2-0.2,0.3-0.4,0.4-0.7c0.1-0.3,0.1-0.6,0.1-0.8c0-0.5-0.1-0.9-0.5-1.3c-0.4-0.3-0.9-0.5-1.4-0.5
					c-0.5,0-1,0.1-1.5,0.3l-1.1-0.3l0.8-4.9h5v0.7c0,0.2-0.1,0.4-0.2,0.6c-0.2,0.2-0.5,0.3-0.8,0.2h-2.8L274.6,128.6z"/>
				<path class="st3" d="M269.1,114h-1c-0.1,0-0.1,0-0.2-0.1c0,0-0.1-0.1-0.1-0.1l-1.9-3c0,0.1-0.1,0.1-0.1,0.2l-1.9,2.8
					c0,0-0.1,0.1-0.1,0.1c0,0-0.1,0.1-0.2,0.1h-0.9l2.5-3.7l-2.4-3.5h1c0.1,0,0.1,0,0.2,0c0,0,0.1,0.1,0.1,0.1l1.9,2.9
					c0-0.1,0.1-0.2,0.1-0.2l1.8-2.6c0,0,0.1-0.1,0.1-0.1c0,0,0.1,0,0.1,0h0.9l-2.4,3.4L269.1,114z"/>
				<path class="st6" d="M308,90h48c4.4,0,8,3.6,8,8v48c0,4.4-3.6,8-8,8h-48c-4.4,0-8-3.6-8-8V98C300,93.6,303.6,90,308,90z"/>
				<path class="st3" d="M321.8,128.6l-0.4,0.4c0.2-0.1,0.4-0.2,0.6-0.2c0.2-0.1,0.5-0.1,0.7-0.1c0.4,0,0.8,0.1,1.1,0.2
					c0.4,0.1,0.7,0.3,1,0.6c0.3,0.3,0.5,0.6,0.7,0.9c0.2,0.4,0.3,0.9,0.3,1.3c0,0.5-0.1,0.9-0.3,1.3c-0.2,0.4-0.4,0.8-0.7,1.1
					c-0.3,0.3-0.7,0.6-1.1,0.7c-0.9,0.4-2,0.4-2.9,0c-0.8-0.3-1.5-1-1.8-1.8c-0.2-0.5-0.2-1-0.2-1.5c0-0.5,0.1-1,0.3-1.5
					c0.2-0.6,0.5-1.1,0.9-1.6l2.4-3.2c0.1-0.1,0.2-0.2,0.4-0.3c0.2-0.1,0.4-0.1,0.6-0.1h1.5L321.8,128.6z M322.2,133.7
					c0.3,0,0.5,0,0.8-0.1c0.2-0.1,0.4-0.2,0.6-0.4c0.2-0.2,0.3-0.4,0.4-0.6c0.1-0.2,0.1-0.5,0.1-0.7c0-0.3,0-0.5-0.1-0.8
					c-0.2-0.4-0.5-0.8-1-1c-0.2-0.1-0.5-0.1-0.8-0.1c-0.3,0-0.5,0-0.7,0.1c-0.2,0.1-0.4,0.2-0.6,0.4c-0.2,0.2-0.3,0.4-0.4,0.6
					c-0.1,0.2-0.1,0.5-0.1,0.7c0,0.3,0,0.5,0.1,0.8c0.1,0.2,0.2,0.4,0.3,0.6c0.2,0.2,0.4,0.3,0.6,0.4
					C321.7,133.7,321.9,133.7,322.2,133.7z M326.9,134c0-0.1,0-0.3,0.1-0.4c0.1-0.1,0.1-0.2,0.2-0.3c0.1-0.1,0.2-0.2,0.3-0.2
					c0.1-0.1,0.3-0.1,0.4-0.1c0.1,0,0.3,0,0.4,0.1c0.1,0.1,0.2,0.1,0.3,0.2c0.1,0.1,0.2,0.2,0.2,0.3c0.1,0.1,0.1,0.3,0.1,0.4
					c0,0.1,0,0.3-0.1,0.4c-0.1,0.1-0.1,0.2-0.2,0.3c-0.1,0.1-0.2,0.2-0.3,0.2c-0.1,0.1-0.3,0.1-0.4,0.1c-0.1,0-0.3,0-0.4-0.1
					c-0.1,0-0.2-0.1-0.3-0.2c-0.1-0.1-0.2-0.2-0.2-0.3C326.9,134.3,326.9,134.2,326.9,134z M332.4,128.6c0.2,0,0.4-0.1,0.6-0.1
					c0.2,0,0.4,0,0.6,0c0.5,0,1,0.1,1.4,0.2c0.4,0.1,0.7,0.4,1,0.7c0.3,0.3,0.5,0.6,0.6,1c0.1,0.4,0.2,0.8,0.2,1.2
					c0,0.5-0.1,1-0.3,1.5c-0.2,0.4-0.4,0.8-0.8,1.1c-0.3,0.3-0.8,0.6-1.2,0.7c-0.5,0.2-1,0.3-1.5,0.3c-0.3,0-0.6,0-0.9-0.1
					c-0.3-0.1-0.5-0.1-0.8-0.3c-0.2-0.1-0.5-0.2-0.7-0.4c-0.2-0.1-0.4-0.3-0.6-0.5l0.5-0.7c0.1-0.2,0.3-0.2,0.4-0.2
					c0.1,0,0.3,0,0.4,0.1c0.1,0.1,0.3,0.2,0.4,0.2c0.2,0.1,0.4,0.2,0.6,0.2c0.2,0.1,0.5,0.1,0.8,0.1c0.3,0,0.6,0,0.8-0.2
					c0.2-0.1,0.4-0.2,0.6-0.4c0.2-0.2,0.3-0.4,0.4-0.7c0.1-0.3,0.1-0.6,0.1-0.8c0-0.5-0.1-0.9-0.5-1.3c-0.4-0.3-0.9-0.5-1.4-0.5
					c-0.5,0-1,0.1-1.5,0.3l-1.1-0.3l0.8-4.9h5v0.7c0,0.2-0.1,0.4-0.2,0.6c-0.2,0.2-0.5,0.3-0.8,0.2h-2.8L332.4,128.6z M341.4,128.6
					L341,129c0.2-0.1,0.4-0.2,0.6-0.2c0.2-0.1,0.5-0.1,0.7-0.1c0.4,0,0.8,0.1,1.1,0.2c0.4,0.1,0.7,0.3,1,0.6
					c0.3,0.3,0.5,0.6,0.7,0.9c0.2,0.4,0.3,0.9,0.3,1.3c0,0.5-0.1,0.9-0.3,1.3c-0.2,0.4-0.4,0.8-0.7,1.1c-0.3,0.3-0.7,0.6-1.1,0.7
					c-0.9,0.4-2,0.4-2.9,0c-0.8-0.3-1.5-1-1.8-1.8c-0.2-0.5-0.2-1-0.2-1.5c0-0.5,0.1-1,0.3-1.5c0.2-0.6,0.5-1.1,0.9-1.6l2.4-3.2
					c0.1-0.1,0.2-0.2,0.4-0.3c0.2-0.1,0.4-0.1,0.6-0.1h1.5L341.4,128.6z M341.8,133.7c0.3,0,0.5,0,0.8-0.1c0.2-0.1,0.4-0.2,0.6-0.4
					c0.2-0.2,0.3-0.4,0.4-0.6c0.1-0.2,0.1-0.5,0.1-0.7c0-0.3,0-0.5-0.1-0.8c-0.2-0.4-0.5-0.8-1-1c-0.2-0.1-0.5-0.1-0.8-0.1
					c-0.3,0-0.5,0-0.7,0.1c-0.2,0.1-0.4,0.2-0.6,0.4c-0.2,0.2-0.3,0.4-0.4,0.6c-0.1,0.2-0.1,0.5-0.1,0.7c0,0.3,0,0.5,0.1,0.8
					c0.1,0.2,0.2,0.4,0.3,0.6c0.2,0.2,0.4,0.3,0.6,0.4C341.2,133.7,341.5,133.7,341.8,133.7L341.8,133.7z"/>
				<path class="st3" d="M331.9,114h-1v-6.4h-3.6v6.4h-1v-7.2h5.5V114z M337.7,113.2c0.1,0,0.2,0,0.2,0.1c0.1,0.1,0.1,0.1,0.1,0.2
					v0.5h-4.8v-0.3c0-0.1,0-0.1,0-0.2c0-0.1,0.1-0.1,0.1-0.2l2.3-2.3c0.2-0.2,0.4-0.4,0.5-0.6c0.1-0.2,0.3-0.3,0.4-0.5
					c0.1-0.2,0.2-0.4,0.3-0.5c0.1-0.2,0.1-0.4,0.1-0.6c0-0.2,0-0.4-0.1-0.6c-0.1-0.2-0.2-0.3-0.3-0.4c-0.1-0.1-0.3-0.2-0.4-0.2
					c-0.2-0.1-0.3-0.1-0.5-0.1c-0.2,0-0.3,0-0.5,0.1c-0.1,0.1-0.3,0.1-0.4,0.2c-0.1,0.1-0.2,0.2-0.3,0.3c-0.1,0.1-0.1,0.3-0.2,0.4
					c0,0.1-0.1,0.2-0.2,0.2c-0.1,0-0.2,0.1-0.3,0l-0.5-0.1c0-0.3,0.1-0.6,0.3-0.9c0.3-0.5,0.7-0.9,1.2-1c0.6-0.2,1.2-0.2,1.7,0
					c0.3,0.1,0.5,0.2,0.7,0.4c0.2,0.2,0.4,0.4,0.5,0.6c0.1,0.3,0.2,0.6,0.2,0.8c0,0.3,0,0.5-0.1,0.7c-0.1,0.2-0.2,0.4-0.3,0.7
					c-0.1,0.2-0.3,0.4-0.5,0.6c-0.2,0.2-0.4,0.4-0.6,0.6l-1.9,1.9c0.1,0,0.3-0.1,0.4-0.1c0.1,0,0.3,0,0.4,0H337.7z"/>
				<path class="st6" d="M374,90h81c4.4,0,8,3.6,8,8v48c0,4.4-3.6,8-8,8h-81c-4.4,0-8-3.6-8-8V98C366,93.6,369.6,90,374,90z"/>
			</g>
		</g>
		<rect y="246" class="st2" width="375" height="80"/>
		<path class="st3" d="M23.8,262.3l-3.5,7.5c-0.1,0.2-0.2,0.4-0.4,0.6c-0.1,0.2-0.3,0.3-0.5,0.4c-0.2,0.1-0.3,0.2-0.5,0.2
			c-0.2,0-0.4,0.1-0.6,0.1c-0.2,0-0.4,0-0.6-0.1c-0.1-0.1-0.2-0.1-0.2-0.2v-1H18c0.1,0,0.2,0,0.3,0c0.1,0,0.2,0,0.3-0.1
			c0.1-0.1,0.2-0.1,0.3-0.2c0.1-0.1,0.2-0.2,0.2-0.3l0.3-0.7l-3.5-6.1h1.5c0.1,0,0.2,0,0.3,0.1c0.1,0.1,0.2,0.2,0.2,0.3l1.7,3.2
			c0.1,0.2,0.2,0.4,0.2,0.5c0.1,0.2,0.1,0.3,0.2,0.5c0.1-0.4,0.2-0.7,0.4-1l1.5-3.2c0-0.1,0.1-0.2,0.2-0.2c0.1-0.1,0.2-0.1,0.3-0.1
			L23.8,262.3z M25.1,269.4c0.1,0.2,0.3,0.3,0.5,0.4c0.2,0.1,0.4,0.1,0.6,0.1c0.2,0,0.4,0,0.6-0.1c0.2-0.1,0.3-0.2,0.5-0.4
			c0.1-0.2,0.2-0.4,0.3-0.6c0.1-0.3,0.1-0.6,0.1-0.9c0-0.3,0-0.6-0.1-0.9c0-0.2-0.1-0.4-0.2-0.6c-0.1-0.1-0.2-0.3-0.4-0.3
			c-0.2-0.1-0.3-0.1-0.5-0.1c-0.3,0-0.5,0.1-0.8,0.2c-0.2,0.1-0.4,0.3-0.6,0.5L25.1,269.4z M25,265.7c0.2-0.3,0.5-0.5,0.9-0.7
			c0.3-0.2,0.7-0.3,1.1-0.3c0.3,0,0.6,0.1,0.9,0.2c0.3,0.1,0.5,0.4,0.7,0.6c0.2,0.3,0.4,0.6,0.5,1c0.1,0.4,0.2,0.9,0.2,1.3
			c0,0.4-0.1,0.9-0.2,1.3c-0.1,0.4-0.3,0.7-0.5,1c-0.5,0.6-1.2,0.9-1.9,0.9c-0.3,0-0.6,0-0.9-0.2c-0.2-0.1-0.5-0.3-0.7-0.4v2.5h-1.5
			v-8.2h0.9c0.2,0,0.3,0.1,0.4,0.3L25,265.7z M33.7,268.4c-0.4,0-0.7,0.1-1.1,0.1c-0.2,0-0.5,0.1-0.7,0.2c-0.1,0.1-0.3,0.2-0.4,0.3
			c-0.1,0.1-0.1,0.2-0.1,0.4c0,0.2,0.1,0.4,0.2,0.6c0.2,0.1,0.4,0.2,0.6,0.2c0.3,0,0.5,0,0.8-0.2c0.2-0.1,0.5-0.3,0.7-0.5
			L33.7,268.4z M30.3,265.7c0.7-0.6,1.6-1,2.6-1c0.3,0,0.7,0.1,1,0.2c0.3,0.1,0.5,0.3,0.7,0.5c0.2,0.2,0.4,0.5,0.4,0.8
			c0.1,0.3,0.2,0.6,0.2,1v3.9h-0.7c-0.1,0-0.2,0-0.3-0.1c-0.1-0.1-0.2-0.2-0.2-0.3l-0.1-0.4c-0.1,0.1-0.3,0.3-0.5,0.4
			c-0.1,0.1-0.3,0.2-0.5,0.3c-0.2,0.1-0.3,0.1-0.5,0.2c-0.2,0-0.4,0.1-0.6,0.1c-0.2,0-0.5,0-0.7-0.1c-0.2-0.1-0.4-0.2-0.6-0.3
			c-0.2-0.1-0.3-0.3-0.4-0.5c-0.1-0.2-0.1-0.5-0.1-0.7c0-0.2,0-0.3,0.1-0.5c0.1-0.2,0.1-0.3,0.3-0.4c0.1-0.2,0.3-0.3,0.5-0.4
			c0.2-0.1,0.4-0.2,0.7-0.3c0.3-0.1,0.6-0.2,1-0.2c0.4-0.1,0.8-0.1,1.2-0.1v-0.4c0-0.3-0.1-0.7-0.3-0.9c-0.2-0.2-0.5-0.3-0.8-0.3
			c-0.2,0-0.4,0-0.6,0.1c-0.1,0.1-0.3,0.1-0.4,0.2c-0.1,0.1-0.2,0.1-0.3,0.2c-0.1,0.1-0.2,0.1-0.3,0.1c-0.1,0-0.2,0-0.3-0.1
			c-0.1-0.1-0.1-0.1-0.2-0.2L30.3,265.7z M42.2,271h-1.5v-5h-1.5c0,0.7-0.1,1.3-0.2,2c-0.1,0.5-0.2,0.9-0.4,1.4
			c-0.1,0.3-0.3,0.6-0.5,0.9c-0.1,0.2-0.3,0.4-0.5,0.5c-0.2,0.1-0.4,0.2-0.6,0.3c-0.2,0-0.4,0.1-0.6,0.1c-0.2,0-0.3,0-0.5-0.1
			c-0.1,0-0.2-0.1-0.2-0.2v-0.9h0.4c0.1,0,0.3,0,0.4-0.1c0.1,0,0.3-0.1,0.4-0.2c0.1-0.2,0.3-0.3,0.4-0.5c0.1-0.3,0.2-0.6,0.3-0.9
			c0.1-0.5,0.2-0.9,0.3-1.4c0.1-0.5,0.1-1.2,0.2-2h4.2L42.2,271z"/>
		<path class="st3" d="M24,291h-1.6v-7.4H20c-0.1,1.1-0.1,2-0.2,2.8c-0.1,0.7-0.2,1.4-0.4,2c-0.1,0.5-0.3,0.9-0.5,1.4
			c-0.1,0.3-0.3,0.6-0.6,0.8c-0.2,0.2-0.4,0.3-0.7,0.4c-0.3,0.1-0.5,0.1-0.8,0.1c-0.2,0-0.4,0-0.6-0.1c-0.1-0.1-0.2-0.1-0.2-0.2v-1
			h0.5c0.1,0,0.2,0,0.3,0c0.1,0,0.2-0.1,0.3-0.1c0.1-0.1,0.2-0.2,0.3-0.3c0.1-0.2,0.2-0.4,0.3-0.6c0.1-0.3,0.2-0.6,0.3-0.9
			c0.1-0.4,0.2-0.9,0.2-1.3c0.1-0.5,0.1-1.1,0.2-1.8c0.1-0.7,0.1-1.4,0.1-2.3H24L24,291z M28.2,284.7c0.4,0,0.8,0.1,1.2,0.2
			c0.4,0.1,0.7,0.4,1,0.6c0.3,0.3,0.5,0.6,0.6,1c0.3,0.9,0.3,1.8,0,2.6c-0.1,0.4-0.3,0.7-0.6,1c-0.3,0.3-0.6,0.5-1,0.6
			c-0.4,0.2-0.8,0.2-1.2,0.2c-0.4,0-0.9-0.1-1.3-0.2c-0.4-0.1-0.7-0.4-1-0.6c-0.3-0.3-0.5-0.6-0.6-1c-0.3-0.9-0.3-1.8,0-2.6
			c0.1-0.4,0.3-0.7,0.6-1c0.3-0.3,0.6-0.5,1-0.6C27.3,284.8,27.8,284.7,28.2,284.7z M28.2,289.9c0.4,0,0.9-0.2,1.1-0.5
			c0.3-0.5,0.4-1,0.4-1.5c0-0.5-0.1-1.1-0.4-1.5c-0.3-0.4-0.7-0.6-1.1-0.5c-0.5,0-0.9,0.2-1.2,0.5c-0.5,0.9-0.5,2.1,0,3
			C27.3,289.8,27.8,290,28.2,289.9L28.2,289.9z M36,285.2c0.1-0.1,0.2-0.2,0.3-0.3c0.1-0.1,0.3-0.1,0.4-0.1h1.2l-1.4,2.3
			c-0.1,0.1-0.2,0.3-0.3,0.4c-0.1,0.1-0.2,0.2-0.4,0.2c0.2,0.1,0.4,0.1,0.5,0.3c0.1,0.1,0.3,0.3,0.3,0.4l1.4,2.5h-1
			c-0.2,0-0.4,0-0.6-0.1c-0.2-0.1-0.3-0.2-0.4-0.4l-0.9-1.7c-0.1-0.1-0.2-0.3-0.3-0.3c-0.1-0.1-0.3-0.1-0.4-0.1h-0.6v2.7h-1.5v-6.2
			h1.5v2.5h0.5c0.3,0,0.5-0.1,0.7-0.4L36,285.2z M41.4,284.7c0.4,0,0.8,0.1,1.2,0.2c0.4,0.1,0.7,0.4,1,0.6c0.3,0.3,0.5,0.6,0.6,1
			c0.3,0.9,0.3,1.8,0,2.6c-0.1,0.4-0.3,0.7-0.6,1c-0.3,0.3-0.6,0.5-1,0.6c-0.4,0.2-0.8,0.2-1.2,0.2c-0.4,0-0.9-0.1-1.3-0.2
			c-0.4-0.1-0.7-0.4-1-0.6c-0.3-0.3-0.5-0.6-0.6-1c-0.3-0.9-0.3-1.8,0-2.6c0.1-0.4,0.3-0.7,0.6-1c0.3-0.3,0.6-0.5,1-0.6
			C40.5,284.8,41,284.7,41.4,284.7z M41.4,289.9c0.4,0,0.9-0.2,1.1-0.5c0.3-0.5,0.4-1,0.4-1.5c0-0.5-0.1-1.1-0.4-1.5
			c-0.3-0.4-0.7-0.6-1.1-0.5c-0.5,0-0.9,0.2-1.2,0.5c-0.5,0.9-0.5,2.1,0,3C40.5,289.8,40.9,290,41.4,289.9L41.4,289.9z M52.7,284.8
			v6.2h-1.3v-3.4c0-0.1,0-0.3,0-0.5c0-0.2,0-0.3,0.1-0.5l-1.8,3.3c-0.1,0.2-0.2,0.3-0.4,0.3H49c-0.2,0-0.3-0.1-0.4-0.3l-1.8-3.3
			c0,0.2,0,0.3,0.1,0.5c0,0.2,0,0.3,0,0.5v3.4h-1.3v-6.2h1.2c0.1,0,0.2,0,0.3,0.1c0.1,0.1,0.2,0.1,0.3,0.3l1.5,2.6
			c0.1,0.1,0.1,0.2,0.2,0.4c0.1,0.1,0.1,0.3,0.2,0.4c0-0.1,0.1-0.3,0.2-0.4c0.1-0.1,0.1-0.3,0.2-0.4l1.4-2.6
			c0.1-0.1,0.1-0.2,0.3-0.3c0.1,0,0.2-0.1,0.3-0.1L52.7,284.8z M56.9,284.7c0.4,0,0.8,0.1,1.2,0.2c0.4,0.1,0.7,0.4,1,0.6
			c0.3,0.3,0.5,0.6,0.6,1c0.3,0.9,0.3,1.8,0,2.6c-0.1,0.4-0.3,0.7-0.6,1c-0.3,0.3-0.6,0.5-1,0.6c-0.4,0.2-0.8,0.2-1.2,0.2
			c-0.4,0-0.9-0.1-1.3-0.2c-0.4-0.1-0.7-0.4-1-0.6c-0.3-0.3-0.5-0.6-0.6-1c-0.3-0.9-0.3-1.8,0-2.6c0.1-0.4,0.3-0.7,0.6-1
			c0.3-0.3,0.6-0.5,1-0.6C56,284.8,56.4,284.7,56.9,284.7L56.9,284.7z M56.9,289.9c0.4,0,0.9-0.2,1.1-0.5c0.3-0.5,0.4-1,0.4-1.5
			c0-0.5-0.1-1.1-0.4-1.5c-0.3-0.4-0.7-0.6-1.1-0.5c-0.5,0-0.9,0.2-1.2,0.5c-0.5,0.9-0.5,2.1,0,3C56,289.8,56.4,290,56.9,289.9
			L56.9,289.9z M66.1,285.9h-2.2v5.1h-1.5v-5.1h-2.2v-1.1h5.9V285.9z M72.5,284.8v6.2h-1.5v-3.6c0-0.1,0-0.2,0-0.3
			c0-0.1,0-0.2,0-0.3c-0.1,0.2-0.2,0.3-0.3,0.5c0,0,0,0.1-0.1,0.2c-0.1,0.1-0.2,0.2-0.3,0.4c-0.1,0.2-0.2,0.3-0.4,0.5
			c-0.1,0.2-0.3,0.4-0.4,0.6c-0.3,0.5-0.7,1-1.2,1.7c-0.1,0.1-0.1,0.2-0.2,0.2c-0.1,0.1-0.2,0.1-0.3,0.1H67v-6.2h1.5v3.6
			c0,0.1,0,0.2,0,0.3c0,0.1,0,0.2,0,0.3c0.1-0.2,0.2-0.3,0.3-0.5c0,0,0-0.1,0.1-0.2c0.1-0.1,0.2-0.2,0.3-0.4
			c0.1-0.2,0.2-0.3,0.4-0.5c0.1-0.2,0.3-0.4,0.4-0.6c0.3-0.5,0.7-1,1.2-1.7c0.1-0.1,0.1-0.2,0.2-0.2c0.1-0.1,0.2-0.1,0.3-0.1
			L72.5,284.8z M76.5,290c0.3,0,0.5-0.1,0.7-0.2c0.2-0.2,0.3-0.4,0.3-0.6c0-0.1,0-0.2,0-0.3c0-0.1-0.1-0.2-0.2-0.3
			c-0.1-0.1-0.2-0.1-0.3-0.2c-0.2,0-0.3-0.1-0.5-0.1h-1.1v1.6H76.5z M75.4,285.8v1.6h1c0.1,0,0.3,0,0.4-0.1c0.1,0,0.2-0.1,0.3-0.2
			c0.2-0.2,0.3-0.4,0.3-0.6c0-0.1,0-0.2,0-0.3c0-0.1-0.1-0.2-0.2-0.2c-0.1-0.1-0.2-0.1-0.3-0.2c-0.2,0-0.3-0.1-0.5-0.1L75.4,285.8z
			 M76.4,284.8c0.3,0,0.7,0,1,0.1c0.3,0.1,0.5,0.2,0.7,0.3c0.2,0.1,0.3,0.3,0.4,0.5c0.1,0.2,0.1,0.4,0.1,0.6c0,0.1,0,0.3-0.1,0.4
			c0,0.1-0.1,0.3-0.2,0.4c-0.1,0.1-0.2,0.3-0.3,0.4c-0.2,0.1-0.4,0.2-0.6,0.3c0.2,0,0.4,0.1,0.6,0.2c0.2,0.1,0.3,0.2,0.4,0.3
			c0.1,0.1,0.2,0.3,0.3,0.4c0.1,0.2,0.1,0.3,0.1,0.5c0,0.3-0.1,0.6-0.2,0.8c-0.1,0.2-0.3,0.4-0.5,0.6c-0.2,0.2-0.5,0.3-0.8,0.3
			c-0.3,0.1-0.6,0.1-0.9,0.1H74v-6.2L76.4,284.8z"/>
		<path class="st4" d="M19.6,308.3v-2.4c0-0.2,0-0.5,0-0.7l-2.2,3.1L19.6,308.3z M21.5,308.3v0.7c0,0.1,0,0.1-0.1,0.2
			c0,0-0.1,0.1-0.2,0.1h-0.7v1.8h-1.1v-1.8h-3c-0.2,0-0.3-0.1-0.3-0.3l-0.1-0.6l3.4-4.6h1.2v4.5H21.5z M23.8,306.4
			c0.2,0,0.3-0.1,0.5-0.1c0.1,0,0.3,0,0.4,0c0.3,0,0.7,0.1,1,0.2c0.3,0.1,0.5,0.3,0.7,0.5c0.2,0.2,0.3,0.4,0.4,0.7
			c0.1,0.3,0.2,0.6,0.1,0.9c0,0.4-0.1,0.7-0.2,1c-0.1,0.3-0.3,0.6-0.6,0.8c-0.2,0.2-0.5,0.4-0.9,0.5c-0.3,0.1-0.7,0.2-1.1,0.2
			c-0.2,0-0.4,0-0.6-0.1c-0.2,0-0.4-0.1-0.6-0.2c-0.2-0.1-0.3-0.2-0.5-0.3c-0.1-0.1-0.3-0.2-0.4-0.3l0.4-0.5
			c0.1-0.1,0.2-0.2,0.3-0.2c0.1,0,0.2,0,0.3,0.1c0.1,0.1,0.2,0.1,0.3,0.2c0.1,0.1,0.3,0.1,0.4,0.2c0.2,0.1,0.4,0.1,0.5,0.1
			c0.2,0,0.4,0,0.6-0.1c0.2-0.1,0.3-0.2,0.4-0.3c0.1-0.1,0.2-0.3,0.3-0.5c0.1-0.2,0.1-0.4,0.1-0.6c0-0.3-0.1-0.7-0.3-0.9
			c-0.3-0.2-0.6-0.4-1-0.3c-0.4,0-0.7,0.1-1.1,0.2l-0.8-0.2l0.6-3.5h3.6v0.5c0,0.2-0.1,0.3-0.2,0.4c-0.2,0.1-0.4,0.2-0.6,0.2h-2
			L23.8,306.4z M28.1,310.3c0-0.1,0-0.2,0.1-0.3c0-0.1,0.1-0.2,0.2-0.2c0.1-0.1,0.3-0.2,0.5-0.2c0.1,0,0.2,0,0.3,0.1
			c0.1,0,0.2,0.1,0.2,0.2c0.1,0.1,0.1,0.1,0.2,0.2c0,0.1,0.1,0.2,0.1,0.3c0,0.1,0,0.2-0.1,0.3c0,0.1-0.1,0.2-0.2,0.2
			c-0.1,0.1-0.2,0.1-0.2,0.2c-0.1,0-0.2,0.1-0.3,0.1c-0.1,0-0.2,0-0.3-0.1c-0.1,0-0.2-0.1-0.2-0.2c-0.1-0.1-0.1-0.1-0.2-0.2
			C28.1,310.5,28.1,310.4,28.1,310.3L28.1,310.3z M28.1,306.8c0-0.1,0-0.2,0.1-0.3c0-0.1,0.1-0.2,0.2-0.2c0.1-0.1,0.3-0.2,0.5-0.2
			c0.1,0,0.2,0,0.3,0.1c0.1,0,0.2,0.1,0.2,0.2c0.1,0.1,0.1,0.1,0.2,0.2c0,0.1,0.1,0.2,0.1,0.3c0,0.1,0,0.2-0.1,0.3
			c0,0.1-0.1,0.2-0.2,0.2c-0.1,0.1-0.2,0.1-0.2,0.2c-0.1,0-0.2,0.1-0.3,0.1c-0.1,0-0.2,0-0.3-0.1c-0.1,0-0.2-0.1-0.2-0.2
			c-0.1-0.1-0.1-0.1-0.2-0.2C28.1,307,28.1,306.9,28.1,306.8L28.1,306.8z M35.7,307.4c0,0.6-0.1,1.1-0.2,1.6
			c-0.1,0.4-0.3,0.8-0.6,1.1c-0.2,0.3-0.5,0.5-0.8,0.7c-0.7,0.3-1.4,0.3-2.1,0c-0.3-0.2-0.6-0.4-0.8-0.7c-0.3-0.3-0.4-0.7-0.6-1.1
			c-0.3-1.1-0.3-2.2,0-3.3c0.1-0.4,0.3-0.8,0.6-1.1c0.2-0.3,0.5-0.5,0.8-0.7c0.7-0.3,1.4-0.3,2.1,0c0.3,0.2,0.6,0.4,0.8,0.7
			c0.3,0.3,0.4,0.7,0.6,1.1C35.7,306.3,35.7,306.8,35.7,307.4L35.7,307.4z M34.5,307.4c0-0.4,0-0.9-0.1-1.3
			c-0.1-0.3-0.2-0.6-0.3-0.8c-0.1-0.2-0.3-0.3-0.4-0.4c-0.3-0.2-0.7-0.2-1,0c-0.2,0.1-0.3,0.2-0.4,0.4c-0.1,0.3-0.2,0.5-0.3,0.8
			c-0.1,0.9-0.1,1.7,0,2.6c0.1,0.3,0.2,0.6,0.3,0.8c0.1,0.2,0.3,0.3,0.4,0.4c0.3,0.2,0.7,0.2,1,0c0.2-0.1,0.3-0.2,0.4-0.4
			c0.1-0.3,0.3-0.5,0.3-0.8C34.4,308.3,34.5,307.8,34.5,307.4L34.5,307.4z M41.5,307.4c0,0.6-0.1,1.1-0.2,1.6
			c-0.1,0.4-0.3,0.8-0.6,1.1c-0.2,0.3-0.5,0.5-0.8,0.7c-0.7,0.3-1.4,0.3-2.1,0c-0.3-0.2-0.6-0.4-0.8-0.7c-0.3-0.3-0.4-0.7-0.6-1.1
			c-0.3-1.1-0.3-2.2,0-3.3c0.1-0.4,0.3-0.8,0.6-1.1c0.2-0.3,0.5-0.5,0.8-0.7c0.7-0.3,1.4-0.3,2.1,0c0.3,0.2,0.6,0.4,0.8,0.7
			c0.3,0.3,0.4,0.7,0.6,1.1C41.5,306.3,41.5,306.8,41.5,307.4L41.5,307.4z M40.3,307.4c0-0.4,0-0.9-0.1-1.3
			c-0.1-0.3-0.2-0.6-0.3-0.8c-0.1-0.2-0.3-0.3-0.4-0.4c-0.3-0.2-0.7-0.2-1,0c-0.2,0.1-0.3,0.2-0.4,0.4c-0.1,0.3-0.2,0.5-0.3,0.8
			c-0.1,0.9-0.1,1.7,0,2.6c0.1,0.3,0.2,0.6,0.3,0.8c0.1,0.2,0.3,0.3,0.4,0.4c0.3,0.2,0.7,0.2,1,0c0.2-0.1,0.3-0.2,0.4-0.4
			c0.1-0.3,0.3-0.5,0.3-0.8C40.2,308.3,40.3,307.8,40.3,307.4L40.3,307.4z"/>
		<g>
			<defs>
				<rect id="SVGID_00000055677485490143726590000001824839694448153738_" x="168" y="254" width="207" height="64"/>
			</defs>
			<clipPath id="SVGID_00000174561599064943442520000014751599075774985886_">
				<use xlink:href="#SVGID_00000055677485490143726590000001824839694448153738_"  style="overflow:visible;"/>
			</clipPath>
			<g style="clip-path:url(#SVGID_00000174561599064943442520000014751599075774985886_);">
				<path class="st6" d="M176,254h48c4.4,0,8,3.6,8,8v48c0,4.4-3.6,8-8,8h-48c-4.4,0-8-3.6-8-8v-48C168,257.6,171.6,254,176,254z"/>
				<path class="st3" d="M189,292.6c0.2,0,0.4-0.1,0.6-0.1c0.2,0,0.4,0,0.6,0c0.5,0,1,0.1,1.4,0.2c0.4,0.1,0.7,0.4,1,0.7
					c0.3,0.3,0.5,0.6,0.6,1c0.1,0.4,0.2,0.8,0.2,1.2c0,0.5-0.1,1-0.3,1.5c-0.2,0.4-0.4,0.8-0.8,1.1c-0.3,0.3-0.8,0.6-1.2,0.7
					c-0.5,0.2-1,0.3-1.5,0.3c-0.3,0-0.6,0-0.9-0.1c-0.3-0.1-0.5-0.1-0.8-0.3c-0.2-0.1-0.5-0.2-0.7-0.4c-0.2-0.1-0.4-0.3-0.6-0.5
					l0.5-0.7c0.1-0.2,0.3-0.2,0.4-0.2c0.1,0,0.3,0,0.4,0.1c0.1,0.1,0.3,0.2,0.4,0.2c0.2,0.1,0.4,0.2,0.6,0.2
					c0.2,0.1,0.5,0.1,0.8,0.1c0.3,0,0.6,0,0.8-0.2c0.2-0.1,0.4-0.2,0.6-0.4c0.2-0.2,0.3-0.4,0.4-0.7c0.1-0.3,0.1-0.6,0.1-0.8
					c0-0.5-0.1-0.9-0.5-1.3c-0.4-0.3-0.9-0.5-1.4-0.5c-0.5,0-1,0.1-1.5,0.3l-1.1-0.3l0.8-4.9h5v0.7c0,0.2-0.1,0.4-0.2,0.6
					c-0.2,0.2-0.5,0.3-0.8,0.2h-2.8L189,292.6z M194.9,298c0-0.1,0-0.3,0.1-0.4c0.1-0.1,0.1-0.2,0.2-0.3c0.1-0.1,0.2-0.2,0.3-0.2
					c0.1-0.1,0.3-0.1,0.4-0.1c0.1,0,0.3,0,0.4,0.1c0.1,0.1,0.2,0.1,0.3,0.2c0.1,0.1,0.2,0.2,0.2,0.3c0.1,0.1,0.1,0.3,0.1,0.4
					c0,0.1,0,0.3-0.1,0.4c-0.1,0.1-0.1,0.2-0.2,0.3c-0.1,0.1-0.2,0.2-0.3,0.2c-0.1,0.1-0.3,0.1-0.4,0.1c-0.1,0-0.3,0-0.4-0.1
					c-0.1,0-0.2-0.1-0.3-0.2c-0.1-0.1-0.2-0.2-0.2-0.3C194.9,298.3,194.9,298.2,194.9,298L194.9,298z M204.8,297.7v1.3h-5.6v-1.3
					h2.1v-5.9c0-0.2,0-0.5,0-0.7l-1.5,1.2c-0.1,0.1-0.2,0.1-0.3,0.1c-0.1,0-0.2,0-0.2,0c-0.1,0-0.1,0-0.2-0.1c0,0-0.1-0.1-0.1-0.1
					l-0.5-0.7l3.1-2.6h1.4v8.8L204.8,297.7z M212.6,297.4c0.2,0,0.3,0,0.4,0.2c0.1,0.1,0.2,0.3,0.2,0.4v1h-6.9v-0.6
					c0-0.1,0-0.2,0.1-0.4c0.1-0.1,0.1-0.3,0.2-0.4l3.1-3.1c0.3-0.3,0.5-0.5,0.7-0.7c0.2-0.2,0.4-0.5,0.5-0.7
					c0.1-0.2,0.2-0.5,0.3-0.7c0.1-0.2,0.1-0.5,0.1-0.8c0-0.2,0-0.4-0.1-0.6c-0.1-0.2-0.2-0.3-0.3-0.5c-0.1-0.1-0.3-0.2-0.5-0.3
					c-0.4-0.1-0.8-0.1-1.2,0c-0.2,0.1-0.3,0.1-0.5,0.2c-0.1,0.1-0.3,0.2-0.3,0.4c-0.1,0.1-0.2,0.3-0.2,0.5c0,0.2-0.2,0.3-0.3,0.4
					c-0.2,0.1-0.4,0.1-0.5,0l-0.9-0.2c0.1-0.4,0.2-0.9,0.4-1.3c0.2-0.4,0.4-0.7,0.7-0.9c0.3-0.2,0.7-0.4,1-0.6
					c0.4-0.1,0.8-0.2,1.3-0.2c0.4,0,0.9,0.1,1.3,0.2c0.4,0.1,0.7,0.3,1,0.6c0.3,0.3,0.5,0.6,0.6,0.9c0.2,0.4,0.2,0.8,0.2,1.2
					c0,0.4-0.1,0.7-0.2,1c-0.1,0.3-0.3,0.6-0.4,0.9c-0.2,0.3-0.4,0.6-0.6,0.8c-0.2,0.3-0.5,0.5-0.8,0.8l-2.3,2.3
					c0.2-0.1,0.4-0.1,0.7-0.1c0.2,0,0.4-0.1,0.6-0.1L212.6,297.4z"/>
				<path class="st3" d="M199.9,278h-1v-6.4h-3.6v6.4h-1v-7.2h5.5L199.9,278z M205.9,277.3v0.7H202v-0.7h1.5v-4.9c0-0.1,0-0.3,0-0.4
					l-1.3,1.1c0,0-0.1,0.1-0.1,0.1c0,0-0.1,0-0.1,0c0,0-0.1,0-0.1,0c0,0-0.1,0-0.1-0.1l-0.3-0.4l2.1-1.8h0.7v6.5L205.9,277.3z"/>
				<path class="st6" d="M242,254h48c4.4,0,8,3.6,8,8v48c0,4.4-3.6,8-8,8h-48c-4.4,0-8-3.6-8-8v-48C234,257.6,237.6,254,242,254z"/>
				<path class="st3" d="M252.9,291.7c0.1-0.4,0.2-0.9,0.4-1.3c0.2-0.4,0.4-0.7,0.7-0.9c0.3-0.2,0.7-0.4,1-0.6
					c0.4-0.1,0.8-0.2,1.3-0.2c0.4,0,0.9,0.1,1.3,0.2c0.4,0.1,0.7,0.3,1,0.6c0.3,0.2,0.5,0.5,0.6,0.8c0.1,0.3,0.2,0.7,0.2,1
					c0,0.3,0,0.6-0.1,0.9c-0.1,0.2-0.2,0.4-0.3,0.6c-0.1,0.2-0.3,0.3-0.5,0.5c-0.2,0.1-0.4,0.2-0.7,0.3c0.5,0.1,1,0.4,1.4,0.9
					c0.3,0.4,0.5,0.9,0.4,1.5c0,0.5-0.1,0.9-0.3,1.3c-0.2,0.4-0.4,0.7-0.8,1c-0.3,0.3-0.7,0.5-1.1,0.6c-0.4,0.1-0.9,0.2-1.3,0.2
					c-0.4,0-0.9-0.1-1.3-0.2c-0.4-0.1-0.7-0.3-1-0.5c-0.3-0.2-0.5-0.5-0.7-0.8c-0.2-0.4-0.4-0.7-0.5-1.1l0.8-0.3
					c0.2-0.1,0.4-0.1,0.6-0.1c0.2,0,0.3,0.1,0.4,0.3c0.1,0.2,0.2,0.3,0.3,0.5c0.1,0.2,0.2,0.3,0.4,0.4c0.3,0.3,0.7,0.4,1.2,0.4
					c0.3,0,0.5,0,0.8-0.1c0.2-0.1,0.4-0.2,0.5-0.4c0.1-0.1,0.3-0.3,0.3-0.5c0.1-0.2,0.1-0.4,0.1-0.6c0-0.2,0-0.4-0.1-0.7
					c-0.1-0.2-0.2-0.4-0.3-0.5c-0.2-0.2-0.4-0.3-0.7-0.3c-0.4-0.1-0.8-0.1-1.2-0.1v-1.2c0.4,0,0.7,0,1.1-0.1
					c0.2-0.1,0.5-0.2,0.7-0.3c0.2-0.1,0.3-0.3,0.4-0.5c0.1-0.2,0.1-0.4,0.1-0.6c0-0.4-0.1-0.8-0.4-1.1c-0.3-0.3-0.7-0.4-1.1-0.4
					c-0.2,0-0.4,0-0.6,0.1c-0.2,0.1-0.3,0.1-0.5,0.2c-0.1,0.1-0.2,0.2-0.3,0.4c-0.1,0.1-0.2,0.3-0.2,0.5c0,0.2-0.2,0.3-0.3,0.4
					c-0.2,0.1-0.4,0.1-0.5,0L252.9,291.7z M260.9,298c0-0.1,0-0.3,0.1-0.4c0.1-0.1,0.1-0.2,0.2-0.3c0.1-0.1,0.2-0.2,0.3-0.2
					c0.1-0.1,0.3-0.1,0.4-0.1c0.1,0,0.3,0,0.4,0.1c0.1,0.1,0.2,0.1,0.3,0.2c0.1,0.1,0.2,0.2,0.2,0.3c0.1,0.1,0.1,0.3,0.1,0.4
					c0,0.1,0,0.3-0.1,0.4c-0.1,0.1-0.1,0.2-0.2,0.3c-0.1,0.1-0.2,0.2-0.3,0.2c-0.1,0.1-0.3,0.1-0.4,0.1c-0.1,0-0.3,0-0.4-0.1
					c-0.1,0-0.2-0.1-0.3-0.2c-0.1-0.1-0.2-0.2-0.2-0.3C260.9,298.3,260.9,298.2,260.9,298z M267.7,297.8c0.3,0,0.5,0,0.7-0.1
					c0.2-0.1,0.4-0.2,0.5-0.3c0.1-0.1,0.3-0.3,0.3-0.5c0.1-0.2,0.1-0.4,0.1-0.7c0-0.5-0.1-0.9-0.5-1.3c-0.8-0.6-1.8-0.6-2.5,0
					c-0.3,0.3-0.5,0.8-0.5,1.3c0,0.2,0,0.4,0.1,0.7c0.1,0.2,0.2,0.4,0.3,0.5c0.2,0.1,0.3,0.3,0.5,0.3
					C267.2,297.7,267.4,297.8,267.7,297.8L267.7,297.8z M267.7,290.1c-0.2,0-0.5,0-0.7,0.1c-0.2,0.1-0.3,0.2-0.5,0.3
					c-0.1,0.1-0.2,0.3-0.3,0.5c-0.1,0.2-0.1,0.4-0.1,0.5c0,0.2,0,0.4,0.1,0.6c0,0.2,0.1,0.4,0.3,0.5c0.1,0.2,0.3,0.3,0.5,0.4
					c0.5,0.2,1,0.2,1.4,0c0.2-0.1,0.3-0.2,0.5-0.4c0.1-0.1,0.2-0.3,0.2-0.5c0.1-0.2,0.1-0.4,0.1-0.6c0-0.2,0-0.4-0.1-0.5
					c-0.1-0.4-0.4-0.6-0.7-0.8C268.1,290.1,267.9,290.1,267.7,290.1L267.7,290.1z M269.4,293.7c0.5,0.2,1,0.5,1.4,0.9
					c0.3,0.4,0.5,1,0.4,1.5c0,0.4-0.1,0.8-0.3,1.2c-0.2,0.4-0.4,0.7-0.7,0.9c-0.3,0.3-0.7,0.5-1.1,0.6c-0.5,0.1-0.9,0.2-1.4,0.2
					c-0.5,0-1-0.1-1.4-0.2c-0.4-0.1-0.8-0.3-1.1-0.6c-0.3-0.3-0.6-0.6-0.7-0.9c-0.2-0.4-0.3-0.8-0.3-1.2c0-0.5,0.1-1.1,0.4-1.5
					c0.3-0.4,0.8-0.8,1.4-0.9c-0.4-0.2-0.8-0.5-1.1-0.9c-0.3-0.4-0.4-0.9-0.4-1.4c0-0.4,0.1-0.7,0.2-1.1c0.2-0.3,0.4-0.6,0.7-0.9
					c0.3-0.3,0.6-0.5,1-0.6c0.4-0.1,0.8-0.2,1.3-0.2c0.4,0,0.9,0.1,1.3,0.2c0.4,0.1,0.7,0.3,1,0.6c0.3,0.2,0.5,0.5,0.7,0.9
					c0.4,0.8,0.3,1.7-0.1,2.4C270.2,293.2,269.8,293.6,269.4,293.7L269.4,293.7z M275.8,297.8c0.3,0,0.5,0,0.7-0.1
					c0.2-0.1,0.4-0.2,0.5-0.3c0.1-0.1,0.3-0.3,0.3-0.5c0.1-0.2,0.1-0.4,0.1-0.7c0-0.5-0.1-0.9-0.5-1.3c-0.8-0.6-1.8-0.6-2.5,0
					c-0.3,0.3-0.5,0.8-0.5,1.3c0,0.2,0,0.4,0.1,0.7c0.1,0.2,0.2,0.4,0.3,0.5c0.2,0.1,0.3,0.3,0.5,0.3
					C275.3,297.7,275.5,297.8,275.8,297.8L275.8,297.8z M275.8,290.1c-0.2,0-0.5,0-0.7,0.1c-0.2,0.1-0.3,0.2-0.5,0.3
					c-0.1,0.1-0.2,0.3-0.3,0.5c-0.1,0.2-0.1,0.4-0.1,0.5c0,0.2,0,0.4,0.1,0.6c0,0.2,0.1,0.4,0.3,0.5c0.1,0.2,0.3,0.3,0.5,0.4
					c0.5,0.2,1,0.2,1.4,0c0.2-0.1,0.3-0.2,0.5-0.4c0.1-0.1,0.2-0.3,0.2-0.5c0.1-0.2,0.1-0.4,0.1-0.6c0-0.2,0-0.4-0.1-0.5
					c-0.1-0.4-0.4-0.6-0.7-0.8C276.2,290.1,276,290.1,275.8,290.1L275.8,290.1z M277.5,293.7c0.5,0.2,1,0.5,1.4,0.9
					c0.3,0.4,0.5,1,0.4,1.5c0,0.4-0.1,0.8-0.3,1.2c-0.2,0.4-0.4,0.7-0.7,0.9c-0.3,0.3-0.7,0.5-1.1,0.6c-0.5,0.1-0.9,0.2-1.4,0.2
					c-0.5,0-1-0.1-1.4-0.2c-0.4-0.1-0.8-0.3-1.1-0.6c-0.3-0.3-0.6-0.6-0.7-0.9c-0.2-0.4-0.3-0.8-0.3-1.2c0-0.5,0.1-1.1,0.4-1.5
					c0.3-0.4,0.8-0.8,1.4-0.9c-0.4-0.2-0.8-0.5-1.1-0.9c-0.3-0.4-0.4-0.9-0.4-1.4c0-0.4,0.1-0.7,0.2-1.1c0.2-0.3,0.4-0.6,0.7-0.9
					c0.3-0.3,0.6-0.5,1-0.6c0.4-0.1,0.8-0.2,1.3-0.2c0.4,0,0.9,0.1,1.3,0.2c0.4,0.1,0.7,0.3,1,0.6c0.3,0.2,0.5,0.5,0.7,0.9
					c0.4,0.8,0.3,1.7-0.1,2.4C278.3,293.2,277.9,293.6,277.5,293.7L277.5,293.7z"/>
				<path class="st3" d="M269.1,278h-1c-0.1,0-0.1,0-0.2-0.1c0,0-0.1-0.1-0.1-0.1l-1.9-3c0,0.1-0.1,0.1-0.1,0.2l-1.9,2.8
					c0,0-0.1,0.1-0.1,0.1c0,0-0.1,0.1-0.2,0.1h-0.9l2.5-3.7l-2.4-3.5h1c0.1,0,0.1,0,0.2,0c0,0,0.1,0.1,0.1,0.1l1.9,2.9
					c0-0.1,0.1-0.2,0.1-0.2l1.8-2.6c0,0,0.1-0.1,0.1-0.1c0,0,0.1,0,0.1,0h0.9l-2.4,3.4L269.1,278z"/>
				<path class="st6" d="M308,254h48c4.4,0,8,3.6,8,8v48c0,4.4-3.6,8-8,8h-48c-4.4,0-8-3.6-8-8v-48C300,257.6,303.6,254,308,254z"/>
				<path class="st3" d="M325.4,297.7v1.3h-5.6v-1.3h2.1v-5.9c0-0.2,0-0.5,0-0.7l-1.5,1.2c-0.1,0.1-0.2,0.1-0.3,0.1
					c-0.1,0-0.2,0-0.2,0c-0.1,0-0.1,0-0.2-0.1c0,0-0.1-0.1-0.1-0.1l-0.5-0.7l3.1-2.6h1.4v8.8H325.4z M326.9,298c0-0.1,0-0.3,0.1-0.4
					c0.1-0.1,0.1-0.2,0.2-0.3c0.1-0.1,0.2-0.2,0.3-0.2c0.1-0.1,0.3-0.1,0.4-0.1c0.1,0,0.3,0,0.4,0.1c0.1,0.1,0.2,0.1,0.3,0.2
					c0.1,0.1,0.2,0.2,0.2,0.3c0.1,0.1,0.1,0.3,0.1,0.4c0,0.1,0,0.3-0.1,0.4c-0.1,0.1-0.1,0.2-0.2,0.3c-0.1,0.1-0.2,0.2-0.3,0.2
					c-0.1,0.1-0.3,0.1-0.4,0.1c-0.1,0-0.3,0-0.4-0.1c-0.1,0-0.2-0.1-0.3-0.2c-0.1-0.1-0.2-0.2-0.2-0.3
					C326.9,298.3,326.9,298.2,326.9,298L326.9,298z M337.2,288.9v0.7c0,0.2,0,0.4-0.1,0.5c0,0.1-0.1,0.2-0.1,0.3l-3.8,7.9
					c-0.1,0.2-0.2,0.3-0.3,0.4c-0.2,0.1-0.4,0.2-0.6,0.2H331l3.9-7.7c0.1-0.2,0.2-0.3,0.3-0.4c0.1-0.1,0.2-0.3,0.3-0.4h-4.8
					c-0.2,0-0.4-0.2-0.4-0.4v-1.2H337.2z M342.7,295.2v-3.3c0-0.3,0-0.7,0.1-1l-3.1,4.3L342.7,295.2z M345.5,295.2v1
					c0,0.1,0,0.2-0.1,0.2c-0.1,0.1-0.2,0.1-0.3,0.1h-0.9v2.5h-1.5v-2.5h-4.3c-0.2,0-0.4-0.2-0.5-0.4l-0.2-0.9l4.8-6.4h1.6v6.3
					L345.5,295.2z"/>
				<path class="st3" d="M331.9,278h-1v-6.4h-3.6v6.4h-1v-7.2h5.5V278z M337.7,277.2c0.1,0,0.2,0,0.2,0.1c0.1,0.1,0.1,0.1,0.1,0.2
					v0.5h-4.8v-0.3c0-0.1,0-0.1,0-0.2c0-0.1,0.1-0.1,0.1-0.2l2.3-2.3c0.2-0.2,0.4-0.4,0.5-0.6c0.1-0.2,0.3-0.3,0.4-0.5
					c0.1-0.2,0.2-0.4,0.3-0.5c0.1-0.2,0.1-0.4,0.1-0.6c0-0.2,0-0.4-0.1-0.5c-0.1-0.2-0.2-0.3-0.3-0.4c-0.1-0.1-0.3-0.2-0.4-0.2
					c-0.2-0.1-0.3-0.1-0.5-0.1c-0.2,0-0.3,0-0.5,0.1c-0.1,0.1-0.3,0.1-0.4,0.2c-0.1,0.1-0.2,0.2-0.3,0.3c-0.1,0.1-0.1,0.3-0.2,0.4
					c0,0.1-0.1,0.2-0.2,0.2c-0.1,0-0.2,0.1-0.3,0l-0.5-0.1c0-0.3,0.1-0.6,0.3-0.9c0.3-0.5,0.7-0.9,1.2-1c0.6-0.2,1.2-0.2,1.7,0
					c0.3,0.1,0.5,0.2,0.7,0.4c0.2,0.2,0.4,0.4,0.5,0.6c0.1,0.3,0.2,0.6,0.2,0.8c0,0.3,0,0.5-0.1,0.7c-0.1,0.2-0.2,0.4-0.3,0.6
					c-0.1,0.2-0.3,0.4-0.5,0.6c-0.2,0.2-0.4,0.4-0.6,0.6l-1.9,1.9c0.1,0,0.3-0.1,0.4-0.1c0.1,0,0.3,0,0.4,0H337.7z"/>
				<path class="st6" d="M374,254h81c4.4,0,8,3.6,8,8v48c0,4.4-3.6,8-8,8h-81c-4.4,0-8-3.6-8-8v-48C366,257.6,369.6,254,374,254z"/>
			</g>
		</g>
		<rect y="164" class="st2" width="375" height="80"/>
		<path class="st3" d="M21.5,185.7l-1.1-2.9c-0.1-0.1-0.1-0.3-0.2-0.5s-0.1-0.4-0.2-0.6c-0.1,0.2-0.1,0.4-0.2,0.6
			c-0.1,0.2-0.1,0.3-0.2,0.5l-1,2.9H21.5z M24.4,189h-1.2c-0.1,0-0.2,0-0.3-0.1c-0.1-0.1-0.2-0.2-0.2-0.3l-0.6-1.8h-3.6l-0.6,1.8
			c0,0.1-0.1,0.2-0.2,0.3c-0.1,0.1-0.2,0.1-0.3,0.1h-1.3l3.4-8.7H21L24.4,189z M26.5,187.4c0.1,0.2,0.3,0.3,0.5,0.4
			c0.2,0.1,0.4,0.1,0.6,0.1c0.2,0,0.4,0,0.6-0.1c0.2-0.1,0.3-0.2,0.5-0.4c0.1-0.2,0.2-0.4,0.3-0.6c0.1-0.3,0.1-0.6,0.1-0.9
			c0-0.3,0-0.6-0.1-0.9c0-0.2-0.1-0.4-0.2-0.6c-0.1-0.1-0.2-0.3-0.4-0.3c-0.2-0.1-0.3-0.1-0.5-0.1c-0.3,0-0.5,0.1-0.8,0.2
			c-0.2,0.1-0.4,0.3-0.6,0.5L26.5,187.4z M26.4,183.7c0.2-0.3,0.5-0.5,0.9-0.7c0.3-0.2,0.7-0.3,1.1-0.3c0.3,0,0.6,0.1,0.9,0.2
			c0.3,0.1,0.5,0.4,0.7,0.6c0.2,0.3,0.4,0.6,0.5,1c0.1,0.4,0.2,0.9,0.2,1.3c0,0.4-0.1,0.9-0.2,1.3c-0.1,0.4-0.3,0.7-0.5,1
			c-0.5,0.6-1.2,0.9-1.9,0.9c-0.3,0-0.6,0-0.9-0.2c-0.2-0.1-0.5-0.3-0.7-0.4v2.5H25v-8.2h0.9c0.2,0,0.3,0.1,0.4,0.3L26.4,183.7z
			 M36.2,184.1c0,0-0.1,0.1-0.1,0.1c-0.1,0-0.1,0.1-0.2,0c-0.1,0-0.2,0-0.2-0.1c-0.1,0-0.2-0.1-0.3-0.2c-0.1-0.1-0.2-0.1-0.4-0.2
			c-0.4-0.1-0.8-0.1-1.2,0.1c-0.2,0.1-0.4,0.2-0.5,0.4c-0.1,0.2-0.2,0.4-0.3,0.6c-0.1,0.6-0.1,1.2,0,1.7c0.1,0.2,0.2,0.5,0.3,0.6
			c0.1,0.2,0.3,0.3,0.5,0.4c0.2,0.1,0.4,0.1,0.6,0.1c0.2,0,0.4,0,0.6-0.1c0.1-0.1,0.3-0.1,0.4-0.2c0.1-0.1,0.2-0.1,0.3-0.2
			c0.1-0.1,0.2-0.1,0.3-0.1c0.1,0,0.2,0,0.3,0.1l0.4,0.5c-0.2,0.2-0.3,0.3-0.5,0.5c-0.4,0.3-0.8,0.4-1.2,0.5c-0.2,0-0.4,0-0.6,0
			c-0.4,0-0.7-0.1-1.1-0.2c-0.3-0.1-0.6-0.4-0.9-0.6c-0.3-0.3-0.5-0.6-0.6-1c-0.3-0.8-0.3-1.8,0-2.6c0.1-0.4,0.3-0.7,0.6-1
			c0.3-0.3,0.6-0.5,0.9-0.7c0.4-0.2,0.8-0.2,1.3-0.2c0.4,0,0.8,0.1,1.2,0.2c0.4,0.1,0.7,0.4,0.9,0.6L36.2,184.1z M41.5,185.2
			c0-0.2,0-0.4-0.1-0.5c0-0.2-0.1-0.3-0.2-0.4c-0.1-0.1-0.3-0.2-0.4-0.3c-0.2-0.1-0.4-0.1-0.6-0.1c-0.4,0-0.7,0.1-1,0.4
			c-0.3,0.3-0.4,0.7-0.5,1H41.5z M38.6,186.1c0,0.3,0.1,0.6,0.2,0.8c0.1,0.2,0.2,0.4,0.3,0.6c0.1,0.1,0.3,0.3,0.5,0.3
			c0.2,0.1,0.4,0.1,0.7,0.1c0.2,0,0.4,0,0.6-0.1c0.2,0,0.3-0.1,0.5-0.2c0.1-0.1,0.2-0.1,0.3-0.2c0.1-0.1,0.2-0.1,0.3-0.1
			c0.1,0,0.2,0,0.3,0.1l0.4,0.5c-0.2,0.2-0.3,0.4-0.6,0.5c-0.2,0.1-0.4,0.2-0.6,0.3c-0.2,0.1-0.4,0.1-0.7,0.2c-0.2,0-0.4,0-0.7,0
			c-0.4,0-0.8-0.1-1.2-0.2c-0.4-0.1-0.7-0.4-1-0.6c-0.3-0.3-0.5-0.6-0.6-1c-0.2-0.5-0.2-0.9-0.2-1.4c0-0.4,0.1-0.8,0.2-1.2
			c0.1-0.4,0.3-0.7,0.6-1c0.3-0.3,0.6-0.5,0.9-0.7c0.4-0.2,0.8-0.2,1.2-0.2c0.4,0,0.7,0.1,1.1,0.2c0.3,0.1,0.6,0.3,0.8,0.5
			c0.2,0.2,0.4,0.5,0.6,0.9c0.1,0.4,0.2,0.8,0.2,1.2c0,0.2,0,0.3-0.1,0.5c-0.1,0.1-0.2,0.1-0.3,0.1L38.6,186.1z M49.3,182.8v6.2
			h-1.5v-2.7h-2.4v2.7h-1.5v-6.2h1.5v2.3h2.4v-2.3H49.3z M54,186.4c-0.4,0-0.7,0.1-1.1,0.1c-0.2,0-0.5,0.1-0.7,0.2
			c-0.1,0.1-0.3,0.2-0.4,0.3c-0.1,0.1-0.1,0.2-0.1,0.4c0,0.2,0.1,0.4,0.2,0.6c0.2,0.1,0.4,0.2,0.6,0.2c0.3,0,0.5,0,0.8-0.2
			c0.2-0.1,0.5-0.3,0.7-0.5V186.4z M50.6,183.7c0.7-0.6,1.6-1,2.6-1c0.3,0,0.7,0.1,1,0.2c0.3,0.1,0.5,0.3,0.7,0.5
			c0.2,0.2,0.4,0.5,0.4,0.8c0.1,0.3,0.2,0.6,0.2,1v3.9h-0.7c-0.1,0-0.2,0-0.3-0.1c-0.1-0.1-0.2-0.2-0.2-0.3l-0.1-0.4
			c-0.1,0.1-0.3,0.3-0.5,0.4c-0.1,0.1-0.3,0.2-0.5,0.3c-0.2,0.1-0.3,0.1-0.5,0.2c-0.2,0-0.4,0.1-0.6,0.1c-0.2,0-0.5,0-0.7-0.1
			c-0.2-0.1-0.4-0.2-0.6-0.3c-0.2-0.1-0.3-0.3-0.4-0.5c-0.1-0.2-0.1-0.5-0.1-0.7c0-0.2,0-0.3,0.1-0.5c0.1-0.2,0.1-0.3,0.3-0.4
			c0.1-0.2,0.3-0.3,0.5-0.4c0.2-0.1,0.4-0.2,0.7-0.3c0.3-0.1,0.6-0.2,1-0.2c0.4-0.1,0.8-0.1,1.2-0.1v-0.4c0-0.3-0.1-0.7-0.3-0.9
			c-0.2-0.2-0.5-0.3-0.8-0.3c-0.2,0-0.4,0-0.6,0.1c-0.1,0.1-0.3,0.1-0.4,0.2c-0.1,0.1-0.2,0.1-0.3,0.2c-0.1,0.1-0.2,0.1-0.3,0.1
			c-0.1,0-0.2,0-0.3-0.1c-0.1-0.1-0.1-0.1-0.2-0.2L50.6,183.7z M62.6,189h-1.5v-5h-1.5c0,0.7-0.1,1.3-0.2,2
			c-0.1,0.5-0.2,0.9-0.4,1.4c-0.1,0.3-0.3,0.6-0.5,0.9c-0.1,0.2-0.3,0.4-0.5,0.5c-0.2,0.1-0.4,0.2-0.6,0.3c-0.2,0-0.4,0.1-0.6,0.1
			c-0.2,0-0.3,0-0.5-0.1c-0.1,0-0.1-0.1-0.2-0.2v-0.9h0.4c0.1,0,0.3,0,0.4-0.1c0.1,0,0.3-0.1,0.4-0.2c0.1-0.2,0.3-0.3,0.4-0.5
			c0.1-0.3,0.2-0.6,0.3-0.9c0.1-0.5,0.2-0.9,0.3-1.4c0.1-0.5,0.1-1.2,0.2-2h4.2L62.6,189z M73.2,181.6h-2.6v7.4H69v-7.4h-2.6v-1.3
			h6.8L73.2,181.6z M78.7,182.8l-3.4,7.8c0,0.1-0.1,0.2-0.2,0.2c-0.1,0.1-0.2,0.1-0.3,0.1h-1.1l1.2-2.5l-2.5-5.7h1.3
			c0.1,0,0.2,0,0.3,0.1c0.1,0.1,0.1,0.1,0.2,0.2l1.3,3.2c0,0.1,0.1,0.2,0.1,0.3c0,0.1,0.1,0.2,0.1,0.3c0-0.1,0.1-0.2,0.1-0.3
			c0-0.1,0.1-0.2,0.1-0.3l1.2-3.2c0-0.1,0.1-0.1,0.2-0.2c0.1-0.1,0.2-0.1,0.3-0.1H78.7z M84.6,189h-1.5v-5h-1.5c0,0.7-0.1,1.3-0.2,2
			c-0.1,0.5-0.2,0.9-0.4,1.4c-0.1,0.3-0.3,0.6-0.5,0.9c-0.1,0.2-0.3,0.4-0.5,0.5c-0.2,0.1-0.4,0.2-0.6,0.3c-0.2,0-0.4,0.1-0.6,0.1
			c-0.2,0-0.3,0-0.5-0.1c-0.1,0-0.2-0.1-0.2-0.2v-0.9h0.4c0.1,0,0.3,0,0.4-0.1c0.1,0,0.3-0.1,0.4-0.2c0.1-0.2,0.3-0.3,0.4-0.5
			c0.1-0.3,0.2-0.6,0.3-0.9c0.1-0.5,0.2-0.9,0.3-1.4c0.1-0.5,0.1-1.2,0.2-2h4.2L84.6,189z M89.3,186.4c-0.4,0-0.7,0.1-1.1,0.1
			c-0.2,0-0.5,0.1-0.7,0.2c-0.1,0.1-0.3,0.2-0.4,0.3c-0.1,0.1-0.1,0.2-0.1,0.4c0,0.2,0.1,0.4,0.2,0.6c0.2,0.1,0.4,0.2,0.6,0.2
			c0.3,0,0.5,0,0.8-0.2c0.2-0.1,0.5-0.3,0.7-0.5V186.4z M85.9,183.7c0.7-0.6,1.6-1,2.6-1c0.3,0,0.7,0.1,1,0.2
			c0.3,0.1,0.5,0.3,0.7,0.5c0.2,0.2,0.4,0.5,0.4,0.8c0.1,0.3,0.2,0.6,0.2,1v3.9H90c-0.1,0-0.2,0-0.3-0.1c-0.1-0.1-0.2-0.2-0.2-0.3
			l-0.1-0.4c-0.1,0.1-0.3,0.3-0.5,0.4c-0.1,0.1-0.3,0.2-0.5,0.3c-0.2,0.1-0.3,0.1-0.5,0.2c-0.2,0-0.4,0.1-0.6,0.1
			c-0.2,0-0.5,0-0.7-0.1c-0.2-0.1-0.4-0.2-0.6-0.3c-0.2-0.1-0.3-0.3-0.4-0.5c-0.1-0.2-0.1-0.5-0.1-0.7c0-0.2,0-0.3,0.1-0.5
			c0.1-0.2,0.1-0.3,0.3-0.4c0.1-0.2,0.3-0.3,0.5-0.4c0.2-0.1,0.4-0.2,0.7-0.3c0.3-0.1,0.6-0.2,1-0.2c0.4-0.1,0.8-0.1,1.2-0.1v-0.4
			c0-0.3-0.1-0.7-0.3-0.9c-0.2-0.2-0.5-0.3-0.8-0.3c-0.2,0-0.4,0-0.6,0.1c-0.1,0.1-0.3,0.1-0.4,0.2c-0.1,0.1-0.2,0.1-0.3,0.2
			c-0.1,0.1-0.2,0.1-0.3,0.1c-0.1,0-0.2,0-0.3-0.1c-0.1-0.1-0.1-0.1-0.2-0.2L85.9,183.7z"/>
		<path class="st3" d="M16.5,201.1c0.4-0.3,0.8-0.5,1.2-0.7c0.5-0.2,1-0.2,1.5-0.2c0.4,0,0.9,0.1,1.3,0.2c0.3,0.1,0.7,0.3,1,0.5
			c0.3,0.2,0.5,0.4,0.6,0.7c0.1,0.3,0.2,0.6,0.2,0.9c0,0.4-0.1,0.8-0.3,1.1c-0.2,0.3-0.5,0.6-0.8,0.8c0.2,0.1,0.4,0.2,0.5,0.3
			c0.2,0.1,0.3,0.3,0.4,0.4c0.1,0.2,0.2,0.3,0.3,0.5c0.1,0.2,0.1,0.4,0.1,0.6c0,0.4-0.1,0.8-0.2,1.1c-0.1,0.3-0.4,0.6-0.6,0.9
			c-0.3,0.3-0.6,0.5-1,0.6c-0.4,0.2-0.9,0.2-1.4,0.2c-0.3,0-0.6,0-0.9-0.1c-0.3-0.1-0.6-0.1-0.8-0.2c-0.3-0.1-0.5-0.2-0.7-0.4
			c-0.2-0.1-0.4-0.3-0.6-0.5l0.5-0.8c0-0.1,0.1-0.1,0.2-0.1c0.1,0,0.1-0.1,0.2-0.1c0.1,0,0.2,0.1,0.3,0.1c0.1,0.1,0.3,0.2,0.5,0.3
			c0.2,0.1,0.4,0.2,0.6,0.3c0.3,0.1,0.6,0.1,0.9,0.1c0.4,0,0.9-0.1,1.3-0.3c0.3-0.3,0.5-0.7,0.4-1.1c0-0.2,0-0.4-0.1-0.5
			c-0.1-0.2-0.2-0.3-0.3-0.4c-0.2-0.1-0.3-0.2-0.5-0.2c-0.2-0.1-0.5-0.1-0.7-0.1H18l0-1.3h1.1c0.4,0,0.8-0.1,1.2-0.3
			c0.3-0.2,0.4-0.5,0.4-0.9c0-0.3-0.1-0.6-0.4-0.8c-0.3-0.2-0.7-0.3-1.2-0.3c-0.3,0-0.5,0-0.8,0.1c-0.2,0.1-0.4,0.1-0.5,0.2
			c-0.2,0.1-0.3,0.1-0.4,0.2c-0.1,0.1-0.2,0.1-0.3,0.1c-0.1,0-0.1,0-0.2-0.1c-0.1,0-0.1-0.1-0.2-0.2L16.5,201.1z M27.6,205.2
			c0-0.2,0-0.4-0.1-0.5c0-0.2-0.1-0.3-0.2-0.4c-0.1-0.1-0.3-0.2-0.4-0.3c-0.2-0.1-0.4-0.1-0.6-0.1c-0.4,0-0.7,0.1-1,0.4
			c-0.3,0.3-0.4,0.7-0.5,1H27.6z M24.8,206.1c0,0.3,0.1,0.6,0.2,0.8c0.1,0.2,0.2,0.4,0.3,0.6c0.1,0.1,0.3,0.3,0.5,0.3
			c0.2,0.1,0.4,0.1,0.7,0.1c0.2,0,0.4,0,0.6-0.1c0.2,0,0.3-0.1,0.5-0.2c0.1-0.1,0.2-0.1,0.3-0.2c0.1-0.1,0.2-0.1,0.3-0.1
			c0.1,0,0.2,0,0.3,0.1l0.4,0.5c-0.2,0.2-0.3,0.4-0.6,0.5c-0.2,0.1-0.4,0.2-0.6,0.3c-0.2,0.1-0.4,0.1-0.7,0.2c-0.2,0-0.4,0-0.7,0
			c-0.4,0-0.8-0.1-1.2-0.2c-0.4-0.1-0.7-0.4-1-0.6c-0.3-0.3-0.5-0.6-0.6-1c-0.2-0.5-0.2-0.9-0.2-1.4c0-0.4,0.1-0.8,0.2-1.2
			c0.1-0.4,0.3-0.7,0.6-1c0.3-0.3,0.6-0.5,0.9-0.7c0.4-0.2,0.8-0.2,1.2-0.2c0.4,0,0.7,0.1,1.1,0.2c0.3,0.1,0.6,0.3,0.8,0.5
			c0.2,0.2,0.4,0.5,0.6,0.9c0.1,0.4,0.2,0.8,0.2,1.2c0,0.2,0,0.3-0.1,0.5c-0.1,0.1-0.2,0.1-0.3,0.1L24.8,206.1z M35.4,202.8v6.2
			h-1.5v-2.7h-2.4v2.7H30v-6.2h1.5v2.3h2.4v-2.3H35.4z M42.4,202.8v6.2h-1.5v-3.6c0-0.1,0-0.2,0-0.3c0-0.1,0-0.2,0-0.3
			c-0.1,0.2-0.2,0.3-0.3,0.5c0,0,0,0.1-0.1,0.2c-0.1,0.1-0.2,0.2-0.3,0.4c-0.1,0.2-0.2,0.3-0.4,0.5c-0.1,0.2-0.3,0.4-0.4,0.6
			c-0.3,0.5-0.7,1-1.2,1.7c-0.1,0.1-0.1,0.2-0.2,0.2c-0.1,0.1-0.2,0.1-0.3,0.1h-0.9v-6.2h1.5v3.6c0,0.1,0,0.2,0,0.3
			c0,0.1,0,0.2,0,0.3c0.1-0.2,0.2-0.3,0.3-0.5c0,0,0-0.1,0.1-0.2s0.2-0.2,0.3-0.4c0.1-0.2,0.2-0.3,0.4-0.5c0.1-0.2,0.3-0.4,0.4-0.6
			c0.3-0.5,0.7-1,1.2-1.7c0.1-0.1,0.1-0.2,0.2-0.2c0.1-0.1,0.2-0.1,0.3-0.1L42.4,202.8z M49.1,203.9h-2.2v5.1h-1.5v-5.1h-2.2v-1.1
			h5.9L49.1,203.9z"/>
		<path class="st4" d="M19.6,226.3v-2.4c0-0.2,0-0.5,0-0.7l-2.2,3.1H19.6z M21.5,226.3v0.7c0,0.1,0,0.1-0.1,0.2c0,0-0.1,0.1-0.2,0.1
			h-0.7v1.8h-1.1v-1.8h-3c-0.2,0-0.3-0.1-0.3-0.3l-0.1-0.6l3.4-4.6h1.2v4.5H21.5z M23.8,224.4c0.2,0,0.3-0.1,0.5-0.1
			c0.1,0,0.3,0,0.4,0c0.3,0,0.7,0.1,1,0.2c0.3,0.1,0.5,0.3,0.7,0.5c0.2,0.2,0.3,0.4,0.4,0.7c0.1,0.3,0.2,0.6,0.1,0.9
			c0,0.4-0.1,0.7-0.2,1.1c-0.1,0.3-0.3,0.6-0.6,0.8c-0.2,0.2-0.5,0.4-0.9,0.5c-0.3,0.1-0.7,0.2-1.1,0.2c-0.2,0-0.4,0-0.6-0.1
			c-0.2,0-0.4-0.1-0.6-0.2c-0.2-0.1-0.3-0.2-0.5-0.3c-0.1-0.1-0.3-0.2-0.4-0.3l0.4-0.5c0.1-0.1,0.2-0.2,0.3-0.2c0.1,0,0.2,0,0.3,0.1
			c0.1,0.1,0.2,0.1,0.3,0.2c0.1,0.1,0.3,0.1,0.4,0.2c0.2,0.1,0.4,0.1,0.5,0.1c0.2,0,0.4,0,0.6-0.1c0.2-0.1,0.3-0.2,0.4-0.3
			c0.1-0.1,0.2-0.3,0.3-0.5c0.1-0.2,0.1-0.4,0.1-0.6c0-0.3-0.1-0.7-0.3-0.9c-0.3-0.2-0.6-0.4-1-0.3c-0.4,0-0.7,0.1-1.1,0.2l-0.8-0.2
			l0.6-3.5h3.6v0.5c0,0.2-0.1,0.3-0.2,0.4c-0.2,0.1-0.4,0.2-0.6,0.2h-2L23.8,224.4z M28.1,228.3c0-0.1,0-0.2,0.1-0.3
			c0-0.1,0.1-0.2,0.2-0.2c0.1-0.1,0.3-0.2,0.5-0.2c0.1,0,0.2,0,0.3,0.1c0.1,0,0.2,0.1,0.2,0.2c0.1,0.1,0.1,0.1,0.2,0.2
			c0,0.1,0.1,0.2,0.1,0.3c0,0.1,0,0.2-0.1,0.3c0,0.1-0.1,0.2-0.2,0.2c-0.1,0.1-0.2,0.1-0.2,0.2c-0.1,0-0.2,0.1-0.3,0.1
			c-0.1,0-0.2,0-0.3-0.1c-0.1,0-0.2-0.1-0.2-0.2c-0.1-0.1-0.1-0.1-0.2-0.2C28.1,228.5,28.1,228.4,28.1,228.3L28.1,228.3z
			 M28.1,224.8c0-0.1,0-0.2,0.1-0.3c0-0.1,0.1-0.2,0.2-0.2c0.1-0.1,0.3-0.2,0.5-0.2c0.1,0,0.2,0,0.3,0.1c0.1,0,0.2,0.1,0.2,0.2
			c0.1,0.1,0.1,0.1,0.2,0.2c0,0.1,0.1,0.2,0.1,0.3c0,0.1,0,0.2-0.1,0.3c0,0.1-0.1,0.2-0.2,0.2c-0.1,0.1-0.2,0.1-0.2,0.2
			c-0.1,0-0.2,0.1-0.3,0.1c-0.1,0-0.2,0-0.3-0.1c-0.1,0-0.2-0.1-0.2-0.2c-0.1-0.1-0.1-0.1-0.2-0.2C28.1,225,28.1,224.9,28.1,224.8
			L28.1,224.8z M35.7,225.4c0,0.6-0.1,1.1-0.2,1.6c-0.1,0.4-0.3,0.8-0.6,1.1c-0.2,0.3-0.5,0.5-0.8,0.7c-0.7,0.3-1.4,0.3-2.1,0
			c-0.3-0.2-0.6-0.4-0.8-0.7c-0.3-0.3-0.4-0.7-0.6-1.1c-0.3-1.1-0.3-2.2,0-3.3c0.1-0.4,0.3-0.8,0.6-1.1c0.2-0.3,0.5-0.5,0.8-0.7
			c0.7-0.3,1.4-0.3,2.1,0c0.3,0.2,0.6,0.4,0.8,0.7c0.3,0.3,0.4,0.7,0.6,1.1C35.7,224.3,35.7,224.8,35.7,225.4L35.7,225.4z
			 M34.5,225.4c0-0.4,0-0.9-0.1-1.3c-0.1-0.3-0.2-0.6-0.3-0.8c-0.1-0.2-0.3-0.3-0.4-0.4c-0.3-0.2-0.7-0.2-1,0
			c-0.2,0.1-0.3,0.2-0.4,0.4c-0.1,0.3-0.2,0.5-0.3,0.8c-0.1,0.9-0.1,1.7,0,2.6c0.1,0.3,0.2,0.6,0.3,0.8c0.1,0.2,0.3,0.3,0.4,0.4
			c0.3,0.2,0.7,0.2,1,0c0.2-0.1,0.3-0.2,0.4-0.4c0.1-0.3,0.3-0.5,0.3-0.8C34.4,226.3,34.5,225.8,34.5,225.4z M41.5,225.4
			c0,0.6-0.1,1.1-0.2,1.6c-0.1,0.4-0.3,0.8-0.6,1.1c-0.2,0.3-0.5,0.5-0.8,0.7c-0.7,0.3-1.4,0.3-2.1,0c-0.3-0.2-0.6-0.4-0.8-0.7
			c-0.3-0.3-0.4-0.7-0.6-1.1c-0.3-1.1-0.3-2.2,0-3.3c0.1-0.4,0.3-0.8,0.6-1.1c0.2-0.3,0.5-0.5,0.8-0.7c0.7-0.3,1.4-0.3,2.1,0
			c0.3,0.2,0.6,0.4,0.8,0.7c0.3,0.3,0.4,0.7,0.6,1.1C41.5,224.3,41.5,224.8,41.5,225.4z M40.3,225.4c0-0.4,0-0.9-0.1-1.3
			c-0.1-0.3-0.2-0.6-0.3-0.8c-0.1-0.2-0.3-0.3-0.4-0.4c-0.3-0.2-0.7-0.2-1,0c-0.2,0.1-0.3,0.2-0.4,0.4c-0.1,0.3-0.2,0.5-0.3,0.8
			c-0.1,0.9-0.1,1.7,0,2.6c0.1,0.3,0.2,0.6,0.3,0.8c0.1,0.2,0.3,0.3,0.4,0.4c0.3,0.2,0.7,0.2,1,0c0.2-0.1,0.3-0.2,0.4-0.4
			c0.1-0.3,0.3-0.5,0.3-0.8C40.2,226.3,40.3,225.8,40.3,225.4z"/>
		<g>
			<defs>
				<rect id="SVGID_00000031904705959857487690000005468036622031146912_" x="168" y="172" width="207" height="64"/>
			</defs>
			<clipPath id="SVGID_00000124877738547719957060000000138394058496860848_">
				<use xlink:href="#SVGID_00000031904705959857487690000005468036622031146912_"  style="overflow:visible;"/>
			</clipPath>
			<g style="clip-path:url(#SVGID_00000124877738547719957060000000138394058496860848_);">
				<path class="st6" d="M176,172h48c4.4,0,8,3.6,8,8v48c0,4.4-3.6,8-8,8h-48c-4.4,0-8-3.6-8-8v-48C168,175.6,171.6,172,176,172z"/>
				<path class="st3" d="M189,210.6c0.2,0,0.4-0.1,0.6-0.1c0.2,0,0.4,0,0.6,0c0.5,0,1,0.1,1.4,0.2c0.4,0.1,0.7,0.4,1,0.7
					c0.3,0.3,0.5,0.6,0.6,1c0.1,0.4,0.2,0.8,0.2,1.2c0,0.5-0.1,1-0.3,1.5c-0.2,0.4-0.4,0.8-0.8,1.1c-0.3,0.3-0.8,0.6-1.2,0.7
					c-0.5,0.2-1,0.3-1.5,0.3c-0.3,0-0.6,0-0.9-0.1c-0.3-0.1-0.5-0.1-0.8-0.3c-0.2-0.1-0.5-0.2-0.7-0.4c-0.2-0.1-0.4-0.3-0.6-0.5
					l0.5-0.7c0.1-0.2,0.3-0.2,0.4-0.2c0.1,0,0.3,0,0.4,0.1c0.1,0.1,0.3,0.2,0.4,0.2c0.2,0.1,0.4,0.2,0.6,0.2
					c0.2,0.1,0.5,0.1,0.8,0.1c0.3,0,0.6,0,0.8-0.2c0.2-0.1,0.4-0.2,0.6-0.4c0.2-0.2,0.3-0.4,0.4-0.7c0.1-0.3,0.1-0.6,0.1-0.8
					c0-0.5-0.1-0.9-0.5-1.3c-0.4-0.3-0.9-0.5-1.4-0.5c-0.5,0-1,0.1-1.5,0.3l-1.1-0.3l0.8-4.9h5v0.7c0,0.2-0.1,0.4-0.2,0.6
					c-0.2,0.2-0.5,0.3-0.8,0.2h-2.8L189,210.6z M194.9,216c0-0.1,0-0.3,0.1-0.4c0.1-0.1,0.1-0.2,0.2-0.3c0.1-0.1,0.2-0.2,0.3-0.2
					c0.1-0.1,0.3-0.1,0.4-0.1c0.1,0,0.3,0,0.4,0.1c0.1,0.1,0.2,0.1,0.3,0.2c0.1,0.1,0.2,0.2,0.2,0.3c0.1,0.1,0.1,0.3,0.1,0.4
					c0,0.1,0,0.3-0.1,0.4c-0.1,0.1-0.1,0.2-0.2,0.3c-0.1,0.1-0.2,0.2-0.3,0.2c-0.1,0.1-0.3,0.1-0.4,0.1c-0.1,0-0.3,0-0.4-0.1
					c-0.1,0-0.2-0.1-0.3-0.2c-0.1-0.1-0.2-0.2-0.2-0.3C194.9,216.3,194.9,216.2,194.9,216L194.9,216z M201.7,215.8
					c0.3,0,0.5,0,0.7-0.1c0.2-0.1,0.4-0.2,0.5-0.3c0.1-0.1,0.3-0.3,0.3-0.5c0.1-0.2,0.1-0.4,0.1-0.7c0-0.5-0.1-0.9-0.5-1.3
					c-0.8-0.6-1.8-0.6-2.5,0c-0.3,0.3-0.5,0.8-0.5,1.3c0,0.2,0,0.4,0.1,0.7c0.1,0.2,0.2,0.4,0.3,0.5c0.2,0.1,0.3,0.3,0.5,0.3
					C201.2,215.7,201.4,215.8,201.7,215.8L201.7,215.8z M201.7,208.1c-0.2,0-0.5,0-0.7,0.1c-0.2,0.1-0.3,0.2-0.5,0.3
					c-0.1,0.1-0.2,0.3-0.3,0.5c-0.1,0.2-0.1,0.4-0.1,0.5c0,0.2,0,0.4,0.1,0.6c0,0.2,0.1,0.4,0.3,0.5c0.1,0.2,0.3,0.3,0.5,0.4
					c0.5,0.2,1,0.2,1.4,0c0.2-0.1,0.3-0.2,0.5-0.4c0.1-0.1,0.2-0.3,0.2-0.5c0.1-0.2,0.1-0.4,0.1-0.6c0-0.2,0-0.4-0.1-0.5
					c-0.1-0.4-0.4-0.6-0.7-0.8C202.1,208.1,201.9,208.1,201.7,208.1z M203.4,211.7c0.5,0.2,1,0.5,1.4,0.9c0.3,0.4,0.5,1,0.4,1.5
					c0,0.4-0.1,0.8-0.3,1.2c-0.2,0.4-0.4,0.7-0.7,0.9c-0.3,0.3-0.7,0.5-1.1,0.6c-0.5,0.1-0.9,0.2-1.4,0.2c-0.5,0-1-0.1-1.4-0.2
					c-0.4-0.1-0.8-0.3-1.1-0.6c-0.3-0.3-0.6-0.6-0.7-0.9c-0.2-0.4-0.3-0.8-0.3-1.2c0-0.5,0.1-1.1,0.4-1.5c0.3-0.4,0.8-0.8,1.4-0.9
					c-0.4-0.2-0.8-0.5-1.1-0.9c-0.3-0.4-0.4-0.9-0.4-1.4c0-0.4,0.1-0.7,0.2-1.1c0.2-0.3,0.4-0.6,0.7-0.9c0.3-0.3,0.6-0.4,1-0.6
					c0.4-0.1,0.8-0.2,1.3-0.2c0.4,0,0.9,0.1,1.3,0.2c0.4,0.1,0.7,0.3,1,0.6c0.3,0.2,0.5,0.5,0.7,0.9c0.4,0.8,0.3,1.7-0.1,2.4
					C204.2,211.2,203.8,211.6,203.4,211.7L203.4,211.7z M212.6,215.4c0.2,0,0.3,0,0.4,0.2c0.1,0.1,0.2,0.3,0.2,0.4v1h-6.9v-0.6
					c0-0.1,0-0.2,0.1-0.4c0.1-0.1,0.1-0.3,0.2-0.4l3.1-3.1c0.3-0.3,0.5-0.5,0.7-0.7c0.2-0.2,0.4-0.5,0.5-0.7
					c0.1-0.2,0.2-0.5,0.3-0.7c0.1-0.2,0.1-0.5,0.1-0.8c0-0.2,0-0.4-0.1-0.6c-0.1-0.2-0.2-0.3-0.3-0.5c-0.1-0.1-0.3-0.2-0.5-0.3
					c-0.4-0.1-0.8-0.1-1.2,0c-0.2,0.1-0.3,0.1-0.5,0.2c-0.1,0.1-0.3,0.2-0.3,0.4c-0.1,0.1-0.2,0.3-0.2,0.5c0,0.2-0.2,0.3-0.3,0.4
					c-0.2,0.1-0.4,0.1-0.5,0l-0.9-0.2c0.1-0.4,0.2-0.9,0.4-1.3c0.2-0.4,0.4-0.7,0.7-0.9c0.3-0.2,0.7-0.4,1-0.6
					c0.4-0.1,0.8-0.2,1.3-0.2c0.4,0,0.9,0.1,1.3,0.2c0.4,0.1,0.7,0.3,1,0.6c0.3,0.3,0.5,0.6,0.6,0.9c0.2,0.4,0.2,0.8,0.2,1.2
					c0,0.4-0.1,0.7-0.2,1c-0.1,0.3-0.3,0.6-0.4,0.9c-0.2,0.3-0.4,0.6-0.6,0.8c-0.2,0.3-0.5,0.5-0.8,0.8l-2.3,2.3
					c0.2-0.1,0.4-0.1,0.7-0.1c0.2,0,0.4-0.1,0.6-0.1H212.6z"/>
				<path class="st3" d="M199.9,196h-1v-6.4h-3.6v6.4h-1v-7.2h5.5L199.9,196z M205.9,195.3v0.7H202v-0.7h1.5v-4.9c0-0.1,0-0.3,0-0.4
					l-1.3,1.1c0,0-0.1,0.1-0.1,0.1c0,0-0.1,0-0.1,0c0,0-0.1,0-0.1,0c0,0-0.1,0-0.1-0.1l-0.3-0.4l2.1-1.8h0.7v6.5L205.9,195.3z"/>
				<path class="st6" d="M242,172h48c4.4,0,8,3.6,8,8v48c0,4.4-3.6,8-8,8h-48c-4.4,0-8-3.6-8-8v-48C234,175.6,237.6,172,242,172z"/>
				<path class="st3" d="M252.9,209.7c0.1-0.4,0.2-0.9,0.4-1.3c0.2-0.4,0.4-0.7,0.7-0.9c0.3-0.2,0.7-0.4,1-0.6
					c0.4-0.1,0.8-0.2,1.3-0.2c0.4,0,0.9,0.1,1.3,0.2c0.4,0.1,0.7,0.3,1,0.6c0.3,0.2,0.5,0.5,0.6,0.8c0.1,0.3,0.2,0.7,0.2,1
					c0,0.3,0,0.6-0.1,0.9c-0.1,0.2-0.2,0.4-0.3,0.6c-0.1,0.2-0.3,0.3-0.5,0.5c-0.2,0.1-0.4,0.2-0.7,0.3c0.5,0.1,1,0.4,1.4,0.9
					c0.3,0.4,0.5,0.9,0.4,1.5c0,0.5-0.1,0.9-0.3,1.3c-0.2,0.4-0.4,0.7-0.8,1c-0.3,0.3-0.7,0.5-1.1,0.6c-0.4,0.1-0.9,0.2-1.3,0.2
					c-0.4,0-0.9-0.1-1.3-0.2c-0.4-0.1-0.7-0.3-1-0.5c-0.3-0.2-0.5-0.5-0.7-0.8c-0.2-0.4-0.4-0.7-0.5-1.1l0.8-0.3
					c0.2-0.1,0.4-0.1,0.6-0.1c0.2,0,0.3,0.1,0.4,0.3c0.1,0.2,0.2,0.3,0.3,0.5c0.1,0.2,0.2,0.3,0.4,0.4c0.3,0.3,0.7,0.4,1.2,0.4
					c0.3,0,0.5,0,0.8-0.1c0.2-0.1,0.4-0.2,0.5-0.4c0.1-0.1,0.3-0.3,0.3-0.5c0.1-0.2,0.1-0.4,0.1-0.6c0-0.2,0-0.4-0.1-0.7
					c-0.1-0.2-0.2-0.4-0.3-0.5c-0.2-0.2-0.4-0.3-0.7-0.3c-0.4-0.1-0.8-0.1-1.2-0.1v-1.2c0.4,0,0.7,0,1.1-0.1
					c0.2-0.1,0.5-0.2,0.7-0.3c0.2-0.1,0.3-0.3,0.4-0.5c0.1-0.2,0.1-0.4,0.1-0.6c0-0.4-0.1-0.8-0.4-1.1c-0.3-0.3-0.7-0.4-1.1-0.4
					c-0.2,0-0.4,0-0.6,0.1c-0.2,0.1-0.3,0.1-0.5,0.2c-0.1,0.1-0.2,0.2-0.3,0.4c-0.1,0.1-0.2,0.3-0.2,0.5c0,0.2-0.2,0.3-0.3,0.4
					c-0.2,0.1-0.4,0.1-0.5,0L252.9,209.7z M260.9,216c0-0.1,0-0.3,0.1-0.4c0.1-0.1,0.1-0.2,0.2-0.3c0.1-0.1,0.2-0.2,0.3-0.2
					c0.1-0.1,0.3-0.1,0.4-0.1c0.1,0,0.3,0,0.4,0.1c0.1,0.1,0.2,0.1,0.3,0.2c0.1,0.1,0.2,0.2,0.2,0.3c0.1,0.1,0.1,0.3,0.1,0.4
					c0,0.1,0,0.3-0.1,0.4c-0.1,0.1-0.1,0.2-0.2,0.3c-0.1,0.1-0.2,0.2-0.3,0.2c-0.1,0.1-0.3,0.1-0.4,0.1c-0.1,0-0.3,0-0.4-0.1
					c-0.1,0-0.2-0.1-0.3-0.2c-0.1-0.1-0.2-0.2-0.2-0.3C260.9,216.3,260.9,216.2,260.9,216z M267.7,215.8c0.3,0,0.5,0,0.7-0.1
					c0.2-0.1,0.4-0.2,0.5-0.3c0.1-0.1,0.3-0.3,0.3-0.5c0.1-0.2,0.1-0.4,0.1-0.7c0-0.5-0.1-0.9-0.5-1.3c-0.8-0.6-1.8-0.6-2.5,0
					c-0.3,0.3-0.5,0.8-0.5,1.3c0,0.2,0,0.4,0.1,0.7c0.1,0.2,0.2,0.4,0.3,0.5c0.2,0.1,0.3,0.3,0.5,0.3
					C267.2,215.7,267.4,215.8,267.7,215.8z M267.7,208.1c-0.2,0-0.5,0-0.7,0.1c-0.2,0.1-0.3,0.2-0.5,0.3c-0.1,0.1-0.2,0.3-0.3,0.5
					c-0.1,0.2-0.1,0.4-0.1,0.5c0,0.2,0,0.4,0.1,0.6c0,0.2,0.1,0.4,0.3,0.5c0.1,0.2,0.3,0.3,0.5,0.4c0.5,0.2,1,0.2,1.4,0
					c0.2-0.1,0.3-0.2,0.5-0.4c0.1-0.1,0.2-0.3,0.2-0.5c0.1-0.2,0.1-0.4,0.1-0.6c0-0.2,0-0.4-0.1-0.5c-0.1-0.4-0.4-0.6-0.7-0.8
					C268.1,208.1,267.9,208.1,267.7,208.1L267.7,208.1z M269.4,211.7c0.5,0.2,1,0.5,1.4,0.9c0.3,0.4,0.5,1,0.4,1.5
					c0,0.4-0.1,0.8-0.3,1.2c-0.2,0.4-0.4,0.7-0.7,0.9c-0.3,0.3-0.7,0.5-1.1,0.6c-0.5,0.1-0.9,0.2-1.4,0.2c-0.5,0-1-0.1-1.4-0.2
					c-0.4-0.1-0.8-0.3-1.1-0.6c-0.3-0.3-0.6-0.6-0.7-0.9c-0.2-0.4-0.3-0.8-0.3-1.2c0-0.5,0.1-1.1,0.4-1.5c0.3-0.4,0.8-0.8,1.4-0.9
					c-0.4-0.2-0.8-0.5-1.1-0.9c-0.3-0.4-0.4-0.9-0.4-1.4c0-0.4,0.1-0.7,0.2-1.1c0.2-0.3,0.4-0.6,0.7-0.9c0.3-0.3,0.6-0.4,1-0.6
					c0.4-0.1,0.8-0.2,1.3-0.2c0.4,0,0.9,0.1,1.3,0.2c0.4,0.1,0.7,0.3,1,0.6c0.3,0.2,0.5,0.5,0.7,0.9c0.4,0.8,0.3,1.7-0.1,2.4
					C270.2,211.2,269.8,211.6,269.4,211.7L269.4,211.7z M274,209.9c0,0.5,0.1,0.9,0.4,1.3c0.3,0.3,0.8,0.5,1.2,0.4
					c0.3,0,0.5,0,0.7-0.1c0.2-0.1,0.4-0.2,0.6-0.4c0.2-0.2,0.3-0.3,0.3-0.5c0.1-0.2,0.1-0.4,0.1-0.7c0-0.3,0-0.5-0.1-0.7
					c-0.1-0.2-0.2-0.4-0.4-0.6c-0.2-0.2-0.3-0.3-0.6-0.3c-0.2-0.1-0.5-0.1-0.7-0.1c-0.2,0-0.5,0-0.7,0.1c-0.4,0.2-0.7,0.5-0.9,0.9
					C274.1,209.4,274,209.7,274,209.9L274,209.9z M276.3,213.1c0.1-0.1,0.2-0.2,0.2-0.3s0.1-0.2,0.2-0.3c-0.2,0.2-0.5,0.3-0.8,0.3
					c-0.3,0.1-0.6,0.1-0.9,0.1c-0.4,0-0.7-0.1-1-0.2c-0.3-0.1-0.6-0.3-0.9-0.5c-0.3-0.3-0.5-0.6-0.6-0.9c-0.2-0.4-0.2-0.8-0.2-1.3
					c0-0.4,0.1-0.9,0.3-1.3c0.2-0.4,0.4-0.7,0.7-1c0.3-0.3,0.7-0.5,1.1-0.7c0.4-0.2,0.9-0.3,1.4-0.3c0.5,0,0.9,0.1,1.4,0.2
					c0.4,0.2,0.8,0.4,1.1,0.7c0.3,0.3,0.5,0.7,0.7,1.1c0.2,0.4,0.2,0.9,0.2,1.4c0,0.3,0,0.6-0.1,0.9c-0.1,0.3-0.1,0.5-0.2,0.8
					c-0.1,0.3-0.2,0.5-0.4,0.8c-0.1,0.3-0.3,0.5-0.5,0.7l-2.3,3.3c-0.1,0.1-0.2,0.2-0.4,0.3c-0.2,0.1-0.4,0.1-0.5,0.1h-1.6
					L276.3,213.1z"/>
				<path class="st3" d="M269.1,196h-1c-0.1,0-0.1,0-0.2-0.1c0,0-0.1-0.1-0.1-0.1l-1.9-3c0,0.1-0.1,0.1-0.1,0.2l-1.9,2.8
					c0,0-0.1,0.1-0.1,0.1c0,0-0.1,0.1-0.2,0.1h-0.9l2.5-3.7l-2.4-3.5h1c0.1,0,0.1,0,0.2,0c0,0,0.1,0.1,0.1,0.1l1.9,2.9
					c0-0.1,0.1-0.2,0.1-0.2l1.8-2.6c0,0,0.1-0.1,0.1-0.1c0,0,0.1,0,0.1,0h0.9l-2.4,3.4L269.1,196z"/>
				<path class="st6" d="M308,172h48c4.4,0,8,3.6,8,8v48c0,4.4-3.6,8-8,8h-48c-4.4,0-8-3.6-8-8v-48C300,175.6,303.6,172,308,172z"/>
				<path class="st3" d="M325.4,215.7v1.3h-5.6v-1.3h2.1v-5.9c0-0.2,0-0.5,0-0.7l-1.5,1.2c-0.1,0.1-0.2,0.1-0.3,0.1
					c-0.1,0-0.2,0-0.2,0c-0.1,0-0.1,0-0.2-0.1c0,0-0.1-0.1-0.1-0.1l-0.5-0.7l3.1-2.6h1.4v8.8L325.4,215.7z M326.9,216
					c0-0.1,0-0.3,0.1-0.4c0.1-0.1,0.1-0.2,0.2-0.3c0.1-0.1,0.2-0.2,0.3-0.2c0.1-0.1,0.3-0.1,0.4-0.1c0.1,0,0.3,0,0.4,0.1
					c0.1,0.1,0.2,0.1,0.3,0.2c0.1,0.1,0.2,0.2,0.2,0.3c0.1,0.1,0.1,0.3,0.1,0.4c0,0.1,0,0.3-0.1,0.4c-0.1,0.1-0.1,0.2-0.2,0.3
					c-0.1,0.1-0.2,0.2-0.3,0.2c-0.1,0.1-0.3,0.1-0.4,0.1c-0.1,0-0.3,0-0.4-0.1c-0.1,0-0.2-0.1-0.3-0.2c-0.1-0.1-0.2-0.2-0.2-0.3
					C326.9,216.3,326.9,216.2,326.9,216z M337.2,206.9v0.7c0,0.2,0,0.4-0.1,0.5c0,0.1-0.1,0.2-0.1,0.3l-3.8,7.9
					c-0.1,0.2-0.2,0.3-0.3,0.4c-0.2,0.1-0.4,0.2-0.6,0.2H331l3.9-7.7c0.1-0.2,0.2-0.3,0.3-0.4c0.1-0.1,0.2-0.3,0.3-0.4h-4.8
					c-0.2,0-0.4-0.2-0.4-0.4v-1.2L337.2,206.9z M338.5,209.7c0.1-0.4,0.2-0.9,0.4-1.3c0.2-0.4,0.4-0.7,0.7-0.9
					c0.3-0.2,0.7-0.4,1-0.6c0.4-0.1,0.8-0.2,1.3-0.2c0.4,0,0.9,0.1,1.3,0.2c0.4,0.1,0.7,0.3,1,0.6c0.3,0.2,0.5,0.5,0.6,0.8
					c0.1,0.3,0.2,0.7,0.2,1c0,0.3,0,0.6-0.1,0.9c-0.1,0.2-0.2,0.4-0.3,0.6c-0.1,0.2-0.3,0.3-0.5,0.5c-0.2,0.1-0.4,0.2-0.7,0.3
					c0.5,0.1,1,0.4,1.4,0.9c0.3,0.4,0.5,0.9,0.4,1.5c0,0.5-0.1,0.9-0.3,1.3c-0.2,0.4-0.4,0.7-0.8,1c-0.3,0.3-0.7,0.5-1.1,0.6
					c-0.4,0.1-0.9,0.2-1.3,0.2c-0.4,0-0.9-0.1-1.3-0.2c-0.4-0.1-0.7-0.3-1-0.5c-0.3-0.2-0.5-0.5-0.7-0.8c-0.2-0.4-0.4-0.7-0.5-1.1
					l0.8-0.3c0.2-0.1,0.4-0.1,0.6-0.1c0.2,0,0.3,0.1,0.4,0.3c0.1,0.2,0.2,0.3,0.3,0.5c0.1,0.2,0.2,0.3,0.4,0.4
					c0.3,0.3,0.7,0.4,1.2,0.4c0.3,0,0.5,0,0.8-0.1c0.2-0.1,0.4-0.2,0.5-0.4c0.1-0.1,0.3-0.3,0.3-0.5c0.1-0.2,0.1-0.4,0.1-0.6
					c0-0.2,0-0.4-0.1-0.7c-0.1-0.2-0.2-0.4-0.3-0.5c-0.2-0.2-0.4-0.3-0.7-0.3c-0.4-0.1-0.8-0.1-1.2-0.1v-1.2c0.4,0,0.7,0,1.1-0.1
					c0.2-0.1,0.5-0.2,0.7-0.3c0.2-0.1,0.3-0.3,0.4-0.5c0.1-0.2,0.1-0.4,0.1-0.6c0-0.4-0.1-0.8-0.4-1.1c-0.3-0.3-0.7-0.4-1.1-0.4
					c-0.2,0-0.4,0-0.6,0.1c-0.2,0.1-0.3,0.1-0.5,0.2c-0.1,0.1-0.3,0.2-0.3,0.4c-0.1,0.1-0.2,0.3-0.2,0.5c0,0.2-0.2,0.3-0.3,0.4
					c-0.2,0.1-0.4,0.1-0.5,0L338.5,209.7z"/>
				<path class="st3" d="M331.9,196h-1v-6.4h-3.6v6.4h-1v-7.2h5.5V196z M337.7,195.2c0.1,0,0.2,0,0.2,0.1c0.1,0.1,0.1,0.1,0.1,0.2
					v0.5h-4.8v-0.3c0-0.1,0-0.1,0-0.2c0-0.1,0.1-0.1,0.1-0.2l2.3-2.3c0.2-0.2,0.4-0.4,0.5-0.6c0.1-0.2,0.3-0.3,0.4-0.5
					c0.1-0.2,0.2-0.4,0.3-0.5c0.1-0.2,0.1-0.4,0.1-0.6c0-0.2,0-0.4-0.1-0.6c-0.1-0.2-0.2-0.3-0.3-0.4c-0.1-0.1-0.3-0.2-0.4-0.2
					c-0.2-0.1-0.3-0.1-0.5-0.1c-0.2,0-0.3,0-0.5,0.1c-0.1,0.1-0.3,0.1-0.4,0.2c-0.1,0.1-0.2,0.2-0.3,0.3c-0.1,0.1-0.1,0.3-0.2,0.4
					c0,0.1-0.1,0.2-0.2,0.2c-0.1,0-0.2,0.1-0.3,0l-0.5-0.1c0-0.3,0.1-0.6,0.3-0.9c0.3-0.5,0.7-0.9,1.2-1c0.6-0.2,1.2-0.2,1.7,0
					c0.3,0.1,0.5,0.2,0.7,0.4c0.2,0.2,0.4,0.4,0.5,0.6c0.1,0.3,0.2,0.6,0.2,0.8c0,0.3,0,0.5-0.1,0.7c-0.1,0.2-0.2,0.4-0.3,0.6
					c-0.1,0.2-0.3,0.4-0.5,0.6c-0.2,0.2-0.4,0.4-0.6,0.6l-1.9,1.9c0.1,0,0.3-0.1,0.4-0.1c0.1,0,0.3,0,0.4,0L337.7,195.2z"/>
				<path class="st6" d="M374,172h81c4.4,0,8,3.6,8,8v48c0,4.4-3.6,8-8,8h-81c-4.4,0-8-3.6-8-8v-48C366,175.6,369.6,172,374,172z"/>
			</g>
		</g>
	</g>
</g>
</svg>
