<svg xmlns="http://www.w3.org/2000/svg" xmlns:xlink="http://www.w3.org/1999/xlink" viewBox="0 0 343 194"><defs><style>.a{fill:none;}.b{clip-path:url(#a);}.c{fill:url(#b);}.d{fill:#737373;}.e{fill:#fff;}.f{fill:#ccc;}</style><clipPath id="a"><rect class="a" width="343" height="194" rx="8"/></clipPath><linearGradient id="b" x1="419" y1="-174.8824" x2="419" y2="-324.1134" gradientTransform="matrix(1, 0, 0, -1, -247.5, -174.8824)" gradientUnits="userSpaceOnUse"><stop offset="0" stop-color="#525252"/><stop offset="1" stop-color="#474747"/></linearGradient></defs><g class="b"><path class="c" d="M0,8A8,8,0,0,1,8,0H335a8,8,0,0,1,8,8V186a8,8,0,0,1-8,8H8a8,8,0,0,1-8-8Z"/><path class="d" d="M0,162H343v32H0Z"/><path class="e" d="M23.408,66.8H25.6V78H23.408V73.36h-4.16V78H17.04V66.8h2.208v4.448h4.16ZM34.4006,77.008A4.2242,4.2242,0,0,1,27.1686,74a4.2427,4.2427,0,0,1,7.232-2.992A4.04,4.04,0,0,1,35.6326,74,4.0915,4.0915,0,0,1,34.4006,77.008Zm-4.56-1.424a2.2421,2.2421,0,0,0,3.104,0,2.3225,2.3225,0,0,0,0-3.168,2.2421,2.2421,0,0,0-3.104,0,2.3674,2.3674,0,0,0,0,3.168ZM43.0761,70v1.984H40.58V78h-2.064V71.984h-2.528V70Zm7.4688,0v1.984h-2.496V78h-2.064V71.984h-2.528V70Zm6.8782,0h1.536v8h-2.016V73.456L53.1831,78h-1.536V70h2.016v4.544Zm8.6752,0h2.064v8h-2.064V74.96h-3.184V78H60.85V70h2.064v3.024h3.184Zm9.4271,0v1.984h-3.408V78h-2.064V70Zm2.5376,4.848a2.05,2.05,0,0,0,2.256,1.504,2.1118,2.1118,0,0,0,1.792-.8l1.664.96a3.969,3.969,0,0,1-3.488,1.712,4.3037,4.3037,0,0,1-3.184-1.2,4.4116,4.4116,0,0,1-.016-6.032,4.0567,4.0567,0,0,1,3.04-1.216,3.788,3.788,0,0,1,2.896,1.216A4.2059,4.2059,0,0,1,84.175,74a4.8642,4.8642,0,0,1-.08.848Zm-.032-1.6h4.08a1.9208,1.9208,0,0,0-.736-1.216,2.05,2.05,0,0,0-1.248-.4,2.1439,2.1439,0,0,0-1.376.432A1.9886,1.9886,0,0,0,78.031,73.248ZM93.936,70v8h-2V73.328l-2.032,3.2h-.256L87.6,73.296V78H85.616V70h2.032l2.128,3.36L91.904,70Zm16.299-.72a4.1926,4.1926,0,0,1,0,6.24,6.505,6.505,0,0,1-3.728,1.424V78.24h-2.16V76.944a6.5964,6.5964,0,0,1-3.728-1.424,3.946,3.946,0,0,1-1.376-3.12,3.8981,3.8981,0,0,1,1.376-3.104,6.5276,6.5276,0,0,1,3.728-1.44V66.56h2.16v1.296A6.505,6.505,0,0,1,110.235,69.28Zm-3.728,5.648q2.9115-.336,2.912-2.528,0-2.208-2.912-2.544ZM101.435,72.4q0,2.1915,2.912,2.512v-5.04Q101.4355,70.1915,101.435,72.4Zm18.309,4.608A4.2242,4.2242,0,0,1,112.512,74a4.2321,4.2321,0,1,1,7.232,3.008Zm-4.56-1.424a2.2421,2.2421,0,0,0,3.104,0,2.3225,2.3225,0,0,0,0-3.168,2.2421,2.2421,0,0,0-3.104,0,2.3674,2.3674,0,0,0,0,3.168Zm11.9-5.808a3.6065,3.6065,0,0,1,2.752,1.232A4.186,4.186,0,0,1,130.988,74a4.2409,4.2409,0,0,1-1.152,3.008,3.6253,3.6253,0,0,1-2.752,1.216,3.0954,3.0954,0,0,1-2.592-1.168V81.2h-2.064V70h2.064v.944A3.0954,3.0954,0,0,1,127.084,69.776Zm-1.968,5.856a2.3225,2.3225,0,0,0,3.168,0,2.21,2.21,0,0,0,.64-1.632,2.1565,2.1565,0,0,0-.64-1.616,2.28,2.28,0,0,0-3.168,0A2.1871,2.1871,0,0,0,124.492,74,2.242,2.242,0,0,0,125.116,75.632Zm9.072-.784a2.05,2.05,0,0,0,2.256,1.504,2.1118,2.1118,0,0,0,1.792-.8l1.664.96a3.9686,3.9686,0,0,1-3.488,1.712,4.3032,4.3032,0,0,1-3.184-1.2,4.4116,4.4116,0,0,1-.016-6.032,4.0567,4.0567,0,0,1,3.04-1.216,3.788,3.788,0,0,1,2.896,1.216A4.2059,4.2059,0,0,1,140.3,74a4.8642,4.8642,0,0,1-.08.848Zm-.032-1.6h4.08a1.9208,1.9208,0,0,0-.736-1.216,2.051,2.051,0,0,0-1.248-.4,2.1439,2.1439,0,0,0-1.376.432A1.9858,1.9858,0,0,0,134.156,73.248Zm11.33,4.976a4.2244,4.2244,0,1,1,0-8.448,4.1483,4.1483,0,0,1,2.128.56,3.7191,3.7191,0,0,1,1.456,1.504l-1.776,1.04a1.7946,1.7946,0,0,0-.736-.784,2.2011,2.2011,0,0,0-2.624.336A2.1229,2.1229,0,0,0,143.326,74a2.158,2.158,0,0,0,.608,1.568,2.0854,2.0854,0,0,0,1.536.608,2.2036,2.2036,0,0,0,1.104-.272,1.7946,1.7946,0,0,0,.736-.784l1.792,1.024a4.0689,4.0689,0,0,1-1.488,1.52A4.1483,4.1483,0,0,1,145.486,78.224ZM156.451,70v1.984h-2.496V78h-2.064V71.984h-2.528V70Z"/><path class="e" d="M16.176,102V99.952a1.5825,1.5825,0,0,0,1.488-.4,3.2767,3.2767,0,0,0,.496-2.128V90.8h7.616V102H23.584V92.912H20.352V97.36A7.3775,7.3775,0,0,1,20,99.808a3.1081,3.1081,0,0,1-.976,1.472,3.2762,3.2762,0,0,1-1.312.64A4.79,4.79,0,0,1,16.176,102Zm13.3245-3.152a2.05,2.05,0,0,0,2.256,1.504,2.1118,2.1118,0,0,0,1.792-.8l1.664.96a3.969,3.969,0,0,1-3.488,1.712,4.3037,4.3037,0,0,1-3.184-1.2,4.4116,4.4116,0,0,1-.016-6.032,4.0567,4.0567,0,0,1,3.04-1.216,3.788,3.788,0,0,1,2.896,1.216A4.2059,4.2059,0,0,1,35.6125,98a4.8353,4.8353,0,0,1-.08.848Zm-.032-1.6h4.08a1.9208,1.9208,0,0,0-.736-1.216,2.05,2.05,0,0,0-1.248-.4,2.1439,2.1439,0,0,0-1.376.432A1.9886,1.9886,0,0,0,29.4685,97.248Zm11.33,4.976a4.2244,4.2244,0,1,1,0-8.448,4.1494,4.1494,0,0,1,2.128.56,3.7236,3.7236,0,0,1,1.456,1.504l-1.776,1.04a1.7969,1.7969,0,0,0-.736-.784,2.2011,2.2011,0,0,0-2.624.336A2.1213,2.1213,0,0,0,38.6389,98a2.1564,2.1564,0,0,0,.608,1.568,2.0832,2.0832,0,0,0,1.536.608,2.2036,2.2036,0,0,0,1.104-.272,1.7969,1.7969,0,0,0,.736-.784l1.792,1.024a4.0689,4.0689,0,0,1-1.488,1.52A4.1494,4.1494,0,0,1,40.7989,102.224ZM51.7636,94v1.984h-2.496V102h-2.064V95.984h-2.528V94Zm2.5338,4.848a2.05,2.05,0,0,0,2.256,1.504,2.1119,2.1119,0,0,0,1.792-.8l1.664.96a3.9691,3.9691,0,0,1-3.488,1.712,4.3037,4.3037,0,0,1-3.184-1.2,4.4116,4.4116,0,0,1-.016-6.032,4.0566,4.0566,0,0,1,3.04-1.216,3.7881,3.7881,0,0,1,2.896,1.216A4.2059,4.2059,0,0,1,60.4094,98a4.8353,4.8353,0,0,1-.08.848Zm-.032-1.6h4.08a1.9212,1.9212,0,0,0-.736-1.216,2.05,2.05,0,0,0-1.248-.4,2.1437,2.1437,0,0,0-1.376.432A1.9886,1.9886,0,0,0,54.2654,97.248Zm12.2409-3.472a3.6081,3.6081,0,0,1,2.752,1.232A4.186,4.186,0,0,1,70.41,98a4.2409,4.2409,0,0,1-1.152,3.008,3.627,3.627,0,0,1-2.752,1.216,3.0954,3.0954,0,0,1-2.592-1.168V105.2H61.85V94h2.064v.944A3.0954,3.0954,0,0,1,66.5063,93.776Zm-1.968,5.856a2.3225,2.3225,0,0,0,3.168,0,2.2117,2.2117,0,0,0,.64-1.632,2.158,2.158,0,0,0-.64-1.616,2.28,2.28,0,0,0-3.168,0A2.1871,2.1871,0,0,0,63.9143,98,2.242,2.242,0,0,0,64.5383,99.632Zm16.7356,2.592a5.602,5.602,0,0,1-4.176-1.68,6.0342,6.0342,0,0,1,0-8.288,5.9424,5.9424,0,0,1,6.9761-.96,5.1367,5.1367,0,0,1,2.016,1.92L84.186,94.32a2.9054,2.9054,0,0,0-1.1841-1.168,3.463,3.463,0,0,0-1.728-.432,3.5384,3.5384,0,0,0-2.64,1.024,4.03,4.03,0,0,0,0,5.296,3.87,3.87,0,0,0,4.368.608A2.9045,2.9045,0,0,0,84.186,98.48l1.904,1.104a5.2866,5.2866,0,0,1-2,1.936A5.7508,5.7508,0,0,1,81.2739,102.224ZM93.251,94h1.536v8H92.771V97.456L89.011,102H87.475V94h2.016v4.544Zm9.731,0v1.984h-2.496V102H98.422V95.984H95.894V94Zm6.879,0h1.536v8h-2.016V97.456L105.621,102h-1.536V94h2.016v4.544Z"/><path class="f" d="M16.8,19.608a4.5149,4.5149,0,0,1,1.504-.88,5.78,5.78,0,0,1,1.944-.304,5.4224,5.4224,0,0,1,1.592.216,3.6275,3.6275,0,0,1,1.208.608,2.69,2.69,0,0,1,.76.928,2.5594,2.5594,0,0,1,.272,1.176,2.7,2.7,0,0,1-.432,1.52,2.7843,2.7843,0,0,1-1.2,1.016,3.6947,3.6947,0,0,1,.8.456,2.994,2.994,0,0,1,.616.6,2.5873,2.5873,0,0,1,.544,1.576,3.5481,3.5481,0,0,1-.28,1.408,3.2658,3.2658,0,0,1-.816,1.144,3.8641,3.8641,0,0,1-1.304.76,5.1817,5.1817,0,0,1-1.768.28,5.8325,5.8325,0,0,1-2.216-.4,5.2693,5.2693,0,0,1-1.688-1.096l.448-.736a.51.51,0,0,1,.16-.144.3651.3651,0,0,1,.208-.064.69.69,0,0,1,.4.184,6.7843,6.7843,0,0,0,.592.392,4.9932,4.9932,0,0,0,.872.4,3.98,3.98,0,0,0,1.264.176,3.86,3.86,0,0,0,1.128-.152,2.2811,2.2811,0,0,0,.84-.44,1.8425,1.8425,0,0,0,.52-.704,2.2876,2.2876,0,0,0,.184-.936,1.92,1.92,0,0,0-.176-.824,1.7018,1.7018,0,0,0-.496-.64,2.2833,2.2833,0,0,0-.8-.416,3.4736,3.4736,0,0,0-1.064-.152H18.848V23.288h1.504a3.2507,3.2507,0,0,0,.904-.12,2.0576,2.0576,0,0,0,.72-.352,1.7008,1.7008,0,0,0,.488-2.056A1.5576,1.5576,0,0,0,22,20.2a2.1546,2.1546,0,0,0-.744-.368,3.5948,3.5948,0,0,0-1-.128,3.8885,3.8885,0,0,0-1.104.136,4.1331,4.1331,0,0,0-.768.304,4.916,4.916,0,0,0-.512.296.6089.6089,0,0,1-.336.136.3576.3576,0,0,1-.208-.056.5484.5484,0,0,1-.152-.184Zm13.7981,6.744a11.5264,11.5264,0,0,0-1.68.16,4.7475,4.7475,0,0,0-1.128.32,1.5956,1.5956,0,0,0-.632.472,1.029,1.029,0,0,0-.192.608,1.3442,1.3442,0,0,0,.104.552,1.08,1.08,0,0,0,.28.384,1.275,1.275,0,0,0,.424.216,2.0918,2.0918,0,0,0,.528.064,3.0615,3.0615,0,0,0,.688-.072,2.6324,2.6324,0,0,0,.584-.224,3.1093,3.1093,0,0,0,.528-.344,4.3017,4.3017,0,0,0,.496-.456Zm-4.6-3.312a4.6224,4.6224,0,0,1,1.448-.968,4.4774,4.4774,0,0,1,1.72-.32,3.0746,3.0746,0,0,1,1.208.224,2.4692,2.4692,0,0,1,.888.624,2.6417,2.6417,0,0,1,.544.968,4.0336,4.0336,0,0,1,.184,1.248V30h-.632a.65.65,0,0,1-.32-.064.4861.4861,0,0,1-.176-.272l-.16-.768q-.32.2955-.624.528a3.9574,3.9574,0,0,1-.64.384,3.4463,3.4463,0,0,1-.72.232,3.6734,3.6734,0,0,1-.84.088A3.0155,3.0155,0,0,1,26.99,30a2.1518,2.1518,0,0,1-.728-.4,1.9349,1.9349,0,0,1-.488-.664,2.41,2.41,0,0,1-.176-.96,1.7615,1.7615,0,0,1,.264-.92,2.2944,2.2944,0,0,1,.856-.792,5.5467,5.5467,0,0,1,1.544-.56,11.5491,11.5491,0,0,1,2.336-.256v-.632a2.15,2.15,0,0,0-.408-1.424,1.4665,1.4665,0,0,0-1.192-.488,2.52,2.52,0,0,0-.888.136,3.1345,3.1345,0,0,0-.616.296c-.1706.107-.32.205-.448.296a.6434.6434,0,0,1-.368.128.4249.4249,0,0,1-.248-.072.7455.7455,0,0,1-.176-.192Zm13.0812-.744a.9051.9051,0,0,1,.296-.288.7382.7382,0,0,1,.392-.112h1.112l-2.104,3.088a2.5571,2.5571,0,0,1-.4.488,1.48,1.48,0,0,1-.512.288,1.6536,1.6536,0,0,1,.648.328,2.1583,2.1583,0,0,1,.472.56L41.1112,30h-.9919a.9743.9743,0,0,1-.952-.496l-1.576-2.52a1.2322,1.2322,0,0,0-1.128-.624h-.872v3.648h-1.432V21.896h1.432V25.4h.768a1.1351,1.1351,0,0,0,1-.544ZM49.5445,30h-1.424V23.016h-2.56a25.6724,25.6724,0,0,1-.288,2.672,12.4208,12.4208,0,0,1-.464,1.912,5.32,5.32,0,0,1-.6,1.28,3.0386,3.0386,0,0,1-.696.76,2.0612,2.0612,0,0,1-.752.368,3.156,3.156,0,0,1-.768.096q-.68,0-.68-.216v-.904h.416a1.6951,1.6951,0,0,0,.552-.096,1.4109,1.4109,0,0,0,.544-.368,2.9847,2.9847,0,0,0,.52-.76,6.5069,6.5069,0,0,0,.448-1.28,15.3475,15.3475,0,0,0,.352-1.912q.152-1.128.232-2.672h5.168Zm9.2794-1a1.8953,1.8953,0,0,0,1.672-.8,3.947,3.947,0,0,0,.552-2.248,3.9643,3.9643,0,0,0-.552-2.256,2.1339,2.1339,0,0,0-3.344,0,3.9643,3.9643,0,0,0-.552,2.256,3.947,3.947,0,0,0,.552,2.248A1.8952,1.8952,0,0,0,58.8239,29ZM55.2,25.392a5.1778,5.1778,0,0,1,.344-1.504,3.5688,3.5688,0,0,1,.744-1.144,3.1819,3.1819,0,0,1,1.104-.72,4.1117,4.1117,0,0,1,2.96.04,3.239,3.239,0,0,1,1.168.84,3.7419,3.7419,0,0,1,.736,1.32,5.7611,5.7611,0,0,1,0,3.448,3.779,3.779,0,0,1-.752,1.312,3.3334,3.3334,0,0,1-1.168.84,3.84,3.84,0,0,1-1.512.288,3.9273,3.9273,0,0,1-1.456-.256,3.1879,3.1879,0,0,1-1.104-.728,3.6445,3.6445,0,0,1-.744-1.16,4.99,4.99,0,0,1-.328-1.536h-1.96V30H51.8V21.896h1.432v3.496Zm15.0916-3.496V30h-1.424V26.56a11.2711,11.2711,0,0,1-1.96.344,4.4393,4.4393,0,0,1-1.6-.144,2.094,2.094,0,0,1-1.08-.728,2.396,2.396,0,0,1-.392-1.456v-2.68h1.432V24.36a1.5981,1.5981,0,0,0,.232.92,1.2279,1.2279,0,0,0,.696.464,3.2512,3.2512,0,0,0,1.128.072,10.4373,10.4373,0,0,0,1.544-.264V21.896Zm7.6824,3.168a2.7,2.7,0,0,0-.144-.904,1.9174,1.9174,0,0,0-.408-.712,1.7222,1.7222,0,0,0-.648-.464,2.1554,2.1554,0,0,0-.872-.168,2.1944,2.1944,0,0,0-1.624.6,2.7866,2.7866,0,0,0-.736,1.648Zm1.152,3.8a2.7912,2.7912,0,0,1-.632.56,3.9959,3.9959,0,0,1-.792.384,4.7,4.7,0,0,1-.864.224,5.0758,5.0758,0,0,1-.888.08,4.197,4.197,0,0,1-1.552-.28A3.5087,3.5087,0,0,1,73.1739,29a3.8874,3.8874,0,0,1-.8-1.36,5.514,5.514,0,0,1-.288-1.856,4.791,4.791,0,0,1,.256-1.584,3.7338,3.7338,0,0,1,.752-1.272,3.3743,3.3743,0,0,1,1.192-.848,3.8692,3.8692,0,0,1,1.584-.312,3.5726,3.5726,0,0,1,1.344.248,2.9371,2.9371,0,0,1,1.072.704,3.1524,3.1524,0,0,1,.712,1.136,4.2954,4.2954,0,0,1,.256,1.536.93.93,0,0,1-.072.448.2983.2983,0,0,1-.272.112h-5.416a4.8447,4.8447,0,0,0,.208,1.336,2.7729,2.7729,0,0,0,.528.952,2.1711,2.1711,0,0,0,.8.568,2.7934,2.7934,0,0,0,1.04.184,3.1054,3.1054,0,0,0,.92-.12,4.5743,4.5743,0,0,0,.672-.272,5.33,5.33,0,0,0,.464-.264.63.63,0,0,1,.328-.128.3126.3126,0,0,1,.272.136Zm8.6291-6.968V30H86.323V26.208H82.435V30H81.003V21.896h1.432v3.232h3.888V21.896Zm9.216,0V30H95.547V24.496c0-.107.005-.221.016-.344s.024-.245.04-.368c-.048.107-.096.205-.144.296a2.2346,2.2346,0,0,1-.152.248l-3.912,5.32a1.4153,1.4153,0,0,1-.224.248.4269.4269,0,0,1-.288.112h-.864V21.904h1.432v5.504c0,.101-.006.213-.016.336-.011.117-.024.237-.04.36.048-.101.096-.195.144-.28.048-.091.096-.173.144-.248l3.912-5.32a1.1652,1.1652,0,0,1,.224-.24.4369.4369,0,0,1,.296-.12Zm7.675,3.168a2.7,2.7,0,0,0-.144-.904,1.9256,1.9256,0,0,0-.408-.712,1.7222,1.7222,0,0,0-.648-.464,2.1564,2.1564,0,0,0-.872-.168,2.1939,2.1939,0,0,0-1.624.6,2.7848,2.7848,0,0,0-.736,1.648Zm1.152,3.8a2.7976,2.7976,0,0,1-.632.56,4.0283,4.0283,0,0,1-.792.384,4.7253,4.7253,0,0,1-.864.224,5.081,5.081,0,0,1-.888.08,4.1947,4.1947,0,0,1-1.552-.28A3.4978,3.4978,0,0,1,99.846,29a3.8783,3.8783,0,0,1-.8-1.36,5.514,5.514,0,0,1-.288-1.856,4.7832,4.7832,0,0,1,.256-1.584,3.7242,3.7242,0,0,1,.752-1.272,3.3663,3.3663,0,0,1,1.192-.848,3.8672,3.8672,0,0,1,1.584-.312,3.5749,3.5749,0,0,1,1.344.248,2.94,2.94,0,0,1,1.072.704,3.1564,3.1564,0,0,1,.712,1.136,4.3087,4.3087,0,0,1,.256,1.536.93.93,0,0,1-.072.448.2986.2986,0,0,1-.272.112h-5.416a4.8335,4.8335,0,0,0,.208,1.336,2.7729,2.7729,0,0,0,.528.952,2.1662,2.1662,0,0,0,.8.568,2.7923,2.7923,0,0,0,1.04.184,3.1068,3.1068,0,0,0,.92-.12,4.6017,4.6017,0,0,0,.672-.272q.279-.144.464-.264a.6293.6293,0,0,1,.328-.128.313.313,0,0,1,.272.136ZM118.521,30h-1.432V22.984h-3.888V30h-1.432V21.896h6.752Zm6.655-3.648a11.5264,11.5264,0,0,0-1.68.16,4.7642,4.7642,0,0,0-1.128.32,1.6,1.6,0,0,0-.632.472,1.029,1.029,0,0,0-.192.608,1.3492,1.3492,0,0,0,.104.552,1.0911,1.0911,0,0,0,.28.384,1.2779,1.2779,0,0,0,.424.216,2.0986,2.0986,0,0,0,.528.064,3.06,3.06,0,0,0,.688-.072,2.6268,2.6268,0,0,0,.584-.224,3.0858,3.0858,0,0,0,.528-.344,4.2772,4.2772,0,0,0,.496-.456Zm-4.6-3.312a4.6258,4.6258,0,0,1,1.448-.968,4.4807,4.4807,0,0,1,1.72-.32,3.0725,3.0725,0,0,1,1.208.224,2.4692,2.4692,0,0,1,.888.624,2.6332,2.6332,0,0,1,.544.968,4.0247,4.0247,0,0,1,.184,1.248V30h-.632a.6519.6519,0,0,1-.32-.064.4908.4908,0,0,1-.176-.272l-.16-.768q-.32.2955-.624.528a3.9318,3.9318,0,0,1-.64.384,3.4463,3.4463,0,0,1-.72.232,3.6661,3.6661,0,0,1-.84.088,3.0213,3.0213,0,0,1-.888-.128,2.1546,2.1546,0,0,1-.728-.4,1.9465,1.9465,0,0,1-.488-.664,2.4157,2.4157,0,0,1-.176-.96,1.7615,1.7615,0,0,1,.264-.92,2.299,2.299,0,0,1,.856-.792,5.5575,5.5575,0,0,1,1.544-.56,11.5568,11.5568,0,0,1,2.336-.256v-.632a2.15,2.15,0,0,0-.408-1.424,1.4661,1.4661,0,0,0-1.192-.488,2.52,2.52,0,0,0-.888.136,3.1511,3.1511,0,0,0-.616.296c-.17.107-.32.205-.448.296a.6412.6412,0,0,1-.368.128.4263.4263,0,0,1-.248-.072.7508.7508,0,0,1-.176-.192Zm9.593,5.008a2.3081,2.3081,0,0,0,.856.744,2.4373,2.4373,0,0,0,1.04.216,2.0491,2.0491,0,0,0,1.744-.808,3.7707,3.7707,0,0,0,.608-2.304,5.5977,5.5977,0,0,0-.144-1.36,2.5534,2.5534,0,0,0-.4-.928,1.5641,1.5641,0,0,0-.648-.536,2.1531,2.1531,0,0,0-.872-.168,2.3178,2.3178,0,0,0-1.224.32,3.5619,3.5619,0,0,0-.96.904Zm-.072-4.896a4.2128,4.2128,0,0,1,1.184-1.016,3.0405,3.0405,0,0,1,1.536-.384,2.9083,2.9083,0,0,1,1.272.272,2.5481,2.5481,0,0,1,.968.792,3.7532,3.7532,0,0,1,.616,1.296,6.6705,6.6705,0,0,1,.216,1.784,5.6313,5.6313,0,0,1-.24,1.672,4.0319,4.0319,0,0,1-.696,1.336,3.1822,3.1822,0,0,1-2.568,1.208,3.035,3.035,0,0,1-1.28-.248,3.0685,3.0685,0,0,1-.936-.704v3.584h-1.432V21.896h.856a.3515.3515,0,0,1,.376.296Zm14.545-1.256V30h-1.423V24.496c0-.107.005-.221.016-.344s.024-.245.04-.368c-.048.107-.096.205-.144.296a2.2346,2.2346,0,0,1-.152.248l-3.912,5.32a1.4153,1.4153,0,0,1-.224.248.4269.4269,0,0,1-.288.112h-.864V21.904h1.432v5.504c0,.101-.006.213-.016.336-.011.117-.024.237-.04.36.048-.101.096-.195.144-.28.048-.091.096-.173.144-.248l3.912-5.32a1.1652,1.1652,0,0,1,.224-.24.4369.4369,0,0,1,.296-.12Z"/><path class="e" d="M288.043,70.88a3.9582,3.9582,0,0,1,2.72.976,3.3724,3.3724,0,0,1,1.104,2.688,3.3349,3.3349,0,0,1-1.168,2.704,4.23,4.23,0,0,1-2.832.976,4.6687,4.6687,0,0,1-2.4-.608,3.4684,3.4684,0,0,1-1.504-1.792l1.888-1.104a1.872,1.872,0,0,0,2.016,1.344,1.9489,1.9489,0,0,0,1.312-.4,1.546,1.546,0,0,0,.016-2.224,1.8276,1.8276,0,0,0-1.264-.416h-3.392l.448-6.224h6.352v2.064h-4.304l-.144,2.016Zm9.231,7.344a3.9088,3.9088,0,0,1-3.296-1.584,6.9648,6.9648,0,0,1-1.184-4.24,6.8918,6.8918,0,0,1,1.184-4.224,4.1949,4.1949,0,0,1,6.592,0,6.8853,6.8853,0,0,1,1.184,4.224,6.9581,6.9581,0,0,1-1.184,4.24A3.8814,3.8814,0,0,1,297.274,78.224Zm-1.696-3.088a2.0046,2.0046,0,0,0,3.392-.016,6.5814,6.5814,0,0,0,0-5.456,1.9955,1.9955,0,0,0-3.392,0,6.786,6.786,0,0,0,0,5.472Zm11.775,3.088a3.9076,3.9076,0,0,1-3.296-1.584,6.9581,6.9581,0,0,1-1.184-4.24,6.8853,6.8853,0,0,1,1.184-4.224,4.1949,4.1949,0,0,1,6.592,0,6.8918,6.8918,0,0,1,1.184,4.224,6.9648,6.9648,0,0,1-1.184,4.24A3.8826,3.8826,0,0,1,307.353,78.224Zm-1.696-3.088a2.0046,2.0046,0,0,0,3.392-.016,6.5814,6.5814,0,0,0,0-5.456,1.9955,1.9955,0,0,0-3.392,0,6.786,6.786,0,0,0,0,5.472Zm16.318-1.024h-1.984v.88h3.568V76.4h-3.568V78h-2.192V76.4h-1.2V74.992h1.2v-.88h-1.2V72.176h1.2V66.8h4.176a3.6348,3.6348,0,0,1,2.672,1.088,3.55,3.55,0,0,1,1.104,2.624,3.4211,3.4211,0,0,1-1.088,2.576A3.7734,3.7734,0,0,1,321.975,74.112Zm-1.984-5.248v3.312h1.984a1.4689,1.4689,0,0,0,1.12-.48,1.64,1.64,0,0,0,.464-1.184,1.585,1.585,0,0,0-.464-1.168,1.4689,1.4689,0,0,0-1.12-.48Z"/><path class="f" d="M26.304,135h-1.56V124.76H19.016V135H17.464V123.536h8.84Zm5.7556-8.232a4.1384,4.1384,0,0,1,1.6.296,3.42,3.42,0,0,1,1.216.84,3.6415,3.6415,0,0,1,.768,1.32,5.6,5.6,0,0,1,0,3.448,3.6489,3.6489,0,0,1-.768,1.312,3.42,3.42,0,0,1-1.216.84,4.2334,4.2334,0,0,1-1.6.288,4.3184,4.3184,0,0,1-1.616-.288,3.4209,3.4209,0,0,1-1.216-.84,3.7442,3.7442,0,0,1-.776-1.312,5.7611,5.7611,0,0,1,0-3.448,3.7353,3.7353,0,0,1,.776-1.32,3.4209,3.4209,0,0,1,1.216-.84A4.2212,4.2212,0,0,1,32.06,126.768Zm0,7.232a2.0854,2.0854,0,0,0,1.792-.8,4.5794,4.5794,0,0,0,0-4.504,2.0754,2.0754,0,0,0-1.792-.808,2.5368,2.5368,0,0,0-1.064.208,2.0172,2.0172,0,0,0-.752.6,2.7537,2.7537,0,0,0-.448.968,5.2569,5.2569,0,0,0-.144,1.288,3.7425,3.7425,0,0,0,.592,2.248A2.1251,2.1251,0,0,0,32.06,134Zm9.3182.056a2.1758,2.1758,0,0,0,1.808-.76,3.3435,3.3435,0,0,0,.616-2.144,3.4248,3.4248,0,0,0-.592-2.136,2.0711,2.0711,0,0,0-1.76-.768,2.7087,2.7087,0,0,0-1.024.184,2.0531,2.0531,0,0,0-.776.52,2.4392,2.4392,0,0,0-.488.848,3.6376,3.6376,0,0,0-.168,1.152,5.1188,5.1188,0,0,0,.152,1.304,2.8432,2.8432,0,0,0,.448.976,2.0659,2.0659,0,0,0,.744.616A2.4406,2.4406,0,0,0,41.3778,134.056Zm.552-9.064a3.9333,3.9333,0,0,0-1.4.36,2.75,2.75,0,0,0-.96.784,3.3152,3.3152,0,0,0-.576,1.176,6.7083,6.7083,0,0,0-.224,1.552,2.6352,2.6352,0,0,1,.496-.688,2.9562,2.9562,0,0,1,.696-.528,3.2966,3.2966,0,0,1,.848-.336,3.9163,3.9163,0,0,1,.984-.12,3.4923,3.4923,0,0,1,1.448.288,2.992,2.992,0,0,1,1.096.8,3.5449,3.5449,0,0,1,.696,1.256,5.139,5.139,0,0,1,.24,1.616,4.5823,4.5823,0,0,1-.28,1.64,3.3771,3.3771,0,0,1-2.016,2.04,4.3343,4.3343,0,0,1-1.6.28,4.2523,4.2523,0,0,1-1.528-.272,2.9636,2.9636,0,0,1-1.232-.896,4.5905,4.5905,0,0,1-.824-1.64,9.2,9.2,0,0,1-.296-2.52,11.1307,11.1307,0,0,1,.232-2.352,5.5669,5.5669,0,0,1,.744-1.864,4.0093,4.0093,0,0,1,1.336-1.272,4.6916,4.6916,0,0,1,2-.592l2.896-.248.08.736a.69.69,0,0,1-.072.416.3943.3943,0,0,1-.344.184Zm16.2611,8.92V135h-6.144v-1.088h2.456v-7.816q0-.3525.024-.712l-2.04,1.752a.497.497,0,0,1-.208.112.5617.5617,0,0,1-.192,0,.504.504,0,0,1-.168-.064.4291.4291,0,0,1-.112-.104l-.448-.616,3.416-2.952h1.16v10.4Zm7.191-3.944a12.6148,12.6148,0,0,0,1.712,6.4.4364.4364,0,0,1,.064.376.5159.5159,0,0,1-.184.216l-.632.384a14.9728,14.9728,0,0,1-1.024-1.824,12.2328,12.2328,0,0,1-1.056-3.648,15.1016,15.1016,0,0,1,0-3.8,12.6808,12.6808,0,0,1,.376-1.832,12.9763,12.9763,0,0,1,.68-1.816,15.5168,15.5168,0,0,1,1.024-1.832l.632.392a.5159.5159,0,0,1,.184.216.4185.4185,0,0,1-.064.368,12.6148,12.6148,0,0,0-1.712,6.4Zm6.3652-3.2a4.1384,4.1384,0,0,1,1.6.296,3.42,3.42,0,0,1,1.216.84,3.6415,3.6415,0,0,1,.768,1.32,5.6,5.6,0,0,1,0,3.448,3.6489,3.6489,0,0,1-.768,1.312,3.42,3.42,0,0,1-1.216.84,4.2334,4.2334,0,0,1-1.6.288,4.3184,4.3184,0,0,1-1.616-.288,3.4209,3.4209,0,0,1-1.216-.84,3.7442,3.7442,0,0,1-.776-1.312,5.7611,5.7611,0,0,1,0-3.448,3.7353,3.7353,0,0,1,.776-1.32,3.4209,3.4209,0,0,1,1.216-.84A4.2212,4.2212,0,0,1,71.7471,126.768Zm0,7.232a2.0854,2.0854,0,0,0,1.792-.8,4.5794,4.5794,0,0,0,0-4.504,2.0754,2.0754,0,0,0-1.792-.808,2.5368,2.5368,0,0,0-1.064.208,2.0172,2.0172,0,0,0-.752.6,2.7537,2.7537,0,0,0-.448.968,5.2569,5.2569,0,0,0-.144,1.288,3.7425,3.7425,0,0,0,.592,2.248A2.1251,2.1251,0,0,0,71.7471,134Zm11.3022-5.664a.63.63,0,0,1-.128.136.2876.2876,0,0,1-.176.048.4868.4868,0,0,1-.264-.096,3.7186,3.7186,0,0,0-.36-.224,2.5479,2.5479,0,0,0-.52-.216,2.3562,2.3562,0,0,0-.752-.104,2.4408,2.4408,0,0,0-1.056.216,2.03,2.03,0,0,0-.768.608,2.8643,2.8643,0,0,0-.464.968,4.923,4.923,0,0,0-.152,1.272,4.6882,4.6882,0,0,0,.168,1.312,2.8773,2.8773,0,0,0,.472.96,2.158,2.158,0,0,0,.744.592,2.3562,2.3562,0,0,0,.984.2,2.5823,2.5823,0,0,0,.856-.12,2.5251,2.5251,0,0,0,.552-.28q.2239-.1515.368-.272a.4674.4674,0,0,1,.296-.128.3126.3126,0,0,1,.272.136l.4.52a2.8377,2.8377,0,0,1-.6.56,3.8124,3.8124,0,0,1-.728.392,4.0385,4.0385,0,0,1-.808.224,5.1524,5.1524,0,0,1-.864.072,3.5629,3.5629,0,0,1-1.416-.28,3.2564,3.2564,0,0,1-1.128-.808,3.8463,3.8463,0,0,1-.752-1.312,5.3272,5.3272,0,0,1-.272-1.768,5.41,5.41,0,0,1,.248-1.672,3.83,3.83,0,0,1,.736-1.32,3.372,3.372,0,0,1,1.192-.872,4.03,4.03,0,0,1,1.632-.312,3.7591,3.7591,0,0,1,1.504.28,3.5413,3.5413,0,0,1,1.16.776Zm8.7527-1.44V135H90.37v-3.792H86.482V135H85.05v-8.104h1.432v3.232H90.37v-3.232Zm2.024,7.224a1.0661,1.0661,0,0,1,.072-.392,1.0845,1.0845,0,0,1,.208-.32,1.0038,1.0038,0,0,1,.32-.216,1,1,0,0,1,.784,0,1.0264,1.0264,0,0,1,.32.216,1.05,1.05,0,0,1,.216.32.9781.9781,0,0,1,.08.392.9991.9991,0,0,1-.08.4,1.0894,1.0894,0,0,1-.216.312.9269.9269,0,0,1-.32.208,1,1,0,0,1-.784,0,.9086.9086,0,0,1-.32-.208,1.1269,1.1269,0,0,1-.208-.312A1.09,1.09,0,0,1,93.826,134.12Zm11.227-.12a1.9846,1.9846,0,0,0,1.264-.368,1.249,1.249,0,0,0,.464-1.024,1.4731,1.4731,0,0,0-.088-.52,1.0161,1.0161,0,0,0-.288-.416,1.3785,1.3785,0,0,0-.536-.272,2.9173,2.9173,0,0,0-.808-.096h-1.752V134Zm-1.744-6.144V130.4h1.56a2.0856,2.0856,0,0,0,.647-.096,1.6718,1.6718,0,0,0,.521-.28,1.3227,1.3227,0,0,0,.336-.432,1.3028,1.3028,0,0,0,.12-.56,1.2031,1.2031,0,0,0-.08-.432.8942.8942,0,0,0-.272-.376,1.3644,1.3644,0,0,0-.504-.264,2.4623,2.4623,0,0,0-.768-.104Zm1.6-.96a4.7846,4.7846,0,0,1,1.288.152,2.6,2.6,0,0,1,.88.416,1.5668,1.5668,0,0,1,.504.608,1.8063,1.8063,0,0,1,.16.752,2.2754,2.2754,0,0,1-.072.552,1.684,1.684,0,0,1-.256.552,1.83,1.83,0,0,1-.488.48,2.4316,2.4316,0,0,1-.768.328,2.6585,2.6585,0,0,1,1.432.648,1.6749,1.6749,0,0,1,.504,1.272,2.06,2.06,0,0,1-.888,1.76,2.842,2.842,0,0,1-.96.44,4.6789,4.6789,0,0,1-1.184.144h-3.12v-8.104Zm6.401,6.152a2.3,2.3,0,0,0,.856.744,2.4341,2.4341,0,0,0,1.04.216,2.05,2.05,0,0,0,1.744-.808,3.7774,3.7774,0,0,0,.608-2.304,5.5977,5.5977,0,0,0-.144-1.36,2.5706,2.5706,0,0,0-.4-.928,1.5641,1.5641,0,0,0-.648-.536,2.1564,2.1564,0,0,0-.872-.168,2.3178,2.3178,0,0,0-1.224.32,3.5331,3.5331,0,0,0-.96.904Zm-.072-4.896a4.199,4.199,0,0,1,1.184-1.016,3.0405,3.0405,0,0,1,1.536-.384,2.9145,2.9145,0,0,1,1.272.272,2.5556,2.5556,0,0,1,.968.792,3.7532,3.7532,0,0,1,.616,1.296,6.6705,6.6705,0,0,1,.216,1.784,5.6313,5.6313,0,0,1-.24,1.672,4.0319,4.0319,0,0,1-.696,1.336,3.1822,3.1822,0,0,1-2.568,1.208,3.0318,3.0318,0,0,1-1.28-.248,3.0685,3.0685,0,0,1-.936-.704v3.584h-1.432V126.896h.856a.3515.3515,0,0,1,.376.296Zm13.017,1.912a2.7,2.7,0,0,0-.144-.904,1.9256,1.9256,0,0,0-.408-.712,1.7222,1.7222,0,0,0-.648-.464,2.1564,2.1564,0,0,0-.872-.168,2.1939,2.1939,0,0,0-1.624.6,2.7848,2.7848,0,0,0-.736,1.648Zm1.152,3.8a2.7976,2.7976,0,0,1-.632.56,3.9746,3.9746,0,0,1-.792.384,4.6837,4.6837,0,0,1-.864.224,5.081,5.081,0,0,1-.888.08,4.1985,4.1985,0,0,1-1.552-.28,3.5161,3.5161,0,0,1-1.224-.832,3.8935,3.8935,0,0,1-.8-1.36,5.514,5.514,0,0,1-.288-1.856,4.7832,4.7832,0,0,1,.256-1.584,3.74,3.74,0,0,1,.752-1.272,3.3752,3.3752,0,0,1,1.192-.848,3.8672,3.8672,0,0,1,1.584-.312,3.5749,3.5749,0,0,1,1.344.248,2.94,2.94,0,0,1,1.072.704,3.1564,3.1564,0,0,1,.712,1.136,4.2867,4.2867,0,0,1,.256,1.536.93.93,0,0,1-.072.448.2986.2986,0,0,1-.272.112h-5.416a4.8335,4.8335,0,0,0,.208,1.336,2.7729,2.7729,0,0,0,.528.952,2.1743,2.1743,0,0,0,.8.568,2.7923,2.7923,0,0,0,1.04.184,3.1068,3.1068,0,0,0,.92-.12,4.6017,4.6017,0,0,0,.672-.272,5.3148,5.3148,0,0,0,.464-.264.6293.6293,0,0,1,.328-.128.313.313,0,0,1,.272.136Zm10.909-6.992V135h-1.288v-5.384c0-.149.008-.315.024-.496.022-.187.048-.36.08-.52l-2.816,4.936a.5226.5226,0,0,1-.168.192.41.41,0,0,1-.24.072h-.16a.4515.4515,0,0,1-.248-.072.5413.5413,0,0,1-.168-.192l-2.864-4.952q.0405.24.072.528a4.3378,4.3378,0,0,1,.032.504V135h-1.288v-8.128h1.144a.6526.6526,0,0,1,.296.072.5528.5528,0,0,1,.248.248l2.528,4.224a6.6923,6.6923,0,0,1,.328.776,5.0061,5.0061,0,0,1,.32-.776l2.48-4.224a.5546.5546,0,0,1,.248-.256.7175.7175,0,0,1,.296-.064Zm6.514,3.808v-2.824h-1.36a1.916,1.916,0,0,0-.768.136,1.3835,1.3835,0,0,0-.504.336,1.1773,1.1773,0,0,0-.264.456,1.588,1.588,0,0,0-.08.496,1.24,1.24,0,0,0,.48,1.032,2.1084,2.1084,0,0,0,1.312.368Zm1.36-3.784V135h-1.36v-3.416h-.624a1.4816,1.4816,0,0,0-.376.04.884.884,0,0,0-.256.096.68.68,0,0,0-.184.168,2.7746,2.7746,0,0,0-.168.224l-1.776,2.392a.9359.9359,0,0,1-.336.376,1.0865,1.0865,0,0,1-.568.12h-.992l2.352-3.056a1.403,1.403,0,0,1,.76-.64,3.3149,3.3149,0,0,1-1.04-.288,2.4737,2.4737,0,0,1-.696-.488,1.8187,1.8187,0,0,1-.384-.632,2.097,2.097,0,0,1-.12-.696,2.2962,2.2962,0,0,1,.16-.832,1.9612,1.9612,0,0,1,.528-.736,2.6673,2.6673,0,0,1,.928-.528,4.1067,4.1067,0,0,1,1.392-.208Zm3.325,3.072a12.8311,12.8311,0,0,0-1.712-6.4.7376.7376,0,0,1-.08-.208.3081.3081,0,0,1,.008-.16.3012.3012,0,0,1,.072-.12.6833.6833,0,0,1,.12-.096l.632-.392a14.6653,14.6653,0,0,1,1.016,1.832,11.7715,11.7715,0,0,1,.68,1.816,12.0286,12.0286,0,0,1,.384,1.832,15.1016,15.1016,0,0,1,0,3.8,12.3131,12.3131,0,0,1-.384,1.832,11.7715,11.7715,0,0,1-.68,1.816,14.1748,14.1748,0,0,1-1.016,1.824l-.632-.384a.6833.6833,0,0,1-.12-.096.3012.3012,0,0,1-.072-.12.3081.3081,0,0,1-.008-.16.7227.7227,0,0,1,.08-.216,12.8311,12.8311,0,0,0,1.712-6.4Z"/><path class="f" d="M309.496,130.864v-4.728c0-.139.006-.291.016-.456s.027-.333.048-.504l-4.176,5.688Zm2.984,0v.816a.3075.3075,0,0,1-.08.216.2814.2814,0,0,1-.232.088h-1.424V135h-1.248v-3.016h-5.088a.46.46,0,0,1-.28-.088.4363.4363,0,0,1-.144-.232l-.144-.728,5.576-7.4h1.328v7.328Zm1.346,3.256a1.0661,1.0661,0,0,1,.072-.392,1.0845,1.0845,0,0,1,.208-.32,1.0038,1.0038,0,0,1,.32-.216,1,1,0,0,1,.784,0,1.0264,1.0264,0,0,1,.32.216,1.05,1.05,0,0,1,.216.32.9781.9781,0,0,1,.08.392.9991.9991,0,0,1-.08.4,1.0894,1.0894,0,0,1-.216.312.9269.9269,0,0,1-.32.208,1,1,0,0,1-.784,0,.9086.9086,0,0,1-.32-.208,1.1269,1.1269,0,0,1-.208-.312A1.09,1.09,0,0,1,313.826,134.12Zm7.533-.128a3.0668,3.0668,0,0,0,1-.152,2.1815,2.1815,0,0,0,.752-.44,1.89,1.89,0,0,0,.472-.68,2.2514,2.2514,0,0,0,.168-.88,2.3136,2.3136,0,0,0-.2-1.008,1.8,1.8,0,0,0-.528-.688,2.0906,2.0906,0,0,0-.76-.384,3.2563,3.2563,0,0,0-1.808,0,2.1678,2.1678,0,0,0-.768.384,1.9034,1.9034,0,0,0-.528.688,2.3916,2.3916,0,0,0-.192,1.008,2.3436,2.3436,0,0,0,.16.88,2.023,2.023,0,0,0,.472.68,2.2688,2.2688,0,0,0,.752.44A3.13,3.13,0,0,0,321.359,133.992Zm0-9.48a2.4928,2.4928,0,0,0-.904.152,1.8775,1.8775,0,0,0-.648.416,1.7955,1.7955,0,0,0-.392.616,2.1679,2.1679,0,0,0-.128.752,2.5847,2.5847,0,0,0,.112.76,1.7782,1.7782,0,0,0,.36.656,1.8357,1.8357,0,0,0,.64.456,2.4688,2.4688,0,0,0,.96.168,2.4167,2.4167,0,0,0,.952-.168,1.8418,1.8418,0,0,0,.648-.456,1.8074,1.8074,0,0,0,.36-.656,2.6181,2.6181,0,0,0,.112-.76,2.0825,2.0825,0,0,0-.136-.752,1.6716,1.6716,0,0,0-.392-.616,1.7879,1.7879,0,0,0-.648-.416A2.4334,2.4334,0,0,0,321.359,124.512Zm1.64,4.512a3.1545,3.1545,0,0,1,1.648,1.016,2.8089,2.8089,0,0,1,.576,1.824,3.1375,3.1375,0,0,1-.288,1.36,2.9247,2.9247,0,0,1-.792,1.024,3.601,3.601,0,0,1-1.216.656,5.6,5.6,0,0,1-3.136,0,3.68,3.68,0,0,1-1.224-.656,2.9015,2.9015,0,0,1-.792-1.024,3.2085,3.2085,0,0,1-.28-1.36,2.8089,2.8089,0,0,1,.576-1.824,3.1505,3.1505,0,0,1,1.648-1.016,2.5836,2.5836,0,0,1-1.824-2.6,2.8367,2.8367,0,0,1,.952-2.144,3.3336,3.3336,0,0,1,1.088-.64,4.4617,4.4617,0,0,1,2.84,0,3.3312,3.3312,0,0,1,1.096.64,2.8367,2.8367,0,0,1,.952,2.144,2.6085,2.6085,0,0,1-1.824,2.6Z"/><rect class="d" y="48" width="343" height="1"/><rect class="e" y="48" width="160" height="1"/></g></svg>