<svg xmlns="http://www.w3.org/2000/svg" viewBox="0 0 28.4393 50"><defs><style>.a{fill:#fff;}</style></defs><path d="M28.3937,24.1107a28.5861,28.5861,0,0,0-.29-6.5352l-.0321-.2087a3.4342,3.4342,0,0,0-3.2383-3.2344H24.83a3.16,3.16,0,0,0-2.1329.8295,3.4881,3.4881,0,0,0-3.09-1.9247h-.0041a3.4144,3.4144,0,0,0-2.47,1.0608,3.4788,3.4788,0,0,0-3.0033-1.7648h-.0041a3.36,3.36,0,0,0-1.953.6229V3.609A3.5729,3.5729,0,0,0,8.6511,0h-.004A3.3818,3.3818,0,0,0,6.1735,1.0757a3.67,3.67,0,0,0-.9947,2.54V18.0291a5.1812,5.1812,0,0,0-3.4241,1.2321C.4341,20.4464-.1458,22.3631.031,24.9581c.1946,2.8544,1.69,6.1289,3.1356,9.2956,1.2806,2.8045,2.6,5.6958,2.8191,7.98a2.5722,2.5722,0,0,0-1.778,2.4431v2.7549A2.5709,2.5709,0,0,0,6.7756,50H24.1848a2.5709,2.5709,0,0,0,2.568-2.5679V44.6772a2.5727,2.5727,0,0,0-1.8034-2.4517,21.5271,21.5271,0,0,1,1.4619-7.4777A32.3019,32.3019,0,0,0,28.3937,24.1107ZM25.2375,47.4321a1.0538,1.0538,0,0,1-1.0527,1.0527H6.7756a1.0539,1.0539,0,0,1-1.0528-1.0527V44.6772a1.0539,1.0539,0,0,1,1.0528-1.0527H24.1848a1.0538,1.0538,0,0,1,1.0527,1.0527Zm-1.8012-5.3228H7.497C7.2648,39.5818,5.94,36.68,4.5449,33.6245c-1.3895-3.0434-2.8264-6.19-3.0022-8.7694-.1431-2.099.2656-3.5988,1.2148-4.4579a3.6865,3.6865,0,0,1,2.4213-.8523v4.538a.7576.7576,0,0,0,1.0963.6776l0,0a.7578.7578,0,0,0,.4185-.6993V3.6151a2.1618,2.1618,0,0,1,.5806-1.4985,1.8814,1.8814,0,0,1,1.3743-.6015H8.651A2.0564,2.0564,0,0,1,10.657,3.61V15.9493l0,2.437a.7575.7575,0,0,0,.7575.7577h0a.7576.7576,0,0,0,.7575-.7575l0-2.4371h0v-.0011a2.1615,2.1615,0,0,1,.58-1.4986,1.8809,1.8809,0,0,1,1.3743-.6014h.0022a2.0454,2.0454,0,0,1,1.9825,2.0947l0,.71v0l0,2.181a.7576.7576,0,0,0,1.5152,0l0-2.1813v-.0008a2.1442,2.1442,0,0,1,.5889-1.4953,1.9141,1.9141,0,0,1,1.3889-.6047h.0023a2.0455,2.0455,0,0,1,1.9825,2.0947l0,.84v1.8181a.7576.7576,0,0,0,1.5152,0v-1.819a1.8786,1.8786,0,0,1,.5159-1.31,1.67,1.67,0,0,1,1.2117-.5279h.0018c1.0648,0,1.6031,1.0493,1.7406,1.9483l.0323.21a27.0641,27.0641,0,0,1,.273,6.2491,30.6184,30.6184,0,0,1-1.902,10.2026A23.0682,23.0682,0,0,0,23.4363,42.1093Z"/><path class="a" d="M26.5743,17.5958c-.1374-.899-.6758-1.9483-1.7406-1.9483h-.0018a1.67,1.67,0,0,0-1.2117.5279,1.8789,1.8789,0,0,0-.5159,1.31v1.8189a.7576.7576,0,1,1-1.5152,0v-1.818l0-.84a2.0454,2.0454,0,0,0-1.9825-2.0946h-.0022a1.9138,1.9138,0,0,0-1.389.6047,2.144,2.144,0,0,0-.5889,1.4953v.0008l0,2.1813a.7576.7576,0,0,1-1.5152,0l0-2.181V15.943a2.0453,2.0453,0,0,0-1.9824-2.0947h-.0022a1.8812,1.8812,0,0,0-1.3743.6013,2.1617,2.1617,0,0,0-.58,1.4986v.0011l0,2.4371a.7575.7575,0,0,1-.7576.7575h0a.7575.7575,0,0,1-.7575-.7575l0-2.4371V3.61A2.0563,2.0563,0,0,0,8.651,1.5151H8.6488a1.8808,1.8808,0,0,0-1.3743.6015,2.1618,2.1618,0,0,0-.5806,1.4985v20.446a.7576.7576,0,0,1-.4185.6992l0,0a.7574.7574,0,0,1-1.0963-.6776V19.5449a3.6865,3.6865,0,0,0-2.4213.8523c-.9492.859-1.3579,2.3589-1.2148,4.4578.1758,2.5792,1.6127,5.7261,3.0022,8.7695C5.94,36.68,7.2648,39.5818,7.497,42.1093H23.4364a23.0661,23.0661,0,0,1,1.5412-7.8517A30.6184,30.6184,0,0,0,26.88,24.055a27.0582,27.0582,0,0,0-.273-6.2491Z"/><path class="a" d="M6.7755,43.6245H24.1847a1.0528,1.0528,0,0,1,1.0528,1.0528v2.7548a1.0527,1.0527,0,0,1-1.0527,1.0527H6.7755a1.0527,1.0527,0,0,1-1.0527-1.0527V44.6772A1.0527,1.0527,0,0,1,6.7755,43.6245Z"/></svg>