<svg xmlns="http://www.w3.org/2000/svg" xmlns:xlink="http://www.w3.org/1999/xlink" viewBox="0 0 343 156"><defs><style>.a{fill:none;}.b{clip-path:url(#a);}.c{fill:#181818;}.d,.i{fill:#262626;}.d,.g{fill-rule:evenodd;}.e,.g{fill:#737373;}.f{fill:#fff;}.g{isolation:isolate;opacity:0.5;}.h{fill:#f8e800;}.j{clip-path:url(#b);}.k{fill:#ccc;}.l{clip-path:url(#c);}.m{fill:url(#d);}</style><clipPath id="a"><rect class="a" width="343" height="156" rx="8"/></clipPath><clipPath id="b"><rect class="a" x="271" y="48" width="24" height="24"/></clipPath><clipPath id="c"><rect class="a" x="48" y="48" width="24" height="24"/></clipPath><linearGradient id="d" x1="590.5" y1="-347.3824" x2="558.487" y2="-347.3824" gradientTransform="matrix(1, 0, 0, -1, -247.5, -212.8824)" gradientUnits="userSpaceOnUse"><stop offset="0" stop-color="#191a1a"/><stop offset="1" stop-color="#191a1a" stop-opacity="0.01"/></linearGradient></defs><g class="b"><path class="c" d="M0,8A8,8,0,0,1,8,0H335a8,8,0,0,1,8,8V148a8,8,0,0,1-8,8H8a8,8,0,0,1-8-8Z"/><path class="d" d="M0,8A8,8,0,0,1,8,0H335a8,8,0,0,1,8,8V24H0Z"/><path class="e" d="M81.9266,8.835V16h-.975V12.9q-.57.15-1.11.24a6.1291,6.1291,0,0,1-1.015.08,3.35,3.35,0,0,1-.865-.115,1.7812,1.7812,0,0,1-.68-.35,1.6729,1.6729,0,0,1-.44-.63,2.5761,2.5761,0,0,1-.155-.95V8.835h.97V11.18a1.4362,1.4362,0,0,0,.2.8,1.0485,1.0485,0,0,0,.61.425,2.8092,2.8092,0,0,0,1.025.065,9.0421,9.0421,0,0,0,1.46-.275V8.835Zm4.85,4.08a1.6881,1.6881,0,0,0-.09-.565,1.196,1.196,0,0,0-.255-.445,1.0764,1.0764,0,0,0-.405-.29,1.3468,1.3468,0,0,0-.545-.105,1.3716,1.3716,0,0,0-1.015.375,1.7416,1.7416,0,0,0-.46,1.03Zm.72,2.375a1.7384,1.7384,0,0,1-.395.35,2.5128,2.5128,0,0,1-.495.24,2.9207,2.9207,0,0,1-.54.14,3.1542,3.1542,0,0,1-.555.05,2.6269,2.6269,0,0,1-.97-.175,2.1967,2.1967,0,0,1-.765-.52,2.4323,2.4323,0,0,1-.5-.85,3.4462,3.4462,0,0,1-.18-1.16,2.9951,2.9951,0,0,1,.16-.99,2.3381,2.3381,0,0,1,.47-.795,2.11,2.11,0,0,1,.745-.53,2.4188,2.4188,0,0,1,.99-.195,2.2288,2.2288,0,0,1,.84.155,1.8327,1.8327,0,0,1,.67.44,1.9675,1.9675,0,0,1,.445.71,2.683,2.683,0,0,1,.16.96.5805.5805,0,0,1-.045.28.1867.1867,0,0,1-.17.07h-3.385a3.03,3.03,0,0,0,.13.835,1.7347,1.7347,0,0,0,.33.595,1.36,1.36,0,0,0,.5.355,1.75,1.75,0,0,0,.65.115,1.94,1.94,0,0,0,.575-.075,2.87,2.87,0,0,0,.42-.17,3.3069,3.3069,0,0,0,.29-.165.3926.3926,0,0,1,.205-.08.1957.1957,0,0,1,.17.085Zm6.8182-4.37V16H93.51V12.635q0-.14.015-.31.02-.175.05-.325l-1.76,3.085a.333.333,0,0,1-.105.12.2569.2569,0,0,1-.15.045h-.1a.281.281,0,0,1-.155-.045.3349.3349,0,0,1-.105-.12L89.41,11.99q.0251.15.045.33a2.7859,2.7859,0,0,1,.02.315V16H88.67V10.92h.715a.4089.4089,0,0,1,.185.045.3463.3463,0,0,1,.155.155l1.58,2.64a4.2264,4.2264,0,0,1,.205.485,3.0781,3.0781,0,0,1,.2-.485l1.55-2.64a.3441.3441,0,0,1,.155-.16.4507.4507,0,0,1,.185-.04ZM99.9406,16h-.895V11.615h-2.43V16h-.895V10.935h4.22ZM105.7,10.935V16h-.89V12.56c0-.0667.004-.1383.01-.215s.015-.1533.025-.23q-.045.1-.09.185a1.2764,1.2764,0,0,1-.095.155l-2.445,3.325a.8191.8191,0,0,1-.14.155.2649.2649,0,0,1-.18.07h-.54V10.94h.895v3.44c0,.0633-.003.1333-.01.21-.006.0733-.015.1483-.025.225q.045-.0949.09-.175.045-.0851.09-.155l2.445-3.325a.7657.7657,0,0,1,.14-.15.2761.2761,0,0,1,.185-.075Zm3.542-.08a2.581,2.581,0,0,1,1,.185,2.1392,2.1392,0,0,1,.76.525,2.273,2.273,0,0,1,.48.825,3.5,3.5,0,0,1,0,2.155,2.2791,2.2791,0,0,1-.48.82,2.1392,2.1392,0,0,1-.76.525,2.6436,2.6436,0,0,1-1,.18,2.7,2.7,0,0,1-1.01-.18,2.1481,2.1481,0,0,1-.76-.525,2.348,2.348,0,0,1-.485-.82,3.6007,3.6007,0,0,1,0-2.155,2.3408,2.3408,0,0,1,.485-.825,2.1481,2.1481,0,0,1,.76-.525A2.6361,2.6361,0,0,1,109.242,10.855Zm0,4.52a1.3021,1.3021,0,0,0,1.12-.5,2.3361,2.3361,0,0,0,.37-1.405,2.3458,2.3458,0,0,0-.37-1.41,1.2968,1.2968,0,0,0-1.12-.505,1.5893,1.5893,0,0,0-.665.13,1.2647,1.2647,0,0,0-.47.375,1.7392,1.7392,0,0,0-.28.605,3.2845,3.2845,0,0,0-.09.805,2.3431,2.3431,0,0,0,.37,1.405A1.3285,1.3285,0,0,0,109.242,15.375Zm7.759-4.44V16h-.895V13.63h-2.43V16h-.895V10.935h.895v2.02h2.43v-2.02Zm4.16,2.785a7.204,7.204,0,0,0-1.05.1,2.9486,2.9486,0,0,0-.705.2.9945.9945,0,0,0-.395.295.6435.6435,0,0,0-.12.38.8441.8441,0,0,0,.065.345.6775.6775,0,0,0,.175.24.8.8,0,0,0,.265.135,1.3111,1.3111,0,0,0,.33.04,1.9114,1.9114,0,0,0,.43-.045,1.6479,1.6479,0,0,0,.365-.14,1.9086,1.9086,0,0,0,.33-.215,2.6943,2.6943,0,0,0,.31-.285Zm-2.875-2.07a2.8956,2.8956,0,0,1,.905-.605,2.7949,2.7949,0,0,1,1.075-.2,1.92,1.92,0,0,1,.755.14,1.5475,1.5475,0,0,1,.555.39,1.6565,1.6565,0,0,1,.34.605,2.51,2.51,0,0,1,.115.78V16h-.395a.4077.4077,0,0,1-.2-.04.3029.3029,0,0,1-.11-.17l-.1-.48q-.2.1849-.39.33a2.4644,2.4644,0,0,1-.4.24,2.1539,2.1539,0,0,1-.45.145,2.31,2.31,0,0,1-.525.055,1.8753,1.8753,0,0,1-.555-.08,1.3448,1.3448,0,0,1-.455-.25,1.21,1.21,0,0,1-.305-.415,1.512,1.512,0,0,1-.11-.6,1.1014,1.1014,0,0,1,.165-.575,1.4339,1.4339,0,0,1,.535-.495,3.46,3.46,0,0,1,.965-.35,7.2177,7.2177,0,0,1,1.46-.16V12.76a1.3436,1.3436,0,0,0-.255-.89.9156.9156,0,0,0-.745-.305,1.5791,1.5791,0,0,0-.555.085,1.9587,1.9587,0,0,0-.385.185c-.107.0667-.2.1283-.28.185a.401.401,0,0,1-.23.08.2648.2648,0,0,1-.155-.045.4774.4774,0,0,1-.11-.12Zm9.184-.035h-1.945V16h-.89V11.615H122.69v-.68h4.78Zm8.957-2.78-2.91,6.23a2.2271,2.2271,0,0,1-.295.49,1.42,1.42,0,0,1-.335.305,1.2416,1.2416,0,0,1-.39.155,1.9408,1.9408,0,0,1-.45.05,1.3364,1.3364,0,0,1-.415-.05c-.097-.03-.145-.0767-.145-.14V15.26h.35a1.2693,1.2693,0,0,0,.25-.025.8409.8409,0,0,0,.24-.1,1.0066,1.0066,0,0,0,.22-.185,1.3,1.3,0,0,0,.19-.3l.35-.73-2.88-5.085h.905a.3021.3021,0,0,1,.205.065.53.53,0,0,1,.13.16l1.77,3.25a4.5145,4.5145,0,0,1,.3.72q.0555-.18.12-.36c.047-.12.098-.24.155-.36l1.505-3.25a.4846.4846,0,0,1,.12-.155.32.32,0,0,1,.21-.07Zm3.101,2.35a.5629.5629,0,0,1,.185-.18.4631.4631,0,0,1,.245-.07h.695l-1.315,1.93a1.5789,1.5789,0,0,1-.25.305.93.93,0,0,1-.32.18,1.0335,1.0335,0,0,1,.405.205,1.3521,1.3521,0,0,1,.295.35L140.798,16h-.62a.71.71,0,0,1-.37-.08.7011.7011,0,0,1-.225-.23l-.985-1.575a.7708.7708,0,0,0-.705-.39h-.545v2.28h-.895v-5.07h.895v2.19h.48a.7094.7094,0,0,0,.625-.34Zm2.996,3.595a1.43,1.43,0,0,0,.535.465,1.5209,1.5209,0,0,0,.65.135,1.2831,1.2831,0,0,0,1.09-.505,2.361,2.361,0,0,0,.38-1.44,3.4976,3.4976,0,0,0-.09-.85,1.61,1.61,0,0,0-.25-.58.9763.9763,0,0,0-.405-.335,1.3482,1.3482,0,0,0-.545-.105,1.447,1.447,0,0,0-.765.2,2.2046,2.2046,0,0,0-.6.565Zm-.045-3.06a2.62,2.62,0,0,1,.74-.635,1.9,1.9,0,0,1,.96-.24,1.82,1.82,0,0,1,.795.17,1.6048,1.6048,0,0,1,.605.495,2.3585,2.3585,0,0,1,.385.81,4.17,4.17,0,0,1,.135,1.115,3.52,3.52,0,0,1-.15,1.045,2.5182,2.5182,0,0,1-.435.835,1.9889,1.9889,0,0,1-1.605.755,1.8918,1.8918,0,0,1-.8-.155,1.9178,1.9178,0,0,1-.585-.44v2.24h-.895v-6.78h.535a.22.22,0,0,1,.235.185Zm7.491,2a7.204,7.204,0,0,0-1.05.1,2.9486,2.9486,0,0,0-.705.2.9945.9945,0,0,0-.395.295.6435.6435,0,0,0-.12.38.828.828,0,0,0,.065.345.6656.6656,0,0,0,.175.24.79.79,0,0,0,.265.135,1.3111,1.3111,0,0,0,.33.04,1.9178,1.9178,0,0,0,.43-.045,1.6671,1.6671,0,0,0,.365-.14,1.9881,1.9881,0,0,0,.33-.215,2.78,2.78,0,0,0,.31-.285Zm-2.875-2.07a2.8842,2.8842,0,0,1,.905-.605,2.7913,2.7913,0,0,1,1.075-.2,1.92,1.92,0,0,1,.755.14,1.5475,1.5475,0,0,1,.555.39,1.6565,1.6565,0,0,1,.34.605,2.54,2.54,0,0,1,.115.78V16h-.395a.4051.4051,0,0,1-.2-.04.2979.2979,0,0,1-.11-.17l-.1-.48q-.201.1849-.39.33a2.4644,2.4644,0,0,1-.4.24,2.1539,2.1539,0,0,1-.45.145,2.31,2.31,0,0,1-.525.055,1.8753,1.8753,0,0,1-.555-.08,1.3354,1.3354,0,0,1-.455-.25,1.1975,1.1975,0,0,1-.305-.415,1.4946,1.4946,0,0,1-.11-.6,1.1014,1.1014,0,0,1,.165-.575,1.4339,1.4339,0,0,1,.535-.495,3.4485,3.4485,0,0,1,.965-.35,7.2091,7.2091,0,0,1,1.46-.16V12.76a1.3436,1.3436,0,0,0-.255-.89.917.917,0,0,0-.745-.305,1.5791,1.5791,0,0,0-.555.085,1.9587,1.9587,0,0,0-.385.185c-.107.0667-.2.1283-.28.185a.4034.4034,0,0,1-.23.08.2648.2648,0,0,1-.155-.045.46.46,0,0,1-.11-.12Zm9.445-.715V16h-.89V12.56c0-.0667.004-.1383.01-.215s.015-.1533.025-.23q-.045.1-.09.185a1.2764,1.2764,0,0,1-.095.155l-2.445,3.325a.8191.8191,0,0,1-.14.155.2649.2649,0,0,1-.18.07h-.54V10.94h.895v3.44c0,.0633-.003.1333-.01.21-.006.0733-.015.1483-.025.225q.045-.0949.09-.175.045-.0851.09-.155l2.445-3.325a.7657.7657,0,0,1,.14-.15.2761.2761,0,0,1,.185-.075Zm5.627,0V16h-.895V13.63h-2.43V16h-.895V10.935h.895v2.02h2.43v-2.02Zm3.36,4.415a1.4777,1.4777,0,0,0,.465-.065.9407.9407,0,0,0,.33-.19.8014.8014,0,0,0,.195-.29,1.0381,1.0381,0,0,0,.01-.695.6757.6757,0,0,0-.185-.28.8736.8736,0,0,0-.33-.19,1.5578,1.5578,0,0,0-.5-.07h-1.08v1.78Zm-.015-2.43a2.6768,2.6768,0,0,1,.88.125,1.5217,1.5217,0,0,1,.575.335,1.2031,1.2031,0,0,1,.315.485,1.7419,1.7419,0,0,1,.095.57,1.6313,1.6313,0,0,1-.12.63,1.3658,1.3658,0,0,1-.355.495,1.7436,1.7436,0,0,1-.58.325,2.5118,2.5118,0,0,1-.795.115h-1.945V10.935h.85V12.92Zm3.87-1.985V16h-.89V10.935Zm1.267,4.515a.6217.6217,0,0,1,.175-.445.6289.6289,0,0,1,.2-.135.6049.6049,0,0,1,.245-.05.6118.6118,0,0,1,.245.05.652.652,0,0,1,.2.135.665.665,0,0,1,.135.2.6134.6134,0,0,1,.05.245.626.626,0,0,1-.05.25.6861.6861,0,0,1-.135.195.5854.5854,0,0,1-.2.13.6118.6118,0,0,1-.245.05.6049.6049,0,0,1-.245-.05.5669.5669,0,0,1-.2-.13.6912.6912,0,0,1-.13-.195A.68.68,0,0,1,170.649,15.45Zm10.707.55h-.97V9.6h-2.37q-.0705,1.38-.19,2.395a15.2016,15.2016,0,0,1-.285,1.735,5.8885,5.8885,0,0,1-.38,1.175,2.5425,2.5425,0,0,1-.465.71,1.3282,1.3282,0,0,1-.54.355,1.97,1.97,0,0,1-.615.095,1.332,1.332,0,0,1-.415-.05c-.097-.03-.145-.0767-.145-.14V15.26h.35a1.0937,1.0937,0,0,0,.395-.075.9427.9427,0,0,0,.375-.315,2.5971,2.5971,0,0,0,.34-.67,7.2387,7.2387,0,0,0,.29-1.15q.129-.7151.225-1.745.0945-1.035.145-2.47h4.255Zm5.932-.625a1.1837,1.1837,0,0,0,1.045-.5,2.4665,2.4665,0,0,0,.345-1.405,2.4769,2.4769,0,0,0-.345-1.41,1.3337,1.3337,0,0,0-2.09,0,2.4769,2.4769,0,0,0-.345,1.41,2.4665,2.4665,0,0,0,.345,1.405A1.1849,1.1849,0,0,0,187.288,15.375Zm-2.265-2.255a3.25,3.25,0,0,1,.215-.94,2.2411,2.2411,0,0,1,.465-.715,2.0006,2.0006,0,0,1,.69-.45,2.3917,2.3917,0,0,1,.895-.16,2.3665,2.3665,0,0,1,.955.185,2.0253,2.0253,0,0,1,.73.525,2.325,2.325,0,0,1,.46.825,3.6007,3.6007,0,0,1,0,2.155,2.35,2.35,0,0,1-.47.82,2.0781,2.0781,0,0,1-.73.525,2.3976,2.3976,0,0,1-.945.18,2.4607,2.4607,0,0,1-.91-.16,2.0054,2.0054,0,0,1-.69-.455,2.2888,2.2888,0,0,1-.465-.725,3.1519,3.1519,0,0,1-.205-.96h-1.225V16h-.895V10.935h.895V13.12Zm7.983,2.29a1.3612,1.3612,0,0,0,1.13-.475,2.093,2.093,0,0,0,.385-1.34,2.1445,2.1445,0,0,0-.37-1.335,1.2952,1.2952,0,0,0-1.1-.48,1.6952,1.6952,0,0,0-.64.115,1.2808,1.2808,0,0,0-.485.325,1.5212,1.5212,0,0,0-.305.53,2.2735,2.2735,0,0,0-.105.72,3.1705,3.1705,0,0,0,.095.815,1.7583,1.7583,0,0,0,.28.61,1.2825,1.2825,0,0,0,.465.385A1.525,1.525,0,0,0,193.006,15.41Zm.345-5.665a2.4565,2.4565,0,0,0-.875.225,1.7207,1.7207,0,0,0-.6.49,2.0749,2.0749,0,0,0-.36.735,4.1745,4.1745,0,0,0-.14.97,1.637,1.637,0,0,1,.31-.43,1.8224,1.8224,0,0,1,.435-.33,2.0435,2.0435,0,0,1,.53-.21,2.4441,2.4441,0,0,1,.615-.075,2.1858,2.1858,0,0,1,.905.18,1.8726,1.8726,0,0,1,.685.5,2.2156,2.2156,0,0,1,.435.785,3.2127,3.2127,0,0,1,.15,1.01,2.8777,2.8777,0,0,1-.175,1.025,2.1107,2.1107,0,0,1-1.26,1.275,2.7137,2.7137,0,0,1-1,.175,2.6515,2.6515,0,0,1-.955-.17,1.8479,1.8479,0,0,1-.77-.56,2.8525,2.8525,0,0,1-.515-1.025,5.724,5.724,0,0,1-.185-1.575,6.9339,6.9339,0,0,1,.145-1.47,3.4549,3.4549,0,0,1,.465-1.165,2.5,2.5,0,0,1,.835-.795,2.9309,2.9309,0,0,1,1.25-.37l1.81-.155.05.46a.4308.4308,0,0,1-.045.26.2465.2465,0,0,1-.215.115Zm7.564,1.19V16h-.89V12.56c0-.0667.004-.1383.01-.215s.015-.1533.025-.23q-.045.1-.09.185a1.2764,1.2764,0,0,1-.095.155L197.43,15.78a.8191.8191,0,0,1-.14.155.2649.2649,0,0,1-.18.07h-.54V10.94h.895v3.44c0,.0633-.003.1333-.01.21-.006.0733-.015.1483-.025.225q.045-.0949.09-.175.045-.0851.09-.155l2.445-3.325a.7657.7657,0,0,1,.14-.15.2761.2761,0,0,1,.185-.075Zm5.617.68h-1.945V16h-.89V11.615h-1.945v-.68h4.78Zm4.034,1.3a1.6881,1.6881,0,0,0-.09-.565,1.207,1.207,0,0,0-.255-.445,1.0764,1.0764,0,0,0-.405-.29,1.3482,1.3482,0,0,0-.545-.105,1.371,1.371,0,0,0-1.015.375,1.7392,1.7392,0,0,0-.46,1.03Zm.72,2.375a1.747,1.747,0,0,1-.395.35,2.5513,2.5513,0,0,1-.495.24,2.95,2.95,0,0,1-.54.14,3.161,3.161,0,0,1-.555.05,2.6243,2.6243,0,0,1-.97-.175,2.1839,2.1839,0,0,1-.765-.52,2.4218,2.4218,0,0,1-.5-.85,3.4462,3.4462,0,0,1-.18-1.16,2.9848,2.9848,0,0,1,.16-.99,2.327,2.327,0,0,1,.47-.795,2.1006,2.1006,0,0,1,.745-.53,2.4162,2.4162,0,0,1,.99-.195,2.2318,2.2318,0,0,1,.84.155,1.8361,1.8361,0,0,1,.67.44,1.973,1.973,0,0,1,.445.71,2.6985,2.6985,0,0,1,.16.96.5805.5805,0,0,1-.045.28.1872.1872,0,0,1-.17.07h-3.385a3.0152,3.0152,0,0,0,.13.835,1.7347,1.7347,0,0,0,.33.595,1.3538,1.3538,0,0,0,.5.355,1.7483,1.7483,0,0,0,.65.115,1.9423,1.9423,0,0,0,.575-.075,2.9074,2.9074,0,0,0,.42-.17c.116-.06.213-.115.29-.165a.3914.3914,0,0,1,.205-.08.1962.1962,0,0,1,.17.085Zm5.613.71h-.89V11.635h-1.6a16.04,16.04,0,0,1-.18,1.67,7.8046,7.8046,0,0,1-.29,1.195,3.3247,3.3247,0,0,1-.375.8,1.9109,1.9109,0,0,1-.435.475,1.2878,1.2878,0,0,1-.47.23,1.9725,1.9725,0,0,1-.48.06c-.283,0-.425-.045-.425-.135v-.565h.26a1.0623,1.0623,0,0,0,.345-.06.8776.8776,0,0,0,.34-.23,1.8654,1.8654,0,0,0,.325-.475,4.0668,4.0668,0,0,0,.28-.8,9.541,9.541,0,0,0,.22-1.195q.0945-.705.145-1.67h3.23Zm3.355-.65a1.4777,1.4777,0,0,0,.465-.065.9407.9407,0,0,0,.33-.19.8275.8275,0,0,0,.195-.29.9805.9805,0,0,0,.065-.36,1.0115,1.0115,0,0,0-.055-.335.6855.6855,0,0,0-.185-.28.89.89,0,0,0-.33-.19,1.5621,1.5621,0,0,0-.5-.07h-1.075v1.78Zm-.015-2.43a2.6768,2.6768,0,0,1,.88.125,1.53,1.53,0,0,1,.575.335,1.2243,1.2243,0,0,1,.315.485,1.7419,1.7419,0,0,1,.095.57,1.6313,1.6313,0,0,1-.12.63,1.3777,1.3777,0,0,1-.355.495,1.7436,1.7436,0,0,1-.58.325,2.5118,2.5118,0,0,1-.795.115h-1.945V10.935h.855V12.92Zm6.38-1.085a.4229.4229,0,0,1-.08.085.1817.1817,0,0,1-.11.03.3043.3043,0,0,1-.165-.06,2.29,2.29,0,0,0-.225-.14,1.6,1.6,0,0,0-.325-.135,1.4717,1.4717,0,0,0-.47-.065,1.5255,1.5255,0,0,0-.66.135,1.2685,1.2685,0,0,0-.48.38,1.7728,1.7728,0,0,0-.29.605,3.0481,3.0481,0,0,0-.095.795,2.931,2.931,0,0,0,.105.82,1.7957,1.7957,0,0,0,.295.6,1.3467,1.3467,0,0,0,.465.37,1.4679,1.4679,0,0,0,.615.125,1.6165,1.6165,0,0,0,.535-.075,1.5782,1.5782,0,0,0,.345-.175c.093-.0633.17-.12.23-.17a.2906.2906,0,0,1,.185-.08.1962.1962,0,0,1,.17.085l.25.325a1.7736,1.7736,0,0,1-.375.35,2.3921,2.3921,0,0,1-.455.245,2.524,2.524,0,0,1-.505.14,3.2258,3.2258,0,0,1-.54.045,2.2277,2.2277,0,0,1-.885-.175,2.033,2.033,0,0,1-.705-.505,2.3989,2.3989,0,0,1-.47-.82,3.3135,3.3135,0,0,1-.17-1.105,3.3637,3.3637,0,0,1,.155-1.045,2.3837,2.3837,0,0,1,.46-.825,2.0971,2.0971,0,0,1,.745-.545,2.5148,2.5148,0,0,1,1.02-.195,2.3546,2.3546,0,0,1,.94.175,2.2193,2.2193,0,0,1,.725.485Zm4.325-.65a.5629.5629,0,0,1,.185-.18.4631.4631,0,0,1,.245-.07h.695l-1.315,1.93a1.5789,1.5789,0,0,1-.25.305.93.93,0,0,1-.32.18,1.0335,1.0335,0,0,1,.405.205,1.3521,1.3521,0,0,1,.295.35L232.214,16h-.62a.71.71,0,0,1-.37-.08.7011.7011,0,0,1-.225-.23l-.985-1.575a.7708.7708,0,0,0-.705-.39h-.545v2.28h-.895v-5.07h.895v2.19h.48a.7094.7094,0,0,0,.625-.34Zm4.846,2.535a7.204,7.204,0,0,0-1.05.1,2.9486,2.9486,0,0,0-.705.2.9945.9945,0,0,0-.395.295.6435.6435,0,0,0-.12.38.8441.8441,0,0,0,.065.345.6775.6775,0,0,0,.175.24.8.8,0,0,0,.265.135,1.3111,1.3111,0,0,0,.33.04,1.9114,1.9114,0,0,0,.43-.045,1.6479,1.6479,0,0,0,.365-.14,1.9086,1.9086,0,0,0,.33-.215,2.6943,2.6943,0,0,0,.31-.285Zm-2.875-2.07a2.8956,2.8956,0,0,1,.905-.605,2.7949,2.7949,0,0,1,1.075-.2,1.92,1.92,0,0,1,.755.14,1.5475,1.5475,0,0,1,.555.39,1.6565,1.6565,0,0,1,.34.605,2.51,2.51,0,0,1,.115.78V16h-.395a.4077.4077,0,0,1-.2-.04.3029.3029,0,0,1-.11-.17l-.1-.48q-.1995.1849-.39.33a2.4644,2.4644,0,0,1-.4.24,2.1539,2.1539,0,0,1-.45.145,2.31,2.31,0,0,1-.525.055,1.8753,1.8753,0,0,1-.555-.08,1.3448,1.3448,0,0,1-.455-.25,1.21,1.21,0,0,1-.305-.415,1.512,1.512,0,0,1-.11-.6,1.1014,1.1014,0,0,1,.165-.575,1.4339,1.4339,0,0,1,.535-.495,3.46,3.46,0,0,1,.965-.35,7.2177,7.2177,0,0,1,1.46-.16V12.76a1.3436,1.3436,0,0,0-.255-.89.9156.9156,0,0,0-.745-.305,1.5791,1.5791,0,0,0-.555.085,1.9587,1.9587,0,0,0-.385.185c-.107.0667-.2.1283-.28.185a.401.401,0,0,1-.23.08.2648.2648,0,0,1-.155-.045.4774.4774,0,0,1-.11-.12Zm7.766,1.65V11.535h-.85a1.2005,1.2005,0,0,0-.48.085.8691.8691,0,0,0-.315.21.7352.7352,0,0,0-.165.285.9853.9853,0,0,0-.05.31.7746.7746,0,0,0,.3.645,1.3164,1.3164,0,0,0,.82.23Zm.85-2.365V16h-.85V13.865h-.39a.932.932,0,0,0-.235.025.56.56,0,0,0-.16.06.4144.4144,0,0,0-.115.105,1.5971,1.5971,0,0,0-.105.14l-1.11,1.495a.5879.5879,0,0,1-.21.235.68.68,0,0,1-.355.075h-.62l1.47-1.91a.8757.8757,0,0,1,.475-.4,2.0783,2.0783,0,0,1-.65-.18,1.5424,1.5424,0,0,1-.435-.305,1.1351,1.1351,0,0,1-.24-.395,1.3121,1.3121,0,0,1-.075-.435,1.4325,1.4325,0,0,1,.1-.52,1.2258,1.2258,0,0,1,.33-.46,1.6714,1.6714,0,0,1,.58-.33,2.5711,2.5711,0,0,1,.87-.13ZM251.141,16h-.97V9.6h-2.37q-.07,1.38-.19,2.395a15.2016,15.2016,0,0,1-.285,1.735,5.8885,5.8885,0,0,1-.38,1.175,2.5425,2.5425,0,0,1-.465.71,1.3282,1.3282,0,0,1-.54.355,1.97,1.97,0,0,1-.615.095,1.332,1.332,0,0,1-.415-.05c-.097-.03-.145-.0767-.145-.14V15.26h.35a1.0937,1.0937,0,0,0,.395-.075.9427.9427,0,0,0,.375-.315,2.5971,2.5971,0,0,0,.34-.67,7.2387,7.2387,0,0,0,.29-1.15q.129-.7151.225-1.745.0945-1.035.145-2.47h4.255Zm5.888-5.065V16h-.89V12.56c0-.0667.003-.1383.01-.215s.015-.1533.025-.23q-.045.1-.09.185a1.4157,1.4157,0,0,1-.095.155l-2.445,3.325a.8933.8933,0,0,1-.14.155.2686.2686,0,0,1-.18.07h-.54V10.94h.895v3.44c0,.0633-.004.1333-.01.21-.007.0733-.015.1483-.025.225q.045-.0949.09-.175.045-.0851.09-.155l2.445-3.325a.71.71,0,0,1,.14-.15.2724.2724,0,0,1,.185-.075Zm4.691.68h-2.39V16h-.895V10.935h3.285Zm3.533,2.105a7.204,7.204,0,0,0-1.05.1,2.9486,2.9486,0,0,0-.705.2.9945.9945,0,0,0-.395.295.6435.6435,0,0,0-.12.38.828.828,0,0,0,.065.345.6656.6656,0,0,0,.175.24.79.79,0,0,0,.265.135,1.3111,1.3111,0,0,0,.33.04,1.9178,1.9178,0,0,0,.43-.045,1.6671,1.6671,0,0,0,.365-.14,1.9881,1.9881,0,0,0,.33-.215,2.78,2.78,0,0,0,.31-.285Zm-2.875-2.07a2.8842,2.8842,0,0,1,.905-.605,2.7913,2.7913,0,0,1,1.075-.2,1.92,1.92,0,0,1,.755.14,1.5475,1.5475,0,0,1,.555.39,1.6565,1.6565,0,0,1,.34.605,2.54,2.54,0,0,1,.115.78V16h-.395a.4051.4051,0,0,1-.2-.04.2979.2979,0,0,1-.11-.17l-.1-.48q-.201.1849-.39.33a2.4644,2.4644,0,0,1-.4.24,2.1539,2.1539,0,0,1-.45.145,2.31,2.31,0,0,1-.525.055,1.8753,1.8753,0,0,1-.555-.08,1.3354,1.3354,0,0,1-.455-.25,1.1975,1.1975,0,0,1-.305-.415,1.4946,1.4946,0,0,1-.11-.6,1.1014,1.1014,0,0,1,.165-.575,1.4339,1.4339,0,0,1,.535-.495,3.4485,3.4485,0,0,1,.965-.35,7.2091,7.2091,0,0,1,1.46-.16V12.76a1.3436,1.3436,0,0,0-.255-.89.917.917,0,0,0-.745-.305,1.5791,1.5791,0,0,0-.555.085,1.9587,1.9587,0,0,0-.385.185c-.107.0667-.2.1283-.28.185a.4034.4034,0,0,1-.23.08.2648.2648,0,0,1-.155-.045.46.46,0,0,1-.11-.12Z"/><path class="f" d="M39.1725,141.62a.5108.5108,0,0,1,.378.138.4568.4568,0,0,1,.144.354V143h-5.952v-.492a.8968.8968,0,0,1,.06-.312.8346.8346,0,0,1,.204-.3l2.634-2.64q.33-.336.588-.642a4.0291,4.0291,0,0,0,.438-.606,2.76,2.76,0,0,0,.264-.606,2.2113,2.2113,0,0,0,.096-.654,1.5166,1.5166,0,0,0-.09-.546,1.0714,1.0714,0,0,0-.258-.402.9955.9955,0,0,0-.396-.24,1.4854,1.4854,0,0,0-.516-.084,1.51,1.51,0,0,0-.492.078,1.2532,1.2532,0,0,0-.396.21,1.2814,1.2814,0,0,0-.294.312,1.37,1.37,0,0,0-.18.396.6563.6563,0,0,1-.264.366.74.74,0,0,1-.468.042l-.78-.138a3.1865,3.1865,0,0,1,.348-1.092,2.5978,2.5978,0,0,1,.642-.786,2.6385,2.6385,0,0,1,.888-.474,3.5093,3.5093,0,0,1,1.08-.162,3.21,3.21,0,0,1,1.098.18,2.4325,2.4325,0,0,1,.852.498,2.2678,2.2678,0,0,1,.552.78,2.52,2.52,0,0,1,.198,1.014,2.6506,2.6506,0,0,1-.144.888,3.508,3.508,0,0,1-.378.78,5.0729,5.0729,0,0,1-.552.72q-.318.348-.666.708l-1.956,1.998a4.1312,4.1312,0,0,1,.558-.126,3.1878,3.1878,0,0,1,.534-.048Zm1.7349.564a.9594.9594,0,0,1,.066-.354.906.906,0,0,1,.84-.552.8618.8618,0,0,1,.354.072.9079.9079,0,0,1,.288.192.8607.8607,0,0,1,.198.288.8893.8893,0,0,1,.072.354.9041.9041,0,0,1-.072.36.8773.8773,0,0,1-.198.282.8318.8318,0,0,1-.288.186.8618.8618,0,0,1-.354.072.9041.9041,0,0,1-.36-.072.8318.8318,0,0,1-.288-.186.9269.9269,0,0,1-.192-.282A.9757.9757,0,0,1,40.9074,142.184Zm6.7477-2.454v-2.838a8.0956,8.0956,0,0,1,.054-.888l-2.694,3.726Zm2.382,0v.858a.3107.3107,0,0,1-.078.21.288.288,0,0,1-.222.084h-.792V143h-1.29v-2.118h-3.66a.409.409,0,0,1-.408-.324l-.156-.75,4.11-5.49h1.404v5.412Zm4.7229,0v-2.838a8.0956,8.0956,0,0,1,.054-.888L52.12,139.73Zm2.382,0v.858a.3107.3107,0,0,1-.078.21.288.288,0,0,1-.222.084H56.05V143H54.76v-2.118H51.1a.409.409,0,0,1-.408-.324l-.156-.75,4.11-5.49H56.05v5.412Z"/><path class="e" d="M45.83,129h-1.355v-6.195h-3.14V129h-1.35v-7.23H45.83Zm6.0962-.925V129h-4v-.925h1.465V123.86c0-.167.005-.338.015-.515l-1.04.87a.4482.4482,0,0,1-.18.09.4574.4574,0,0,1-.165,0,.4437.4437,0,0,1-.135-.05.3222.3222,0,0,1-.09-.085l-.39-.535,2.205-1.875h1.015v6.315Z"/><path class="f" d="M124.67,136.742a3.1865,3.1865,0,0,1,.348-1.092,2.5978,2.5978,0,0,1,.642-.786,2.6385,2.6385,0,0,1,.888-.474,3.5093,3.5093,0,0,1,1.08-.162,3.1533,3.1533,0,0,1,1.08.174,2.4009,2.4009,0,0,1,.828.474,2.0135,2.0135,0,0,1,.522.708,2.1008,2.1008,0,0,1,.186.882,2.5367,2.5367,0,0,1-.096.732,1.6907,1.6907,0,0,1-.264.546,1.577,1.577,0,0,1-.432.396,2.6886,2.6886,0,0,1-.582.27,2.2661,2.2661,0,0,1,1.164.75,2.0287,2.0287,0,0,1,.384,1.266,2.6091,2.6091,0,0,1-.24,1.146,2.4932,2.4932,0,0,1-.648.84,2.8483,2.8483,0,0,1-.948.51,3.6378,3.6378,0,0,1-1.134.174,3.88,3.88,0,0,1-1.14-.15,2.4751,2.4751,0,0,1-.846-.444,2.6814,2.6814,0,0,1-.612-.72,4.8589,4.8589,0,0,1-.432-.984l.654-.27a.7607.7607,0,0,1,.48-.054.46.46,0,0,1,.33.24q.108.21.234.414a1.8214,1.8214,0,0,0,.312.366,1.578,1.578,0,0,0,.42.258,1.5983,1.5983,0,0,0,.582.096,1.6758,1.6758,0,0,0,.66-.12,1.4357,1.4357,0,0,0,.468-.324,1.2637,1.2637,0,0,0,.282-.438,1.3448,1.3448,0,0,0,.096-.492,2.2275,2.2275,0,0,0-.066-.564.84.84,0,0,0-.276-.438,1.5009,1.5009,0,0,0-.606-.282,4.3108,4.3108,0,0,0-1.05-.102v-1.056a3.7494,3.7494,0,0,0,.906-.102,1.5423,1.5423,0,0,0,.57-.264.9153.9153,0,0,0,.3-.414,1.589,1.589,0,0,0,.084-.528,1.2082,1.2082,0,0,0-.342-.93,1.2858,1.2858,0,0,0-.912-.318,1.457,1.457,0,0,0-.486.078,1.3292,1.3292,0,0,0-.402.21,1.2814,1.2814,0,0,0-.294.312,1.37,1.37,0,0,0-.18.396.6442.6442,0,0,1-.27.366.7241.7241,0,0,1-.462.042Zm6.973,5.442a.9594.9594,0,0,1,.066-.354.906.906,0,0,1,.84-.552.8618.8618,0,0,1,.354.072.9079.9079,0,0,1,.288.192.8607.8607,0,0,1,.198.288.8893.8893,0,0,1,.072.354.9041.9041,0,0,1-.072.36.8773.8773,0,0,1-.198.282.8318.8318,0,0,1-.288.186.8618.8618,0,0,1-.354.072.9041.9041,0,0,1-.36-.072.8318.8318,0,0,1-.288-.186.9269.9269,0,0,1-.192-.282A.9757.9757,0,0,1,131.643,142.184Zm6.748-2.454v-2.838a8.0956,8.0956,0,0,1,.054-.888l-2.694,3.726Zm2.382,0v.858a.3107.3107,0,0,1-.078.21.288.288,0,0,1-.222.084h-.792V143h-1.29v-2.118h-3.66a.409.409,0,0,1-.408-.324l-.156-.75,4.11-5.49h1.404v5.412Zm4.723,0v-2.838a8.0956,8.0956,0,0,1,.054-.888l-2.694,3.726Zm2.382,0v.858a.3107.3107,0,0,1-.078.21.288.288,0,0,1-.222.084h-.792V143h-1.29v-2.118h-3.66a.409.409,0,0,1-.408-.324l-.156-.75,4.11-5.49h1.404v5.412Z"/><path class="e" d="M140.426,129h-1.34a.3385.3385,0,0,1-.225-.07.5828.5828,0,0,1-.13-.16l-1.675-2.775a1.0508,1.0508,0,0,1-.095.215l-1.605,2.56a1.0494,1.0494,0,0,1-.14.16.28.28,0,0,1-.2.07h-1.255l2.4-3.72-2.305-3.51h1.34a.3723.3723,0,0,1,.2.04.3422.3422,0,0,1,.12.12l1.645,2.65a2.0328,2.0328,0,0,1,.12-.25l1.51-2.375a.4139.4139,0,0,1,.12-.14.282.282,0,0,1,.165-.045h1.285l-2.325,3.455Z"/><path class="f" d="M215.405,136.742a3.1865,3.1865,0,0,1,.348-1.092,2.5978,2.5978,0,0,1,.642-.786,2.6385,2.6385,0,0,1,.888-.474,3.5093,3.5093,0,0,1,1.08-.162,3.1533,3.1533,0,0,1,1.08.174,2.4009,2.4009,0,0,1,.828.474,2.0135,2.0135,0,0,1,.522.708,2.1008,2.1008,0,0,1,.186.882,2.5367,2.5367,0,0,1-.096.732,1.6907,1.6907,0,0,1-.264.546,1.577,1.577,0,0,1-.432.396,2.6886,2.6886,0,0,1-.582.27,2.2661,2.2661,0,0,1,1.164.75,2.0287,2.0287,0,0,1,.384,1.266,2.6091,2.6091,0,0,1-.24,1.146,2.4932,2.4932,0,0,1-.648.84,2.8483,2.8483,0,0,1-.948.51,3.6378,3.6378,0,0,1-1.134.174,3.88,3.88,0,0,1-1.14-.15,2.4751,2.4751,0,0,1-.846-.444,2.6814,2.6814,0,0,1-.612-.72,4.8589,4.8589,0,0,1-.432-.984l.654-.27a.7607.7607,0,0,1,.48-.054.46.46,0,0,1,.33.24q.108.21.234.414a1.8214,1.8214,0,0,0,.312.366,1.578,1.578,0,0,0,.42.258,1.5983,1.5983,0,0,0,.582.096,1.6758,1.6758,0,0,0,.66-.12,1.4357,1.4357,0,0,0,.468-.324,1.2637,1.2637,0,0,0,.282-.438,1.3448,1.3448,0,0,0,.096-.492,2.2275,2.2275,0,0,0-.066-.564.84.84,0,0,0-.276-.438,1.5009,1.5009,0,0,0-.606-.282,4.3108,4.3108,0,0,0-1.05-.102v-1.056a3.7494,3.7494,0,0,0,.906-.102,1.5423,1.5423,0,0,0,.57-.264.9153.9153,0,0,0,.3-.414,1.589,1.589,0,0,0,.084-.528,1.2082,1.2082,0,0,0-.342-.93,1.2858,1.2858,0,0,0-.912-.318,1.457,1.457,0,0,0-.486.078,1.3292,1.3292,0,0,0-.402.21,1.2814,1.2814,0,0,0-.294.312,1.37,1.37,0,0,0-.18.396.6442.6442,0,0,1-.27.366.7241.7241,0,0,1-.462.042Zm6.973,5.442a.9594.9594,0,0,1,.066-.354.906.906,0,0,1,.84-.552.8618.8618,0,0,1,.354.072.9079.9079,0,0,1,.288.192.8607.8607,0,0,1,.198.288.8893.8893,0,0,1,.072.354.9041.9041,0,0,1-.072.36.8773.8773,0,0,1-.198.282.8318.8318,0,0,1-.288.186.8618.8618,0,0,1-.354.072.9041.9041,0,0,1-.36-.072.8318.8318,0,0,1-.288-.186.9269.9269,0,0,1-.192-.282A.9757.9757,0,0,1,222.378,142.184Zm9.136-3.522a7.06,7.06,0,0,1-.246,1.974,3.9684,3.9684,0,0,1-.672,1.38,2.7142,2.7142,0,0,1-1.014.816,3.1388,3.1388,0,0,1-2.52,0,2.7417,2.7417,0,0,1-1.002-.816,4.0342,4.0342,0,0,1-.666-1.38,8.2381,8.2381,0,0,1,0-3.948,4.0342,4.0342,0,0,1,.666-1.38,2.6846,2.6846,0,0,1,1.002-.81,3.075,3.075,0,0,1,2.52,0,2.6592,2.6592,0,0,1,1.014.81,3.9684,3.9684,0,0,1,.672,1.38A7.02,7.02,0,0,1,231.514,138.662Zm-1.53,0a7.3354,7.3354,0,0,0-.138-1.56,3.0871,3.0871,0,0,0-.372-.984,1.3051,1.3051,0,0,0-.528-.51,1.36,1.36,0,0,0-1.242,0,1.3183,1.3183,0,0,0-.522.51,3.1918,3.1918,0,0,0-.366.984,9.2842,9.2842,0,0,0,0,3.12,3.1918,3.1918,0,0,0,.366.984,1.3651,1.3651,0,0,0,.522.516,1.411,1.411,0,0,0,1.242,0,1.35,1.35,0,0,0,.528-.516,3.0871,3.0871,0,0,0,.372-.984A7.3354,7.3354,0,0,0,229.984,138.662Zm7.861,2.958a.5108.5108,0,0,1,.378.138.4568.4568,0,0,1,.144.354V143h-5.952v-.492a.8968.8968,0,0,1,.06-.312.8346.8346,0,0,1,.204-.3l2.634-2.64q.33-.336.588-.642a4.0291,4.0291,0,0,0,.438-.606,2.76,2.76,0,0,0,.264-.606,2.2113,2.2113,0,0,0,.096-.654,1.5166,1.5166,0,0,0-.09-.546,1.0714,1.0714,0,0,0-.258-.402.9955.9955,0,0,0-.396-.24,1.4854,1.4854,0,0,0-.516-.084,1.51,1.51,0,0,0-.492.078,1.2532,1.2532,0,0,0-.396.21,1.2814,1.2814,0,0,0-.294.312,1.37,1.37,0,0,0-.18.396.6563.6563,0,0,1-.264.366.74.74,0,0,1-.468.042l-.78-.138a3.1865,3.1865,0,0,1,.348-1.092,2.5978,2.5978,0,0,1,.642-.786,2.6385,2.6385,0,0,1,.888-.474,3.5093,3.5093,0,0,1,1.08-.162,3.21,3.21,0,0,1,1.098.18,2.4325,2.4325,0,0,1,.852.498,2.2678,2.2678,0,0,1,.552.78,2.52,2.52,0,0,1,.198,1.014,2.6506,2.6506,0,0,1-.144.888,3.508,3.508,0,0,1-.378.78,5.0729,5.0729,0,0,1-.552.72q-.318.348-.666.708l-1.956,1.998a4.1312,4.1312,0,0,1,.558-.126,3.1878,3.1878,0,0,1,.534-.048Z"/><path class="e" d="M227.301,129h-1.355v-6.195h-3.14V129h-1.35v-7.23h5.845Zm5.826-1.15a.4223.4223,0,0,1,.315.115.3807.3807,0,0,1,.12.295V129h-4.96v-.41a.7565.7565,0,0,1,.05-.26.7085.7085,0,0,1,.17-.25l2.195-2.2q.276-.28.49-.535a3.2725,3.2725,0,0,0,.365-.505,2.291,2.291,0,0,0,.22-.505,1.82,1.82,0,0,0,.08-.545,1.2651,1.2651,0,0,0-.075-.455.8874.8874,0,0,0-.215-.335.8258.8258,0,0,0-.33-.2,1.2274,1.2274,0,0,0-.43-.07,1.2719,1.2719,0,0,0-.41.065,1.0448,1.0448,0,0,0-.33.175,1.0811,1.0811,0,0,0-.245.26,1.1778,1.1778,0,0,0-.15.33.5451.5451,0,0,1-.22.305.6141.6141,0,0,1-.39.035l-.65-.115a2.66,2.66,0,0,1,.29-.91,2.18,2.18,0,0,1,.535-.655,2.2082,2.2082,0,0,1,.74-.395,2.9244,2.9244,0,0,1,.9-.135,2.6692,2.6692,0,0,1,.915.15,2.0232,2.0232,0,0,1,.71.415,1.8885,1.8885,0,0,1,.46.65,2.0988,2.0988,0,0,1,.165.845,2.2088,2.2088,0,0,1-.12.74,2.8661,2.8661,0,0,1-.315.65,4.1659,4.1659,0,0,1-.46.6q-.264.29-.555.59l-1.63,1.665a3.3658,3.3658,0,0,1,.465-.105,2.6249,2.6249,0,0,1,.445-.04Z"/><path class="f" d="M311.379,141.62a.5108.5108,0,0,1,.378.138.4568.4568,0,0,1,.144.354V143h-5.952v-.492a.8968.8968,0,0,1,.06-.312.8346.8346,0,0,1,.204-.3l2.634-2.64q.33-.336.588-.642a4.0291,4.0291,0,0,0,.438-.606,2.76,2.76,0,0,0,.264-.606,2.2113,2.2113,0,0,0,.096-.654,1.5166,1.5166,0,0,0-.09-.546,1.0714,1.0714,0,0,0-.258-.402.9955.9955,0,0,0-.396-.24,1.4854,1.4854,0,0,0-.516-.084,1.51,1.51,0,0,0-.492.078,1.2532,1.2532,0,0,0-.396.21,1.2814,1.2814,0,0,0-.294.312,1.37,1.37,0,0,0-.18.396.6563.6563,0,0,1-.264.366.74.74,0,0,1-.468.042l-.78-.138a3.1865,3.1865,0,0,1,.348-1.092,2.5978,2.5978,0,0,1,.642-.786,2.6385,2.6385,0,0,1,.888-.474,3.5093,3.5093,0,0,1,1.08-.162,3.21,3.21,0,0,1,1.098.18,2.4325,2.4325,0,0,1,.852.498,2.2678,2.2678,0,0,1,.552.78,2.52,2.52,0,0,1,.198,1.014,2.6506,2.6506,0,0,1-.144.888,3.508,3.508,0,0,1-.378.78,5.0729,5.0729,0,0,1-.552.72q-.318.348-.666.708l-1.956,1.998a4.1312,4.1312,0,0,1,.558-.126,3.1878,3.1878,0,0,1,.534-.048Zm1.735.564a.9594.9594,0,0,1,.066-.354.906.906,0,0,1,.84-.552.8618.8618,0,0,1,.354.072.9079.9079,0,0,1,.288.192.8607.8607,0,0,1,.198.288.8893.8893,0,0,1,.072.354.9041.9041,0,0,1-.072.36.8773.8773,0,0,1-.198.282.8318.8318,0,0,1-.288.186.8618.8618,0,0,1-.354.072.9041.9041,0,0,1-.36-.072.8318.8318,0,0,1-.288-.186.9269.9269,0,0,1-.192-.282A.9757.9757,0,0,1,313.114,142.184Zm5.607-4.71-.3.372a2.4025,2.4025,0,0,1,.54-.192,2.6425,2.6425,0,0,1,.63-.072,2.8626,2.8626,0,0,1,.954.162,2.2891,2.2891,0,0,1,.822.492,2.4041,2.4041,0,0,1,.57.81,2.7709,2.7709,0,0,1,.216,1.134,2.94,2.94,0,0,1-.222,1.14,2.8146,2.8146,0,0,1-.624.924,2.9014,2.9014,0,0,1-.972.624,3.5736,3.5736,0,0,1-2.496.006,2.6372,2.6372,0,0,1-1.542-1.578,3.6466,3.6466,0,0,1-.204-1.248,3.4917,3.4917,0,0,1,.246-1.254,5.7345,5.7345,0,0,1,.774-1.344l2.07-2.778a.8624.8624,0,0,1,.312-.246,1.0852,1.0852,0,0,1,.48-.102h1.32Zm.336,4.41a1.6992,1.6992,0,0,0,.648-.12,1.4539,1.4539,0,0,0,.51-.336,1.5461,1.5461,0,0,0,.336-.504,1.6668,1.6668,0,0,0,.12-.636,1.831,1.831,0,0,0-.114-.666,1.38,1.38,0,0,0-.828-.822,1.8666,1.8666,0,0,0-.648-.108,1.6541,1.6541,0,0,0-.642.12,1.417,1.417,0,0,0-.492.336,1.4828,1.4828,0,0,0-.318.504,1.68,1.68,0,0,0-.114.624,2.1565,2.1565,0,0,0,.096.66,1.432,1.432,0,0,0,.294.504,1.3953,1.3953,0,0,0,.486.33A1.801,1.801,0,0,0,319.057,141.884Zm6.073-4.41a4.875,4.875,0,0,1,.552-.084,4.5189,4.5189,0,0,1,.51-.03,3.2985,3.2985,0,0,1,1.206.204,2.47,2.47,0,0,1,.876.564,2.3609,2.3609,0,0,1,.534.846,2.9327,2.9327,0,0,1,.18,1.038,3.147,3.147,0,0,1-.246,1.26,2.8472,2.8472,0,0,1-.672.978,3.0586,3.0586,0,0,1-1.026.624,3.607,3.607,0,0,1-1.284.222,3.4518,3.4518,0,0,1-.774-.084,4.0944,4.0944,0,0,1-.69-.222,4.4317,4.4317,0,0,1-.594-.324,4.0621,4.0621,0,0,1-.486-.39l.456-.63a.4427.4427,0,0,1,.378-.204.5823.5823,0,0,1,.306.096q.156.096.354.21a3.1087,3.1087,0,0,0,.474.21,2.0161,2.0161,0,0,0,.66.096,1.8349,1.8349,0,0,0,.72-.132,1.3911,1.3911,0,0,0,.516-.366,1.5533,1.5533,0,0,0,.312-.564,2.2828,2.2828,0,0,0,.108-.714,1.4553,1.4553,0,0,0-.414-1.104,1.66,1.66,0,0,0-1.212-.402,3.8013,3.8013,0,0,0-1.266.228l-.924-.264.72-4.212h4.284v.63a.6979.6979,0,0,1-.198.516.93.93,0,0,1-.672.198h-2.382Z"/><path class="e" d="M299.192,122.875h-2.18V129h-1.345v-6.125h-2.18V121.77h5.705Zm1.94.915a2.7842,2.7842,0,0,1,1.035.185,2.2287,2.2287,0,0,1,.8.525,2.2794,2.2794,0,0,1,.515.83,3.4358,3.4358,0,0,1,0,2.195,2.3259,2.3259,0,0,1-.515.835,2.2013,2.2013,0,0,1-.8.53,2.7842,2.7842,0,0,1-1.035.185,2.8416,2.8416,0,0,1-1.045-.185,2.2644,2.2644,0,0,1-.805-.53,2.4423,2.4423,0,0,1-.515-.835,3.4358,3.4358,0,0,1,0-2.195,2.3918,2.3918,0,0,1,.515-.83,2.2934,2.2934,0,0,1,.805-.525A2.8416,2.8416,0,0,1,301.132,123.79Zm0,4.335a1.078,1.078,0,0,0,.945-.43,2.1415,2.1415,0,0,0,.31-1.26,2.1653,2.1653,0,0,0-.31-1.265,1.0741,1.0741,0,0,0-.945-.435,1.1084,1.1084,0,0,0-.965.44,2.7156,2.7156,0,0,0,0,2.52A1.1168,1.1168,0,0,0,301.132,128.125Zm7.846-3.34h-1.83V129h-1.235v-4.215h-1.825v-.915h4.89Zm4.224,1.08a8.36,8.36,0,0,0,.965,3.895.4962.4962,0,0,1,.055.175.3053.3053,0,0,1-.01.135.2351.2351,0,0,1-.065.1.3991.3991,0,0,1-.09.075l-.55.335a8.5988,8.5988,0,0,1-.63-1.145,8.1506,8.1506,0,0,1-.425-1.16,8.4487,8.4487,0,0,1-.245-1.185,10.0417,10.0417,0,0,1,0-2.45,8.429,8.429,0,0,1,.245-1.19,7.96,7.96,0,0,1,.425-1.155,8.5988,8.5988,0,0,1,.63-1.145l.55.33a.3991.3991,0,0,1,.09.075.2351.2351,0,0,1,.065.1.3053.3053,0,0,1,.01.135.5371.5371,0,0,1-.055.18,8.0992,8.0992,0,0,0-.715,1.87A8.2584,8.2584,0,0,0,313.202,125.865Zm6.979-.48a5.9094,5.9094,0,0,1-.205,1.645,3.3187,3.3187,0,0,1-.56,1.15,2.273,2.273,0,0,1-.845.68,2.6157,2.6157,0,0,1-2.1,0,2.2827,2.2827,0,0,1-.835-.68,3.35,3.35,0,0,1-.555-1.15,6.8651,6.8651,0,0,1,0-3.29,3.35,3.35,0,0,1,.555-1.15,2.2385,2.2385,0,0,1,.835-.675,2.5625,2.5625,0,0,1,2.1,0,2.23,2.23,0,0,1,.845.675,3.3187,3.3187,0,0,1,.56,1.15A5.8745,5.8745,0,0,1,320.181,125.385Zm-1.275,0a6.1569,6.1569,0,0,0-.115-1.3,2.58,2.58,0,0,0-.31-.82,1.096,1.096,0,0,0-.44-.425,1.1542,1.1542,0,0,0-.52-.125,1.14,1.14,0,0,0-.515.125,1.0924,1.0924,0,0,0-.435.425,2.6345,2.6345,0,0,0-.305.82,7.7368,7.7368,0,0,0,0,2.6,2.6345,2.6345,0,0,0,.305.82,1.1286,1.1286,0,0,0,.435.43,1.1741,1.1741,0,0,0,.515.12,1.1889,1.1889,0,0,0,.52-.12,1.1319,1.1319,0,0,0,.44-.43,2.58,2.58,0,0,0,.31-.82A6.1569,6.1569,0,0,0,318.906,125.385Zm2.236,4.84a.2323.2323,0,0,1-.09-.185.1983.1983,0,0,1,.025-.09.4723.4723,0,0,1,.07-.09l.135-.15a1.8648,1.8648,0,0,0,.16-.2,1.6489,1.6489,0,0,0,.145-.245,1.1891,1.1891,0,0,0,.105-.28.728.728,0,0,1-.29-.055.7142.7142,0,0,1-.225-.16.7878.7878,0,0,1-.145-.235.8269.8269,0,0,1-.05-.295.6584.6584,0,0,1,.05-.26.6409.6409,0,0,1,.15-.215.6267.6267,0,0,1,.23-.145.7671.7671,0,0,1,.295-.055.7292.7292,0,0,1,.33.07.59.59,0,0,1,.235.185.7547.7547,0,0,1,.14.27,1.0164,1.0164,0,0,1,.05.32,1.8566,1.8566,0,0,1-.075.505,2.54,2.54,0,0,1-.21.53,2.9666,2.9666,0,0,1-.35.515,3.1038,3.1038,0,0,1-.47.46Zm3.903-5.83a4.0853,4.0853,0,0,1,.46-.07,3.7023,3.7023,0,0,1,.425-.025,2.7558,2.7558,0,0,1,1.005.17,2.0475,2.0475,0,0,1,.73.47,1.9629,1.9629,0,0,1,.445.705,2.4452,2.4452,0,0,1,.15.865,2.6191,2.6191,0,0,1-.205,1.05,2.3681,2.3681,0,0,1-.56.815,2.5488,2.5488,0,0,1-.855.52,3.0093,3.0093,0,0,1-1.07.185,2.8658,2.8658,0,0,1-.645-.07,3.4218,3.4218,0,0,1-.575-.185,3.777,3.777,0,0,1-.495-.27,3.3851,3.3851,0,0,1-.405-.325l.38-.525a.37.37,0,0,1,.315-.17.4847.4847,0,0,1,.255.08c.087.053.185.112.295.175a2.62,2.62,0,0,0,.395.175,1.6932,1.6932,0,0,0,.55.08,1.5328,1.5328,0,0,0,.6-.11,1.1475,1.1475,0,0,0,.43-.305,1.2772,1.2772,0,0,0,.26-.47,1.9023,1.9023,0,0,0,.09-.595,1.2132,1.2132,0,0,0-.345-.92,1.3828,1.3828,0,0,0-1.01-.335,3.1608,3.1608,0,0,0-1.055.19l-.77-.22.6-3.51h3.57v.525a.5811.5811,0,0,1-.165.43.7743.7743,0,0,1-.56.165H325.3Zm5.196,1.47a8.2584,8.2584,0,0,0-.25-2.025,7.9545,7.9545,0,0,0-.71-1.87.5666.5666,0,0,1-.065-.18.3493.3493,0,0,1,.015-.135.2459.2459,0,0,1,.06-.1.4292.4292,0,0,1,.1-.075l.55-.33a8.5988,8.5988,0,0,1,.63,1.145,7.9669,7.9669,0,0,1,.665,2.345,10.0417,10.0417,0,0,1,0,2.45,8.027,8.027,0,0,1-.24,1.185,8.2746,8.2746,0,0,1-.425,1.16,8.5988,8.5988,0,0,1-.63,1.145l-.55-.335a.4292.4292,0,0,1-.1-.075.2459.2459,0,0,1-.06-.1.3493.3493,0,0,1-.015-.135.5216.5216,0,0,1,.065-.175,8.0732,8.0732,0,0,0,.71-1.87A8.2584,8.2584,0,0,0,330.241,125.865Zm12.756-4.095V129h-1.185v-4.67c0-.187.01-.388.03-.605l-2.185,4.105a.5046.5046,0,0,1-.475.295h-.19a.5046.5046,0,0,1-.475-.295l-2.21-4.12c.01.11.018.218.025.325s.01.205.01.295V129h-1.185v-7.23h1.015c.06,0,.112.002.155.005a.3894.3894,0,0,1,.115.025.2281.2281,0,0,1,.095.065.5144.5144,0,0,1,.085.12L338.787,126c.057.107.108.217.155.33.05.113.098.23.145.35.047-.123.095-.242.145-.355.05-.117.103-.228.16-.335l2.135-4.005a.5144.5144,0,0,1,.085-.12.2832.2832,0,0,1,.095-.065.4566.4566,0,0,1,.12-.025c.043-.003.095-.005.155-.005Z"/><path class="g" d="M90.7355,112H0v.5H90.7355V156h.4985V112.5h90.237V156h.498V112.5h90.237V156h.499V112.5H343V112H90.7355Z"/><path class="f" d="M43.2671,92.77V100h-1.35V96.84h-3.395V100h-1.35V92.77h1.35v3.11h3.395V92.77Zm3.552,6.345a.8379.8379,0,0,0,.625-.21.731.731,0,0,0,.21-.54.7468.7468,0,0,0-.05-.27.6.6,0,0,0-.145-.23.6683.6683,0,0,0-.26-.155,1.0989,1.0989,0,0,0-.385-.06h-.915v1.465Zm-.01-2.345a2.7488,2.7488,0,0,1,.905.13,1.6419,1.6419,0,0,1,.6.35,1.2731,1.2731,0,0,1,.33.51,1.7217,1.7217,0,0,1,.105.6,1.6794,1.6794,0,0,1-.13.665,1.4071,1.4071,0,0,1-.375.52,1.7384,1.7384,0,0,1-.605.335,2.5422,2.5422,0,0,1-.815.12h-2.1V94.87h1.175v1.9Zm7.5235,2.355a.9866.9866,0,0,0,.885-.43,2.2893,2.2893,0,0,0,.285-1.26,2.3157,2.3157,0,0,0-.285-1.265,1.1139,1.1139,0,0,0-1.77.005,2.9512,2.9512,0,0,0-.005,2.52A.9916.9916,0,0,0,54.3326,99.125Zm-2.38-2.165a2.8905,2.8905,0,0,1,.25-.905,2.231,2.231,0,0,1,.5-.685,2.1216,2.1216,0,0,1,.715-.43,2.6741,2.6741,0,0,1,.915-.15,2.621,2.621,0,0,1,1.005.185,2.1819,2.1819,0,0,1,.77.525,2.3433,2.3433,0,0,1,.495.83,3.2408,3.2408,0,0,1,.175,1.095,3.1727,3.1727,0,0,1-.18,1.1,2.4154,2.4154,0,0,1-.505.835,2.2,2.2,0,0,1-.775.53,2.5725,2.5725,0,0,1-.985.185,2.7069,2.7069,0,0,1-.94-.155,2.0952,2.0952,0,0,1-.72-.445,2.2968,2.2968,0,0,1-.49-.705,2.9822,2.9822,0,0,1-.235-.935h-1.015V100h-1.235V94.87h1.235v2.09ZM60.9,95.195a.69.69,0,0,1,.245-.235.6465.6465,0,0,1,.33-.09h.97L61.25,96.775a1.7025,1.7025,0,0,1-.255.325.9594.9594,0,0,1-.315.19,1.0151,1.0151,0,0,1,.41.225,1.5233,1.5233,0,0,1,.29.37L62.58,100h-.855a.9708.9708,0,0,1-.505-.11.9216.9216,0,0,1-.305-.315l-.755-1.42a.6714.6714,0,0,0-.26-.275.7143.7143,0,0,0-.365-.09H59.07V100h-1.235V94.87H59.07v2.115h.4a.5581.5581,0,0,0,.555-.315Zm5.1946,2.615a6.4984,6.4984,0,0,0-.9.095,2.3362,2.3362,0,0,0-.585.17.77.77,0,0,0-.315.245.5324.5324,0,0,0-.095.305.54.54,0,0,0,.19.465.8462.8462,0,0,0,.505.14,1.472,1.472,0,0,0,.655-.135,1.9785,1.9785,0,0,0,.545-.42Zm-2.83-2.225a3.044,3.044,0,0,1,2.13-.81,2.0507,2.0507,0,0,1,.805.15,1.6578,1.6578,0,0,1,.6.41,1.7,1.7,0,0,1,.37.625,2.3682,2.3682,0,0,1,.13.8V100h-.56a.5911.5911,0,0,1-.27-.05.3768.3768,0,0,1-.15-.215l-.11-.37a4.8512,4.8512,0,0,1-.38.31,2.33,2.33,0,0,1-.385.22,1.96,1.96,0,0,1-.43.135,2.33,2.33,0,0,1-.5.05,2.0132,2.0132,0,0,1-.6-.085,1.349,1.349,0,0,1-.475-.265,1.18,1.18,0,0,1-.31-.435,1.5436,1.5436,0,0,1-.11-.605,1.1831,1.1831,0,0,1,.065-.385,1.1511,1.1511,0,0,1,.21-.37,1.8274,1.8274,0,0,1,.385-.33,2.5015,2.5015,0,0,1,.575-.27,4.9046,4.9046,0,0,1,.8-.185,7.6583,7.6583,0,0,1,1.04-.09v-.3a1.1125,1.1125,0,0,0-.22-.76.8006.8006,0,0,0-.635-.25,1.53,1.53,0,0,0-.5.07,1.9538,1.9538,0,0,0-.345.16q-.15.085-.275.155a.5256.5256,0,0,1-.27.07.3661.3661,0,0,1-.22-.065.598.598,0,0,1-.145-.16Zm8.9932.37a.5732.5732,0,0,1-.11.11.237.237,0,0,1-.15.04.35.35,0,0,1-.185-.055q-.09-.06-.215-.13a1.4028,1.4028,0,0,0-.3-.13,1.4625,1.4625,0,0,0-.995.06,1.0784,1.0784,0,0,0-.41.335,1.5465,1.5465,0,0,0-.24.535,3.162,3.162,0,0,0,.005,1.435,1.6241,1.6241,0,0,0,.255.54,1.12,1.12,0,0,0,.4.33,1.2357,1.2357,0,0,0,.53.11,1.3349,1.3349,0,0,0,.475-.07,1.6691,1.6691,0,0,0,.31-.16q.1249-.09.215-.16a.3309.3309,0,0,1,.21-.075.2507.2507,0,0,1,.225.115l.355.45a2.3006,2.3006,0,0,1-.445.405,2.551,2.551,0,0,1-.5.26,2.6,2.6,0,0,1-.53.135,3.6347,3.6347,0,0,1-.54.04,2.2973,2.2973,0,0,1-.895-.175,2.1426,2.1426,0,0,1-.735-.52,2.5076,2.5076,0,0,1-.5-.83,3.55,3.55,0,0,1-.02-2.17,2.3741,2.3741,0,0,1,.48-.835,2.1739,2.1739,0,0,1,.78-.555,2.6874,2.6874,0,0,1,1.07-.2,2.5277,2.5277,0,0,1,1.005.185,2.453,2.453,0,0,1,.78.53Zm5.6692-.17h-1.83V100h-1.235V95.785h-1.825V94.87h4.89ZM83.0263,100h-1.235V95.815h-1.26a14.2426,14.2426,0,0,1-.185,1.63,7.09,7.09,0,0,1-.3,1.155,2.9628,2.9628,0,0,1-.385.765,1.83,1.83,0,0,1-.45.445,1.3608,1.3608,0,0,1-.495.21,2.4138,2.4138,0,0,1-.515.055,1.2183,1.2183,0,0,1-.405-.05q-.125-.045-.125-.13v-.77h.295a1.1339,1.1339,0,0,0,.33-.05.7783.7783,0,0,0,.32-.205,1.6469,1.6469,0,0,0,.295-.44,3.9292,3.9292,0,0,0,.255-.76,10.3147,10.3147,0,0,0,.21-1.16q.09-.6851.14-1.64h3.51Z"/><path class="f" d="M274.428,92.77V100h-1.355V97.105a10.0588,10.0588,0,0,1-1.125.215,5.502,5.502,0,0,1-1.005.045,3.1861,3.1861,0,0,1-.85-.155,1.6918,1.6918,0,0,1-1.08-1.07,2.8746,2.8746,0,0,1-.15-.985V92.77h1.355v2.385a1.5086,1.5086,0,0,0,.145.7.8748.8748,0,0,0,.475.405,2.1929,2.1929,0,0,0,.88.105,7.3652,7.3652,0,0,0,1.355-.22V92.77Zm4.681,4.075a1.4049,1.4049,0,0,0-.07-.45,1.0365,1.0365,0,0,0-.2-.375.9132.9132,0,0,0-.345-.25,1.1278,1.1278,0,0,0-.48-.095,1.1542,1.1542,0,0,0-.845.305,1.5087,1.5087,0,0,0-.39.865Zm-2.355.745a2.4738,2.4738,0,0,0,.14.685,1.44,1.44,0,0,0,.29.475,1.1844,1.1844,0,0,0,.425.28,1.6147,1.6147,0,0,0,.55.09,1.67,1.67,0,0,0,.515-.07,2.2647,2.2647,0,0,0,.38-.155q.165-.085.285-.155a.4953.4953,0,0,1,.24-.07.2547.2547,0,0,1,.23.115l.355.45a2.098,2.098,0,0,1-.46.405,2.7252,2.7252,0,0,1-.535.26,2.9779,2.9779,0,0,1-.565.135,3.9415,3.9415,0,0,1-.555.04,2.7719,2.7719,0,0,1-.995-.175,2.281,2.281,0,0,1-.8-.525,2.5038,2.5038,0,0,1-.535-.86,3.3486,3.3486,0,0,1-.195-1.19,2.8267,2.8267,0,0,1,.17-.985,2.374,2.374,0,0,1,.485-.805,2.32,2.32,0,0,1,.775-.545,2.5735,2.5735,0,0,1,1.035-.2,2.5081,2.5081,0,0,1,.895.155,1.9225,1.9225,0,0,1,.705.455,2.0335,2.0335,0,0,1,.46.73,2.6506,2.6506,0,0,1,.17.985.8187.8187,0,0,1-.06.38.2505.2505,0,0,1-.23.095Zm9.272,2.41h-1.235V95.815h-1.26a14.1087,14.1087,0,0,1-.185,1.63,7.0286,7.0286,0,0,1-.3,1.155,2.9346,2.9346,0,0,1-.385.765,1.83,1.83,0,0,1-.45.445,1.3608,1.3608,0,0,1-.495.21,2.41,2.41,0,0,1-.515.055,1.2208,1.2208,0,0,1-.405-.05c-.083-.03-.125-.0733-.125-.13v-.77h.295a1.1339,1.1339,0,0,0,.33-.05.7764.7764,0,0,0,.32-.205,1.6259,1.6259,0,0,0,.295-.44,3.8489,3.8489,0,0,0,.255-.76,10.3147,10.3147,0,0,0,.21-1.16q.09-.6851.14-1.64h3.51Zm5.012-4.045a.6.6,0,0,1-.11.11.2393.2393,0,0,1-.15.04.3485.3485,0,0,1-.185-.055c-.06-.04-.132-.0833-.215-.13a1.43,1.43,0,0,0-.3-.13,1.2938,1.2938,0,0,0-.425-.06,1.279,1.279,0,0,0-.57.12,1.0739,1.0739,0,0,0-.41.335,1.5355,1.5355,0,0,0-.24.535,2.7985,2.7985,0,0,0-.08.705,2.8365,2.8365,0,0,0,.085.73,1.6241,1.6241,0,0,0,.255.54,1.1179,1.1179,0,0,0,.4.33,1.2328,1.2328,0,0,0,.53.11,1.3372,1.3372,0,0,0,.475-.07,1.6982,1.6982,0,0,0,.31-.16c.083-.06.155-.1133.215-.16a.33.33,0,0,1,.21-.075.2507.2507,0,0,1,.225.115l.355.45a2.3094,2.3094,0,0,1-.445.405,2.5594,2.5594,0,0,1-.5.26,2.6047,2.6047,0,0,1-.53.135,3.6347,3.6347,0,0,1-.54.04,2.2962,2.2962,0,0,1-.895-.175,2.1426,2.1426,0,0,1-.735-.52,2.5026,2.5026,0,0,1-.5-.83,3.55,3.55,0,0,1-.02-2.17,2.3741,2.3741,0,0,1,.48-.835,2.1739,2.1739,0,0,1,.78-.555,2.6854,2.6854,0,0,1,1.07-.2,2.53,2.53,0,0,1,1.005.185,2.453,2.453,0,0,1,.78.53Zm5.879-1.085V100h-1.235V97.005c0-.0767.003-.16.01-.25.01-.0933.022-.1867.035-.28a2.4517,2.4517,0,0,1-.22.405c-.007.0067-.04.0533-.1.14-.06.0833-.138.1917-.235.325q-.1395.2-.32.455-.18.25-.365.51-.435.615-.985,1.39a1.04,1.04,0,0,1-.185.205.3662.3662,0,0,1-.255.1h-.755v-5.13h1.235V97.87a2.41,2.41,0,0,1-.015.255q-.0105.135-.03.275a2.6089,2.6089,0,0,1,.22-.405c.003-.0067.035-.0517.095-.135s.137-.1917.23-.325q.1455-.2.325-.45.18-.255.365-.52.435-.615.99-1.39a.8817.8817,0,0,1,.185-.205.3855.3855,0,0,1,.26-.1Z"/><path class="h" d="M162.001,79.89V81h-4.8V79.89h1.758V74.832q0-.3.018-.618l-1.248,1.044a.4784.4784,0,0,1-.414.108.5222.5222,0,0,1-.162-.06.381.381,0,0,1-.108-.102l-.468-.642,2.646-2.25h1.218V79.89Zm4.003-4.416-.3.372a2.4025,2.4025,0,0,1,.54-.192,2.6425,2.6425,0,0,1,.63-.072,2.8626,2.8626,0,0,1,.954.162,2.2891,2.2891,0,0,1,.822.492,2.4041,2.4041,0,0,1,.57.81,2.7709,2.7709,0,0,1,.216,1.134,2.94,2.94,0,0,1-.222,1.14,2.8146,2.8146,0,0,1-.624.924,2.9014,2.9014,0,0,1-.972.624,3.5736,3.5736,0,0,1-2.496.006,2.6372,2.6372,0,0,1-1.542-1.578,3.6466,3.6466,0,0,1-.204-1.248,3.4917,3.4917,0,0,1,.246-1.254,5.7345,5.7345,0,0,1,.774-1.344l2.07-2.778a.8624.8624,0,0,1,.312-.246,1.0852,1.0852,0,0,1,.48-.102h1.32Zm.336,4.41a1.6992,1.6992,0,0,0,.648-.12,1.4539,1.4539,0,0,0,.51-.336,1.5461,1.5461,0,0,0,.336-.504,1.6668,1.6668,0,0,0,.12-.636,1.831,1.831,0,0,0-.114-.666,1.38,1.38,0,0,0-.828-.822,1.8666,1.8666,0,0,0-.648-.108,1.6541,1.6541,0,0,0-.642.12,1.417,1.417,0,0,0-.492.336,1.4828,1.4828,0,0,0-.318.504,1.68,1.68,0,0,0-.114.624,2.1565,2.1565,0,0,0,.096.66,1.432,1.432,0,0,0,.294.504,1.3953,1.3953,0,0,0,.486.33A1.801,1.801,0,0,0,166.34,79.884Zm4.249.3a.9594.9594,0,0,1,.066-.354.906.906,0,0,1,.84-.552.8618.8618,0,0,1,.354.072.9079.9079,0,0,1,.288.192.8607.8607,0,0,1,.198.288.8893.8893,0,0,1,.072.354.9041.9041,0,0,1-.072.36.8773.8773,0,0,1-.198.282.8318.8318,0,0,1-.288.186.8618.8618,0,0,1-.354.072.9041.9041,0,0,1-.36-.072.8318.8318,0,0,1-.288-.186.9269.9269,0,0,1-.192-.282A.9757.9757,0,0,1,170.589,80.184Zm0-4.278a.9594.9594,0,0,1,.066-.354.906.906,0,0,1,.84-.552.8618.8618,0,0,1,.354.072.9079.9079,0,0,1,.288.192.8607.8607,0,0,1,.198.288.8893.8893,0,0,1,.072.354.9041.9041,0,0,1-.072.36.8773.8773,0,0,1-.198.282.9079.9079,0,0,1-.288.192.93.93,0,0,1-.354.066.9757.9757,0,0,1-.36-.066.9079.9079,0,0,1-.288-.192.9269.9269,0,0,1-.192-.282A.9757.9757,0,0,1,170.589,75.906Zm9.238.756a7.06,7.06,0,0,1-.246,1.974,3.9684,3.9684,0,0,1-.672,1.38,2.7142,2.7142,0,0,1-1.014.816,3.1388,3.1388,0,0,1-2.52,0,2.7417,2.7417,0,0,1-1.002-.816,4.0342,4.0342,0,0,1-.666-1.38,8.2381,8.2381,0,0,1,0-3.948,4.0342,4.0342,0,0,1,.666-1.38,2.6846,2.6846,0,0,1,1.002-.81,3.075,3.075,0,0,1,2.52,0,2.6592,2.6592,0,0,1,1.014.81,3.9684,3.9684,0,0,1,.672,1.38A7.02,7.02,0,0,1,179.827,76.662Zm-1.53,0a7.3354,7.3354,0,0,0-.138-1.56,3.0871,3.0871,0,0,0-.372-.984,1.3051,1.3051,0,0,0-.528-.51,1.36,1.36,0,0,0-1.242,0,1.3183,1.3183,0,0,0-.522.51,3.1918,3.1918,0,0,0-.366.984,9.2842,9.2842,0,0,0,0,3.12,3.1918,3.1918,0,0,0,.366.984,1.3651,1.3651,0,0,0,.522.516,1.411,1.411,0,0,0,1.242,0,1.35,1.35,0,0,0,.528-.516,3.0871,3.0871,0,0,0,.372-.984A7.3354,7.3354,0,0,0,178.297,76.662Zm8.611,0a7.06,7.06,0,0,1-.246,1.974,3.9684,3.9684,0,0,1-.672,1.38,2.7142,2.7142,0,0,1-1.014.816,3.1388,3.1388,0,0,1-2.52,0,2.7417,2.7417,0,0,1-1.002-.816,4.0342,4.0342,0,0,1-.666-1.38,8.2381,8.2381,0,0,1,0-3.948,4.0342,4.0342,0,0,1,.666-1.38,2.6846,2.6846,0,0,1,1.002-.81,3.075,3.075,0,0,1,2.52,0,2.6592,2.6592,0,0,1,1.014.81,3.9684,3.9684,0,0,1,.672,1.38A7.02,7.02,0,0,1,186.908,76.662Zm-1.53,0a7.3354,7.3354,0,0,0-.138-1.56,3.0871,3.0871,0,0,0-.372-.984,1.3051,1.3051,0,0,0-.528-.51,1.36,1.36,0,0,0-1.242,0,1.3183,1.3183,0,0,0-.522.51,3.1918,3.1918,0,0,0-.366.984,9.2842,9.2842,0,0,0,0,3.12,3.1918,3.1918,0,0,0,.366.984,1.3651,1.3651,0,0,0,.522.516,1.411,1.411,0,0,0,1.242,0,1.35,1.35,0,0,0,.528-.516,3.0871,3.0871,0,0,0,.372-.984A7.3354,7.3354,0,0,0,185.378,76.662Z"/><path class="f" d="M127.238,59.62a.5108.5108,0,0,1,.378.138.4568.4568,0,0,1,.144.354V61h-5.952v-.492a.8968.8968,0,0,1,.06-.312.8346.8346,0,0,1,.204-.3l2.634-2.64q.33-.336.588-.642a4.0291,4.0291,0,0,0,.438-.606,2.76,2.76,0,0,0,.264-.606,2.2113,2.2113,0,0,0,.096-.654,1.5166,1.5166,0,0,0-.09-.546,1.0714,1.0714,0,0,0-.258-.402.9955.9955,0,0,0-.396-.24,1.4854,1.4854,0,0,0-.516-.084,1.51,1.51,0,0,0-.492.078,1.2532,1.2532,0,0,0-.396.21,1.2814,1.2814,0,0,0-.294.312,1.37,1.37,0,0,0-.18.396.6563.6563,0,0,1-.264.366.74.74,0,0,1-.468.042l-.78-.138a3.1865,3.1865,0,0,1,.348-1.092,2.5978,2.5978,0,0,1,.642-.786,2.6385,2.6385,0,0,1,.888-.474,3.5093,3.5093,0,0,1,1.08-.162,3.21,3.21,0,0,1,1.098.18,2.4325,2.4325,0,0,1,.852.498,2.2678,2.2678,0,0,1,.552.78,2.52,2.52,0,0,1,.198,1.014,2.6506,2.6506,0,0,1-.144.888,3.508,3.508,0,0,1-.378.78,5.0729,5.0729,0,0,1-.552.72q-.318.348-.666.708l-1.956,1.998a4.1312,4.1312,0,0,1,.558-.126,3.1878,3.1878,0,0,1,.534-.048Zm1.843-4.878a3.1865,3.1865,0,0,1,.348-1.092,2.5978,2.5978,0,0,1,.642-.786,2.6385,2.6385,0,0,1,.888-.474,3.5093,3.5093,0,0,1,1.08-.162,3.1533,3.1533,0,0,1,1.08.174,2.4009,2.4009,0,0,1,.828.474,2.0135,2.0135,0,0,1,.522.708,2.1008,2.1008,0,0,1,.186.882,2.5367,2.5367,0,0,1-.096.732,1.6907,1.6907,0,0,1-.264.546,1.577,1.577,0,0,1-.432.396,2.6886,2.6886,0,0,1-.582.27,2.2661,2.2661,0,0,1,1.164.75,2.0287,2.0287,0,0,1,.384,1.266,2.6091,2.6091,0,0,1-.24,1.146,2.4932,2.4932,0,0,1-.648.84,2.8483,2.8483,0,0,1-.948.51,3.6378,3.6378,0,0,1-1.134.174,3.88,3.88,0,0,1-1.14-.15,2.4751,2.4751,0,0,1-.846-.444,2.6814,2.6814,0,0,1-.612-.72,4.8589,4.8589,0,0,1-.432-.984l.654-.27a.7607.7607,0,0,1,.48-.054.46.46,0,0,1,.33.24q.108.21.234.414a1.8214,1.8214,0,0,0,.312.366,1.578,1.578,0,0,0,.42.258,1.5983,1.5983,0,0,0,.582.096,1.6758,1.6758,0,0,0,.66-.12,1.4357,1.4357,0,0,0,.468-.324,1.2637,1.2637,0,0,0,.282-.438,1.3448,1.3448,0,0,0,.096-.492,2.2275,2.2275,0,0,0-.066-.564.84.84,0,0,0-.276-.438,1.5009,1.5009,0,0,0-.606-.282,4.3108,4.3108,0,0,0-1.05-.102V56.032a3.7494,3.7494,0,0,0,.906-.102,1.5423,1.5423,0,0,0,.57-.264.9153.9153,0,0,0,.3-.414,1.589,1.589,0,0,0,.084-.528,1.2082,1.2082,0,0,0-.342-.93,1.2858,1.2858,0,0,0-.912-.318,1.457,1.457,0,0,0-.486.078,1.3292,1.3292,0,0,0-.402.21,1.2814,1.2814,0,0,0-.294.312,1.37,1.37,0,0,0-.18.396.6442.6442,0,0,1-.27.366.7241.7241,0,0,1-.462.042Zm14.613,1.404a.6845.6845,0,0,1-.132.132.2844.2844,0,0,1-.18.048.4206.4206,0,0,1-.222-.066q-.108-.072-.258-.156a1.6778,1.6778,0,0,0-.36-.156,1.755,1.755,0,0,0-1.194.072,1.2947,1.2947,0,0,0-.492.402,1.8569,1.8569,0,0,0-.288.642,3.7944,3.7944,0,0,0,.006,1.722,1.9481,1.9481,0,0,0,.306.648,1.344,1.344,0,0,0,.48.396,1.4826,1.4826,0,0,0,.636.132,1.6025,1.6025,0,0,0,.57-.084,2.0015,2.0015,0,0,0,.372-.192q.15-.108.258-.192a.3972.3972,0,0,1,.252-.09.3009.3009,0,0,1,.27.138l.426.54a2.76,2.76,0,0,1-.534.486,2.902,2.902,0,0,1-1.236.474,4.416,4.416,0,0,1-.648.048,2.7642,2.7642,0,0,1-1.074-.21,2.5717,2.5717,0,0,1-.882-.624,3.01,3.01,0,0,1-.6-.996,4.26,4.26,0,0,1-.024-2.604,2.8489,2.8489,0,0,1,.576-1.002,2.61,2.61,0,0,1,.936-.666,3.2245,3.2245,0,0,1,1.284-.24,3.0323,3.0323,0,0,1,1.206.222,2.9442,2.9442,0,0,1,.936.636Zm5.359,1.068a1.697,1.697,0,0,0-.084-.54,1.2492,1.2492,0,0,0-.24-.45,1.0962,1.0962,0,0,0-.414-.3,1.3579,1.3579,0,0,0-.576-.114,1.383,1.383,0,0,0-1.014.366,1.8054,1.8054,0,0,0-.468,1.038Zm-2.826.894a2.9541,2.9541,0,0,0,.168.822,1.7147,1.7147,0,0,0,.348.57,1.4178,1.4178,0,0,0,.51.336,1.936,1.936,0,0,0,.66.108,2.0075,2.0075,0,0,0,.618-.084,2.76,2.76,0,0,0,.456-.186q.198-.102.342-.186a.59.59,0,0,1,.288-.084.3066.3066,0,0,1,.276.138l.426.54a2.5361,2.5361,0,0,1-.552.486,3.2812,3.2812,0,0,1-.642.312,3.5619,3.5619,0,0,1-.678.162,4.79,4.79,0,0,1-.666.048,3.33,3.33,0,0,1-1.194-.21,2.7263,2.7263,0,0,1-.96-.63,2.993,2.993,0,0,1-.642-1.032,4.0185,4.0185,0,0,1-.234-1.428,3.3827,3.3827,0,0,1,.204-1.182,2.8358,2.8358,0,0,1,.582-.966,2.7731,2.7731,0,0,1,.93-.654,3.0848,3.0848,0,0,1,1.242-.24,3.0135,3.0135,0,0,1,1.074.186,2.3208,2.3208,0,0,1,.846.546,2.4453,2.4453,0,0,1,.552.876,3.1969,3.1969,0,0,1,.204,1.182.9824.9824,0,0,1-.072.456.3014.3014,0,0,1-.276.114Zm10.755-3.264V61H155.5V58.276h-2.4V61h-1.482V54.844H153.1v2.334h2.4V54.844Zm6.868,1.098h-2.196V61h-1.482V55.942h-2.19V54.844h5.868Zm4.003,1.674V55.81h-.804a1.1392,1.1392,0,0,0-.468.084.8506.8506,0,0,0-.306.21.7356.7356,0,0,0-.162.288,1.1159,1.1159,0,0,0-.048.318.8275.8275,0,0,0,.282.666,1.1612,1.1612,0,0,0,.768.24Zm1.41-2.772V61h-1.41V58.528h-.258a1.0608,1.0608,0,0,0-.3.036.6.6,0,0,0-.198.09.5651.5651,0,0,0-.138.138q-.054.084-.114.186l-.984,1.512a1.3619,1.3619,0,0,1-.156.222.724.724,0,0,1-.186.162.9283.9283,0,0,1-.246.096,1.6085,1.6085,0,0,1-.336.03h-1.026l1.554-2.172a1.2452,1.2452,0,0,1,.294-.366,1.3565,1.3565,0,0,1,.396-.222,2.5394,2.5394,0,0,1-.738-.24,1.78,1.78,0,0,1-.486-.384,1.45,1.45,0,0,1-.27-.474,1.5681,1.5681,0,0,1-.084-.498,1.75,1.75,0,0,1,.132-.666,1.5629,1.5629,0,0,1,.432-.576,2.1837,2.1837,0,0,1,.756-.402,3.4875,3.4875,0,0,1,1.11-.156Zm4.485,5.166a1.3542,1.3542,0,0,0,1.146-.492,2.9408,2.9408,0,0,0,.006-2.874,1.3072,1.3072,0,0,0-1.122-.492,1.4247,1.4247,0,0,0-1.152.468,2.0838,2.0838,0,0,0-.396,1.386,2.5345,2.5345,0,0,0,.372,1.494A1.3339,1.3339,0,0,0,173.748,60.01Zm.432-6.282a2.7044,2.7044,0,0,0-.966.222,1.8569,1.8569,0,0,0-.66.492,2.14,2.14,0,0,0-.396.738,3.7874,3.7874,0,0,0-.156.948,2.0463,2.0463,0,0,1,.366-.426,2.3259,2.3259,0,0,1,.492-.336,2.6364,2.6364,0,0,1,.594-.222,2.9408,2.9408,0,0,1,.69-.078,2.7186,2.7186,0,0,1,1.104.216,2.317,2.317,0,0,1,.834.612,2.6631,2.6631,0,0,1,.528.954,3.8158,3.8158,0,0,1,.186,1.224,3.3673,3.3673,0,0,1-.222,1.254,2.6144,2.6144,0,0,1-1.578,1.554,3.5523,3.5523,0,0,1-1.248.21,3.4113,3.4113,0,0,1-1.23-.216,2.3632,2.3632,0,0,1-.966-.702,3.4524,3.4524,0,0,1-.636-1.26,6.8579,6.8579,0,0,1-.228-1.902,8.3387,8.3387,0,0,1,.174-1.752,4.16,4.16,0,0,1,.57-1.416,3.0213,3.0213,0,0,1,1.038-.984,3.6906,3.6906,0,0,1,1.584-.444l2.19-.168.078.768a.71.71,0,0,1-.072.42.3833.3833,0,0,1-.342.18Zm5.368,5.676a1.4658,1.4658,0,0,0,.546.432,1.6563,1.6563,0,0,0,.648.126,1.416,1.416,0,0,0,.606-.126,1.1649,1.1649,0,0,0,.456-.384,1.8656,1.8656,0,0,0,.294-.648,3.7563,3.7563,0,0,0,.102-.93,3.9431,3.9431,0,0,0-.09-.912,1.73,1.73,0,0,0-.246-.612.9783.9783,0,0,0-.396-.342,1.2056,1.2056,0,0,0-.522-.108,1.48,1.48,0,0,0-.786.198,2.3345,2.3345,0,0,0-.612.546Zm-.078-3.72a3.2109,3.2109,0,0,1,.858-.69,2.3046,2.3046,0,0,1,1.128-.264,2,2,0,0,1,.918.21,2.0205,2.0205,0,0,1,.72.612,2.8129,2.8129,0,0,1,.468.984,4.8353,4.8353,0,0,1,.168,1.338,4.2173,4.2173,0,0,1-.186,1.278,3.0949,3.0949,0,0,1-.534,1.02,2.3731,2.3731,0,0,1-1.926.918,2.2443,2.2443,0,0,1-.882-.156,2.2012,2.2012,0,0,1-.654-.444v2.52h-1.482V54.844h.906a.3641.3641,0,0,1,.378.27Zm8.665,1.932V55.81h-.804a1.1392,1.1392,0,0,0-.468.084.8506.8506,0,0,0-.306.21.7356.7356,0,0,0-.162.288,1.1159,1.1159,0,0,0-.048.318.8275.8275,0,0,0,.282.666,1.1612,1.1612,0,0,0,.768.24Zm1.41-2.772V61h-1.41V58.528h-.258a1.0608,1.0608,0,0,0-.3.036.6.6,0,0,0-.198.09.5651.5651,0,0,0-.138.138q-.054.084-.114.186l-.984,1.512a1.3619,1.3619,0,0,1-.156.222.724.724,0,0,1-.186.162.9283.9283,0,0,1-.246.096,1.6085,1.6085,0,0,1-.336.03h-1.026l1.554-2.172a1.2452,1.2452,0,0,1,.294-.366,1.3565,1.3565,0,0,1,.396-.222,2.5394,2.5394,0,0,1-.738-.24,1.78,1.78,0,0,1-.486-.384,1.45,1.45,0,0,1-.27-.474,1.5681,1.5681,0,0,1-.084-.498,1.75,1.75,0,0,1,.132-.666,1.5629,1.5629,0,0,1,.432-.576,2.1837,2.1837,0,0,1,.756-.402,3.4875,3.4875,0,0,1,1.11-.156Zm9.785,4.776a.5108.5108,0,0,1,.378.138.4568.4568,0,0,1,.144.354V61H193.9v-.492a.8968.8968,0,0,1,.06-.312.8346.8346,0,0,1,.204-.3l2.634-2.64q.33-.336.588-.642a4.0291,4.0291,0,0,0,.438-.606,2.76,2.76,0,0,0,.264-.606,2.2113,2.2113,0,0,0,.096-.654,1.5166,1.5166,0,0,0-.09-.546,1.0714,1.0714,0,0,0-.258-.402.9955.9955,0,0,0-.396-.24,1.4854,1.4854,0,0,0-.516-.084,1.51,1.51,0,0,0-.492.078,1.2532,1.2532,0,0,0-.396.21,1.2814,1.2814,0,0,0-.294.312,1.37,1.37,0,0,0-.18.396.6563.6563,0,0,1-.264.366.74.74,0,0,1-.468.042l-.78-.138a3.1865,3.1865,0,0,1,.348-1.092,2.5978,2.5978,0,0,1,.642-.786,2.6385,2.6385,0,0,1,.888-.474,3.5093,3.5093,0,0,1,1.08-.162,3.21,3.21,0,0,1,1.098.18,2.4325,2.4325,0,0,1,.852.498,2.2678,2.2678,0,0,1,.552.78,2.52,2.52,0,0,1,.198,1.014,2.6506,2.6506,0,0,1-.144.888,3.508,3.508,0,0,1-.378.78,5.0729,5.0729,0,0,1-.552.72q-.318.348-.666.708l-1.956,1.998a4.1312,4.1312,0,0,1,.558-.126,3.1878,3.1878,0,0,1,.534-.048Zm7.855-2.958a7.06,7.06,0,0,1-.246,1.974,3.9684,3.9684,0,0,1-.672,1.38,2.7142,2.7142,0,0,1-1.014.816,3.1388,3.1388,0,0,1-2.52,0,2.7417,2.7417,0,0,1-1.002-.816,4.0342,4.0342,0,0,1-.666-1.38,8.2381,8.2381,0,0,1,0-3.948,4.0342,4.0342,0,0,1,.666-1.38,2.6846,2.6846,0,0,1,1.002-.81,3.075,3.075,0,0,1,2.52,0,2.6592,2.6592,0,0,1,1.014.81,3.9684,3.9684,0,0,1,.672,1.38A7.02,7.02,0,0,1,207.185,56.662Zm-1.53,0a7.3354,7.3354,0,0,0-.138-1.56,3.0871,3.0871,0,0,0-.372-.984,1.3051,1.3051,0,0,0-.528-.51,1.36,1.36,0,0,0-1.242,0,1.3183,1.3183,0,0,0-.522.51,3.1918,3.1918,0,0,0-.366.984,9.2842,9.2842,0,0,0,0,3.12,3.1918,3.1918,0,0,0,.366.984,1.3651,1.3651,0,0,0,.522.516,1.411,1.411,0,0,0,1.242,0,1.35,1.35,0,0,0,.528-.516,3.0871,3.0871,0,0,0,.372-.984A7.3354,7.3354,0,0,0,205.655,56.662Zm7.837,2.958a.5108.5108,0,0,1,.378.138.4568.4568,0,0,1,.144.354V61h-5.952v-.492a.8968.8968,0,0,1,.06-.312.8346.8346,0,0,1,.204-.3l2.634-2.64q.33-.336.588-.642a4.0291,4.0291,0,0,0,.438-.606,2.76,2.76,0,0,0,.264-.606,2.2113,2.2113,0,0,0,.096-.654,1.5166,1.5166,0,0,0-.09-.546,1.0714,1.0714,0,0,0-.258-.402.9955.9955,0,0,0-.396-.24,1.4854,1.4854,0,0,0-.516-.084,1.51,1.51,0,0,0-.492.078,1.2532,1.2532,0,0,0-.396.21,1.2814,1.2814,0,0,0-.294.312,1.37,1.37,0,0,0-.18.396.6563.6563,0,0,1-.264.366.74.74,0,0,1-.468.042l-.78-.138a3.1865,3.1865,0,0,1,.348-1.092,2.5978,2.5978,0,0,1,.642-.786,2.6385,2.6385,0,0,1,.888-.474,3.5093,3.5093,0,0,1,1.08-.162,3.21,3.21,0,0,1,1.098.18,2.4325,2.4325,0,0,1,.852.498,2.2678,2.2678,0,0,1,.552.78,2.52,2.52,0,0,1,.198,1.014,2.6506,2.6506,0,0,1-.144.888,3.508,3.508,0,0,1-.378.78,5.0729,5.0729,0,0,1-.552.72q-.318.348-.666.708l-1.956,1.998a4.1312,4.1312,0,0,1,.558-.126,3.1878,3.1878,0,0,1,.534-.048Zm7.405.27V61h-4.8V59.89h1.758V54.832q0-.3.018-.618l-1.248,1.044a.4784.4784,0,0,1-.414.108.5222.5222,0,0,1-.162-.06.381.381,0,0,1-.108-.102l-.468-.642,2.646-2.25h1.218V59.89Z"/><circle class="i" cx="283" cy="60" r="20"/><g class="j"><path class="k" d="M291.485,51.5158A11.9988,11.9988,0,1,0,295,60.001,11.92,11.92,0,0,0,291.485,51.5158ZM287.954,65.55l-1.749-2.4639,1.238-3.8114,2.815-.8586,3.23,2.3462a10.4475,10.4475,0,0,1-1.56,4.7877Zm-9.908,0h-3.974a10.4471,10.4471,0,0,1-1.56-4.7876l3.23-2.3463,2.815.8586,1.238,3.8115Zm-3.296-8.2353-2.209,1.5915a10.4507,10.4507,0,0,1,1.355-4.1629Zm6.406,5.1546-1.14-3.5083L283,56.7924l2.984,2.1682-1.14,3.5083Zm10.094-5.1546a4.3837,4.3837,0,0,1,.854-2.5714,10.4507,10.4507,0,0,1,1.355,4.1629S291.35,57.9279,291.25,57.3143Zm-.215-4.0877-1.226,3.7741-2.815.8586-3.252-2.3626V52.6028l3.222-2.3407A10.5584,10.5584,0,0,1,291.035,53.2266Zm-5.845-3.5108-2.076,1.8-2.304-1.8a10.5391,10.5391,0,0,1,4.38,0Zm-6.154.5462,3.222,2.3409v2.8938l-3.252,2.3626-2.815-.8586-1.226-3.7742A10.5574,10.5574,0,0,1,279.036,50.262ZM275.19,67.0342l2.856-.156.68,2.7293A10.5691,10.5691,0,0,1,275.19,67.0342Zm5.293,3.1766-1.232-3.7935L281,63.9534h4l1.749,2.4639-1.232,3.7934a10.5332,10.5332,0,0,1-5.034,0Zm6.791-.6035.836-2.5731h2.7A10.57,10.57,0,0,1,287.274,69.6073Z"/></g><circle class="i" cx="60" cy="60" r="20"/><g class="l"><path class="k" d="M68.4852,51.5158A11.9992,11.9992,0,1,0,72,60.001,11.9219,11.9219,0,0,0,68.4852,51.5158ZM64.9541,65.55,63.205,63.0857l1.2384-3.8114,2.8151-.8586,3.2293,2.3462A10.4434,10.4434,0,0,1,68.9283,65.55Zm-9.9081,0H51.0717a10.4429,10.4429,0,0,1-1.5594-4.7876l3.2293-2.3463,2.8151.8586,1.2384,3.8115ZM51.75,57.3143l-2.2086,1.5915a10.44,10.44,0,0,1,1.3549-4.1629Zm6.4056,5.1546-1.14-3.5083L60,56.7924l2.9844,2.1682-1.14,3.5083ZM68.25,57.3143a4.387,4.387,0,0,1,.8537-2.5714,10.44,10.44,0,0,1,1.3549,4.1629S68.35,57.9279,68.25,57.3143Zm-.2146-4.0877-1.2263,3.7741-2.8151.8586-3.2517-2.3626V52.6028l3.2217-2.3407A10.565,10.565,0,0,1,68.0354,53.2266ZM62.19,49.7158l-2.0762,1.8-2.3045-1.8a10.5424,10.5424,0,0,1,4.3807,0Zm-6.1544.5462,3.2218,2.3409v2.8938l-3.2518,2.3626-2.8151-.8586-1.2263-3.7742A10.564,10.564,0,0,1,56.0359,50.262ZM52.19,67.0342l2.856-.156.68,2.7293A10.5659,10.5659,0,0,1,52.19,67.0342Zm5.2931,3.1766-1.2326-3.7935L58,63.9534H62L63.75,66.4173,62.517,70.2107a10.5328,10.5328,0,0,1-5.0339,0Zm6.7909-.6035.8361-2.5731h2.7A10.5675,10.5675,0,0,1,64.274,69.6073Z"/></g><path class="m" d="M310.987,113H343v43H310.987Z"/><path class="e" d="M336.1,10.0267l-3.227-.28L331.613,6.78a.6664.6664,0,0,0-1.226,0l-1.26,2.9733-3.22.2734a.6651.6651,0,0,0-.38,1.1666l2.446,2.12L327.24,16.46a.665.665,0,0,0,.993.72L331,15.5133l2.767,1.6734a.6651.6651,0,0,0,.993-.72l-.733-3.1534,2.446-2.12A.6635.6635,0,0,0,336.1,10.0267Zm-5.1,4.24L328.493,15.78l.667-2.8533-2.213-1.92,2.92-.2534L331,8.0667l1.14,2.6933,2.92.2533-2.213,1.92.666,2.8534Z"/></g></svg>