<svg xmlns="http://www.w3.org/2000/svg" xmlns:xlink="http://www.w3.org/1999/xlink" viewBox="0 0 343 194"><defs><style>.a{fill:none;}.b{clip-path:url(#a);}.c{fill:url(#b);}.d{fill:#737373;}.e{fill:#fff;}.f{fill:#ccc;}</style><clipPath id="a" transform="translate(0 0)"><rect class="a" width="343" height="194" rx="8"/></clipPath><linearGradient id="b" x1="419" y1="-174.8824" x2="419" y2="-324.1134" gradientTransform="matrix(1, 0, 0, -1, -247.5, -174.8824)" gradientUnits="userSpaceOnUse"><stop offset="0" stop-color="#525252"/><stop offset="1" stop-color="#474747"/></linearGradient></defs><g class="b"><path class="c" d="M0,8A8,8,0,0,1,8,0H335a8,8,0,0,1,8,8V186a8,8,0,0,1-8,8H8a8,8,0,0,1-8-8Z" transform="translate(0 0)"/><path class="d" d="M0,162H343v32H0Z" transform="translate(0 0)"/><path class="e" d="M26.64,77,22.704,65.8H19.968L16.048,77h2.384l.672-2.016h4.464L24.24,77Zm-5.296-8.656L22.88,72.92H19.808Zm10.9435.432a3.082,3.082,0,0,0-2.592,1.168V69h-2.064V80.2h2.064V76.056a3.082,3.082,0,0,0,2.592,1.168,3.61,3.61,0,0,0,2.752-1.216,4.4822,4.4822,0,0,0,0-6A3.6251,3.6251,0,0,0,32.2875,68.776ZM30.32,74.632A2.2582,2.2582,0,0,1,29.6955,73a2.1949,2.1949,0,0,1,.624-1.616,2.28,2.28,0,0,1,3.168,0,2.1455,2.1455,0,0,1,.64,1.616,2.2064,2.2064,0,0,1-.64,1.632,2.3225,2.3225,0,0,1-3.168,0Zm11.1356,2.592a4.1035,4.1035,0,0,0,3.616-2.08l-1.792-1.024a1.9729,1.9729,0,0,1-1.84,1.056,2.0858,2.0858,0,0,1-1.536-.608A2.1868,2.1868,0,0,1,39.2951,73a2.0975,2.0975,0,0,1,2.144-2.192,1.9779,1.9779,0,0,1,1.824,1.072l1.776-1.04a3.9834,3.9834,0,0,0-3.584-2.064,4.2244,4.2244,0,1,0,0,8.448Zm12.3587-3.376a5.4031,5.4031,0,0,0,.08-.848,4.2059,4.2059,0,0,0-1.152-3.008,3.7706,3.7706,0,0,0-2.896-1.216,4.0381,4.0381,0,0,0-3.04,1.216,4.4113,4.4113,0,0,0,.016,6.032,4.2954,4.2954,0,0,0,3.184,1.2,3.9742,3.9742,0,0,0,3.488-1.712l-1.664-.96a2.125,2.125,0,0,1-1.792.8,2.0383,2.0383,0,0,1-2.256-1.504Zm-6.064-1.6a1.995,1.995,0,0,1,2.096-1.616,1.9337,1.9337,0,0,1,1.984,1.616Zm12.8328-.224h-3.184V69h-2.064v8h2.064V73.96h3.184V77h2.064V69h-2.064Zm10.0352-2.08a3.1333,3.1333,0,0,0-2.608-1.168,3.65,3.65,0,0,0-2.752,1.232,4.5289,4.5289,0,0,0,0,6,3.6337,3.6337,0,0,0,2.752,1.216,3.1333,3.1333,0,0,0,2.608-1.168V77h2.064V69h-2.064ZM66.81,74.632A2.2582,2.2582,0,0,1,66.1858,73a2.1949,2.1949,0,0,1,.624-1.616,2.28,2.28,0,0,1,3.168,0,2.1455,2.1455,0,0,1,.64,1.616,2.2064,2.2064,0,0,1-.64,1.632,2.3225,2.3225,0,0,1-3.168,0ZM75.0814,69v4.544c0,1.232-.464,1.728-1.312,1.52V77c2.256.24,3.376-.864,3.376-3.344V70.984h2.208V77h2.064V69Zm11.47-3.2v2.112H89.56V77h2.208V67.912h3.0239V65.8Zm11.5353,8.576L95.9431,69h-2.192l3.232,7.904a1.866,1.866,0,0,1-2.048,1.376V80.2c2,.112,3.408-.944,4.224-3.2l2.9119-8H99.8631ZM103.081,69v4.544c0,1.232-.464,1.728-1.312,1.52V77c2.256.24,3.376-.864,3.376-3.344V70.984h2.208V77h2.064V69Zm14.287.944a3.1333,3.1333,0,0,0-2.608-1.168,3.65,3.65,0,0,0-2.752,1.232,4.5292,4.5292,0,0,0,0,6,3.6337,3.6337,0,0,0,2.752,1.216,3.1333,3.1333,0,0,0,2.608-1.168V77h2.064V69h-2.064Zm-3.808,4.688A2.2582,2.2582,0,0,1,112.936,73a2.1949,2.1949,0,0,1,.624-1.616,2.28,2.28,0,0,1,3.168,0,2.1455,2.1455,0,0,1,.64,1.616,2.2064,2.2064,0,0,1-.64,1.632,2.3225,2.3225,0,0,1-3.168,0Z" transform="translate(0 0)"/><path class="e" d="M22.976,95.208a2.755,2.755,0,0,0,1.2-2.368,2.9523,2.9523,0,0,0-1.056-2.368,4.096,4.096,0,0,0-2.72-.896,3.9719,3.9719,0,0,0-3.888,2.384l1.872,1.088A2.0324,2.0324,0,0,1,20.4,91.64c1.04,0,1.584.512,1.584,1.344s-.656,1.344-1.76,1.344H19.168v1.968H20.56c1.168,0,1.824.544,1.824,1.424s-.656,1.424-1.872,1.424a2.1618,2.1618,0,0,1-2.272-1.632l-1.904,1.072a4.0736,4.0736,0,0,0,4.176,2.64,4.43,4.43,0,0,0,2.928-.928,3.0042,3.0042,0,0,0,1.136-2.432A2.801,2.801,0,0,0,22.976,95.208Zm10.7128,2.64a5.4031,5.4031,0,0,0,.08-.848,4.2059,4.2059,0,0,0-1.152-3.008,3.7706,3.7706,0,0,0-2.896-1.216,4.0381,4.0381,0,0,0-3.04,1.216,4.4113,4.4113,0,0,0,.016,6.032,4.2954,4.2954,0,0,0,3.184,1.2,3.9742,3.9742,0,0,0,3.488-1.712l-1.664-.96a2.125,2.125,0,0,1-1.792.8,2.0383,2.0383,0,0,1-2.256-1.504Zm-6.064-1.6a1.995,1.995,0,0,1,2.096-1.616,1.9337,1.9337,0,0,1,1.984,1.616Zm12.8328-.224h-3.184V93H35.21v8h2.064V97.96h3.184V101h2.064V93h-2.064Zm5.9712,1.52V93h-2.016v8h1.536l3.76-4.544V101h2.016V93h-1.536ZM52.8319,93v1.984H55.36V101h2.064V94.984H59.92V93Z" transform="translate(0 0)"/><path class="f" d="M16.8,19.608a4.51,4.51,0,0,1,1.504-.88,5.7872,5.7872,0,0,1,1.944-.304,5.4224,5.4224,0,0,1,1.592.216,3.6219,3.6219,0,0,1,1.208.608,2.69,2.69,0,0,1,.76.928,2.5612,2.5612,0,0,1,.272,1.176,2.7,2.7,0,0,1-.432,1.52,2.7823,2.7823,0,0,1-1.2,1.016,3.67,3.67,0,0,1,.8.456,2.994,2.994,0,0,1,.616.6,2.5873,2.5873,0,0,1,.544,1.576,3.5481,3.5481,0,0,1-.28,1.408,3.2658,3.2658,0,0,1-.816,1.144,3.8591,3.8591,0,0,1-1.304.76,5.189,5.189,0,0,1-1.768.28,5.8383,5.8383,0,0,1-2.216-.4,5.2743,5.2743,0,0,1-1.688-1.096l.448-.736a.5178.5178,0,0,1,.16-.144.3673.3673,0,0,1,.208-.064.6923.6923,0,0,1,.4.184,6.7163,6.7163,0,0,0,.592.392,4.9713,4.9713,0,0,0,.872.4,3.9716,3.9716,0,0,0,1.264.176,3.85,3.85,0,0,0,1.128-.152,2.2856,2.2856,0,0,0,.84-.44,1.84,1.84,0,0,0,.52-.704,2.29,2.29,0,0,0,.184-.936,1.92,1.92,0,0,0-.176-.824,1.7042,1.7042,0,0,0-.496-.64,2.2783,2.2783,0,0,0-.8-.416,3.4645,3.4645,0,0,0-1.064-.152H18.848V23.288h1.504a3.2507,3.2507,0,0,0,.904-.12,2.0627,2.0627,0,0,0,.72-.352,1.7008,1.7008,0,0,0,.488-2.056A1.5576,1.5576,0,0,0,22,20.2a2.16,2.16,0,0,0-.744-.368,3.5836,3.5836,0,0,0-1-.128,3.8993,3.8993,0,0,0-1.104.136,4.1124,4.1124,0,0,0-.768.304,4.916,4.916,0,0,0-.512.296.6111.6111,0,0,1-.336.136.3553.3553,0,0,1-.208-.056.5484.5484,0,0,1-.152-.184Zm13.7981,6.744a11.5264,11.5264,0,0,0-1.68.16,4.7334,4.7334,0,0,0-1.128.32,1.5956,1.5956,0,0,0-.632.472,1.03,1.03,0,0,0-.192.608,1.3423,1.3423,0,0,0,.104.552,1.0855,1.0855,0,0,0,.28.384,1.275,1.275,0,0,0,.424.216,2.1055,2.1055,0,0,0,.528.064,3.0615,3.0615,0,0,0,.688-.072,2.6472,2.6472,0,0,0,.584-.224,3.0912,3.0912,0,0,0,.528-.344,4.3563,4.3563,0,0,0,.496-.456Zm-4.6-3.312a4.6276,4.6276,0,0,1,1.448-.968,4.4718,4.4718,0,0,1,1.72-.32,3.0693,3.0693,0,0,1,1.208.224,2.4765,2.4765,0,0,1,.888.624,2.6417,2.6417,0,0,1,.544.968,4.0308,4.0308,0,0,1,.184,1.248V30h-.632a.6529.6529,0,0,1-.32-.064.4851.4851,0,0,1-.176-.272l-.16-.768q-.32.2959-.624.528a3.9148,3.9148,0,0,1-.64.384,3.4463,3.4463,0,0,1-.72.232,3.69,3.69,0,0,1-.84.088A3.0056,3.0056,0,0,1,26.99,30a2.1466,2.1466,0,0,1-.728-.4,1.9378,1.9378,0,0,1-.488-.664,2.41,2.41,0,0,1-.176-.96,1.7623,1.7623,0,0,1,.264-.92,2.2992,2.2992,0,0,1,.856-.792,5.5372,5.5372,0,0,1,1.544-.56,11.5491,11.5491,0,0,1,2.336-.256v-.632a2.15,2.15,0,0,0-.408-1.424,1.4656,1.4656,0,0,0-1.192-.488,2.527,2.527,0,0,0-.888.136,3.1515,3.1515,0,0,0-.616.296q-.2559.16-.448.296a.6412.6412,0,0,1-.368.128.4249.4249,0,0,1-.248-.072.7554.7554,0,0,1-.176-.192Zm13.0812-.744a.8992.8992,0,0,1,.296-.288.7408.7408,0,0,1,.392-.112h1.112l-2.104,3.088a2.5478,2.5478,0,0,1-.4.488,1.49,1.49,0,0,1-.512.288,1.6536,1.6536,0,0,1,.648.328,2.1533,2.1533,0,0,1,.472.56L41.1112,30h-.9919a.9743.9743,0,0,1-.952-.496l-1.576-2.52a1.2322,1.2322,0,0,0-1.128-.624h-.872v3.648h-1.432V21.896h1.432V25.4h.768a1.1358,1.1358,0,0,0,1-.544ZM49.5445,30h-1.424V23.016h-2.56a25.6632,25.6632,0,0,1-.288,2.672,12.43,12.43,0,0,1-.464,1.912,5.32,5.32,0,0,1-.6,1.28,3.0386,3.0386,0,0,1-.696.76,2.0564,2.0564,0,0,1-.752.368,3.156,3.156,0,0,1-.768.096q-.68,0-.68-.216v-.904h.416a1.6951,1.6951,0,0,0,.552-.096,1.4075,1.4075,0,0,0,.544-.368,2.9847,2.9847,0,0,0,.52-.76,6.5069,6.5069,0,0,0,.448-1.28,15.358,15.358,0,0,0,.352-1.912q.152-1.128.232-2.672h5.168Zm9.2794-1a1.8946,1.8946,0,0,0,1.672-.8,3.9464,3.9464,0,0,0,.552-2.248,3.963,3.963,0,0,0-.552-2.256,2.1339,2.1339,0,0,0-3.344,0,3.963,3.963,0,0,0-.552,2.256,3.9464,3.9464,0,0,0,.552,2.248A1.8945,1.8945,0,0,0,58.8239,29ZM55.2,25.392a5.18,5.18,0,0,1,.344-1.504,3.5655,3.5655,0,0,1,.744-1.144,3.19,3.19,0,0,1,1.104-.72,4.1117,4.1117,0,0,1,2.96.04,3.2461,3.2461,0,0,1,1.168.84,3.7366,3.7366,0,0,1,.736,1.32,5.7611,5.7611,0,0,1,0,3.448,3.7763,3.7763,0,0,1-.752,1.312,3.341,3.341,0,0,1-1.168.84,3.84,3.84,0,0,1-1.512.288,3.9334,3.9334,0,0,1-1.456-.256,3.1879,3.1879,0,0,1-1.104-.728,3.6412,3.6412,0,0,1-.744-1.16,4.9933,4.9933,0,0,1-.328-1.536h-1.96V30H51.8V21.896h1.432v3.496Zm15.0916-3.496V30h-1.424V26.56a11.2429,11.2429,0,0,1-1.96.344,4.4528,4.4528,0,0,1-1.6-.144,2.094,2.094,0,0,1-1.08-.728,2.3966,2.3966,0,0,1-.392-1.456v-2.68h1.432V24.36a1.5974,1.5974,0,0,0,.232.92,1.2293,1.2293,0,0,0,.696.464,3.2366,3.2366,0,0,0,1.128.072,10.5169,10.5169,0,0,0,1.544-.264V21.896Zm7.6824,3.168a2.701,2.701,0,0,0-.144-.904,1.9174,1.9174,0,0,0-.408-.712,1.7222,1.7222,0,0,0-.648-.464,2.1554,2.1554,0,0,0-.872-.168,2.1944,2.1944,0,0,0-1.624.6,2.7857,2.7857,0,0,0-.736,1.648Zm1.152,3.8a2.7839,2.7839,0,0,1-.632.56,4.0292,4.0292,0,0,1-.792.384,4.6764,4.6764,0,0,1-.864.224,5.0471,5.0471,0,0,1-.888.08,4.2031,4.2031,0,0,1-1.552-.28A3.5128,3.5128,0,0,1,73.1739,29a3.89,3.89,0,0,1-.8-1.36,5.514,5.514,0,0,1-.288-1.856,4.7884,4.7884,0,0,1,.256-1.584,3.74,3.74,0,0,1,.752-1.272,3.3743,3.3743,0,0,1,1.192-.848,3.8692,3.8692,0,0,1,1.584-.312,3.5668,3.5668,0,0,1,1.344.248,2.9333,2.9333,0,0,1,1.072.704,3.15,3.15,0,0,1,.712,1.136,4.2954,4.2954,0,0,1,.256,1.536.9288.9288,0,0,1-.072.448.299.299,0,0,1-.272.112h-5.416a4.8429,4.8429,0,0,0,.208,1.336,2.7757,2.7757,0,0,0,.528.952,2.1745,2.1745,0,0,0,.8.568,2.8,2.8,0,0,0,1.04.184,3.1054,3.1054,0,0,0,.92-.12,4.6077,4.6077,0,0,0,.672-.272,5.33,5.33,0,0,0,.464-.264.6276.6276,0,0,1,.328-.128.3133.3133,0,0,1,.272.136Zm8.6291-6.968V30H86.323V26.208H82.435V30H81.003V21.896h1.432v3.232h3.888V21.896Zm9.2156,0V30h-1.424V24.496q0-.16.016-.344t.04-.368q-.072.16-.144.296a2.176,2.176,0,0,1-.152.248l-3.912,5.32a1.363,1.363,0,0,1-.224.248.4257.4257,0,0,1-.288.112h-.864V21.904h1.432v5.504q0,.1519-.016.336-.0159.176-.04.36.072-.1519.144-.28.072-.1361.144-.248l3.912-5.32a1.18,1.18,0,0,1,.224-.24.439.439,0,0,1,.296-.12Zm7.6754,3.168a2.701,2.701,0,0,0-.144-.904,1.9256,1.9256,0,0,0-.408-.712,1.7222,1.7222,0,0,0-.648-.464,2.1564,2.1564,0,0,0-.872-.168,2.1939,2.1939,0,0,0-1.624.6,2.7839,2.7839,0,0,0-.736,1.648Zm1.152,3.8a2.79,2.79,0,0,1-.632.56,4.0622,4.0622,0,0,1-.792.384,4.7012,4.7012,0,0,1-.864.224,5.0522,5.0522,0,0,1-.888.08,4.2008,4.2008,0,0,1-1.552-.28A3.5044,3.5044,0,0,1,99.8458,29a3.89,3.89,0,0,1-.8-1.36,5.514,5.514,0,0,1-.288-1.856,4.7884,4.7884,0,0,1,.256-1.584,3.74,3.74,0,0,1,.752-1.272,3.3688,3.3688,0,0,1,1.1922-.848,3.8672,3.8672,0,0,1,1.584-.312,3.569,3.569,0,0,1,1.344.248,2.9358,2.9358,0,0,1,1.072.704,3.1538,3.1538,0,0,1,.712,1.136,4.3087,4.3087,0,0,1,.256,1.536.9288.9288,0,0,1-.072.448.2993.2993,0,0,1-.272.112h-5.416a4.8316,4.8316,0,0,0,.208,1.336,2.7757,2.7757,0,0,0,.528.952,2.17,2.17,0,0,0,.8.568,2.7984,2.7984,0,0,0,1.04.184,3.1068,3.1068,0,0,0,.92-.12,4.6355,4.6355,0,0,0,.672-.272q.279-.144.464-.264a.6267.6267,0,0,1,.328-.128.3137.3137,0,0,1,.272.136ZM118.521,30h-1.432V22.984h-3.888V30h-1.432V21.896h6.752Zm6.655-3.648a11.5264,11.5264,0,0,0-1.68.16,4.75,4.75,0,0,0-1.128.32,1.6,1.6,0,0,0-.632.472,1.03,1.03,0,0,0-.192.608,1.3472,1.3472,0,0,0,.104.552,1.0966,1.0966,0,0,0,.28.384,1.2779,1.2779,0,0,0,.424.216,2.1124,2.1124,0,0,0,.528.064,3.06,3.06,0,0,0,.688-.072,2.6415,2.6415,0,0,0,.584-.224,3.0679,3.0679,0,0,0,.528-.344,4.3311,4.3311,0,0,0,.496-.456Zm-4.6-3.312a4.631,4.631,0,0,1,1.448-.968,4.4751,4.4751,0,0,1,1.72-.32,3.0672,3.0672,0,0,1,1.208.224,2.4765,2.4765,0,0,1,.888.624,2.6332,2.6332,0,0,1,.544.968,4.0219,4.0219,0,0,1,.184,1.248V30h-.632a.6553.6553,0,0,1-.32-.064.49.49,0,0,1-.176-.272l-.16-.768q-.32.2959-.624.528a3.89,3.89,0,0,1-.64.384,3.4463,3.4463,0,0,1-.72.232,3.6829,3.6829,0,0,1-.84.088,3.0114,3.0114,0,0,1-.888-.128,2.15,2.15,0,0,1-.728-.4,1.9494,1.9494,0,0,1-.488-.664,2.4157,2.4157,0,0,1-.176-.96,1.7623,1.7623,0,0,1,.264-.92,2.3038,2.3038,0,0,1,.856-.792,5.548,5.548,0,0,1,1.544-.56,11.5568,11.5568,0,0,1,2.336-.256v-.632a2.15,2.15,0,0,0-.408-1.424,1.4652,1.4652,0,0,0-1.192-.488,2.527,2.527,0,0,0-.888.136,3.1683,3.1683,0,0,0-.616.296c-.17.1067-.32.2053-.448.296a.6391.6391,0,0,1-.368.128.4263.4263,0,0,1-.248-.072.7609.7609,0,0,1-.176-.192Zm9.593,5.008a2.3081,2.3081,0,0,0,.856.744,2.4373,2.4373,0,0,0,1.04.216,2.05,2.05,0,0,0,1.744-.808,3.77,3.77,0,0,0,.608-2.304,5.596,5.596,0,0,0-.144-1.36,2.5557,2.5557,0,0,0-.4-.928,1.5619,1.5619,0,0,0-.648-.536,2.1531,2.1531,0,0,0-.872-.168,2.315,2.315,0,0,0-1.224.32,3.5619,3.5619,0,0,0-.96.904Zm-.072-4.896a4.2079,4.2079,0,0,1,1.184-1.016,3.0405,3.0405,0,0,1,1.536-.384,2.9041,2.9041,0,0,1,1.272.272,2.5481,2.5481,0,0,1,.968.792,3.7479,3.7479,0,0,1,.616,1.296,6.6721,6.6721,0,0,1,.216,1.784,5.6313,5.6313,0,0,1-.24,1.672,4.0289,4.0289,0,0,1-.696,1.336,3.1822,3.1822,0,0,1-2.568,1.208,3.03,3.03,0,0,1-1.28-.248,3.0685,3.0685,0,0,1-.936-.704v3.584h-1.432V21.896h.856a.3513.3513,0,0,1,.376.296Zm14.545-1.256V30h-1.423V24.496c0-.1067.005-.2213.016-.344s.024-.2453.04-.368q-.072.16-.144.296a2.2346,2.2346,0,0,1-.152.248l-3.912,5.32a1.4047,1.4047,0,0,1-.224.248.4283.4283,0,0,1-.288.112h-.864V21.904h1.432v5.504c0,.1013-.006.2133-.016.336-.011.1173-.024.2373-.04.36q.072-.1519.144-.28.072-.1361.144-.248l3.912-5.32a1.15,1.15,0,0,1,.224-.24.4369.4369,0,0,1,.296-.12Z" transform="translate(0 0)"/><path class="e" d="M286.984,69.88l.144-2.016h4.304V65.8H285.08l-.448,6.224h3.392a1.5251,1.5251,0,0,1,1.728,1.52c0,.944-.656,1.52-1.792,1.52a1.865,1.865,0,0,1-2.016-1.344l-1.888,1.104a3.9212,3.9212,0,0,0,3.904,2.4,4.2043,4.2043,0,0,0,2.832-.976,3.3237,3.3237,0,0,0,1.168-2.704,3.3724,3.3724,0,0,0-1.104-2.688,3.9433,3.9433,0,0,0-2.72-.976Zm10.29,7.344a3.8752,3.8752,0,0,0,3.296-1.584,7.0086,7.0086,0,0,0,1.184-4.24,6.9249,6.9249,0,0,0-1.184-4.224,3.8484,3.8484,0,0,0-3.296-1.6,3.8877,3.8877,0,0,0-3.296,1.6,6.9249,6.9249,0,0,0-1.184,4.224,7.0086,7.0086,0,0,0,1.184,4.24A3.9151,3.9151,0,0,0,297.274,77.224Zm2.288-5.824c0,2.368-.8,3.664-2.288,3.664s-2.272-1.28-2.272-3.664.784-3.68,2.272-3.68S299.562,69.016,299.562,71.4Zm7.791,5.824a3.8752,3.8752,0,0,0,3.296-1.584,7.0086,7.0086,0,0,0,1.184-4.24,6.9249,6.9249,0,0,0-1.184-4.224,3.8484,3.8484,0,0,0-3.296-1.6,3.8877,3.8877,0,0,0-3.296,1.6,6.9249,6.9249,0,0,0-1.184,4.224,7.0086,7.0086,0,0,0,1.184,4.24A3.9151,3.9151,0,0,0,307.353,77.224Zm2.288-5.824c0,2.368-.8,3.664-2.288,3.664s-2.272-1.28-2.272-3.664.784-3.68,2.272-3.68S309.641,69.016,309.641,71.4Zm12.334,1.712a3.7325,3.7325,0,0,0,2.688-1.024,3.4315,3.4315,0,0,0,1.088-2.576,3.5418,3.5418,0,0,0-1.104-2.624,3.6447,3.6447,0,0,0-2.672-1.088h-4.176v5.376h-1.2v1.936h1.2v.88h-1.2V75.4h1.2V77h2.192V75.4h3.568V73.992h-3.568v-.88Zm0-5.248a1.6576,1.6576,0,0,1,0,3.312h-1.984V67.864Z" transform="translate(0 0)"/><path class="f" d="M26.304,135h-1.56V124.76H19.016V135H17.464V123.536h8.84Zm5.7556-8.232a4.1384,4.1384,0,0,1,1.6.296,3.42,3.42,0,0,1,1.216.84,3.6415,3.6415,0,0,1,.768,1.32,5.6,5.6,0,0,1,0,3.448,3.6489,3.6489,0,0,1-.768,1.312,3.42,3.42,0,0,1-1.216.84,4.2334,4.2334,0,0,1-1.6.288,4.3184,4.3184,0,0,1-1.616-.288,3.4209,3.4209,0,0,1-1.216-.84,3.7442,3.7442,0,0,1-.776-1.312,5.7611,5.7611,0,0,1,0-3.448,3.7353,3.7353,0,0,1,.776-1.32,3.4209,3.4209,0,0,1,1.216-.84A4.2212,4.2212,0,0,1,32.06,126.768Zm0,7.232a2.0854,2.0854,0,0,0,1.792-.8,4.5794,4.5794,0,0,0,0-4.504,2.0754,2.0754,0,0,0-1.792-.808,2.5368,2.5368,0,0,0-1.064.208,2.0172,2.0172,0,0,0-.752.6,2.7537,2.7537,0,0,0-.448.968,5.2569,5.2569,0,0,0-.144,1.288,3.7425,3.7425,0,0,0,.592,2.248A2.1251,2.1251,0,0,0,32.06,134Zm9.3182.056a2.1758,2.1758,0,0,0,1.808-.76,3.3435,3.3435,0,0,0,.616-2.144,3.4248,3.4248,0,0,0-.592-2.136,2.0711,2.0711,0,0,0-1.76-.768,2.7087,2.7087,0,0,0-1.024.184,2.0531,2.0531,0,0,0-.776.52,2.4392,2.4392,0,0,0-.488.848,3.6376,3.6376,0,0,0-.168,1.152,5.1188,5.1188,0,0,0,.152,1.304,2.8432,2.8432,0,0,0,.448.976,2.0659,2.0659,0,0,0,.744.616A2.4406,2.4406,0,0,0,41.3778,134.056Zm.552-9.064a3.9333,3.9333,0,0,0-1.4.36,2.75,2.75,0,0,0-.96.784,3.3152,3.3152,0,0,0-.576,1.176,6.7083,6.7083,0,0,0-.224,1.552,2.6352,2.6352,0,0,1,.496-.688,2.9562,2.9562,0,0,1,.696-.528,3.2966,3.2966,0,0,1,.848-.336,3.9163,3.9163,0,0,1,.984-.12,3.4923,3.4923,0,0,1,1.448.288,2.992,2.992,0,0,1,1.096.8,3.5449,3.5449,0,0,1,.696,1.256,5.139,5.139,0,0,1,.24,1.616,4.5823,4.5823,0,0,1-.28,1.64,3.3771,3.3771,0,0,1-2.016,2.04,4.3343,4.3343,0,0,1-1.6.28,4.2523,4.2523,0,0,1-1.528-.272,2.9636,2.9636,0,0,1-1.232-.896,4.5905,4.5905,0,0,1-.824-1.64,9.2,9.2,0,0,1-.296-2.52,11.1307,11.1307,0,0,1,.232-2.352,5.5669,5.5669,0,0,1,.744-1.864,4.0093,4.0093,0,0,1,1.336-1.272,4.6916,4.6916,0,0,1,2-.592l2.896-.248.08.736a.69.69,0,0,1-.072.416.3943.3943,0,0,1-.344.184Zm16.2611,8.92V135h-6.144v-1.088h2.456v-7.816q0-.3525.024-.712l-2.04,1.752a.497.497,0,0,1-.208.112.5617.5617,0,0,1-.192,0,.504.504,0,0,1-.168-.064.4291.4291,0,0,1-.112-.104l-.448-.616,3.416-2.952h1.16v10.4Zm7.191-3.944a12.6148,12.6148,0,0,0,1.712,6.4.4364.4364,0,0,1,.064.376.5159.5159,0,0,1-.184.216l-.632.384a14.9728,14.9728,0,0,1-1.024-1.824,12.2328,12.2328,0,0,1-1.056-3.648,15.1016,15.1016,0,0,1,0-3.8,12.6808,12.6808,0,0,1,.376-1.832,12.9763,12.9763,0,0,1,.68-1.816,15.5168,15.5168,0,0,1,1.024-1.832l.632.392a.5159.5159,0,0,1,.184.216.4185.4185,0,0,1-.064.368,12.6148,12.6148,0,0,0-1.712,6.4Zm6.3652-3.2a4.1384,4.1384,0,0,1,1.6.296,3.42,3.42,0,0,1,1.216.84,3.6415,3.6415,0,0,1,.768,1.32,5.6,5.6,0,0,1,0,3.448,3.6489,3.6489,0,0,1-.768,1.312,3.42,3.42,0,0,1-1.216.84,4.2334,4.2334,0,0,1-1.6.288,4.3184,4.3184,0,0,1-1.616-.288,3.4209,3.4209,0,0,1-1.216-.84,3.7442,3.7442,0,0,1-.776-1.312,5.7611,5.7611,0,0,1,0-3.448,3.7353,3.7353,0,0,1,.776-1.32,3.4209,3.4209,0,0,1,1.216-.84A4.2212,4.2212,0,0,1,71.7471,126.768Zm0,7.232a2.0854,2.0854,0,0,0,1.792-.8,4.5794,4.5794,0,0,0,0-4.504,2.0754,2.0754,0,0,0-1.792-.808,2.5368,2.5368,0,0,0-1.064.208,2.0172,2.0172,0,0,0-.752.6,2.7537,2.7537,0,0,0-.448.968,5.2569,5.2569,0,0,0-.144,1.288,3.7425,3.7425,0,0,0,.592,2.248A2.1251,2.1251,0,0,0,71.7471,134Zm11.3022-5.664a.63.63,0,0,1-.128.136.2876.2876,0,0,1-.176.048.4868.4868,0,0,1-.264-.096,3.7186,3.7186,0,0,0-.36-.224,2.5479,2.5479,0,0,0-.52-.216,2.3562,2.3562,0,0,0-.752-.104,2.4408,2.4408,0,0,0-1.056.216,2.03,2.03,0,0,0-.768.608,2.8643,2.8643,0,0,0-.464.968,4.923,4.923,0,0,0-.152,1.272,4.6882,4.6882,0,0,0,.168,1.312,2.8773,2.8773,0,0,0,.472.96,2.158,2.158,0,0,0,.744.592,2.3562,2.3562,0,0,0,.984.2,2.5823,2.5823,0,0,0,.856-.12,2.5251,2.5251,0,0,0,.552-.28q.2239-.1515.368-.272a.4674.4674,0,0,1,.296-.128.3126.3126,0,0,1,.272.136l.4.52a2.8377,2.8377,0,0,1-.6.56,3.8124,3.8124,0,0,1-.728.392,4.0385,4.0385,0,0,1-.808.224,5.1524,5.1524,0,0,1-.864.072,3.5629,3.5629,0,0,1-1.416-.28,3.2564,3.2564,0,0,1-1.128-.808,3.8463,3.8463,0,0,1-.752-1.312,5.3272,5.3272,0,0,1-.272-1.768,5.41,5.41,0,0,1,.248-1.672,3.83,3.83,0,0,1,.736-1.32,3.372,3.372,0,0,1,1.192-.872,4.03,4.03,0,0,1,1.632-.312,3.7591,3.7591,0,0,1,1.504.28,3.5413,3.5413,0,0,1,1.16.776Zm8.7526-1.44V135H90.37v-3.792h-3.888V135H85.05v-8.104h1.432v3.232H90.37v-3.232Zm2.0236,7.224a1.0661,1.0661,0,0,1,.072-.392,1.1047,1.1047,0,0,1,.208-.32,1.0149,1.0149,0,0,1,.32-.216,1,1,0,0,1,.784,0,1.0134,1.0134,0,0,1,.536.536.973.973,0,0,1,.08.392.994.994,0,0,1-.08.4,1.0623,1.0623,0,0,1-.216.312.9177.9177,0,0,1-.32.208,1,1,0,0,1-.784,0,.9177.9177,0,0,1-.32-.208,1.15,1.15,0,0,1-.208-.312A1.09,1.09,0,0,1,93.8255,134.12ZM105.053,134a1.9846,1.9846,0,0,0,1.264-.368,1.249,1.249,0,0,0,.464-1.024,1.4731,1.4731,0,0,0-.088-.52,1.0161,1.0161,0,0,0-.288-.416,1.3785,1.3785,0,0,0-.536-.272,2.9173,2.9173,0,0,0-.808-.096h-1.752V134Zm-1.744-6.144V130.4h1.56a2.0856,2.0856,0,0,0,.647-.096,1.6718,1.6718,0,0,0,.521-.28,1.3227,1.3227,0,0,0,.336-.432,1.3028,1.3028,0,0,0,.12-.56,1.2031,1.2031,0,0,0-.08-.432.8942.8942,0,0,0-.272-.376,1.3644,1.3644,0,0,0-.504-.264,2.4623,2.4623,0,0,0-.768-.104Zm1.6-.96a4.7846,4.7846,0,0,1,1.288.152,2.6,2.6,0,0,1,.88.416,1.5668,1.5668,0,0,1,.504.608,1.8063,1.8063,0,0,1,.16.752,2.2754,2.2754,0,0,1-.072.552,1.684,1.684,0,0,1-.256.552,1.83,1.83,0,0,1-.488.48,2.4316,2.4316,0,0,1-.768.328,2.6585,2.6585,0,0,1,1.432.648,1.6749,1.6749,0,0,1,.504,1.272,2.06,2.06,0,0,1-.888,1.76,2.842,2.842,0,0,1-.96.44,4.6789,4.6789,0,0,1-1.184.144h-3.12v-8.104Zm6.401,6.152a2.3,2.3,0,0,0,.856.744,2.4341,2.4341,0,0,0,1.04.216,2.05,2.05,0,0,0,1.744-.808,3.7774,3.7774,0,0,0,.608-2.304,5.5977,5.5977,0,0,0-.144-1.36,2.5706,2.5706,0,0,0-.4-.928,1.5641,1.5641,0,0,0-.648-.536,2.1564,2.1564,0,0,0-.872-.168,2.3178,2.3178,0,0,0-1.224.32,3.5331,3.5331,0,0,0-.96.904Zm-.072-4.896a4.199,4.199,0,0,1,1.184-1.016,3.0405,3.0405,0,0,1,1.536-.384,2.9145,2.9145,0,0,1,1.272.272,2.5556,2.5556,0,0,1,.968.792,3.7532,3.7532,0,0,1,.616,1.296,6.6705,6.6705,0,0,1,.216,1.784,5.6313,5.6313,0,0,1-.24,1.672,4.0319,4.0319,0,0,1-.696,1.336,3.1822,3.1822,0,0,1-2.568,1.208,3.0318,3.0318,0,0,1-1.28-.248,3.0685,3.0685,0,0,1-.936-.704v3.584h-1.432V126.896h.856a.3515.3515,0,0,1,.376.296Zm13.017,1.912a2.7,2.7,0,0,0-.144-.904,1.9256,1.9256,0,0,0-.408-.712,1.7222,1.7222,0,0,0-.648-.464,2.1564,2.1564,0,0,0-.872-.168,2.1939,2.1939,0,0,0-1.624.6,2.7848,2.7848,0,0,0-.736,1.648Zm1.152,3.8a2.7976,2.7976,0,0,1-.632.56,3.9746,3.9746,0,0,1-.792.384,4.6837,4.6837,0,0,1-.864.224,5.081,5.081,0,0,1-.888.08,4.1985,4.1985,0,0,1-1.552-.28,3.5161,3.5161,0,0,1-1.224-.832,3.8935,3.8935,0,0,1-.8-1.36,5.514,5.514,0,0,1-.288-1.856,4.7832,4.7832,0,0,1,.256-1.584,3.74,3.74,0,0,1,.752-1.272,3.3752,3.3752,0,0,1,1.192-.848,3.8672,3.8672,0,0,1,1.584-.312,3.5749,3.5749,0,0,1,1.344.248,2.94,2.94,0,0,1,1.072.704,3.1564,3.1564,0,0,1,.712,1.136,4.2867,4.2867,0,0,1,.256,1.536.93.93,0,0,1-.072.448.2986.2986,0,0,1-.272.112h-5.416a4.8335,4.8335,0,0,0,.208,1.336,2.7729,2.7729,0,0,0,.528.952,2.1743,2.1743,0,0,0,.8.568,2.7923,2.7923,0,0,0,1.04.184,3.1068,3.1068,0,0,0,.92-.12,4.6017,4.6017,0,0,0,.672-.272,5.3148,5.3148,0,0,0,.464-.264.6293.6293,0,0,1,.328-.128.313.313,0,0,1,.272.136Zm10.909-6.992V135h-1.288v-5.384c0-.149.008-.315.024-.496.022-.187.048-.36.08-.52l-2.816,4.936a.5226.5226,0,0,1-.168.192.41.41,0,0,1-.24.072h-.16a.4515.4515,0,0,1-.248-.072.5413.5413,0,0,1-.168-.192l-2.864-4.952q.0405.24.072.528a4.3378,4.3378,0,0,1,.032.504V135h-1.288v-8.128h1.144a.6526.6526,0,0,1,.296.072.5528.5528,0,0,1,.248.248l2.528,4.224a6.6923,6.6923,0,0,1,.328.776,5.0061,5.0061,0,0,1,.32-.776l2.48-4.224a.5546.5546,0,0,1,.248-.256.7175.7175,0,0,1,.296-.064Zm6.514,3.808v-2.824h-1.36a1.916,1.916,0,0,0-.768.136,1.3835,1.3835,0,0,0-.504.336,1.1773,1.1773,0,0,0-.264.456,1.588,1.588,0,0,0-.08.496,1.24,1.24,0,0,0,.48,1.032,2.1084,2.1084,0,0,0,1.312.368Zm1.36-3.784V135h-1.36v-3.416h-.624a1.4816,1.4816,0,0,0-.376.04.884.884,0,0,0-.256.096.68.68,0,0,0-.184.168,2.7746,2.7746,0,0,0-.168.224l-1.776,2.392a.9359.9359,0,0,1-.336.376,1.0865,1.0865,0,0,1-.568.12h-.992l2.352-3.056a1.403,1.403,0,0,1,.76-.64,3.3149,3.3149,0,0,1-1.04-.288,2.4737,2.4737,0,0,1-.696-.488,1.8187,1.8187,0,0,1-.384-.632,2.097,2.097,0,0,1-.12-.696,2.2962,2.2962,0,0,1,.16-.832,1.9612,1.9612,0,0,1,.528-.736,2.6673,2.6673,0,0,1,.928-.528,4.1067,4.1067,0,0,1,1.392-.208Zm3.325,3.072a12.8311,12.8311,0,0,0-1.712-6.4.7376.7376,0,0,1-.08-.208.3081.3081,0,0,1,.008-.16.3012.3012,0,0,1,.072-.12.6833.6833,0,0,1,.12-.096l.632-.392a14.6653,14.6653,0,0,1,1.016,1.832,11.7715,11.7715,0,0,1,.68,1.816,12.0286,12.0286,0,0,1,.384,1.832,15.1016,15.1016,0,0,1,0,3.8,12.3131,12.3131,0,0,1-.384,1.832,11.7715,11.7715,0,0,1-.68,1.816,14.1748,14.1748,0,0,1-1.016,1.824l-.632-.384a.6833.6833,0,0,1-.12-.096.3012.3012,0,0,1-.072-.12.3081.3081,0,0,1-.008-.16.7227.7227,0,0,1,.08-.216,12.8311,12.8311,0,0,0,1.712-6.4Z" transform="translate(0 0)"/><path class="f" d="M297.271,127.864a7.91,7.91,0,0,1,1.648-.192,4.4051,4.4051,0,0,1,1.584.264,3.17,3.17,0,0,1,1.144.728,2.9921,2.9921,0,0,1,.696,1.096,3.8437,3.8437,0,0,1,.24,1.376,4.0989,4.0989,0,0,1-.32,1.648,3.7,3.7,0,0,1-.872,1.264,3.8262,3.8262,0,0,1-1.304.8,4.61,4.61,0,0,1-1.624.28,4.4319,4.4319,0,0,1-.968-.104,4.8923,4.8923,0,0,1-.872-.264,5.1018,5.1018,0,0,1-.744-.384,4.3207,4.3207,0,0,1-.608-.456l.44-.608a.4377.4377,0,0,1,.376-.208.688.688,0,0,1,.36.128q.1995.12.488.272a4.48,4.48,0,0,0,.672.28,3.1871,3.1871,0,0,0,.928.12,2.8864,2.8864,0,0,0,1.08-.192,2.3564,2.3564,0,0,0,.824-.544,2.4687,2.4687,0,0,0,.528-.856,3.171,3.171,0,0,0,.184-1.112,2.7646,2.7646,0,0,0-.16-.968,1.8442,1.8442,0,0,0-.472-.736,2.1187,2.1187,0,0,0-.784-.472,3.294,3.294,0,0,0-1.104-.168,5.9186,5.9186,0,0,0-1.856.304l-.896-.264.92-5.36h5.432v.624a.6975.6975,0,0,1-.192.504.8665.8665,0,0,1-.64.192h-3.6Zm7.273,6.256a1.0661,1.0661,0,0,1,.072-.392,1.1257,1.1257,0,0,1,.208-.32,1.0264,1.0264,0,0,1,.32-.216,1,1,0,0,1,.784,0,1.0038,1.0038,0,0,1,.32.216,1.0149,1.0149,0,0,1,.216.32.9614.9614,0,0,1,.08.392.9823.9823,0,0,1-.08.4,1.0511,1.0511,0,0,1-.216.312.9086.9086,0,0,1-.32.208,1,1,0,0,1-.784,0,.9269.9269,0,0,1-.32-.208,1.1729,1.1729,0,0,1-.208-.312A1.09,1.09,0,0,1,304.544,134.12Zm7.534-.128a3.0668,3.0668,0,0,0,1-.152,2.1815,2.1815,0,0,0,.752-.44,1.89,1.89,0,0,0,.472-.68,2.2514,2.2514,0,0,0,.168-.88,2.3136,2.3136,0,0,0-.2-1.008,1.8,1.8,0,0,0-.528-.688,2.0906,2.0906,0,0,0-.76-.384,3.2563,3.2563,0,0,0-1.808,0,2.1678,2.1678,0,0,0-.768.384,1.9034,1.9034,0,0,0-.528.688,2.3916,2.3916,0,0,0-.192,1.008,2.3436,2.3436,0,0,0,.16.88,2.023,2.023,0,0,0,.472.68,2.2688,2.2688,0,0,0,.752.44A3.13,3.13,0,0,0,312.078,133.992Zm0-9.48a2.4928,2.4928,0,0,0-.904.152,1.8775,1.8775,0,0,0-.648.416,1.7955,1.7955,0,0,0-.392.616,2.1679,2.1679,0,0,0-.128.752,2.5847,2.5847,0,0,0,.112.76,1.7782,1.7782,0,0,0,.36.656,1.8357,1.8357,0,0,0,.64.456,2.4688,2.4688,0,0,0,.96.168,2.4167,2.4167,0,0,0,.952-.168,1.8418,1.8418,0,0,0,.648-.456,1.8074,1.8074,0,0,0,.36-.656,2.6181,2.6181,0,0,0,.112-.76,2.0825,2.0825,0,0,0-.136-.752,1.6716,1.6716,0,0,0-.392-.616,1.7879,1.7879,0,0,0-.648-.416A2.4334,2.4334,0,0,0,312.078,124.512Zm1.64,4.512a3.1545,3.1545,0,0,1,1.648,1.016,2.8089,2.8089,0,0,1,.576,1.824,3.1375,3.1375,0,0,1-.288,1.36,2.9247,2.9247,0,0,1-.792,1.024,3.601,3.601,0,0,1-1.216.656,5.6,5.6,0,0,1-3.136,0,3.68,3.68,0,0,1-1.224-.656,2.9158,2.9158,0,0,1-.793-1.024,3.2234,3.2234,0,0,1-.279-1.36,2.8089,2.8089,0,0,1,.576-1.824,3.1505,3.1505,0,0,1,1.648-1.016,2.586,2.586,0,0,1-1.825-2.6,2.8423,2.8423,0,0,1,.953-2.144,3.3336,3.3336,0,0,1,1.088-.64,4.4617,4.4617,0,0,1,2.84,0,3.3312,3.3312,0,0,1,1.096.64,2.8367,2.8367,0,0,1,.952,2.144,2.6085,2.6085,0,0,1-1.824,2.6Zm10.897,4.624a.4975.4975,0,0,1,.368.136.4794.4794,0,0,1,.136.352V135h-7.648v-.488a.8331.8331,0,0,1,.064-.312.8669.8669,0,0,1,.2-.296l3.672-3.688q.456-.4635.832-.888a6.4858,6.4858,0,0,0,.64-.864,4.1544,4.1544,0,0,0,.408-.872,3.0941,3.0941,0,0,0,.144-.952,2.2476,2.2476,0,0,0-.16-.88,1.7125,1.7125,0,0,0-.44-.632,1.7417,1.7417,0,0,0-.648-.368,2.5015,2.5015,0,0,0-.808-.128,2.45,2.45,0,0,0-.808.128,2.1528,2.1528,0,0,0-.656.36,2.0574,2.0574,0,0,0-.472.536,2.1481,2.1481,0,0,0-.272.688.6519.6519,0,0,1-.264.376.7437.7437,0,0,1-.456.048l-.744-.128a4.14,4.14,0,0,1,.432-1.384,3.41,3.41,0,0,1,.816-1.016,3.4535,3.4535,0,0,1,1.128-.616,4.4147,4.4147,0,0,1,2.728,0,3.1573,3.1573,0,0,1,1.096.632,2.8679,2.8679,0,0,1,.728,1,3.27,3.27,0,0,1,.264,1.344,3.6028,3.6028,0,0,1-.192,1.192,4.7709,4.7709,0,0,1-.52,1.04,7.8794,7.8794,0,0,1-.76.968q-.4245.4725-.904.952l-3.024,3.088a5.289,5.289,0,0,1,.648-.136,3.7815,3.7815,0,0,1,.632-.056Z" transform="translate(0 0)"/><rect class="d" y="48" width="343" height="1"/></g></svg>