<?xml version="1.0" encoding="utf-8"?>
<!-- Generator: Adobe Illustrator 25.4.1, SVG Export Plug-In . SVG Version: 6.00 Build 0)  -->
<svg version="1.1" id="Layer_1" xmlns="http://www.w3.org/2000/svg" xmlns:xlink="http://www.w3.org/1999/xlink" x="0px" y="0px"
	 viewBox="0 0 600 454.4" style="enable-background:new 0 0 600 454.4;" xml:space="preserve">
<style type="text/css">
	.st0{display:none;fill:#F15A24;}
	.st1{fill:#FFFFFF;}
</style>
<path class="st0" d="M12.8,0h574.4c7.1,0,12.8,5.7,12.8,12.8v428.8c0,7.1-5.7,12.8-12.8,12.8H12.8c-7.1,0-12.8-5.7-12.8-12.8V12.8
	C0,5.7,5.7,0,12.8,0z"/>
<path class="st1" d="M309.4,146.7v2.1h-9v-2.1h3.3v-9.4c0-0.4,0-0.8,0-1.2l-2.3,1.9c-0.2,0.2-0.5,0.3-0.8,0.2
	c-0.1,0-0.2-0.1-0.3-0.1c-0.1,0-0.1-0.1-0.2-0.2l-0.9-1.2l4.9-4.2h2.3v14.1H309.4z M311.8,147.3c0-0.2,0-0.5,0.1-0.7
	c0.3-0.6,0.9-1,1.6-1c0.2,0,0.5,0,0.7,0.1c0.2,0.1,0.4,0.2,0.5,0.4c0.2,0.2,0.3,0.3,0.4,0.5c0.1,0.2,0.1,0.4,0.1,0.7
	c0,0.2,0,0.5-0.1,0.7c-0.1,0.2-0.2,0.4-0.4,0.5c-0.2,0.2-0.3,0.3-0.5,0.3c-0.2,0.1-0.4,0.1-0.7,0.1c-0.2,0-0.5,0-0.7-0.1
	c-0.2-0.1-0.4-0.2-0.5-0.3c-0.2-0.2-0.3-0.3-0.4-0.5C311.8,147.7,311.8,147.5,311.8,147.3z M322,138.5l-0.6,0.7
	c0.3-0.2,0.7-0.3,1-0.4c0.4-0.1,0.8-0.1,1.2-0.1c0.6,0,1.2,0.1,1.8,0.3c0.6,0.2,1.1,0.5,1.5,0.9c0.5,0.4,0.8,0.9,1.1,1.5
	c0.3,0.7,0.4,1.4,0.4,2.1c0,0.7-0.1,1.5-0.4,2.1c-0.3,0.6-0.7,1.2-1.2,1.7c-0.5,0.5-1.1,0.9-1.8,1.2c-1.5,0.6-3.2,0.6-4.7,0
	c-1.3-0.5-2.4-1.6-2.9-2.9c-0.3-0.7-0.4-1.5-0.4-2.3c0-0.8,0.2-1.6,0.5-2.3c0.4-0.9,0.9-1.7,1.4-2.5l3.9-5.2
	c0.2-0.2,0.4-0.4,0.6-0.5c0.3-0.1,0.6-0.2,0.9-0.2h2.5L322,138.5z M322.6,146.7c0.4,0,0.8-0.1,1.2-0.2c0.4-0.1,0.7-0.4,1-0.6
	c0.3-0.3,0.5-0.6,0.6-0.9c0.2-0.4,0.2-0.8,0.2-1.2c0-0.4-0.1-0.8-0.2-1.2c-0.3-0.7-0.8-1.3-1.5-1.5c-0.4-0.1-0.8-0.2-1.2-0.2
	c-0.4,0-0.8,0.1-1.2,0.2c-0.3,0.1-0.7,0.4-0.9,0.6c-0.3,0.3-0.5,0.6-0.6,0.9c-0.1,0.4-0.2,0.8-0.2,1.2c0,0.4,0.1,0.8,0.2,1.2
	c0.1,0.3,0.3,0.7,0.5,0.9c0.3,0.3,0.6,0.5,0.9,0.6C321.8,146.7,322.2,146.7,322.6,146.7L322.6,146.7z M337.1,142.7v-5.3
	c0-0.6,0-1.1,0.1-1.7l-5,7L337.1,142.7z M341.6,142.7v1.6c0,0.1-0.1,0.3-0.1,0.4c-0.1,0.1-0.3,0.2-0.4,0.2h-1.5v4h-2.4v-4h-6.8
	c-0.4,0-0.7-0.2-0.8-0.6l-0.3-1.4l7.7-10.2h2.6v10.1H341.6z"/>
<path class="st1" d="M411.4,142.7v-5.3c0-0.6,0-1.1,0.1-1.7l-5,7L411.4,142.7z M415.9,142.7v1.6c0,0.1,0,0.3-0.1,0.4
	c-0.1,0.1-0.3,0.2-0.4,0.2h-1.5v4h-2.4v-4h-6.8c-0.2,0-0.4-0.1-0.5-0.2c-0.1-0.1-0.2-0.3-0.3-0.4l-0.3-1.4l7.7-10.2h2.6v10.1H415.9z
	 M417.4,147.3c0-0.2,0-0.5,0.1-0.7c0.3-0.6,0.9-1,1.6-1c0.2,0,0.5,0,0.7,0.1c0.2,0.1,0.4,0.2,0.5,0.4c0.2,0.2,0.3,0.3,0.4,0.5
	c0.1,0.2,0.1,0.4,0.1,0.7c0,0.2,0,0.5-0.1,0.7c-0.1,0.2-0.2,0.4-0.4,0.5c-0.2,0.2-0.3,0.3-0.5,0.3c-0.2,0.1-0.4,0.1-0.7,0.1
	c-0.2,0-0.5,0-0.7-0.1c-0.2-0.1-0.4-0.2-0.5-0.3c-0.2-0.2-0.3-0.3-0.4-0.5C417.4,147.7,417.4,147.5,417.4,147.3L417.4,147.3z
	 M426.3,138.5c0.3-0.1,0.7-0.1,1-0.2c0.3,0,0.6-0.1,1-0.1c0.8,0,1.5,0.1,2.3,0.4c0.6,0.2,1.2,0.6,1.6,1.1c0.4,0.4,0.8,1,1,1.6
	c0.2,0.6,0.3,1.3,0.3,1.9c0,0.8-0.1,1.6-0.5,2.4c-0.3,0.7-0.7,1.3-1.3,1.8c-0.6,0.5-1.2,0.9-1.9,1.2c-0.8,0.3-1.6,0.4-2.4,0.4
	c-0.5,0-1-0.1-1.4-0.2c-0.4-0.1-0.9-0.2-1.3-0.4c-0.4-0.2-0.8-0.4-1.1-0.6c-0.3-0.2-0.6-0.5-0.9-0.7l0.9-1.2
	c0.2-0.2,0.4-0.4,0.7-0.4c0.2,0,0.4,0.1,0.6,0.2c0.2,0.1,0.4,0.3,0.7,0.4c0.3,0.2,0.6,0.3,0.9,0.4c0.4,0.1,0.8,0.2,1.2,0.2
	c0.5,0,0.9-0.1,1.3-0.2c0.4-0.2,0.7-0.4,1-0.7c0.3-0.3,0.5-0.7,0.6-1.1c0.1-0.4,0.2-0.9,0.2-1.3c0-0.8-0.2-1.5-0.8-2.1
	c-0.6-0.5-1.4-0.8-2.3-0.8c-0.8,0-1.6,0.2-2.4,0.4l-1.7-0.5l1.3-7.9h8v1.2c0,0.4-0.1,0.7-0.4,1c-0.4,0.3-0.8,0.4-1.3,0.4h-4.4
	L426.3,138.5z M446.3,146.7v2.1h-9v-2.1h3.3v-9.4c0-0.4,0-0.8,0-1.2l-2.3,1.9c-0.2,0.2-0.5,0.3-0.8,0.2c-0.1,0-0.2-0.1-0.3-0.1
	c-0.1,0-0.1-0.1-0.2-0.2l-0.9-1.2l4.9-4.2h2.3v14.1H446.3z"/>
<path class="st1" d="M514.9,138.5l-0.6,0.7c0.3-0.2,0.7-0.3,1-0.4c0.4-0.1,0.8-0.1,1.2-0.1c0.6,0,1.2,0.1,1.8,0.3
	c0.6,0.2,1.1,0.5,1.5,0.9c0.5,0.4,0.8,0.9,1.1,1.5c0.3,0.7,0.4,1.4,0.4,2.1c0,0.7-0.1,1.5-0.4,2.1c-0.3,0.6-0.7,1.2-1.2,1.7
	c-0.5,0.5-1.1,0.9-1.8,1.2c-1.5,0.6-3.2,0.6-4.7,0c-1.3-0.5-2.4-1.6-2.9-2.9c-0.3-0.7-0.4-1.5-0.4-2.3c0-0.8,0.2-1.6,0.5-2.3
	c0.4-0.9,0.9-1.7,1.4-2.5l3.9-5.2c0.2-0.2,0.4-0.4,0.6-0.5c0.3-0.1,0.6-0.2,0.9-0.2h2.5L514.9,138.5z M515.5,146.7
	c0.4,0,0.8-0.1,1.2-0.2c0.4-0.1,0.7-0.4,1-0.6c0.3-0.3,0.5-0.6,0.6-0.9c0.2-0.4,0.2-0.8,0.2-1.2c0-0.4-0.1-0.8-0.2-1.2
	c-0.3-0.7-0.8-1.3-1.5-1.5c-0.4-0.1-0.8-0.2-1.2-0.2c-0.4,0-0.8,0.1-1.2,0.2c-0.3,0.1-0.7,0.4-0.9,0.6c-0.3,0.3-0.5,0.6-0.6,0.9
	c-0.1,0.4-0.2,0.8-0.2,1.2c0,0.4,0.1,0.8,0.2,1.2c0.1,0.3,0.3,0.7,0.5,0.9c0.3,0.3,0.6,0.5,0.9,0.6
	C514.7,146.7,515.1,146.7,515.5,146.7z M523,147.3c0-0.2,0-0.5,0.1-0.7c0.3-0.6,0.9-1,1.6-1c0.2,0,0.5,0,0.7,0.1
	c0.2,0.1,0.4,0.2,0.5,0.4c0.2,0.2,0.3,0.3,0.4,0.5c0.1,0.2,0.1,0.4,0.1,0.7c0,0.2,0,0.5-0.1,0.7c-0.1,0.2-0.2,0.4-0.4,0.5
	c-0.2,0.2-0.3,0.3-0.5,0.3c-0.2,0.1-0.4,0.1-0.7,0.1c-0.2,0-0.5,0-0.7-0.1c-0.2-0.1-0.4-0.2-0.5-0.3c-0.2-0.2-0.3-0.3-0.4-0.5
	C523,147.7,523,147.5,523,147.3z M535.3,142.7v-5.3c0-0.6,0-1.1,0.1-1.7l-5,7L535.3,142.7z M539.8,142.7v1.6c0,0.1-0.1,0.3-0.1,0.4
	c-0.1,0.1-0.3,0.2-0.4,0.2h-1.5v4h-2.4v-4h-6.8c-0.4,0-0.7-0.2-0.8-0.6l-0.3-1.4l7.7-10.2h2.6v10.1H539.8z M544.1,137.5
	c-0.1,0.8,0.2,1.5,0.7,2.1c0.5,0.5,1.3,0.8,2,0.7c0.4,0,0.8-0.1,1.2-0.2c0.3-0.1,0.6-0.3,0.9-0.6c0.2-0.2,0.4-0.5,0.5-0.9
	c0.1-0.3,0.2-0.7,0.2-1.1c0-0.4-0.1-0.8-0.2-1.2c-0.1-0.3-0.3-0.6-0.6-0.9c-0.3-0.2-0.6-0.4-0.9-0.5c-0.4-0.1-0.7-0.2-1.1-0.2
	c-0.4,0-0.8,0.1-1.1,0.2c-0.7,0.3-1.2,0.8-1.4,1.5C544.1,136.7,544,137.1,544.1,137.5L544.1,137.5z M547.7,142.5
	c0.1-0.2,0.2-0.3,0.4-0.5s0.2-0.3,0.3-0.4c-0.4,0.2-0.8,0.4-1.2,0.5c-0.5,0.1-0.9,0.2-1.4,0.2c-0.6,0-1.1-0.1-1.6-0.3
	c-0.5-0.2-1-0.5-1.4-0.9c-0.4-0.4-0.8-0.9-1-1.5c-0.3-0.6-0.4-1.3-0.4-2c0-0.7,0.1-1.4,0.4-2c0.3-0.6,0.6-1.2,1.1-1.7
	c0.5-0.5,1.1-0.9,1.7-1.1c0.7-0.3,1.5-0.4,2.3-0.4c0.8,0,1.5,0.1,2.2,0.4c0.6,0.2,1.2,0.6,1.7,1.1c0.5,0.5,0.8,1.1,1.1,1.7
	c0.3,0.7,0.4,1.4,0.4,2.2c0,0.5,0,1-0.1,1.4c-0.1,0.4-0.2,0.9-0.4,1.3c-0.2,0.4-0.4,0.8-0.6,1.2c-0.2,0.4-0.5,0.8-0.8,1.2l-3.7,5.3
	c-0.2,0.2-0.3,0.4-0.6,0.5c-0.3,0.1-0.6,0.2-0.9,0.2h-2.5L547.7,142.5z"/>
<path class="st1" d="M308.8,277.4c0.3,0,0.5,0.1,0.7,0.3c0.2,0.2,0.3,0.4,0.3,0.7v1.7h-11.1v-0.9c0-0.2,0-0.4,0.1-0.6
	c0.1-0.2,0.2-0.4,0.4-0.6l4.9-4.9c0.4-0.4,0.8-0.8,1.1-1.2c0.3-0.4,0.6-0.7,0.8-1.1c0.2-0.4,0.4-0.7,0.5-1.1
	c0.1-0.4,0.2-0.8,0.2-1.2c0-0.3,0-0.7-0.2-1c-0.1-0.3-0.3-0.5-0.5-0.8c-0.2-0.2-0.5-0.4-0.7-0.4c-0.3-0.1-0.6-0.2-1-0.2
	c-0.3,0-0.6,0-0.9,0.1c-0.3,0.1-0.5,0.2-0.7,0.4c-0.2,0.2-0.4,0.4-0.5,0.6c-0.2,0.2-0.3,0.5-0.3,0.7c-0.1,0.3-0.3,0.5-0.5,0.7
	c-0.3,0.1-0.6,0.1-0.9,0.1l-1.5-0.3c0.1-0.7,0.3-1.4,0.6-2c0.3-0.6,0.7-1.1,1.2-1.5c0.5-0.4,1.1-0.7,1.7-0.9c0.7-0.2,1.3-0.3,2-0.3
	c0.7,0,1.4,0.1,2,0.3c0.6,0.2,1.1,0.5,1.6,0.9c0.4,0.4,0.8,0.9,1,1.5c0.3,0.6,0.4,1.2,0.4,1.9c0,0.6-0.1,1.1-0.3,1.7
	c-0.2,0.5-0.4,1-0.7,1.5c-0.3,0.5-0.6,0.9-1,1.3c-0.4,0.4-0.8,0.9-1.2,1.3l-3.7,3.7c0.3-0.1,0.7-0.2,1-0.2c0.3-0.1,0.7-0.1,1-0.1
	L308.8,277.4z M311.8,278.5c0-0.2,0-0.5,0.1-0.7c0.1-0.2,0.2-0.4,0.4-0.5c0.2-0.2,0.3-0.3,0.5-0.4c0.2-0.1,0.4-0.1,0.7-0.1
	c0.2,0,0.5,0,0.7,0.1c0.2,0.1,0.4,0.2,0.5,0.4c0.2,0.2,0.3,0.3,0.4,0.5c0.1,0.2,0.1,0.4,0.1,0.7c0,0.2,0,0.5-0.1,0.7
	c-0.1,0.2-0.2,0.4-0.4,0.5c-0.2,0.2-0.3,0.3-0.5,0.3c-0.2,0.1-0.4,0.1-0.7,0.1c-0.2,0-0.5,0-0.7-0.1c-0.2-0.1-0.4-0.2-0.5-0.3
	c-0.2-0.2-0.3-0.3-0.4-0.5C311.8,278.9,311.8,278.7,311.8,278.5L311.8,278.5z M328.4,263.8v1.2c0,0.3,0,0.6-0.1,0.9
	c-0.1,0.2-0.1,0.4-0.2,0.5l-6.1,12.6c-0.1,0.3-0.3,0.5-0.5,0.7c-0.3,0.2-0.6,0.3-0.9,0.3h-2l6.3-12.4c0.1-0.3,0.3-0.5,0.4-0.7
	c0.1-0.2,0.3-0.4,0.5-0.6h-7.8c-0.3,0-0.6-0.3-0.6-0.6v-1.9L328.4,263.8z M341.4,263.8v1.2c0,0.3,0,0.6-0.1,0.9
	c-0.1,0.2-0.1,0.4-0.2,0.5l-6.1,12.6c-0.1,0.3-0.3,0.5-0.5,0.7c-0.3,0.2-0.6,0.3-0.9,0.3h-2l6.3-12.4c0.1-0.3,0.3-0.5,0.4-0.7
	c0.1-0.2,0.3-0.4,0.5-0.6h-7.8c-0.3,0-0.6-0.3-0.6-0.6v-1.9L341.4,263.8z"/>
<path class="st1" d="M404.7,268.3c0.1-0.7,0.3-1.4,0.6-2c0.3-0.6,0.7-1.1,1.2-1.5c0.5-0.4,1.1-0.7,1.7-0.9c0.7-0.2,1.3-0.3,2-0.3
	c0.7,0,1.4,0.1,2,0.3c0.6,0.2,1.1,0.5,1.5,0.9c0.4,0.4,0.8,0.8,1,1.3c0.2,0.5,0.4,1.1,0.3,1.6c0,0.5-0.1,0.9-0.2,1.4
	c-0.1,0.4-0.3,0.7-0.5,1c-0.2,0.3-0.5,0.5-0.8,0.7c-0.3,0.2-0.7,0.4-1.1,0.5c0.9,0.2,1.6,0.7,2.2,1.4c0.5,0.7,0.7,1.5,0.7,2.4
	c0,0.7-0.1,1.5-0.4,2.1c-0.3,0.6-0.7,1.1-1.2,1.6c-0.5,0.4-1.1,0.8-1.8,1c-0.7,0.2-1.4,0.3-2.1,0.3c-0.7,0-1.4-0.1-2.1-0.3
	c-0.6-0.2-1.1-0.5-1.6-0.8c-0.5-0.4-0.8-0.8-1.1-1.3c-0.3-0.6-0.6-1.2-0.8-1.8l1.2-0.5c0.3-0.1,0.6-0.2,0.9-0.1
	c0.3,0,0.5,0.2,0.6,0.4c0.1,0.3,0.3,0.5,0.4,0.8c0.2,0.3,0.4,0.5,0.6,0.7c0.5,0.5,1.2,0.7,1.9,0.7c0.4,0,0.8-0.1,1.2-0.2
	c0.3-0.1,0.6-0.3,0.9-0.6c0.2-0.2,0.4-0.5,0.5-0.8c0.1-0.3,0.2-0.6,0.2-0.9c0-0.4,0-0.7-0.1-1.1c-0.1-0.3-0.3-0.6-0.5-0.8
	c-0.3-0.3-0.7-0.4-1.1-0.5c-0.6-0.1-1.3-0.2-2-0.2v-2c0.6,0,1.1-0.1,1.7-0.2c0.4-0.1,0.7-0.3,1.1-0.5c0.3-0.2,0.5-0.5,0.6-0.8
	c0.1-0.3,0.2-0.7,0.2-1c0-0.6-0.2-1.3-0.6-1.7c-0.5-0.4-1.1-0.6-1.7-0.6c-0.3,0-0.6,0-0.9,0.1c-0.3,0.1-0.5,0.2-0.8,0.4
	c-0.2,0.2-0.4,0.4-0.5,0.6c-0.2,0.2-0.3,0.5-0.3,0.7c-0.1,0.3-0.3,0.5-0.5,0.7c-0.3,0.1-0.6,0.1-0.9,0.1L404.7,268.3z M417.4,278.5
	c0-0.2,0-0.5,0.1-0.7c0.1-0.2,0.2-0.4,0.4-0.5c0.2-0.2,0.3-0.3,0.5-0.4c0.2-0.1,0.4-0.1,0.7-0.1c0.2,0,0.5,0,0.7,0.1
	c0.2,0.1,0.4,0.2,0.5,0.4c0.2,0.2,0.3,0.3,0.4,0.5c0.1,0.2,0.1,0.4,0.1,0.7c0,0.2,0,0.5-0.1,0.7c-0.1,0.2-0.2,0.4-0.4,0.5
	c-0.2,0.2-0.3,0.3-0.5,0.3c-0.2,0.1-0.4,0.1-0.7,0.1c-0.2,0-0.5,0-0.7-0.1c-0.2-0.1-0.4-0.2-0.5-0.3c-0.2-0.2-0.3-0.3-0.4-0.5
	C417.4,278.9,417.4,278.7,417.4,278.5L417.4,278.5z M428.3,278c0.4,0,0.8-0.1,1.2-0.2c0.3-0.1,0.6-0.3,0.9-0.5
	c0.2-0.2,0.4-0.5,0.5-0.8c0.1-0.3,0.2-0.7,0.2-1c0.1-0.7-0.2-1.5-0.7-2c-1.2-0.9-2.9-0.9-4.1,0c-0.5,0.5-0.8,1.3-0.7,2
	c0,0.4,0.1,0.7,0.2,1c0.1,0.3,0.3,0.6,0.5,0.8c0.3,0.2,0.5,0.4,0.9,0.5C427.4,278,427.9,278,428.3,278L428.3,278z M428.3,265.7
	c-0.4,0-0.7,0.1-1.1,0.2c-0.3,0.1-0.5,0.3-0.8,0.5c-0.2,0.2-0.3,0.5-0.4,0.7c-0.1,0.3-0.1,0.6-0.1,0.9c0,0.3,0,0.6,0.1,0.9
	c0.1,0.3,0.2,0.6,0.4,0.8c0.2,0.2,0.5,0.4,0.7,0.6c0.7,0.3,1.5,0.3,2.3,0c0.3-0.1,0.5-0.3,0.7-0.6c0.2-0.2,0.3-0.5,0.4-0.8
	c0.1-0.3,0.1-0.6,0.1-0.9c0-0.3,0-0.6-0.1-0.9c-0.2-0.6-0.6-1-1.2-1.2C429,265.8,428.6,265.7,428.3,265.7L428.3,265.7z M431,271.6
	c0.9,0.2,1.6,0.8,2.2,1.5c0.5,0.7,0.7,1.6,0.7,2.4c0,0.7-0.1,1.3-0.4,1.9c-0.3,0.6-0.7,1.1-1.1,1.5c-0.5,0.4-1.1,0.8-1.8,1
	c-0.7,0.2-1.5,0.3-2.3,0.3c-0.8,0-1.6-0.1-2.3-0.3c-0.6-0.2-1.2-0.5-1.8-1c-0.5-0.4-0.9-0.9-1.2-1.5c-0.3-0.6-0.4-1.3-0.4-1.9
	c0-0.9,0.2-1.7,0.7-2.4c0.5-0.7,1.3-1.2,2.2-1.5c-0.7-0.3-1.3-0.8-1.8-1.4c-0.4-0.7-0.6-1.4-0.6-2.2c0-0.6,0.1-1.2,0.4-1.7
	c0.3-0.5,0.6-1,1.1-1.4c0.5-0.4,1-0.7,1.6-0.9c0.7-0.2,1.4-0.3,2.1-0.3c0.7,0,1.4,0.1,2,0.3c0.6,0.2,1.1,0.5,1.6,0.9
	c0.4,0.4,0.8,0.8,1,1.4c0.6,1.3,0.5,2.7-0.2,3.9C432.3,270.8,431.7,271.3,431,271.6L431,271.6z M447,263.8v1.2c0,0.3,0,0.6-0.1,0.9
	c-0.1,0.2-0.1,0.4-0.2,0.5l-6.1,12.6c-0.1,0.3-0.3,0.5-0.5,0.7c-0.3,0.2-0.6,0.3-0.9,0.3h-2l6.3-12.4c0.1-0.3,0.3-0.5,0.4-0.7
	c0.1-0.2,0.3-0.4,0.5-0.6h-7.8c-0.3,0-0.6-0.3-0.6-0.6v-1.9L447,263.8z"/>
<path class="st1" d="M510.3,268.3c0.1-0.7,0.3-1.4,0.6-2c0.3-0.6,0.7-1.1,1.2-1.5c0.5-0.4,1.1-0.7,1.7-0.9c0.7-0.2,1.3-0.3,2-0.3
	c0.7,0,1.4,0.1,2,0.3c0.6,0.2,1.1,0.5,1.5,0.9c0.4,0.4,0.8,0.8,1,1.3c0.2,0.5,0.4,1.1,0.3,1.6c0,0.5-0.1,0.9-0.2,1.4
	c-0.1,0.4-0.3,0.7-0.5,1c-0.2,0.3-0.5,0.5-0.8,0.7c-0.3,0.2-0.7,0.4-1.1,0.5c0.9,0.2,1.6,0.7,2.2,1.4c0.5,0.7,0.7,1.5,0.7,2.4
	c0,0.7-0.1,1.5-0.4,2.1c-0.3,0.6-0.7,1.1-1.2,1.6c-0.5,0.4-1.1,0.8-1.8,1c-0.7,0.2-1.4,0.3-2.1,0.3c-0.7,0-1.4-0.1-2.1-0.3
	c-0.6-0.2-1.1-0.5-1.6-0.8c-0.5-0.4-0.8-0.8-1.1-1.3c-0.3-0.6-0.6-1.2-0.8-1.8l1.2-0.5c0.3-0.1,0.6-0.2,0.9-0.1
	c0.3,0,0.5,0.2,0.6,0.4c0.1,0.3,0.3,0.5,0.4,0.8c0.2,0.3,0.4,0.5,0.6,0.7c0.5,0.5,1.2,0.7,1.9,0.7c0.4,0,0.8-0.1,1.2-0.2
	c0.3-0.1,0.6-0.3,0.9-0.6c0.2-0.2,0.4-0.5,0.5-0.8c0.1-0.3,0.2-0.6,0.2-0.9c0-0.4,0-0.7-0.1-1.1c-0.1-0.3-0.3-0.6-0.5-0.8
	c-0.3-0.3-0.7-0.4-1.1-0.5c-0.6-0.1-1.3-0.2-2-0.2v-2c0.6,0,1.1-0.1,1.7-0.2c0.4-0.1,0.7-0.3,1.1-0.5c0.3-0.2,0.5-0.5,0.6-0.8
	c0.1-0.3,0.2-0.7,0.2-1c0-0.6-0.2-1.3-0.6-1.7c-0.5-0.4-1.1-0.6-1.7-0.6c-0.3,0-0.6,0-0.9,0.1c-0.3,0.1-0.5,0.2-0.8,0.4
	c-0.2,0.2-0.4,0.4-0.5,0.6c-0.2,0.2-0.3,0.5-0.3,0.7c-0.1,0.3-0.3,0.5-0.5,0.7c-0.3,0.1-0.6,0.1-0.9,0.1L510.3,268.3z M523,278.5
	c0-0.2,0-0.5,0.1-0.7c0.1-0.2,0.2-0.4,0.4-0.5c0.2-0.2,0.3-0.3,0.5-0.4c0.2-0.1,0.4-0.1,0.7-0.1c0.2,0,0.5,0,0.7,0.1
	c0.2,0.1,0.4,0.2,0.5,0.4c0.2,0.2,0.3,0.3,0.4,0.5c0.1,0.2,0.1,0.4,0.1,0.7c0,0.2,0,0.5-0.1,0.7c-0.1,0.2-0.2,0.4-0.4,0.5
	c-0.2,0.2-0.3,0.3-0.5,0.3c-0.2,0.1-0.4,0.1-0.7,0.1c-0.2,0-0.5,0-0.7-0.1c-0.2-0.1-0.4-0.2-0.5-0.3c-0.2-0.2-0.3-0.3-0.4-0.5
	C523,278.9,523,278.7,523,278.5L523,278.5z M535.3,273.9v-5.3c0-0.6,0-1.1,0.1-1.7l-5,7H535.3z M539.8,273.9v1.6
	c0,0.1-0.1,0.3-0.1,0.4c-0.1,0.1-0.3,0.2-0.4,0.2h-1.5v4h-2.4v-4h-6.8c-0.4,0-0.7-0.2-0.8-0.6l-0.3-1.4l7.7-10.2h2.6v10.1
	L539.8,273.9z M546.2,269.7l-0.6,0.7c0.3-0.2,0.7-0.3,1-0.4c0.4-0.1,0.8-0.1,1.2-0.1c0.6,0,1.2,0.1,1.8,0.3c0.6,0.2,1.1,0.5,1.5,0.9
	c0.5,0.4,0.8,0.9,1.1,1.5c0.3,0.7,0.4,1.4,0.4,2.1c0,0.7-0.1,1.5-0.4,2.1c-0.3,0.6-0.7,1.2-1.2,1.7c-0.5,0.5-1.1,0.9-1.8,1.2
	c-1.5,0.6-3.2,0.6-4.7,0c-1.3-0.5-2.4-1.6-2.9-2.9c-0.3-0.7-0.4-1.5-0.4-2.3c0-0.8,0.2-1.6,0.5-2.3c0.4-0.9,0.9-1.7,1.4-2.5l3.9-5.2
	c0.2-0.2,0.4-0.4,0.6-0.5c0.3-0.1,0.6-0.2,0.9-0.2h2.5L546.2,269.7z M546.8,277.9c0.4,0,0.8-0.1,1.2-0.2c0.4-0.1,0.7-0.4,1-0.6
	c0.3-0.3,0.5-0.6,0.6-0.9c0.2-0.4,0.2-0.8,0.2-1.2c0-0.4-0.1-0.8-0.2-1.2c-0.3-0.7-0.8-1.3-1.5-1.5c-0.4-0.1-0.8-0.2-1.2-0.2
	c-0.4,0-0.8,0.1-1.2,0.2c-0.3,0.1-0.7,0.4-0.9,0.6c-0.3,0.3-0.5,0.6-0.6,0.9c-0.1,0.4-0.2,0.8-0.2,1.2c0,0.4,0.1,0.8,0.2,1.2
	c0.1,0.3,0.3,0.7,0.5,0.9c0.3,0.3,0.6,0.5,0.9,0.6C546,277.9,546.4,277.9,546.8,277.9L546.8,277.9z"/>
<path class="st1" d="M308.8,408.6c0.3,0,0.5,0.1,0.7,0.3c0.2,0.2,0.3,0.4,0.3,0.7v1.7h-11.1v-0.9c0-0.2,0-0.4,0.1-0.6
	c0.1-0.2,0.2-0.4,0.4-0.6l4.9-4.9c0.4-0.4,0.8-0.8,1.1-1.2c0.3-0.4,0.6-0.7,0.8-1.1c0.2-0.4,0.4-0.7,0.5-1.1
	c0.1-0.4,0.2-0.8,0.2-1.2c0-0.3,0-0.7-0.2-1c-0.1-0.3-0.3-0.5-0.5-0.8c-0.2-0.2-0.5-0.4-0.7-0.4c-0.3-0.1-0.6-0.2-1-0.2
	c-0.3,0-0.6,0-0.9,0.1c-0.3,0.1-0.5,0.2-0.7,0.4c-0.2,0.2-0.4,0.4-0.5,0.6c-0.2,0.2-0.3,0.5-0.3,0.7c-0.1,0.3-0.3,0.5-0.5,0.7
	c-0.3,0.1-0.6,0.1-0.9,0.1l-1.5-0.3c0.1-0.7,0.3-1.4,0.6-2c0.3-0.6,0.7-1.1,1.2-1.5c0.5-0.4,1.1-0.7,1.7-0.9c0.7-0.2,1.3-0.3,2-0.3
	c0.7,0,1.4,0.1,2,0.3c0.6,0.2,1.1,0.5,1.6,0.9c0.4,0.4,0.8,0.9,1,1.5c0.3,0.6,0.4,1.2,0.4,1.9c0,0.6-0.1,1.1-0.3,1.7
	c-0.2,0.5-0.4,1-0.7,1.5c-0.3,0.5-0.6,0.9-1,1.3c-0.4,0.4-0.8,0.9-1.2,1.3l-3.7,3.7c0.3-0.1,0.7-0.2,1-0.2c0.3-0.1,0.7-0.1,1-0.1
	L308.8,408.6z M311.8,409.7c0-0.2,0-0.5,0.1-0.7c0.1-0.2,0.2-0.4,0.4-0.5c0.2-0.2,0.3-0.3,0.5-0.4c0.2-0.1,0.4-0.1,0.7-0.1
	c0.2,0,0.5,0,0.7,0.1c0.2,0.1,0.4,0.2,0.5,0.4c0.2,0.2,0.3,0.3,0.4,0.5c0.1,0.2,0.1,0.4,0.1,0.7c0,0.2,0,0.5-0.1,0.7
	c-0.1,0.2-0.2,0.4-0.4,0.5c-0.2,0.2-0.3,0.3-0.5,0.3c-0.2,0.1-0.4,0.1-0.7,0.1c-0.2,0-0.5,0-0.7-0.1c-0.2-0.1-0.4-0.2-0.5-0.3
	c-0.2-0.2-0.3-0.3-0.4-0.5C311.8,410.1,311.8,409.9,311.8,409.7L311.8,409.7z M320.7,400.9c0.3-0.1,0.7-0.1,1-0.2
	c0.3,0,0.6-0.1,1-0.1c0.8,0,1.5,0.1,2.3,0.4c0.6,0.2,1.2,0.6,1.6,1.1c0.4,0.4,0.8,1,1,1.6c0.2,0.6,0.3,1.3,0.3,1.9
	c0,0.8-0.1,1.6-0.5,2.4c-0.3,0.7-0.7,1.3-1.3,1.8c-0.6,0.5-1.2,0.9-1.9,1.2c-0.8,0.3-1.6,0.4-2.4,0.4c-0.5,0-1-0.1-1.4-0.2
	c-0.4-0.1-0.9-0.2-1.3-0.4c-0.4-0.2-0.8-0.4-1.1-0.6c-0.3-0.2-0.6-0.5-0.9-0.7l0.9-1.2c0.2-0.2,0.4-0.4,0.7-0.4
	c0.2,0,0.4,0.1,0.6,0.2c0.2,0.1,0.4,0.2,0.7,0.4c0.3,0.2,0.6,0.3,0.9,0.4c0.4,0.1,0.8,0.2,1.2,0.2c0.5,0,0.9-0.1,1.3-0.2
	c0.4-0.2,0.7-0.4,1-0.7c0.3-0.3,0.5-0.7,0.6-1.1c0.1-0.4,0.2-0.9,0.2-1.3c0-0.8-0.2-1.5-0.8-2.1c-0.6-0.5-1.4-0.8-2.3-0.8
	c-0.8,0-1.6,0.2-2.4,0.4l-1.7-0.5l1.3-7.9h8v1.2c0,0.4-0.1,0.7-0.4,1c-0.4,0.3-0.8,0.4-1.3,0.4h-4.4L320.7,400.9z M341.4,395v1.2
	c0,0.3,0,0.6-0.1,0.9c-0.1,0.2-0.1,0.4-0.2,0.5l-6.1,12.6c-0.1,0.3-0.3,0.5-0.5,0.7c-0.3,0.2-0.6,0.3-0.9,0.3h-2l6.3-12.4
	c0.1-0.3,0.3-0.5,0.4-0.7c0.1-0.2,0.3-0.4,0.5-0.6h-7.8c-0.3,0-0.6-0.3-0.6-0.6V395L341.4,395z"/>
<path class="st1" d="M415,409.1v2.1h-9v-2.1h3.3v-9.4c0-0.4,0-0.8,0-1.2l-2.3,1.9c-0.1,0.1-0.3,0.2-0.4,0.2c-0.1,0-0.2,0-0.4,0
	c-0.1,0-0.2-0.1-0.3-0.1c-0.1,0-0.1-0.1-0.2-0.2l-0.9-1.2l4.9-4.2h2.3v14.1H415z M417.4,409.7c0-0.2,0-0.5,0.1-0.7
	c0.1-0.2,0.2-0.4,0.4-0.5c0.2-0.2,0.3-0.3,0.5-0.4c0.2-0.1,0.4-0.1,0.7-0.1c0.2,0,0.5,0,0.7,0.1c0.2,0.1,0.4,0.2,0.5,0.4
	c0.2,0.2,0.3,0.3,0.4,0.5c0.1,0.2,0.1,0.4,0.1,0.7c0,0.2,0,0.5-0.1,0.7c-0.1,0.2-0.2,0.4-0.4,0.5c-0.2,0.2-0.3,0.3-0.5,0.3
	c-0.2,0.1-0.4,0.1-0.7,0.1c-0.2,0-0.5,0-0.7-0.1c-0.2-0.1-0.4-0.2-0.5-0.3c-0.2-0.2-0.3-0.3-0.4-0.5
	C417.4,410.1,417.4,409.9,417.4,409.7L417.4,409.7z M429.7,405.1v-5.3c0-0.6,0-1.1,0.1-1.7l-5,7H429.7z M434.2,405.1v1.6
	c0,0.1-0.1,0.3-0.1,0.4c-0.1,0.1-0.3,0.2-0.4,0.2h-1.5v4h-2.4v-4h-6.8c-0.4,0-0.7-0.2-0.8-0.6l-0.3-1.4l7.7-10.2h2.6v10.1
	L434.2,405.1z M442.7,405.1v-5.3c0-0.6,0-1.1,0.1-1.7l-5,7H442.7z M447.2,405.1v1.6c0,0.1-0.1,0.3-0.1,0.4c-0.1,0.1-0.3,0.2-0.4,0.2
	h-1.5v4h-2.4v-4h-6.8c-0.4,0-0.7-0.2-0.8-0.6l-0.3-1.4l7.7-10.2h2.6v10.1L447.2,405.1z"/>
<path class="st1" d="M520,408.6c0.3,0,0.5,0.1,0.7,0.3c0.2,0.2,0.3,0.4,0.3,0.7v1.7h-11.1v-0.9c0-0.2,0-0.4,0.1-0.6
	c0.1-0.2,0.2-0.4,0.4-0.6l4.9-4.9c0.4-0.4,0.8-0.8,1.1-1.2c0.3-0.4,0.6-0.7,0.8-1.1c0.2-0.4,0.4-0.7,0.5-1.1
	c0.1-0.4,0.2-0.8,0.2-1.2c0-0.3,0-0.7-0.2-1c-0.1-0.3-0.3-0.5-0.5-0.8c-0.2-0.2-0.5-0.4-0.7-0.4c-0.3-0.1-0.6-0.2-1-0.2
	c-0.3,0-0.6,0-0.9,0.1c-0.3,0.1-0.5,0.2-0.7,0.4c-0.2,0.2-0.4,0.4-0.5,0.6c-0.2,0.2-0.3,0.5-0.3,0.7c-0.1,0.3-0.3,0.5-0.5,0.7
	c-0.3,0.1-0.6,0.1-0.9,0.1l-1.5-0.3c0.1-0.7,0.3-1.4,0.6-2c0.3-0.6,0.7-1.1,1.2-1.5c0.5-0.4,1.1-0.7,1.7-0.9c0.7-0.2,1.3-0.3,2-0.3
	c0.7,0,1.4,0.1,2,0.3c0.6,0.2,1.1,0.5,1.6,0.9c0.4,0.4,0.8,0.9,1,1.5c0.3,0.6,0.4,1.2,0.4,1.9c0,0.6-0.1,1.1-0.3,1.7
	c-0.2,0.5-0.4,1-0.7,1.5c-0.3,0.5-0.6,0.9-1,1.3c-0.4,0.4-0.8,0.9-1.2,1.3l-3.7,3.7c0.3-0.1,0.7-0.2,1-0.2c0.3-0.1,0.7-0.1,1-0.1
	L520,408.6z M523,409.7c0-0.2,0-0.5,0.1-0.7c0.1-0.2,0.2-0.4,0.4-0.5c0.2-0.2,0.3-0.3,0.5-0.4c0.2-0.1,0.4-0.1,0.7-0.1
	c0.2,0,0.5,0,0.7,0.1c0.2,0.1,0.4,0.2,0.5,0.4c0.2,0.2,0.3,0.3,0.4,0.5c0.1,0.2,0.1,0.4,0.1,0.7c0,0.2,0,0.5-0.1,0.7
	c-0.1,0.2-0.2,0.4-0.4,0.5c-0.2,0.2-0.3,0.3-0.5,0.3c-0.2,0.1-0.4,0.1-0.7,0.1c-0.2,0-0.5,0-0.7-0.1c-0.2-0.1-0.4-0.2-0.5-0.3
	c-0.2-0.2-0.3-0.3-0.4-0.5C523,410.1,523,409.9,523,409.7L523,409.7z M531.1,399.9c-0.1,0.8,0.2,1.5,0.7,2.1c0.5,0.5,1.3,0.8,2,0.7
	c0.4,0,0.8-0.1,1.2-0.2c0.3-0.1,0.6-0.3,0.9-0.6c0.2-0.2,0.4-0.5,0.5-0.9c0.1-0.3,0.2-0.7,0.2-1.1c0-0.4-0.1-0.8-0.2-1.2
	c-0.1-0.3-0.3-0.6-0.6-0.9c-0.3-0.2-0.6-0.4-0.9-0.5c-0.4-0.1-0.7-0.2-1.1-0.2c-0.4,0-0.8,0.1-1.1,0.2c-0.7,0.3-1.2,0.8-1.4,1.5
	C531.1,399.1,531.1,399.5,531.1,399.9L531.1,399.9z M534.7,404.9c0.1-0.2,0.2-0.3,0.4-0.5s0.2-0.3,0.3-0.4c-0.4,0.2-0.8,0.4-1.2,0.5
	c-0.5,0.1-0.9,0.2-1.4,0.2c-0.6,0-1.1-0.1-1.6-0.3c-0.5-0.2-1-0.5-1.4-0.9c-0.4-0.4-0.8-0.9-1-1.5c-0.3-0.6-0.4-1.3-0.4-2
	c0-0.7,0.1-1.4,0.4-2c0.3-0.6,0.6-1.2,1.1-1.7c0.5-0.5,1.1-0.9,1.7-1.1c0.7-0.3,1.5-0.4,2.3-0.4c0.8,0,1.5,0.1,2.2,0.4
	c0.6,0.2,1.2,0.6,1.7,1.1c0.5,0.5,0.8,1.1,1.1,1.7c0.3,0.7,0.4,1.4,0.4,2.2c0,0.5,0,1-0.1,1.4c-0.1,0.4-0.2,0.9-0.4,1.3
	c-0.2,0.4-0.4,0.8-0.6,1.2c-0.2,0.4-0.5,0.8-0.8,1.2l-3.7,5.3c-0.2,0.2-0.3,0.4-0.6,0.5c-0.3,0.1-0.6,0.2-0.9,0.2h-2.5L534.7,404.9z
	 M544.9,400.9c0.3-0.1,0.7-0.1,1-0.2c0.3,0,0.6-0.1,1-0.1c0.8,0,1.5,0.1,2.3,0.4c0.6,0.2,1.2,0.6,1.6,1.1c0.4,0.4,0.8,1,1,1.6
	c0.2,0.6,0.3,1.3,0.3,1.9c0,0.8-0.1,1.6-0.5,2.4c-0.3,0.7-0.7,1.3-1.3,1.8c-0.6,0.5-1.2,0.9-1.9,1.2c-0.8,0.3-1.6,0.4-2.4,0.4
	c-0.5,0-1-0.1-1.4-0.2c-0.4-0.1-0.9-0.2-1.3-0.4c-0.4-0.2-0.8-0.4-1.1-0.6c-0.3-0.2-0.6-0.5-0.9-0.7l0.9-1.2
	c0.2-0.2,0.4-0.4,0.7-0.4c0.2,0,0.4,0.1,0.6,0.2c0.2,0.1,0.4,0.2,0.7,0.4c0.3,0.2,0.6,0.3,0.9,0.4c0.4,0.1,0.8,0.2,1.2,0.2
	c0.5,0,0.9-0.1,1.3-0.2c0.4-0.2,0.7-0.4,1-0.7c0.3-0.3,0.5-0.7,0.6-1.1c0.1-0.4,0.2-0.9,0.2-1.3c0-0.8-0.2-1.5-0.8-2.1
	c-0.6-0.5-1.4-0.8-2.3-0.8c-0.8,0-1.6,0.2-2.4,0.4l-1.7-0.5l1.3-7.9h8v1.2c0,0.4-0.1,0.7-0.4,1c-0.4,0.3-0.8,0.4-1.3,0.4h-4.4
	L544.9,400.9z"/>
</svg>
